G04 EAGLE Gerber RS-274X export*
G75*
%MOMM*%
%FSLAX34Y34*%
%LPD*%
%INBottom Copper*%
%IPPOS*%
%AMOC8*
5,1,8,0,0,1.08239X$1,22.5*%
G01*
%ADD10P,1.319650X8X22.500000*%
%ADD11P,1.319650X8X202.500000*%
%ADD12R,1.050000X1.050000*%
%ADD13C,1.050000*%
%ADD14P,1.319650X8X112.500000*%
%ADD15C,1.524000*%
%ADD16C,2.184400*%
%ADD17P,1.319650X8X292.500000*%
%ADD18C,0.152400*%

G36*
X745956Y3306D02*
X745956Y3306D01*
X745975Y3304D01*
X746077Y3326D01*
X746179Y3342D01*
X746196Y3352D01*
X746216Y3356D01*
X746305Y3409D01*
X746396Y3458D01*
X746410Y3472D01*
X746427Y3482D01*
X746494Y3561D01*
X746566Y3636D01*
X746574Y3654D01*
X746587Y3669D01*
X746626Y3765D01*
X746669Y3859D01*
X746671Y3879D01*
X746679Y3897D01*
X746697Y4064D01*
X746697Y495936D01*
X746694Y495956D01*
X746696Y495975D01*
X746674Y496077D01*
X746658Y496179D01*
X746648Y496196D01*
X746644Y496216D01*
X746591Y496305D01*
X746542Y496396D01*
X746528Y496410D01*
X746518Y496427D01*
X746439Y496494D01*
X746364Y496566D01*
X746346Y496574D01*
X746331Y496587D01*
X746235Y496626D01*
X746141Y496669D01*
X746121Y496671D01*
X746103Y496679D01*
X745936Y496697D01*
X4064Y496697D01*
X4044Y496694D01*
X4025Y496696D01*
X3923Y496674D01*
X3821Y496658D01*
X3804Y496648D01*
X3784Y496644D01*
X3695Y496591D01*
X3604Y496542D01*
X3590Y496528D01*
X3573Y496518D01*
X3506Y496439D01*
X3434Y496364D01*
X3426Y496346D01*
X3413Y496331D01*
X3374Y496235D01*
X3331Y496141D01*
X3329Y496121D01*
X3321Y496103D01*
X3303Y495936D01*
X3303Y4064D01*
X3306Y4044D01*
X3304Y4025D01*
X3326Y3923D01*
X3342Y3821D01*
X3352Y3804D01*
X3356Y3784D01*
X3409Y3695D01*
X3458Y3604D01*
X3472Y3590D01*
X3482Y3573D01*
X3561Y3506D01*
X3636Y3434D01*
X3654Y3426D01*
X3669Y3413D01*
X3765Y3374D01*
X3859Y3331D01*
X3879Y3329D01*
X3897Y3321D01*
X4064Y3303D01*
X745936Y3303D01*
X745956Y3306D01*
G37*
%LPC*%
G36*
X159158Y87967D02*
X159158Y87967D01*
X157744Y89381D01*
X129381Y117744D01*
X127967Y119158D01*
X127967Y200842D01*
X143158Y216033D01*
X190842Y216033D01*
X196462Y210413D01*
X196478Y210401D01*
X196490Y210386D01*
X196578Y210330D01*
X196661Y210269D01*
X196680Y210264D01*
X196697Y210253D01*
X196798Y210228D01*
X196897Y210197D01*
X196916Y210198D01*
X196936Y210193D01*
X197039Y210201D01*
X197142Y210203D01*
X197161Y210210D01*
X197181Y210212D01*
X197276Y210252D01*
X197373Y210288D01*
X197389Y210300D01*
X197407Y210308D01*
X197538Y210413D01*
X249044Y261919D01*
X249097Y261993D01*
X249157Y262062D01*
X249169Y262093D01*
X249188Y262119D01*
X249215Y262206D01*
X249249Y262291D01*
X249253Y262332D01*
X249260Y262354D01*
X249259Y262386D01*
X249267Y262457D01*
X249267Y360790D01*
X249248Y360905D01*
X249231Y361021D01*
X249229Y361027D01*
X249228Y361033D01*
X249173Y361135D01*
X249120Y361240D01*
X249115Y361245D01*
X249112Y361250D01*
X249028Y361330D01*
X248944Y361413D01*
X248938Y361416D01*
X248934Y361420D01*
X248917Y361427D01*
X248797Y361493D01*
X246264Y362543D01*
X243763Y365044D01*
X242409Y368312D01*
X242409Y387088D01*
X243763Y390356D01*
X243905Y390498D01*
X243973Y390593D01*
X244042Y390687D01*
X244044Y390693D01*
X244048Y390698D01*
X244082Y390809D01*
X244119Y390920D01*
X244119Y390927D01*
X244120Y390933D01*
X244117Y391049D01*
X244116Y391166D01*
X244114Y391174D01*
X244114Y391179D01*
X244108Y391196D01*
X244070Y391328D01*
X242709Y394612D01*
X242709Y413388D01*
X244063Y416656D01*
X246564Y419157D01*
X249832Y420511D01*
X253368Y420511D01*
X256636Y419157D01*
X259137Y416656D01*
X260491Y413388D01*
X260491Y394612D01*
X259137Y391344D01*
X258995Y391202D01*
X258927Y391107D01*
X258858Y391013D01*
X258856Y391007D01*
X258852Y391002D01*
X258817Y390889D01*
X258781Y390780D01*
X258781Y390773D01*
X258780Y390767D01*
X258783Y390651D01*
X258784Y390534D01*
X258786Y390526D01*
X258786Y390521D01*
X258792Y390504D01*
X258830Y390372D01*
X260191Y387088D01*
X260191Y368312D01*
X258837Y365044D01*
X256336Y362543D01*
X253803Y361493D01*
X253703Y361432D01*
X253603Y361372D01*
X253599Y361367D01*
X253594Y361364D01*
X253519Y361274D01*
X253443Y361185D01*
X253441Y361179D01*
X253437Y361174D01*
X253395Y361066D01*
X253351Y360957D01*
X253350Y360949D01*
X253349Y360945D01*
X253348Y360926D01*
X253333Y360790D01*
X253333Y260458D01*
X200413Y207538D01*
X200401Y207522D01*
X200386Y207510D01*
X200330Y207422D01*
X200269Y207339D01*
X200264Y207320D01*
X200253Y207303D01*
X200228Y207202D01*
X200197Y207103D01*
X200198Y207084D01*
X200193Y207064D01*
X200201Y206961D01*
X200203Y206858D01*
X200210Y206839D01*
X200212Y206819D01*
X200252Y206724D01*
X200288Y206627D01*
X200300Y206611D01*
X200308Y206593D01*
X200413Y206462D01*
X206033Y200842D01*
X206033Y162864D01*
X206052Y162749D01*
X206069Y162633D01*
X206071Y162627D01*
X206072Y162621D01*
X206127Y162519D01*
X206180Y162414D01*
X206185Y162409D01*
X206188Y162404D01*
X206272Y162324D01*
X206356Y162242D01*
X206362Y162238D01*
X206366Y162234D01*
X206383Y162227D01*
X206503Y162161D01*
X210907Y160336D01*
X214336Y156907D01*
X216193Y152425D01*
X216193Y147575D01*
X214336Y143093D01*
X210907Y139664D01*
X206425Y137807D01*
X201575Y137807D01*
X197093Y139664D01*
X193664Y143093D01*
X191807Y147575D01*
X191807Y152425D01*
X193664Y156907D01*
X197093Y160336D01*
X201497Y162161D01*
X201597Y162222D01*
X201697Y162282D01*
X201701Y162287D01*
X201706Y162290D01*
X201781Y162380D01*
X201857Y162469D01*
X201859Y162475D01*
X201863Y162480D01*
X201905Y162588D01*
X201949Y162697D01*
X201950Y162705D01*
X201951Y162709D01*
X201952Y162728D01*
X201967Y162864D01*
X201967Y198843D01*
X201953Y198933D01*
X201945Y199024D01*
X201933Y199053D01*
X201928Y199085D01*
X201885Y199166D01*
X201849Y199250D01*
X201823Y199282D01*
X201812Y199303D01*
X201789Y199325D01*
X201744Y199381D01*
X189381Y211744D01*
X189307Y211797D01*
X189238Y211857D01*
X189207Y211869D01*
X189181Y211888D01*
X189094Y211915D01*
X189009Y211949D01*
X188968Y211953D01*
X188946Y211960D01*
X188914Y211959D01*
X188843Y211967D01*
X145157Y211967D01*
X145067Y211953D01*
X144976Y211945D01*
X144947Y211933D01*
X144915Y211928D01*
X144834Y211885D01*
X144750Y211849D01*
X144718Y211823D01*
X144697Y211812D01*
X144675Y211789D01*
X144619Y211744D01*
X132256Y199381D01*
X132203Y199307D01*
X132143Y199238D01*
X132131Y199207D01*
X132112Y199181D01*
X132085Y199094D01*
X132051Y199009D01*
X132047Y198968D01*
X132040Y198946D01*
X132041Y198914D01*
X132033Y198843D01*
X132033Y121157D01*
X132047Y121067D01*
X132055Y120976D01*
X132067Y120947D01*
X132072Y120915D01*
X132115Y120834D01*
X132151Y120750D01*
X132177Y120718D01*
X132188Y120697D01*
X132211Y120675D01*
X132256Y120619D01*
X160619Y92256D01*
X160693Y92203D01*
X160762Y92143D01*
X160793Y92131D01*
X160819Y92112D01*
X160906Y92085D01*
X160991Y92051D01*
X161032Y92047D01*
X161054Y92040D01*
X161086Y92041D01*
X161157Y92033D01*
X353343Y92033D01*
X353433Y92047D01*
X353524Y92055D01*
X353553Y92067D01*
X353585Y92072D01*
X353666Y92115D01*
X353750Y92151D01*
X353782Y92177D01*
X353803Y92188D01*
X353825Y92211D01*
X353881Y92256D01*
X360908Y99282D01*
X360976Y99378D01*
X361046Y99471D01*
X361047Y99477D01*
X361051Y99482D01*
X361086Y99594D01*
X361122Y99705D01*
X361122Y99711D01*
X361124Y99717D01*
X361120Y99834D01*
X361119Y99951D01*
X361117Y99958D01*
X361117Y99963D01*
X361111Y99980D01*
X361073Y100112D01*
X360579Y101303D01*
X360579Y103897D01*
X361572Y106294D01*
X363406Y108128D01*
X365803Y109121D01*
X368397Y109121D01*
X370794Y108128D01*
X372628Y106294D01*
X373121Y105103D01*
X373183Y105003D01*
X373243Y104903D01*
X373248Y104899D01*
X373251Y104894D01*
X373342Y104819D01*
X373430Y104743D01*
X373436Y104741D01*
X373440Y104737D01*
X373549Y104695D01*
X373658Y104651D01*
X373665Y104650D01*
X373670Y104649D01*
X373688Y104648D01*
X373825Y104633D01*
X621443Y104633D01*
X621533Y104647D01*
X621624Y104655D01*
X621653Y104667D01*
X621685Y104672D01*
X621766Y104715D01*
X621850Y104751D01*
X621882Y104777D01*
X621903Y104788D01*
X621925Y104811D01*
X621981Y104856D01*
X627744Y110619D01*
X627797Y110693D01*
X627857Y110762D01*
X627869Y110793D01*
X627888Y110819D01*
X627915Y110906D01*
X627949Y110991D01*
X627953Y111032D01*
X627960Y111054D01*
X627959Y111086D01*
X627967Y111157D01*
X627967Y138843D01*
X627953Y138933D01*
X627945Y139024D01*
X627933Y139053D01*
X627928Y139085D01*
X627885Y139166D01*
X627849Y139250D01*
X627823Y139282D01*
X627812Y139303D01*
X627789Y139325D01*
X627744Y139381D01*
X619381Y147744D01*
X619307Y147797D01*
X619238Y147857D01*
X619207Y147869D01*
X619181Y147888D01*
X619094Y147915D01*
X619009Y147949D01*
X618968Y147953D01*
X618946Y147960D01*
X618914Y147959D01*
X618843Y147967D01*
X559158Y147967D01*
X534267Y172858D01*
X534267Y232072D01*
X534264Y232092D01*
X534266Y232111D01*
X534244Y232213D01*
X534228Y232315D01*
X534218Y232332D01*
X534214Y232352D01*
X534161Y232441D01*
X534112Y232532D01*
X534098Y232546D01*
X534088Y232563D01*
X534009Y232630D01*
X533934Y232702D01*
X533916Y232710D01*
X533901Y232723D01*
X533805Y232762D01*
X533711Y232805D01*
X533691Y232807D01*
X533673Y232815D01*
X533506Y232833D01*
X533249Y232833D01*
X528933Y237149D01*
X528933Y243251D01*
X533249Y247567D01*
X533506Y247567D01*
X533526Y247570D01*
X533545Y247568D01*
X533647Y247590D01*
X533749Y247606D01*
X533766Y247616D01*
X533786Y247620D01*
X533875Y247673D01*
X533966Y247722D01*
X533980Y247736D01*
X533997Y247746D01*
X534064Y247825D01*
X534136Y247900D01*
X534144Y247918D01*
X534157Y247933D01*
X534196Y248029D01*
X534239Y248123D01*
X534241Y248143D01*
X534249Y248161D01*
X534267Y248328D01*
X534267Y302543D01*
X534253Y302633D01*
X534245Y302724D01*
X534233Y302753D01*
X534228Y302785D01*
X534185Y302866D01*
X534149Y302950D01*
X534123Y302982D01*
X534112Y303003D01*
X534089Y303025D01*
X534044Y303081D01*
X509381Y327744D01*
X509307Y327797D01*
X509238Y327857D01*
X509207Y327869D01*
X509181Y327888D01*
X509094Y327915D01*
X509009Y327949D01*
X508968Y327953D01*
X508946Y327960D01*
X508914Y327959D01*
X508843Y327967D01*
X432557Y327967D01*
X432467Y327953D01*
X432376Y327945D01*
X432347Y327933D01*
X432315Y327928D01*
X432234Y327885D01*
X432150Y327849D01*
X432118Y327823D01*
X432097Y327812D01*
X432075Y327789D01*
X432019Y327744D01*
X373092Y268818D01*
X373024Y268723D01*
X372954Y268629D01*
X372952Y268623D01*
X372949Y268618D01*
X372915Y268507D01*
X372878Y268395D01*
X372878Y268389D01*
X372876Y268383D01*
X372880Y268266D01*
X372881Y268149D01*
X372883Y268142D01*
X372883Y268137D01*
X372889Y268119D01*
X372927Y267988D01*
X373421Y266797D01*
X373421Y264203D01*
X372428Y261806D01*
X370594Y259972D01*
X368197Y258979D01*
X365603Y258979D01*
X363206Y259972D01*
X361372Y261806D01*
X360379Y264203D01*
X360379Y266797D01*
X361372Y269194D01*
X363206Y271028D01*
X365603Y272021D01*
X368197Y272021D01*
X369388Y271527D01*
X369502Y271501D01*
X369615Y271472D01*
X369621Y271473D01*
X369628Y271471D01*
X369744Y271482D01*
X369860Y271491D01*
X369866Y271494D01*
X369872Y271494D01*
X369980Y271542D01*
X370087Y271588D01*
X370092Y271592D01*
X370097Y271594D01*
X370111Y271607D01*
X370218Y271692D01*
X429144Y330619D01*
X430558Y332033D01*
X510842Y332033D01*
X538333Y304542D01*
X538333Y248328D01*
X538336Y248308D01*
X538334Y248289D01*
X538356Y248187D01*
X538372Y248085D01*
X538382Y248068D01*
X538386Y248048D01*
X538439Y247959D01*
X538488Y247868D01*
X538502Y247854D01*
X538512Y247837D01*
X538591Y247770D01*
X538666Y247698D01*
X538684Y247690D01*
X538699Y247677D01*
X538795Y247638D01*
X538889Y247595D01*
X538909Y247593D01*
X538927Y247585D01*
X539094Y247567D01*
X539351Y247567D01*
X543667Y243251D01*
X543667Y237149D01*
X539351Y232833D01*
X539094Y232833D01*
X539074Y232830D01*
X539055Y232832D01*
X538953Y232810D01*
X538851Y232794D01*
X538834Y232784D01*
X538814Y232780D01*
X538725Y232727D01*
X538634Y232678D01*
X538620Y232664D01*
X538603Y232654D01*
X538536Y232575D01*
X538464Y232500D01*
X538456Y232482D01*
X538443Y232467D01*
X538404Y232371D01*
X538361Y232277D01*
X538359Y232257D01*
X538351Y232239D01*
X538333Y232072D01*
X538333Y174857D01*
X538347Y174767D01*
X538355Y174676D01*
X538367Y174647D01*
X538372Y174615D01*
X538415Y174534D01*
X538451Y174450D01*
X538477Y174418D01*
X538488Y174397D01*
X538511Y174375D01*
X538556Y174319D01*
X560619Y152256D01*
X560693Y152203D01*
X560762Y152143D01*
X560793Y152131D01*
X560819Y152112D01*
X560906Y152085D01*
X560991Y152051D01*
X561032Y152047D01*
X561054Y152040D01*
X561086Y152041D01*
X561157Y152033D01*
X620842Y152033D01*
X632033Y140842D01*
X632033Y109158D01*
X623442Y100567D01*
X373825Y100567D01*
X373710Y100548D01*
X373594Y100531D01*
X373588Y100529D01*
X373582Y100528D01*
X373479Y100473D01*
X373374Y100420D01*
X373370Y100415D01*
X373365Y100412D01*
X373285Y100328D01*
X373202Y100244D01*
X373199Y100238D01*
X373195Y100234D01*
X373187Y100217D01*
X373121Y100097D01*
X372628Y98906D01*
X370794Y97072D01*
X368397Y96079D01*
X365803Y96079D01*
X364612Y96573D01*
X364498Y96599D01*
X364385Y96628D01*
X364379Y96627D01*
X364372Y96629D01*
X364256Y96618D01*
X364140Y96609D01*
X364134Y96606D01*
X364128Y96606D01*
X364020Y96558D01*
X363913Y96512D01*
X363908Y96508D01*
X363903Y96506D01*
X363889Y96493D01*
X363782Y96408D01*
X356756Y89381D01*
X355342Y87967D01*
X159158Y87967D01*
G37*
%LPD*%
%LPC*%
G36*
X345803Y96079D02*
X345803Y96079D01*
X343406Y97072D01*
X341572Y98906D01*
X340579Y101303D01*
X340579Y103897D01*
X341572Y106294D01*
X343406Y108128D01*
X344597Y108621D01*
X344697Y108683D01*
X344797Y108743D01*
X344801Y108748D01*
X344806Y108751D01*
X344881Y108842D01*
X344957Y108930D01*
X344959Y108936D01*
X344963Y108940D01*
X345005Y109049D01*
X345049Y109158D01*
X345050Y109165D01*
X345051Y109170D01*
X345052Y109188D01*
X345067Y109325D01*
X345067Y114606D01*
X345064Y114626D01*
X345066Y114645D01*
X345044Y114747D01*
X345028Y114849D01*
X345018Y114866D01*
X345014Y114886D01*
X344961Y114975D01*
X344912Y115066D01*
X344898Y115080D01*
X344888Y115097D01*
X344809Y115164D01*
X344734Y115236D01*
X344716Y115244D01*
X344701Y115257D01*
X344605Y115296D01*
X344511Y115339D01*
X344491Y115341D01*
X344473Y115349D01*
X344306Y115367D01*
X311758Y115367D01*
X300367Y126758D01*
X300367Y387090D01*
X300348Y387205D01*
X300331Y387321D01*
X300329Y387327D01*
X300328Y387333D01*
X300273Y387435D01*
X300220Y387540D01*
X300215Y387545D01*
X300212Y387550D01*
X300128Y387630D01*
X300044Y387713D01*
X300038Y387716D01*
X300034Y387720D01*
X300017Y387727D01*
X299897Y387793D01*
X297364Y388843D01*
X294863Y391344D01*
X293509Y394612D01*
X293509Y413388D01*
X294863Y416656D01*
X297364Y419157D01*
X300632Y420511D01*
X304168Y420511D01*
X307436Y419157D01*
X309937Y416656D01*
X311291Y413388D01*
X311291Y394612D01*
X309937Y391344D01*
X307436Y388843D01*
X304903Y387793D01*
X304803Y387732D01*
X304703Y387672D01*
X304699Y387667D01*
X304694Y387664D01*
X304619Y387574D01*
X304543Y387485D01*
X304541Y387479D01*
X304537Y387474D01*
X304495Y387366D01*
X304451Y387257D01*
X304450Y387249D01*
X304449Y387245D01*
X304448Y387226D01*
X304433Y387090D01*
X304433Y128757D01*
X304447Y128667D01*
X304455Y128576D01*
X304467Y128547D01*
X304472Y128515D01*
X304515Y128434D01*
X304551Y128350D01*
X304577Y128318D01*
X304588Y128297D01*
X304611Y128275D01*
X304656Y128219D01*
X313219Y119656D01*
X313293Y119603D01*
X313362Y119543D01*
X313393Y119531D01*
X313419Y119512D01*
X313506Y119485D01*
X313591Y119451D01*
X313632Y119447D01*
X313654Y119440D01*
X313686Y119441D01*
X313757Y119433D01*
X345943Y119433D01*
X346033Y119447D01*
X346124Y119455D01*
X346153Y119467D01*
X346185Y119472D01*
X346266Y119515D01*
X346350Y119551D01*
X346382Y119577D01*
X346403Y119588D01*
X346425Y119611D01*
X346481Y119656D01*
X367444Y140619D01*
X368858Y142033D01*
X591642Y142033D01*
X593056Y140619D01*
X606490Y127185D01*
X606506Y127173D01*
X606519Y127158D01*
X606606Y127101D01*
X606690Y127041D01*
X606709Y127035D01*
X606726Y127025D01*
X606826Y126999D01*
X606925Y126969D01*
X606945Y126969D01*
X606964Y126964D01*
X607067Y126972D01*
X607171Y126975D01*
X607189Y126982D01*
X607209Y126984D01*
X607304Y127024D01*
X607402Y127060D01*
X607417Y127072D01*
X607436Y127080D01*
X607567Y127185D01*
X607749Y127367D01*
X613851Y127367D01*
X618167Y123051D01*
X618167Y116949D01*
X613851Y112633D01*
X607749Y112633D01*
X603433Y116949D01*
X603433Y123051D01*
X603615Y123233D01*
X603627Y123250D01*
X603642Y123262D01*
X603699Y123349D01*
X603759Y123433D01*
X603765Y123452D01*
X603775Y123469D01*
X603801Y123569D01*
X603831Y123668D01*
X603831Y123688D01*
X603836Y123707D01*
X603828Y123810D01*
X603825Y123914D01*
X603818Y123933D01*
X603816Y123953D01*
X603776Y124047D01*
X603740Y124145D01*
X603728Y124161D01*
X603720Y124179D01*
X603615Y124310D01*
X590181Y137744D01*
X590107Y137797D01*
X590038Y137857D01*
X590007Y137869D01*
X589981Y137888D01*
X589894Y137915D01*
X589809Y137949D01*
X589768Y137953D01*
X589746Y137960D01*
X589714Y137959D01*
X589643Y137967D01*
X370857Y137967D01*
X370767Y137953D01*
X370676Y137945D01*
X370647Y137933D01*
X370615Y137928D01*
X370534Y137885D01*
X370450Y137849D01*
X370418Y137823D01*
X370397Y137812D01*
X370375Y137789D01*
X370319Y137744D01*
X349356Y116781D01*
X349303Y116707D01*
X349243Y116638D01*
X349231Y116607D01*
X349212Y116581D01*
X349185Y116494D01*
X349151Y116409D01*
X349147Y116368D01*
X349140Y116346D01*
X349141Y116314D01*
X349133Y116243D01*
X349133Y109325D01*
X349152Y109210D01*
X349169Y109094D01*
X349171Y109088D01*
X349172Y109082D01*
X349227Y108979D01*
X349280Y108874D01*
X349285Y108870D01*
X349288Y108865D01*
X349372Y108785D01*
X349456Y108702D01*
X349462Y108699D01*
X349466Y108695D01*
X349483Y108687D01*
X349603Y108621D01*
X350794Y108128D01*
X352628Y106294D01*
X353621Y103897D01*
X353621Y101303D01*
X352628Y98906D01*
X350794Y97072D01*
X348397Y96079D01*
X345803Y96079D01*
G37*
%LPD*%
%LPC*%
G36*
X435149Y232633D02*
X435149Y232633D01*
X430833Y236949D01*
X430833Y237206D01*
X430830Y237226D01*
X430832Y237245D01*
X430810Y237347D01*
X430794Y237449D01*
X430784Y237466D01*
X430780Y237486D01*
X430727Y237575D01*
X430678Y237666D01*
X430664Y237680D01*
X430654Y237697D01*
X430575Y237764D01*
X430500Y237836D01*
X430482Y237844D01*
X430467Y237857D01*
X430371Y237896D01*
X430277Y237939D01*
X430257Y237941D01*
X430239Y237949D01*
X430072Y237967D01*
X359158Y237967D01*
X344867Y252258D01*
X344867Y258775D01*
X344848Y258890D01*
X344831Y259006D01*
X344829Y259012D01*
X344828Y259018D01*
X344773Y259121D01*
X344720Y259226D01*
X344715Y259230D01*
X344712Y259235D01*
X344628Y259315D01*
X344544Y259398D01*
X344538Y259401D01*
X344534Y259405D01*
X344517Y259413D01*
X344397Y259479D01*
X343206Y259972D01*
X341372Y261806D01*
X340379Y264203D01*
X340379Y266797D01*
X341372Y269194D01*
X343206Y271028D01*
X345603Y272021D01*
X348197Y272021D01*
X349388Y271527D01*
X349502Y271501D01*
X349615Y271472D01*
X349621Y271473D01*
X349628Y271471D01*
X349744Y271482D01*
X349860Y271491D01*
X349866Y271494D01*
X349872Y271494D01*
X349980Y271542D01*
X350087Y271588D01*
X350093Y271592D01*
X350097Y271594D01*
X350111Y271607D01*
X350218Y271692D01*
X388187Y309662D01*
X388199Y309678D01*
X388214Y309690D01*
X388270Y309778D01*
X388331Y309861D01*
X388336Y309880D01*
X388347Y309897D01*
X388372Y309998D01*
X388403Y310097D01*
X388402Y310116D01*
X388407Y310136D01*
X388399Y310239D01*
X388397Y310342D01*
X388390Y310361D01*
X388388Y310381D01*
X388348Y310476D01*
X388312Y310573D01*
X388300Y310589D01*
X388292Y310607D01*
X388187Y310738D01*
X325767Y373158D01*
X325767Y387090D01*
X325748Y387205D01*
X325731Y387321D01*
X325729Y387327D01*
X325728Y387333D01*
X325673Y387435D01*
X325620Y387540D01*
X325615Y387545D01*
X325612Y387550D01*
X325528Y387630D01*
X325444Y387713D01*
X325438Y387716D01*
X325434Y387720D01*
X325417Y387727D01*
X325297Y387793D01*
X322764Y388843D01*
X320263Y391344D01*
X318909Y394612D01*
X318909Y413388D01*
X320263Y416656D01*
X322764Y419157D01*
X326032Y420511D01*
X329568Y420511D01*
X332836Y419157D01*
X335337Y416656D01*
X336691Y413388D01*
X336691Y394612D01*
X335337Y391344D01*
X332836Y388843D01*
X330303Y387793D01*
X330203Y387732D01*
X330103Y387672D01*
X330099Y387667D01*
X330094Y387664D01*
X330019Y387574D01*
X329943Y387485D01*
X329941Y387479D01*
X329937Y387474D01*
X329895Y387366D01*
X329851Y387257D01*
X329850Y387249D01*
X329849Y387245D01*
X329848Y387226D01*
X329833Y387090D01*
X329833Y375157D01*
X329847Y375067D01*
X329855Y374976D01*
X329867Y374947D01*
X329872Y374915D01*
X329915Y374834D01*
X329951Y374750D01*
X329977Y374718D01*
X329988Y374697D01*
X330011Y374675D01*
X330056Y374619D01*
X391062Y313613D01*
X391078Y313601D01*
X391090Y313586D01*
X391178Y313530D01*
X391261Y313469D01*
X391280Y313464D01*
X391297Y313453D01*
X391398Y313428D01*
X391497Y313397D01*
X391516Y313398D01*
X391536Y313393D01*
X391639Y313401D01*
X391742Y313403D01*
X391761Y313410D01*
X391781Y313412D01*
X391876Y313452D01*
X391973Y313488D01*
X391989Y313500D01*
X392007Y313508D01*
X392138Y313613D01*
X420558Y342033D01*
X548843Y342033D01*
X548933Y342047D01*
X549024Y342055D01*
X549053Y342067D01*
X549085Y342072D01*
X549166Y342115D01*
X549250Y342151D01*
X549282Y342177D01*
X549303Y342188D01*
X549325Y342211D01*
X549328Y342213D01*
X549329Y342214D01*
X549331Y342215D01*
X549381Y342256D01*
X559744Y352619D01*
X559797Y352693D01*
X559857Y352762D01*
X559869Y352793D01*
X559888Y352819D01*
X559915Y352906D01*
X559949Y352991D01*
X559953Y353032D01*
X559960Y353054D01*
X559959Y353086D01*
X559967Y353157D01*
X559967Y375672D01*
X559964Y375692D01*
X559966Y375711D01*
X559944Y375813D01*
X559928Y375915D01*
X559918Y375932D01*
X559914Y375952D01*
X559861Y376041D01*
X559812Y376132D01*
X559798Y376146D01*
X559788Y376163D01*
X559709Y376230D01*
X559634Y376302D01*
X559616Y376310D01*
X559601Y376323D01*
X559505Y376362D01*
X559411Y376405D01*
X559391Y376407D01*
X559373Y376415D01*
X559206Y376433D01*
X558949Y376433D01*
X554633Y380749D01*
X554633Y386851D01*
X558949Y391167D01*
X565051Y391167D01*
X569367Y386851D01*
X569367Y380749D01*
X565051Y376433D01*
X564794Y376433D01*
X564774Y376430D01*
X564755Y376432D01*
X564653Y376410D01*
X564551Y376394D01*
X564534Y376384D01*
X564514Y376380D01*
X564425Y376327D01*
X564334Y376278D01*
X564320Y376264D01*
X564303Y376254D01*
X564236Y376175D01*
X564164Y376100D01*
X564156Y376082D01*
X564143Y376067D01*
X564104Y375971D01*
X564061Y375877D01*
X564059Y375857D01*
X564051Y375839D01*
X564033Y375672D01*
X564033Y351158D01*
X562619Y349744D01*
X552256Y339381D01*
X550842Y337967D01*
X422557Y337967D01*
X422467Y337953D01*
X422376Y337945D01*
X422347Y337933D01*
X422315Y337928D01*
X422234Y337885D01*
X422150Y337849D01*
X422118Y337823D01*
X422097Y337812D01*
X422075Y337789D01*
X422019Y337744D01*
X353092Y268818D01*
X353025Y268724D01*
X352954Y268629D01*
X352953Y268623D01*
X352949Y268618D01*
X352915Y268507D01*
X352878Y268395D01*
X352878Y268389D01*
X352877Y268383D01*
X352880Y268266D01*
X352881Y268149D01*
X352883Y268142D01*
X352883Y268137D01*
X352889Y268119D01*
X352927Y267988D01*
X353421Y266797D01*
X353421Y264203D01*
X352428Y261806D01*
X350594Y259972D01*
X349403Y259479D01*
X349303Y259417D01*
X349203Y259357D01*
X349199Y259352D01*
X349194Y259349D01*
X349119Y259258D01*
X349043Y259170D01*
X349041Y259164D01*
X349037Y259160D01*
X348995Y259051D01*
X348951Y258942D01*
X348950Y258935D01*
X348949Y258930D01*
X348948Y258912D01*
X348933Y258775D01*
X348933Y254257D01*
X348947Y254167D01*
X348955Y254076D01*
X348967Y254047D01*
X348972Y254015D01*
X349015Y253934D01*
X349051Y253850D01*
X349077Y253818D01*
X349088Y253797D01*
X349111Y253775D01*
X349156Y253719D01*
X360619Y242256D01*
X360693Y242203D01*
X360762Y242143D01*
X360793Y242131D01*
X360819Y242112D01*
X360906Y242085D01*
X360991Y242051D01*
X361032Y242047D01*
X361054Y242040D01*
X361086Y242041D01*
X361157Y242033D01*
X430072Y242033D01*
X430092Y242036D01*
X430111Y242034D01*
X430213Y242056D01*
X430315Y242072D01*
X430332Y242082D01*
X430352Y242086D01*
X430441Y242139D01*
X430532Y242188D01*
X430546Y242202D01*
X430563Y242212D01*
X430630Y242291D01*
X430702Y242366D01*
X430710Y242384D01*
X430723Y242399D01*
X430762Y242495D01*
X430805Y242589D01*
X430807Y242609D01*
X430815Y242627D01*
X430833Y242794D01*
X430833Y243051D01*
X435149Y247367D01*
X441251Y247367D01*
X445567Y243051D01*
X445567Y236949D01*
X441251Y232633D01*
X435149Y232633D01*
G37*
%LPD*%
%LPC*%
G36*
X179158Y117967D02*
X179158Y117967D01*
X158830Y138295D01*
X158736Y138363D01*
X158642Y138433D01*
X158636Y138435D01*
X158631Y138438D01*
X158520Y138473D01*
X158408Y138509D01*
X158402Y138509D01*
X158396Y138511D01*
X158279Y138508D01*
X158162Y138507D01*
X158155Y138505D01*
X158150Y138504D01*
X158132Y138498D01*
X158001Y138460D01*
X156425Y137807D01*
X151575Y137807D01*
X147093Y139664D01*
X143664Y143093D01*
X141807Y147575D01*
X141807Y152425D01*
X143664Y156907D01*
X147093Y160336D01*
X151575Y162193D01*
X156425Y162193D01*
X160907Y160336D01*
X164336Y156907D01*
X166193Y152425D01*
X166193Y147575D01*
X164336Y143093D01*
X162597Y141354D01*
X162586Y141338D01*
X162570Y141325D01*
X162514Y141238D01*
X162454Y141154D01*
X162448Y141135D01*
X162437Y141119D01*
X162412Y141018D01*
X162381Y140919D01*
X162382Y140899D01*
X162377Y140880D01*
X162385Y140777D01*
X162388Y140673D01*
X162395Y140655D01*
X162396Y140635D01*
X162436Y140540D01*
X162472Y140442D01*
X162485Y140427D01*
X162492Y140408D01*
X162597Y140278D01*
X180619Y122256D01*
X180693Y122203D01*
X180762Y122143D01*
X180793Y122131D01*
X180819Y122112D01*
X180906Y122085D01*
X180991Y122051D01*
X181032Y122047D01*
X181054Y122040D01*
X181086Y122041D01*
X181157Y122033D01*
X245843Y122033D01*
X245933Y122047D01*
X246024Y122055D01*
X246053Y122067D01*
X246085Y122072D01*
X246166Y122115D01*
X246250Y122151D01*
X246282Y122177D01*
X246303Y122188D01*
X246325Y122211D01*
X246328Y122213D01*
X246330Y122215D01*
X246381Y122256D01*
X274744Y150619D01*
X274797Y150693D01*
X274857Y150762D01*
X274869Y150793D01*
X274888Y150819D01*
X274915Y150906D01*
X274949Y150991D01*
X274953Y151032D01*
X274960Y151054D01*
X274959Y151086D01*
X274967Y151157D01*
X274967Y387090D01*
X274948Y387205D01*
X274931Y387321D01*
X274929Y387327D01*
X274928Y387333D01*
X274873Y387435D01*
X274820Y387540D01*
X274815Y387545D01*
X274812Y387550D01*
X274728Y387630D01*
X274644Y387713D01*
X274638Y387716D01*
X274634Y387720D01*
X274617Y387727D01*
X274497Y387793D01*
X271964Y388843D01*
X269463Y391344D01*
X268109Y394612D01*
X268109Y413388D01*
X269463Y416656D01*
X271964Y419157D01*
X275232Y420511D01*
X278768Y420511D01*
X282036Y419157D01*
X284537Y416656D01*
X285891Y413388D01*
X285891Y394612D01*
X284537Y391344D01*
X282036Y388843D01*
X279503Y387793D01*
X279403Y387732D01*
X279303Y387672D01*
X279299Y387667D01*
X279294Y387664D01*
X279219Y387574D01*
X279143Y387485D01*
X279141Y387479D01*
X279137Y387474D01*
X279095Y387366D01*
X279051Y387257D01*
X279050Y387249D01*
X279049Y387245D01*
X279048Y387226D01*
X279033Y387090D01*
X279033Y149158D01*
X247842Y117967D01*
X179158Y117967D01*
G37*
%LPD*%
%LPC*%
G36*
X695816Y428967D02*
X695816Y428967D01*
X688086Y432169D01*
X682169Y438086D01*
X678967Y445816D01*
X678967Y454184D01*
X682169Y461914D01*
X688086Y467831D01*
X695816Y471033D01*
X704184Y471033D01*
X711914Y467831D01*
X717831Y461914D01*
X721033Y454184D01*
X721033Y445816D01*
X717831Y438086D01*
X711914Y432169D01*
X704184Y428967D01*
X695816Y428967D01*
G37*
%LPD*%
%LPC*%
G36*
X45816Y428967D02*
X45816Y428967D01*
X38086Y432169D01*
X32169Y438086D01*
X28967Y445816D01*
X28967Y454184D01*
X32169Y461914D01*
X38086Y467831D01*
X45816Y471033D01*
X54184Y471033D01*
X61914Y467831D01*
X67831Y461914D01*
X71033Y454184D01*
X71033Y445816D01*
X67831Y438086D01*
X61914Y432169D01*
X54184Y428967D01*
X45816Y428967D01*
G37*
%LPD*%
%LPC*%
G36*
X695816Y28967D02*
X695816Y28967D01*
X688086Y32169D01*
X682169Y38086D01*
X678967Y45816D01*
X678967Y54184D01*
X682169Y61914D01*
X688086Y67831D01*
X695816Y71033D01*
X704184Y71033D01*
X711914Y67831D01*
X717831Y61914D01*
X721033Y54184D01*
X721033Y45816D01*
X717831Y38086D01*
X711914Y32169D01*
X704184Y28967D01*
X695816Y28967D01*
G37*
%LPD*%
%LPC*%
G36*
X45816Y28967D02*
X45816Y28967D01*
X38086Y32169D01*
X32169Y38086D01*
X28967Y45816D01*
X28967Y54184D01*
X32169Y61914D01*
X38086Y67831D01*
X45816Y71033D01*
X54184Y71033D01*
X61914Y67831D01*
X67831Y61914D01*
X71033Y54184D01*
X71033Y45816D01*
X67831Y38086D01*
X61914Y32169D01*
X54184Y28967D01*
X45816Y28967D01*
G37*
%LPD*%
%LPC*%
G36*
X319832Y168489D02*
X319832Y168489D01*
X316564Y169843D01*
X314063Y172344D01*
X312709Y175612D01*
X312709Y194388D01*
X314063Y197656D01*
X316564Y200157D01*
X319097Y201207D01*
X319197Y201268D01*
X319297Y201328D01*
X319301Y201333D01*
X319306Y201336D01*
X319381Y201426D01*
X319457Y201515D01*
X319459Y201521D01*
X319463Y201526D01*
X319505Y201634D01*
X319549Y201743D01*
X319550Y201751D01*
X319551Y201755D01*
X319552Y201774D01*
X319567Y201910D01*
X319567Y210042D01*
X320156Y210631D01*
X320209Y210705D01*
X320269Y210774D01*
X320281Y210805D01*
X320300Y210831D01*
X320327Y210918D01*
X320361Y211003D01*
X320365Y211044D01*
X320372Y211066D01*
X320371Y211098D01*
X320379Y211169D01*
X320379Y220276D01*
X321124Y221021D01*
X332676Y221021D01*
X333421Y220276D01*
X333421Y208724D01*
X332676Y207979D01*
X324394Y207979D01*
X324374Y207976D01*
X324355Y207978D01*
X324253Y207956D01*
X324151Y207940D01*
X324134Y207930D01*
X324114Y207926D01*
X324025Y207873D01*
X323934Y207824D01*
X323920Y207810D01*
X323903Y207800D01*
X323836Y207721D01*
X323764Y207646D01*
X323756Y207628D01*
X323743Y207613D01*
X323704Y207517D01*
X323661Y207423D01*
X323659Y207403D01*
X323651Y207385D01*
X323633Y207218D01*
X323633Y201910D01*
X323652Y201795D01*
X323669Y201679D01*
X323671Y201673D01*
X323672Y201667D01*
X323727Y201565D01*
X323780Y201460D01*
X323785Y201455D01*
X323788Y201450D01*
X323872Y201370D01*
X323956Y201287D01*
X323962Y201284D01*
X323966Y201280D01*
X323983Y201273D01*
X324103Y201207D01*
X326636Y200157D01*
X329137Y197656D01*
X330491Y194388D01*
X330491Y175612D01*
X329137Y172344D01*
X326636Y169843D01*
X323368Y168489D01*
X319832Y168489D01*
G37*
%LPD*%
%LPC*%
G36*
X370632Y168489D02*
X370632Y168489D01*
X367364Y169843D01*
X364863Y172344D01*
X363509Y175612D01*
X363509Y194388D01*
X364863Y197656D01*
X367364Y200157D01*
X369897Y201207D01*
X369997Y201268D01*
X370097Y201328D01*
X370101Y201333D01*
X370106Y201336D01*
X370181Y201426D01*
X370257Y201515D01*
X370259Y201521D01*
X370263Y201526D01*
X370305Y201634D01*
X370349Y201743D01*
X370350Y201751D01*
X370351Y201755D01*
X370352Y201774D01*
X370367Y201910D01*
X370367Y207739D01*
X370360Y207784D01*
X370362Y207830D01*
X370340Y207905D01*
X370328Y207982D01*
X370306Y208022D01*
X370293Y208066D01*
X370249Y208130D01*
X370212Y208199D01*
X370179Y208231D01*
X370153Y208268D01*
X370091Y208315D01*
X370034Y208368D01*
X369992Y208388D01*
X369956Y208415D01*
X369882Y208439D01*
X369811Y208472D01*
X369765Y208477D01*
X369722Y208491D01*
X369644Y208491D01*
X369567Y208499D01*
X369522Y208489D01*
X369476Y208489D01*
X369344Y208451D01*
X369326Y208447D01*
X369322Y208444D01*
X369315Y208442D01*
X368197Y207979D01*
X365603Y207979D01*
X363206Y208972D01*
X361372Y210806D01*
X360379Y213203D01*
X360379Y215797D01*
X361372Y218194D01*
X363206Y220028D01*
X365603Y221021D01*
X368197Y221021D01*
X370594Y220028D01*
X372428Y218194D01*
X373421Y215797D01*
X373421Y213203D01*
X372927Y212012D01*
X372901Y211898D01*
X372872Y211785D01*
X372873Y211779D01*
X372871Y211772D01*
X372882Y211656D01*
X372891Y211540D01*
X372894Y211534D01*
X372894Y211528D01*
X372942Y211420D01*
X372988Y211313D01*
X372992Y211307D01*
X372994Y211303D01*
X373007Y211289D01*
X373092Y211182D01*
X374433Y209842D01*
X374433Y201910D01*
X374452Y201795D01*
X374469Y201679D01*
X374471Y201673D01*
X374472Y201667D01*
X374527Y201565D01*
X374580Y201460D01*
X374585Y201455D01*
X374588Y201450D01*
X374672Y201370D01*
X374756Y201287D01*
X374762Y201284D01*
X374766Y201280D01*
X374783Y201273D01*
X374903Y201207D01*
X377436Y200157D01*
X379937Y197656D01*
X381291Y194388D01*
X381291Y175612D01*
X379937Y172344D01*
X377436Y169843D01*
X374168Y168489D01*
X370632Y168489D01*
G37*
%LPD*%
%LPC*%
G36*
X345232Y168489D02*
X345232Y168489D01*
X341964Y169843D01*
X339463Y172344D01*
X338109Y175612D01*
X338109Y194388D01*
X339463Y197656D01*
X341964Y200157D01*
X344497Y201207D01*
X344597Y201268D01*
X344697Y201328D01*
X344701Y201333D01*
X344706Y201336D01*
X344781Y201426D01*
X344857Y201515D01*
X344859Y201521D01*
X344863Y201526D01*
X344905Y201634D01*
X344949Y201743D01*
X344950Y201751D01*
X344951Y201755D01*
X344952Y201774D01*
X344967Y201910D01*
X344967Y207734D01*
X344948Y207849D01*
X344931Y207965D01*
X344929Y207970D01*
X344928Y207977D01*
X344873Y208079D01*
X344820Y208184D01*
X344815Y208189D01*
X344812Y208194D01*
X344728Y208274D01*
X344644Y208356D01*
X344638Y208360D01*
X344634Y208363D01*
X344617Y208371D01*
X344497Y208437D01*
X343206Y208972D01*
X341372Y210806D01*
X340379Y213203D01*
X340379Y215797D01*
X341372Y218194D01*
X343206Y220028D01*
X345603Y221021D01*
X348197Y221021D01*
X350594Y220028D01*
X352428Y218194D01*
X353421Y215797D01*
X353421Y213203D01*
X352428Y210806D01*
X350594Y208972D01*
X349503Y208520D01*
X349403Y208459D01*
X349303Y208399D01*
X349299Y208394D01*
X349294Y208390D01*
X349219Y208301D01*
X349143Y208212D01*
X349141Y208206D01*
X349137Y208201D01*
X349095Y208093D01*
X349051Y207983D01*
X349050Y207976D01*
X349049Y207971D01*
X349048Y207953D01*
X349033Y207817D01*
X349033Y201910D01*
X349052Y201795D01*
X349069Y201679D01*
X349071Y201673D01*
X349072Y201667D01*
X349127Y201565D01*
X349180Y201460D01*
X349185Y201455D01*
X349188Y201450D01*
X349272Y201370D01*
X349356Y201287D01*
X349362Y201284D01*
X349366Y201280D01*
X349383Y201273D01*
X349503Y201207D01*
X352036Y200157D01*
X354537Y197656D01*
X355891Y194388D01*
X355891Y175612D01*
X354537Y172344D01*
X352036Y169843D01*
X348768Y168489D01*
X345232Y168489D01*
G37*
%LPD*%
%LPC*%
G36*
X460549Y232633D02*
X460549Y232633D01*
X456233Y236949D01*
X456233Y243051D01*
X460549Y247367D01*
X461206Y247367D01*
X461226Y247370D01*
X461245Y247368D01*
X461347Y247390D01*
X461449Y247406D01*
X461466Y247416D01*
X461486Y247420D01*
X461575Y247473D01*
X461666Y247522D01*
X461680Y247536D01*
X461697Y247546D01*
X461764Y247625D01*
X461836Y247700D01*
X461844Y247718D01*
X461857Y247733D01*
X461896Y247829D01*
X461939Y247923D01*
X461941Y247943D01*
X461949Y247961D01*
X461967Y248128D01*
X461967Y274072D01*
X461964Y274092D01*
X461966Y274111D01*
X461944Y274213D01*
X461928Y274315D01*
X461918Y274332D01*
X461914Y274352D01*
X461861Y274441D01*
X461812Y274532D01*
X461798Y274546D01*
X461788Y274563D01*
X461709Y274630D01*
X461634Y274702D01*
X461616Y274710D01*
X461601Y274723D01*
X461505Y274762D01*
X461411Y274805D01*
X461391Y274807D01*
X461373Y274815D01*
X461206Y274833D01*
X460949Y274833D01*
X456633Y279149D01*
X456633Y285251D01*
X460949Y289567D01*
X467051Y289567D01*
X471367Y285251D01*
X471367Y279149D01*
X467051Y274833D01*
X466794Y274833D01*
X466774Y274830D01*
X466755Y274832D01*
X466653Y274810D01*
X466551Y274794D01*
X466534Y274784D01*
X466514Y274780D01*
X466425Y274727D01*
X466334Y274678D01*
X466320Y274664D01*
X466303Y274654D01*
X466236Y274575D01*
X466164Y274500D01*
X466156Y274482D01*
X466143Y274467D01*
X466104Y274371D01*
X466061Y274277D01*
X466059Y274257D01*
X466051Y274239D01*
X466033Y274072D01*
X466033Y248128D01*
X466036Y248108D01*
X466034Y248089D01*
X466056Y247987D01*
X466072Y247885D01*
X466082Y247868D01*
X466086Y247848D01*
X466139Y247759D01*
X466188Y247668D01*
X466202Y247654D01*
X466212Y247637D01*
X466291Y247570D01*
X466366Y247498D01*
X466384Y247490D01*
X466399Y247477D01*
X466495Y247438D01*
X466589Y247395D01*
X466609Y247393D01*
X466627Y247385D01*
X466634Y247384D01*
X470967Y243051D01*
X470967Y236949D01*
X466651Y232633D01*
X460549Y232633D01*
G37*
%LPD*%
%LPC*%
G36*
X558649Y232833D02*
X558649Y232833D01*
X554333Y237149D01*
X554333Y243251D01*
X558649Y247567D01*
X559206Y247567D01*
X559226Y247570D01*
X559245Y247568D01*
X559347Y247590D01*
X559449Y247606D01*
X559466Y247616D01*
X559486Y247620D01*
X559575Y247673D01*
X559666Y247722D01*
X559680Y247736D01*
X559697Y247746D01*
X559764Y247825D01*
X559836Y247900D01*
X559844Y247918D01*
X559857Y247933D01*
X559896Y248029D01*
X559939Y248123D01*
X559941Y248143D01*
X559949Y248161D01*
X559967Y248328D01*
X559967Y274072D01*
X559964Y274092D01*
X559966Y274111D01*
X559944Y274213D01*
X559928Y274315D01*
X559918Y274332D01*
X559914Y274352D01*
X559861Y274441D01*
X559812Y274532D01*
X559798Y274546D01*
X559788Y274563D01*
X559709Y274630D01*
X559634Y274702D01*
X559616Y274710D01*
X559601Y274723D01*
X559505Y274762D01*
X559411Y274805D01*
X559391Y274807D01*
X559373Y274815D01*
X559206Y274833D01*
X558949Y274833D01*
X554633Y279149D01*
X554633Y285251D01*
X558949Y289567D01*
X565051Y289567D01*
X569367Y285251D01*
X569367Y279149D01*
X565051Y274833D01*
X564794Y274833D01*
X564774Y274830D01*
X564755Y274832D01*
X564653Y274810D01*
X564551Y274794D01*
X564534Y274784D01*
X564514Y274780D01*
X564425Y274727D01*
X564334Y274678D01*
X564320Y274664D01*
X564303Y274654D01*
X564236Y274575D01*
X564164Y274500D01*
X564156Y274482D01*
X564143Y274467D01*
X564104Y274371D01*
X564061Y274277D01*
X564059Y274257D01*
X564051Y274239D01*
X564033Y274072D01*
X564033Y248328D01*
X564036Y248308D01*
X564034Y248289D01*
X564056Y248187D01*
X564072Y248085D01*
X564082Y248068D01*
X564086Y248048D01*
X564139Y247959D01*
X564188Y247868D01*
X564202Y247854D01*
X564212Y247837D01*
X564291Y247770D01*
X564366Y247698D01*
X564384Y247690D01*
X564399Y247677D01*
X564495Y247638D01*
X564589Y247595D01*
X564609Y247593D01*
X564627Y247585D01*
X564746Y247572D01*
X569067Y243251D01*
X569067Y237149D01*
X564751Y232833D01*
X558649Y232833D01*
G37*
%LPD*%
%LPC*%
G36*
X470949Y112433D02*
X470949Y112433D01*
X466633Y116749D01*
X466633Y122851D01*
X470949Y127167D01*
X477051Y127167D01*
X481367Y122851D01*
X481367Y122594D01*
X481370Y122574D01*
X481368Y122555D01*
X481390Y122453D01*
X481406Y122351D01*
X481416Y122334D01*
X481420Y122314D01*
X481473Y122225D01*
X481522Y122134D01*
X481536Y122120D01*
X481546Y122103D01*
X481625Y122036D01*
X481700Y121964D01*
X481718Y121956D01*
X481733Y121943D01*
X481829Y121904D01*
X481923Y121861D01*
X481943Y121859D01*
X481961Y121851D01*
X482128Y121833D01*
X501072Y121833D01*
X501092Y121836D01*
X501111Y121834D01*
X501213Y121856D01*
X501315Y121872D01*
X501332Y121882D01*
X501352Y121886D01*
X501441Y121939D01*
X501532Y121988D01*
X501546Y122002D01*
X501563Y122012D01*
X501630Y122091D01*
X501702Y122166D01*
X501710Y122184D01*
X501723Y122199D01*
X501762Y122295D01*
X501805Y122389D01*
X501807Y122409D01*
X501815Y122427D01*
X501833Y122594D01*
X501833Y123051D01*
X506149Y127367D01*
X512251Y127367D01*
X516567Y123051D01*
X516567Y116949D01*
X512251Y112633D01*
X506149Y112633D01*
X501833Y116949D01*
X501833Y117006D01*
X501830Y117026D01*
X501832Y117045D01*
X501810Y117147D01*
X501794Y117249D01*
X501784Y117266D01*
X501780Y117286D01*
X501727Y117375D01*
X501678Y117466D01*
X501664Y117480D01*
X501654Y117497D01*
X501575Y117564D01*
X501500Y117636D01*
X501482Y117644D01*
X501467Y117657D01*
X501371Y117696D01*
X501277Y117739D01*
X501257Y117741D01*
X501239Y117749D01*
X501072Y117767D01*
X482128Y117767D01*
X482108Y117764D01*
X482089Y117766D01*
X481987Y117744D01*
X481885Y117728D01*
X481868Y117718D01*
X481848Y117714D01*
X481759Y117661D01*
X481668Y117612D01*
X481654Y117598D01*
X481637Y117588D01*
X481570Y117509D01*
X481498Y117434D01*
X481490Y117416D01*
X481477Y117401D01*
X481438Y117305D01*
X481395Y117211D01*
X481393Y117191D01*
X481385Y117173D01*
X481367Y117006D01*
X481367Y116749D01*
X477051Y112433D01*
X470949Y112433D01*
G37*
%LPD*%
%LPC*%
G36*
X227423Y379223D02*
X227423Y379223D01*
X227423Y395610D01*
X227453Y395628D01*
X227482Y395662D01*
X227517Y395689D01*
X227561Y395755D01*
X227613Y395815D01*
X227629Y395856D01*
X227654Y395893D01*
X227675Y395969D01*
X227705Y396043D01*
X227711Y396102D01*
X227719Y396130D01*
X227717Y396158D01*
X227723Y396210D01*
X227723Y402477D01*
X236361Y402477D01*
X236361Y395580D01*
X236111Y394001D01*
X235616Y392480D01*
X234890Y391055D01*
X234866Y391021D01*
X234826Y390943D01*
X234780Y390869D01*
X234771Y390833D01*
X234755Y390801D01*
X234743Y390714D01*
X234722Y390630D01*
X234725Y390593D01*
X234720Y390558D01*
X234736Y390471D01*
X234744Y390385D01*
X234760Y390341D01*
X234765Y390316D01*
X234780Y390288D01*
X234803Y390228D01*
X235316Y389220D01*
X235811Y387699D01*
X236061Y386120D01*
X236061Y379223D01*
X227423Y379223D01*
G37*
%LPD*%
%LPC*%
G36*
X215739Y379223D02*
X215739Y379223D01*
X215739Y386120D01*
X215989Y387699D01*
X216484Y389220D01*
X217210Y390645D01*
X217234Y390679D01*
X217274Y390757D01*
X217320Y390831D01*
X217329Y390867D01*
X217345Y390899D01*
X217357Y390986D01*
X217378Y391070D01*
X217375Y391107D01*
X217380Y391142D01*
X217364Y391229D01*
X217356Y391315D01*
X217340Y391359D01*
X217335Y391384D01*
X217320Y391412D01*
X217297Y391472D01*
X216784Y392480D01*
X216289Y394001D01*
X216039Y395580D01*
X216039Y402477D01*
X224677Y402477D01*
X224677Y386090D01*
X224647Y386072D01*
X224618Y386038D01*
X224583Y386011D01*
X224539Y385945D01*
X224487Y385885D01*
X224471Y385844D01*
X224446Y385807D01*
X224425Y385731D01*
X224395Y385657D01*
X224389Y385598D01*
X224381Y385570D01*
X224383Y385542D01*
X224377Y385490D01*
X224377Y379223D01*
X215739Y379223D01*
G37*
%LPD*%
%LPC*%
G36*
X325803Y147079D02*
X325803Y147079D01*
X323406Y148072D01*
X321572Y149906D01*
X320579Y152303D01*
X320579Y154897D01*
X321572Y157294D01*
X323406Y159128D01*
X325803Y160121D01*
X328397Y160121D01*
X330794Y159128D01*
X332628Y157294D01*
X333621Y154897D01*
X333621Y152303D01*
X332628Y149906D01*
X330794Y148072D01*
X328397Y147079D01*
X325803Y147079D01*
G37*
%LPD*%
%LPC*%
G36*
X345803Y147079D02*
X345803Y147079D01*
X343406Y148072D01*
X341572Y149906D01*
X340579Y152303D01*
X340579Y154897D01*
X341572Y157294D01*
X343406Y159128D01*
X345803Y160121D01*
X348397Y160121D01*
X350794Y159128D01*
X352628Y157294D01*
X353621Y154897D01*
X353621Y152303D01*
X352628Y149906D01*
X350794Y148072D01*
X348397Y147079D01*
X345803Y147079D01*
G37*
%LPD*%
%LPC*%
G36*
X365803Y147079D02*
X365803Y147079D01*
X363406Y148072D01*
X361572Y149906D01*
X360579Y152303D01*
X360579Y154897D01*
X361572Y157294D01*
X363406Y159128D01*
X365803Y160121D01*
X368397Y160121D01*
X370794Y159128D01*
X372628Y157294D01*
X373621Y154897D01*
X373621Y152303D01*
X372628Y149906D01*
X370794Y148072D01*
X368397Y147079D01*
X365803Y147079D01*
G37*
%LPD*%
%LPC*%
G36*
X227723Y405523D02*
X227723Y405523D01*
X227723Y421666D01*
X228579Y421531D01*
X230100Y421036D01*
X231525Y420310D01*
X232819Y419370D01*
X233950Y418239D01*
X234890Y416945D01*
X235616Y415520D01*
X236111Y413999D01*
X236361Y412420D01*
X236361Y405523D01*
X227723Y405523D01*
G37*
%LPD*%
%LPC*%
G36*
X227423Y376177D02*
X227423Y376177D01*
X236061Y376177D01*
X236061Y369280D01*
X235811Y367701D01*
X235316Y366180D01*
X234590Y364755D01*
X233650Y363461D01*
X232519Y362330D01*
X231225Y361390D01*
X229800Y360664D01*
X228279Y360169D01*
X227423Y360034D01*
X227423Y376177D01*
G37*
%LPD*%
%LPC*%
G36*
X216039Y405523D02*
X216039Y405523D01*
X216039Y412420D01*
X216289Y413999D01*
X216784Y415520D01*
X217510Y416945D01*
X218450Y418239D01*
X219581Y419370D01*
X220875Y420310D01*
X222300Y421036D01*
X223821Y421531D01*
X224677Y421666D01*
X224677Y405523D01*
X216039Y405523D01*
G37*
%LPD*%
%LPC*%
G36*
X223521Y360169D02*
X223521Y360169D01*
X222000Y360664D01*
X220575Y361390D01*
X219281Y362330D01*
X218150Y363461D01*
X217210Y364755D01*
X216484Y366180D01*
X215989Y367701D01*
X215739Y369280D01*
X215739Y376177D01*
X224377Y376177D01*
X224377Y360034D01*
X223521Y360169D01*
G37*
%LPD*%
%LPC*%
G36*
X105523Y151523D02*
X105523Y151523D01*
X105523Y163389D01*
X107152Y163131D01*
X109168Y162476D01*
X111056Y161514D01*
X112770Y160269D01*
X114269Y158770D01*
X115514Y157056D01*
X116476Y155168D01*
X117131Y153152D01*
X117389Y151523D01*
X105523Y151523D01*
G37*
%LPD*%
%LPC*%
G36*
X90611Y151523D02*
X90611Y151523D01*
X90869Y153152D01*
X91524Y155168D01*
X92486Y157056D01*
X93731Y158770D01*
X95230Y160269D01*
X96944Y161514D01*
X98832Y162476D01*
X100848Y163131D01*
X102477Y163389D01*
X102477Y151523D01*
X90611Y151523D01*
G37*
%LPD*%
%LPC*%
G36*
X105523Y148477D02*
X105523Y148477D01*
X117389Y148477D01*
X117131Y146848D01*
X116476Y144832D01*
X115514Y142944D01*
X114269Y141230D01*
X112770Y139731D01*
X111056Y138486D01*
X109168Y137524D01*
X107152Y136869D01*
X105523Y136611D01*
X105523Y148477D01*
G37*
%LPD*%
%LPC*%
G36*
X100848Y136869D02*
X100848Y136869D01*
X98832Y137524D01*
X96944Y138486D01*
X95230Y139731D01*
X93731Y141230D01*
X92486Y142944D01*
X91524Y144832D01*
X90869Y146848D01*
X90611Y148477D01*
X102477Y148477D01*
X102477Y136611D01*
X100848Y136869D01*
G37*
%LPD*%
%LPC*%
G36*
X328623Y104123D02*
X328623Y104123D01*
X328623Y110391D01*
X332684Y110391D01*
X333331Y110218D01*
X333910Y109883D01*
X334383Y109410D01*
X334718Y108831D01*
X334891Y108184D01*
X334891Y104123D01*
X328623Y104123D01*
G37*
%LPD*%
%LPC*%
G36*
X319309Y104123D02*
X319309Y104123D01*
X319309Y108184D01*
X319482Y108831D01*
X319817Y109410D01*
X320290Y109883D01*
X320869Y110218D01*
X321516Y110391D01*
X325577Y110391D01*
X325577Y104123D01*
X319309Y104123D01*
G37*
%LPD*%
%LPC*%
G36*
X328623Y94809D02*
X328623Y94809D01*
X328623Y101077D01*
X334891Y101077D01*
X334891Y97016D01*
X334718Y96369D01*
X334383Y95790D01*
X333910Y95317D01*
X333331Y94982D01*
X332684Y94809D01*
X328623Y94809D01*
G37*
%LPD*%
%LPC*%
G36*
X321516Y94809D02*
X321516Y94809D01*
X320869Y94982D01*
X320290Y95317D01*
X319817Y95790D01*
X319482Y96369D01*
X319309Y97016D01*
X319309Y101077D01*
X325577Y101077D01*
X325577Y94809D01*
X321516Y94809D01*
G37*
%LPD*%
%LPC*%
G36*
X465523Y385323D02*
X465523Y385323D01*
X465523Y392437D01*
X467577Y392437D01*
X472637Y387377D01*
X472637Y385323D01*
X465523Y385323D01*
G37*
%LPD*%
%LPC*%
G36*
X450123Y121323D02*
X450123Y121323D01*
X450123Y128437D01*
X452177Y128437D01*
X457237Y123377D01*
X457237Y121323D01*
X450123Y121323D01*
G37*
%LPD*%
%LPC*%
G36*
X439963Y121323D02*
X439963Y121323D01*
X439963Y123377D01*
X445023Y128437D01*
X447077Y128437D01*
X447077Y121323D01*
X439963Y121323D01*
G37*
%LPD*%
%LPC*%
G36*
X465523Y375163D02*
X465523Y375163D01*
X465523Y382277D01*
X472637Y382277D01*
X472637Y380223D01*
X467577Y375163D01*
X465523Y375163D01*
G37*
%LPD*%
%LPC*%
G36*
X450123Y111163D02*
X450123Y111163D01*
X450123Y118277D01*
X457237Y118277D01*
X457237Y116223D01*
X452177Y111163D01*
X450123Y111163D01*
G37*
%LPD*%
%LPC*%
G36*
X455363Y385323D02*
X455363Y385323D01*
X455363Y387377D01*
X460423Y392437D01*
X462477Y392437D01*
X462477Y385323D01*
X455363Y385323D01*
G37*
%LPD*%
%LPC*%
G36*
X460423Y375163D02*
X460423Y375163D01*
X455363Y380223D01*
X455363Y382277D01*
X462477Y382277D01*
X462477Y375163D01*
X460423Y375163D01*
G37*
%LPD*%
%LPC*%
G36*
X445023Y111163D02*
X445023Y111163D01*
X439963Y116223D01*
X439963Y118277D01*
X447077Y118277D01*
X447077Y111163D01*
X445023Y111163D01*
G37*
%LPD*%
%LPC*%
G36*
X328423Y267023D02*
X328423Y267023D01*
X328423Y273140D01*
X329172Y272991D01*
X330590Y272404D01*
X331866Y271551D01*
X332951Y270466D01*
X333804Y269190D01*
X334391Y267772D01*
X334540Y267023D01*
X328423Y267023D01*
G37*
%LPD*%
%LPC*%
G36*
X319260Y267023D02*
X319260Y267023D01*
X319409Y267772D01*
X319996Y269190D01*
X320849Y270466D01*
X321934Y271551D01*
X323210Y272404D01*
X324628Y272991D01*
X325377Y273140D01*
X325377Y267023D01*
X319260Y267023D01*
G37*
%LPD*%
%LPC*%
G36*
X328423Y263977D02*
X328423Y263977D01*
X334540Y263977D01*
X334391Y263228D01*
X333804Y261810D01*
X332951Y260534D01*
X331866Y259449D01*
X330590Y258596D01*
X329172Y258009D01*
X328423Y257860D01*
X328423Y263977D01*
G37*
%LPD*%
%LPC*%
G36*
X324628Y258009D02*
X324628Y258009D01*
X323210Y258596D01*
X321934Y259449D01*
X320849Y260534D01*
X319996Y261810D01*
X319409Y263228D01*
X319260Y263977D01*
X325377Y263977D01*
X325377Y257860D01*
X324628Y258009D01*
G37*
%LPD*%
%LPC*%
G36*
X226199Y403999D02*
X226199Y403999D01*
X226199Y404001D01*
X226201Y404001D01*
X226201Y403999D01*
X226199Y403999D01*
G37*
%LPD*%
%LPC*%
G36*
X326899Y265499D02*
X326899Y265499D01*
X326899Y265501D01*
X326901Y265501D01*
X326901Y265499D01*
X326899Y265499D01*
G37*
%LPD*%
%LPC*%
G36*
X225899Y377699D02*
X225899Y377699D01*
X225899Y377701D01*
X225901Y377701D01*
X225901Y377699D01*
X225899Y377699D01*
G37*
%LPD*%
%LPC*%
G36*
X103999Y149999D02*
X103999Y149999D01*
X103999Y150001D01*
X104001Y150001D01*
X104001Y149999D01*
X103999Y149999D01*
G37*
%LPD*%
%LPC*%
G36*
X463999Y383799D02*
X463999Y383799D01*
X463999Y383801D01*
X464001Y383801D01*
X464001Y383799D01*
X463999Y383799D01*
G37*
%LPD*%
%LPC*%
G36*
X448599Y119799D02*
X448599Y119799D01*
X448599Y119801D01*
X448601Y119801D01*
X448601Y119799D01*
X448599Y119799D01*
G37*
%LPD*%
%LPC*%
G36*
X327099Y102599D02*
X327099Y102599D01*
X327099Y102601D01*
X327101Y102601D01*
X327101Y102599D01*
X327099Y102599D01*
G37*
%LPD*%
D10*
X438200Y240000D03*
X463600Y240000D03*
D11*
X474000Y119800D03*
X448600Y119800D03*
D12*
X327100Y102600D03*
D13*
X347100Y102600D03*
X367100Y102600D03*
X367100Y153600D03*
X347100Y153600D03*
X327100Y153600D03*
D12*
X326900Y214500D03*
D13*
X346900Y214500D03*
X366900Y214500D03*
X366900Y265500D03*
X346900Y265500D03*
X326900Y265500D03*
D10*
X536300Y240200D03*
X561700Y240200D03*
D14*
X464000Y282200D03*
X464000Y383800D03*
D15*
X226200Y396380D02*
X226200Y411620D01*
X251600Y411620D02*
X251600Y396380D01*
X277000Y396380D02*
X277000Y411620D01*
X302400Y411620D02*
X302400Y396380D01*
X327800Y396380D02*
X327800Y411620D01*
D16*
X104000Y150000D03*
X154000Y150000D03*
X204000Y150000D03*
D11*
X610800Y120000D03*
X509200Y120000D03*
D17*
X562000Y383800D03*
X562000Y282200D03*
D15*
X251300Y370080D02*
X251300Y385320D01*
X225900Y385320D02*
X225900Y370080D01*
X372400Y192620D02*
X372400Y177380D01*
X347000Y177380D02*
X347000Y192620D01*
X321600Y192620D02*
X321600Y177380D01*
D18*
X366900Y265500D02*
X431400Y330000D01*
X536300Y303700D02*
X536300Y240200D01*
X510000Y330000D02*
X431400Y330000D01*
X510000Y330000D02*
X536300Y303700D01*
X367100Y102600D02*
X354500Y90000D01*
X160000Y90000D02*
X130000Y120000D01*
X160000Y90000D02*
X354500Y90000D01*
X367100Y102600D02*
X622600Y102600D01*
X630000Y110000D01*
X630000Y140000D01*
X620000Y150000D01*
X560000Y150000D01*
X536300Y173700D01*
X536300Y240200D01*
X251300Y377700D02*
X251300Y403700D01*
X251600Y404000D01*
X251300Y377700D02*
X251300Y261300D01*
X204000Y200000D02*
X204000Y150000D01*
X130000Y120000D02*
X130000Y200000D01*
X144000Y214000D02*
X190000Y214000D01*
X144000Y214000D02*
X130000Y200000D01*
X204000Y214000D02*
X205000Y215000D01*
X251300Y261300D01*
X197000Y207000D02*
X190000Y214000D01*
X197000Y207000D02*
X204000Y200000D01*
X197000Y207000D02*
X204000Y214000D01*
X277000Y150000D02*
X277000Y404000D01*
X277000Y150000D02*
X247000Y120000D01*
X180000Y120000D01*
X154000Y146000D01*
X154000Y150000D01*
X360000Y240000D02*
X438200Y240000D01*
X346900Y253100D02*
X346900Y265500D01*
X346900Y253100D02*
X360000Y240000D01*
X346900Y265500D02*
X390700Y309300D01*
X421400Y340000D01*
X550000Y340000D02*
X562000Y352000D01*
X562000Y383800D01*
X550000Y340000D02*
X421400Y340000D01*
X327800Y374000D02*
X327800Y404000D01*
X327800Y374000D02*
X390700Y311100D01*
X390700Y309300D01*
X369700Y140000D02*
X347100Y117400D01*
X590800Y140000D02*
X610800Y120000D01*
X590800Y140000D02*
X369700Y140000D01*
X302400Y127600D02*
X302400Y404000D01*
X312600Y117400D02*
X347100Y117400D01*
X312600Y117400D02*
X302400Y127600D01*
X347100Y117400D02*
X347100Y102600D01*
X463600Y240000D02*
X464000Y240400D01*
X464000Y282200D01*
X562000Y282200D02*
X562000Y240500D01*
X561700Y240200D01*
X509000Y119800D02*
X474000Y119800D01*
X509000Y119800D02*
X509200Y120000D01*
X372400Y185000D02*
X372400Y209000D01*
X366900Y214500D01*
X347000Y214400D02*
X347000Y185000D01*
X347000Y214400D02*
X346900Y214500D01*
X321600Y209200D02*
X321600Y185000D01*
X321600Y209200D02*
X326900Y214500D01*
M02*
