G04 EAGLE Gerber RS-274X export*
G75*
%MOMM*%
%FSLAX34Y34*%
%LPD*%
%INTop Copper*%
%IPPOS*%
%AMOC8*
5,1,8,0,0,1.08239X$1,22.5*%
G01*
%ADD10P,1.319650X8X22.500000*%
%ADD11P,1.319650X8X202.500000*%
%ADD12R,1.050000X1.050000*%
%ADD13C,1.050000*%
%ADD14P,1.319650X8X112.500000*%
%ADD15C,1.524000*%
%ADD16C,2.184400*%
%ADD17P,1.319650X8X292.500000*%

G36*
X745956Y3306D02*
X745956Y3306D01*
X745975Y3304D01*
X746077Y3326D01*
X746179Y3342D01*
X746196Y3352D01*
X746216Y3356D01*
X746305Y3409D01*
X746396Y3458D01*
X746410Y3472D01*
X746427Y3482D01*
X746494Y3561D01*
X746566Y3636D01*
X746574Y3654D01*
X746587Y3669D01*
X746626Y3765D01*
X746669Y3859D01*
X746671Y3879D01*
X746679Y3897D01*
X746697Y4064D01*
X746697Y495936D01*
X746694Y495956D01*
X746696Y495975D01*
X746674Y496077D01*
X746658Y496179D01*
X746648Y496196D01*
X746644Y496216D01*
X746591Y496305D01*
X746542Y496396D01*
X746528Y496410D01*
X746518Y496427D01*
X746439Y496494D01*
X746364Y496566D01*
X746346Y496574D01*
X746331Y496587D01*
X746235Y496626D01*
X746141Y496669D01*
X746121Y496671D01*
X746103Y496679D01*
X745936Y496697D01*
X4064Y496697D01*
X4044Y496694D01*
X4025Y496696D01*
X3923Y496674D01*
X3821Y496658D01*
X3804Y496648D01*
X3784Y496644D01*
X3695Y496591D01*
X3604Y496542D01*
X3590Y496528D01*
X3573Y496518D01*
X3506Y496439D01*
X3434Y496364D01*
X3426Y496346D01*
X3413Y496331D01*
X3374Y496235D01*
X3331Y496141D01*
X3329Y496121D01*
X3321Y496103D01*
X3303Y495936D01*
X3303Y4064D01*
X3306Y4044D01*
X3304Y4025D01*
X3326Y3923D01*
X3342Y3821D01*
X3352Y3804D01*
X3356Y3784D01*
X3409Y3695D01*
X3458Y3604D01*
X3472Y3590D01*
X3482Y3573D01*
X3561Y3506D01*
X3636Y3434D01*
X3654Y3426D01*
X3669Y3413D01*
X3765Y3374D01*
X3859Y3331D01*
X3879Y3329D01*
X3897Y3321D01*
X4064Y3303D01*
X745936Y3303D01*
X745956Y3306D01*
G37*
%LPC*%
G36*
X695816Y428967D02*
X695816Y428967D01*
X688086Y432169D01*
X682169Y438086D01*
X678967Y445816D01*
X678967Y454184D01*
X682169Y461914D01*
X688086Y467831D01*
X695816Y471033D01*
X704184Y471033D01*
X711914Y467831D01*
X717831Y461914D01*
X721033Y454184D01*
X721033Y445816D01*
X717831Y438086D01*
X711914Y432169D01*
X704184Y428967D01*
X695816Y428967D01*
G37*
%LPD*%
%LPC*%
G36*
X45816Y428967D02*
X45816Y428967D01*
X38086Y432169D01*
X32169Y438086D01*
X28967Y445816D01*
X28967Y454184D01*
X32169Y461914D01*
X38086Y467831D01*
X45816Y471033D01*
X54184Y471033D01*
X61914Y467831D01*
X67831Y461914D01*
X71033Y454184D01*
X71033Y445816D01*
X67831Y438086D01*
X61914Y432169D01*
X54184Y428967D01*
X45816Y428967D01*
G37*
%LPD*%
%LPC*%
G36*
X695816Y28967D02*
X695816Y28967D01*
X688086Y32169D01*
X682169Y38086D01*
X678967Y45816D01*
X678967Y54184D01*
X682169Y61914D01*
X688086Y67831D01*
X695816Y71033D01*
X704184Y71033D01*
X711914Y67831D01*
X717831Y61914D01*
X721033Y54184D01*
X721033Y45816D01*
X717831Y38086D01*
X711914Y32169D01*
X704184Y28967D01*
X695816Y28967D01*
G37*
%LPD*%
%LPC*%
G36*
X45816Y28967D02*
X45816Y28967D01*
X38086Y32169D01*
X32169Y38086D01*
X28967Y45816D01*
X28967Y54184D01*
X32169Y61914D01*
X38086Y67831D01*
X45816Y71033D01*
X54184Y71033D01*
X61914Y67831D01*
X67831Y61914D01*
X71033Y54184D01*
X71033Y45816D01*
X67831Y38086D01*
X61914Y32169D01*
X54184Y28967D01*
X45816Y28967D01*
G37*
%LPD*%
%LPC*%
G36*
X249532Y361189D02*
X249532Y361189D01*
X246264Y362543D01*
X243763Y365044D01*
X242409Y368312D01*
X242409Y387088D01*
X243763Y390356D01*
X243905Y390498D01*
X243973Y390593D01*
X244042Y390687D01*
X244044Y390693D01*
X244048Y390698D01*
X244082Y390809D01*
X244119Y390920D01*
X244119Y390927D01*
X244120Y390933D01*
X244117Y391049D01*
X244116Y391166D01*
X244114Y391174D01*
X244114Y391179D01*
X244108Y391196D01*
X244070Y391328D01*
X242709Y394612D01*
X242709Y413388D01*
X244063Y416656D01*
X246564Y419157D01*
X249832Y420511D01*
X253368Y420511D01*
X256636Y419157D01*
X259137Y416656D01*
X260491Y413388D01*
X260491Y394612D01*
X259137Y391344D01*
X258995Y391202D01*
X258927Y391107D01*
X258858Y391013D01*
X258856Y391007D01*
X258852Y391002D01*
X258817Y390889D01*
X258781Y390780D01*
X258781Y390773D01*
X258780Y390767D01*
X258783Y390651D01*
X258784Y390534D01*
X258786Y390526D01*
X258786Y390521D01*
X258792Y390504D01*
X258830Y390372D01*
X260191Y387088D01*
X260191Y368312D01*
X258837Y365044D01*
X256336Y362543D01*
X253068Y361189D01*
X249532Y361189D01*
G37*
%LPD*%
%LPC*%
G36*
X345232Y168489D02*
X345232Y168489D01*
X341964Y169843D01*
X339463Y172344D01*
X338109Y175612D01*
X338109Y194388D01*
X339463Y197656D01*
X341964Y200157D01*
X345232Y201511D01*
X348768Y201511D01*
X352036Y200157D01*
X354537Y197656D01*
X355891Y194388D01*
X355891Y175612D01*
X354537Y172344D01*
X352036Y169843D01*
X348768Y168489D01*
X345232Y168489D01*
G37*
%LPD*%
%LPC*%
G36*
X370632Y168489D02*
X370632Y168489D01*
X367364Y169843D01*
X364863Y172344D01*
X363509Y175612D01*
X363509Y194388D01*
X364863Y197656D01*
X367364Y200157D01*
X370632Y201511D01*
X374168Y201511D01*
X377436Y200157D01*
X379937Y197656D01*
X381291Y194388D01*
X381291Y175612D01*
X379937Y172344D01*
X377436Y169843D01*
X374168Y168489D01*
X370632Y168489D01*
G37*
%LPD*%
%LPC*%
G36*
X326032Y387489D02*
X326032Y387489D01*
X322764Y388843D01*
X320263Y391344D01*
X318909Y394612D01*
X318909Y413388D01*
X320263Y416656D01*
X322764Y419157D01*
X326032Y420511D01*
X329568Y420511D01*
X332836Y419157D01*
X335337Y416656D01*
X336691Y413388D01*
X336691Y394612D01*
X335337Y391344D01*
X332836Y388843D01*
X329568Y387489D01*
X326032Y387489D01*
G37*
%LPD*%
%LPC*%
G36*
X300632Y387489D02*
X300632Y387489D01*
X297364Y388843D01*
X294863Y391344D01*
X293509Y394612D01*
X293509Y413388D01*
X294863Y416656D01*
X297364Y419157D01*
X300632Y420511D01*
X304168Y420511D01*
X307436Y419157D01*
X309937Y416656D01*
X311291Y413388D01*
X311291Y394612D01*
X309937Y391344D01*
X307436Y388843D01*
X304168Y387489D01*
X300632Y387489D01*
G37*
%LPD*%
%LPC*%
G36*
X275232Y387489D02*
X275232Y387489D01*
X271964Y388843D01*
X269463Y391344D01*
X268109Y394612D01*
X268109Y413388D01*
X269463Y416656D01*
X271964Y419157D01*
X275232Y420511D01*
X278768Y420511D01*
X282036Y419157D01*
X284537Y416656D01*
X285891Y413388D01*
X285891Y394612D01*
X284537Y391344D01*
X282036Y388843D01*
X278768Y387489D01*
X275232Y387489D01*
G37*
%LPD*%
%LPC*%
G36*
X319832Y168489D02*
X319832Y168489D01*
X316564Y169843D01*
X314063Y172344D01*
X312709Y175612D01*
X312709Y194388D01*
X314063Y197656D01*
X316564Y200157D01*
X319832Y201511D01*
X323368Y201511D01*
X326636Y200157D01*
X329137Y197656D01*
X330491Y194388D01*
X330491Y175612D01*
X329137Y172344D01*
X326636Y169843D01*
X323368Y168489D01*
X319832Y168489D01*
G37*
%LPD*%
%LPC*%
G36*
X151575Y137807D02*
X151575Y137807D01*
X147093Y139664D01*
X143664Y143093D01*
X141807Y147575D01*
X141807Y152425D01*
X143664Y156907D01*
X147093Y160336D01*
X151575Y162193D01*
X156425Y162193D01*
X160907Y160336D01*
X164336Y156907D01*
X166193Y152425D01*
X166193Y147575D01*
X164336Y143093D01*
X160907Y139664D01*
X156425Y137807D01*
X151575Y137807D01*
G37*
%LPD*%
%LPC*%
G36*
X201575Y137807D02*
X201575Y137807D01*
X197093Y139664D01*
X193664Y143093D01*
X191807Y147575D01*
X191807Y152425D01*
X193664Y156907D01*
X197093Y160336D01*
X201575Y162193D01*
X206425Y162193D01*
X210907Y160336D01*
X214336Y156907D01*
X216193Y152425D01*
X216193Y147575D01*
X214336Y143093D01*
X210907Y139664D01*
X206425Y137807D01*
X201575Y137807D01*
G37*
%LPD*%
%LPC*%
G36*
X227423Y379223D02*
X227423Y379223D01*
X227423Y395610D01*
X227453Y395628D01*
X227482Y395662D01*
X227517Y395689D01*
X227561Y395755D01*
X227613Y395815D01*
X227629Y395856D01*
X227654Y395893D01*
X227675Y395969D01*
X227705Y396043D01*
X227711Y396102D01*
X227719Y396130D01*
X227717Y396158D01*
X227723Y396210D01*
X227723Y402477D01*
X236361Y402477D01*
X236361Y395580D01*
X236111Y394001D01*
X235616Y392480D01*
X234890Y391055D01*
X234866Y391021D01*
X234826Y390943D01*
X234780Y390869D01*
X234771Y390833D01*
X234755Y390801D01*
X234743Y390714D01*
X234722Y390630D01*
X234725Y390593D01*
X234720Y390558D01*
X234736Y390471D01*
X234744Y390385D01*
X234760Y390341D01*
X234765Y390316D01*
X234780Y390288D01*
X234803Y390228D01*
X235316Y389220D01*
X235811Y387699D01*
X236061Y386120D01*
X236061Y379223D01*
X227423Y379223D01*
G37*
%LPD*%
%LPC*%
G36*
X215739Y379223D02*
X215739Y379223D01*
X215739Y386120D01*
X215989Y387699D01*
X216484Y389220D01*
X217210Y390645D01*
X217234Y390679D01*
X217274Y390757D01*
X217320Y390831D01*
X217329Y390867D01*
X217345Y390899D01*
X217357Y390986D01*
X217378Y391070D01*
X217375Y391107D01*
X217380Y391142D01*
X217364Y391229D01*
X217356Y391315D01*
X217340Y391359D01*
X217335Y391384D01*
X217320Y391412D01*
X217297Y391472D01*
X216784Y392480D01*
X216289Y394001D01*
X216039Y395580D01*
X216039Y402477D01*
X224677Y402477D01*
X224677Y386090D01*
X224647Y386072D01*
X224618Y386038D01*
X224583Y386011D01*
X224539Y385945D01*
X224487Y385885D01*
X224471Y385844D01*
X224446Y385807D01*
X224425Y385731D01*
X224395Y385657D01*
X224389Y385598D01*
X224381Y385570D01*
X224383Y385542D01*
X224377Y385490D01*
X224377Y379223D01*
X215739Y379223D01*
G37*
%LPD*%
%LPC*%
G36*
X558649Y232833D02*
X558649Y232833D01*
X554333Y237149D01*
X554333Y243251D01*
X558649Y247567D01*
X564751Y247567D01*
X569067Y243251D01*
X569067Y237149D01*
X564751Y232833D01*
X558649Y232833D01*
G37*
%LPD*%
%LPC*%
G36*
X533249Y232833D02*
X533249Y232833D01*
X528933Y237149D01*
X528933Y243251D01*
X533249Y247567D01*
X539351Y247567D01*
X543667Y243251D01*
X543667Y237149D01*
X539351Y232833D01*
X533249Y232833D01*
G37*
%LPD*%
%LPC*%
G36*
X558949Y376433D02*
X558949Y376433D01*
X554633Y380749D01*
X554633Y386851D01*
X558949Y391167D01*
X565051Y391167D01*
X569367Y386851D01*
X569367Y380749D01*
X565051Y376433D01*
X558949Y376433D01*
G37*
%LPD*%
%LPC*%
G36*
X470949Y112433D02*
X470949Y112433D01*
X466633Y116749D01*
X466633Y122851D01*
X470949Y127167D01*
X477051Y127167D01*
X481367Y122851D01*
X481367Y116749D01*
X477051Y112433D01*
X470949Y112433D01*
G37*
%LPD*%
%LPC*%
G36*
X506149Y112633D02*
X506149Y112633D01*
X501833Y116949D01*
X501833Y123051D01*
X506149Y127367D01*
X512251Y127367D01*
X516567Y123051D01*
X516567Y116949D01*
X512251Y112633D01*
X506149Y112633D01*
G37*
%LPD*%
%LPC*%
G36*
X607749Y112633D02*
X607749Y112633D01*
X603433Y116949D01*
X603433Y123051D01*
X607749Y127367D01*
X613851Y127367D01*
X618167Y123051D01*
X618167Y116949D01*
X613851Y112633D01*
X607749Y112633D01*
G37*
%LPD*%
%LPC*%
G36*
X558949Y274833D02*
X558949Y274833D01*
X554633Y279149D01*
X554633Y285251D01*
X558949Y289567D01*
X565051Y289567D01*
X569367Y285251D01*
X569367Y279149D01*
X565051Y274833D01*
X558949Y274833D01*
G37*
%LPD*%
%LPC*%
G36*
X460949Y274833D02*
X460949Y274833D01*
X456633Y279149D01*
X456633Y285251D01*
X460949Y289567D01*
X467051Y289567D01*
X471367Y285251D01*
X471367Y279149D01*
X467051Y274833D01*
X460949Y274833D01*
G37*
%LPD*%
%LPC*%
G36*
X435149Y232633D02*
X435149Y232633D01*
X430833Y236949D01*
X430833Y243051D01*
X435149Y247367D01*
X441251Y247367D01*
X445567Y243051D01*
X445567Y236949D01*
X441251Y232633D01*
X435149Y232633D01*
G37*
%LPD*%
%LPC*%
G36*
X460549Y232633D02*
X460549Y232633D01*
X456233Y236949D01*
X456233Y243051D01*
X460549Y247367D01*
X466651Y247367D01*
X470967Y243051D01*
X470967Y236949D01*
X466651Y232633D01*
X460549Y232633D01*
G37*
%LPD*%
%LPC*%
G36*
X321124Y207979D02*
X321124Y207979D01*
X320379Y208724D01*
X320379Y220276D01*
X321124Y221021D01*
X332676Y221021D01*
X333421Y220276D01*
X333421Y208724D01*
X332676Y207979D01*
X321124Y207979D01*
G37*
%LPD*%
%LPC*%
G36*
X365803Y147079D02*
X365803Y147079D01*
X363406Y148072D01*
X361572Y149906D01*
X360579Y152303D01*
X360579Y154897D01*
X361572Y157294D01*
X363406Y159128D01*
X365803Y160121D01*
X368397Y160121D01*
X370794Y159128D01*
X372628Y157294D01*
X373621Y154897D01*
X373621Y152303D01*
X372628Y149906D01*
X370794Y148072D01*
X368397Y147079D01*
X365803Y147079D01*
G37*
%LPD*%
%LPC*%
G36*
X345803Y147079D02*
X345803Y147079D01*
X343406Y148072D01*
X341572Y149906D01*
X340579Y152303D01*
X340579Y154897D01*
X341572Y157294D01*
X343406Y159128D01*
X345803Y160121D01*
X348397Y160121D01*
X350794Y159128D01*
X352628Y157294D01*
X353621Y154897D01*
X353621Y152303D01*
X352628Y149906D01*
X350794Y148072D01*
X348397Y147079D01*
X345803Y147079D01*
G37*
%LPD*%
%LPC*%
G36*
X325803Y147079D02*
X325803Y147079D01*
X323406Y148072D01*
X321572Y149906D01*
X320579Y152303D01*
X320579Y154897D01*
X321572Y157294D01*
X323406Y159128D01*
X325803Y160121D01*
X328397Y160121D01*
X330794Y159128D01*
X332628Y157294D01*
X333621Y154897D01*
X333621Y152303D01*
X332628Y149906D01*
X330794Y148072D01*
X328397Y147079D01*
X325803Y147079D01*
G37*
%LPD*%
%LPC*%
G36*
X365803Y96079D02*
X365803Y96079D01*
X363406Y97072D01*
X361572Y98906D01*
X360579Y101303D01*
X360579Y103897D01*
X361572Y106294D01*
X363406Y108128D01*
X365803Y109121D01*
X368397Y109121D01*
X370794Y108128D01*
X372628Y106294D01*
X373621Y103897D01*
X373621Y101303D01*
X372628Y98906D01*
X370794Y97072D01*
X368397Y96079D01*
X365803Y96079D01*
G37*
%LPD*%
%LPC*%
G36*
X345803Y96079D02*
X345803Y96079D01*
X343406Y97072D01*
X341572Y98906D01*
X340579Y101303D01*
X340579Y103897D01*
X341572Y106294D01*
X343406Y108128D01*
X345803Y109121D01*
X348397Y109121D01*
X350794Y108128D01*
X352628Y106294D01*
X353621Y103897D01*
X353621Y101303D01*
X352628Y98906D01*
X350794Y97072D01*
X348397Y96079D01*
X345803Y96079D01*
G37*
%LPD*%
%LPC*%
G36*
X345603Y258979D02*
X345603Y258979D01*
X343206Y259972D01*
X341372Y261806D01*
X340379Y264203D01*
X340379Y266797D01*
X341372Y269194D01*
X343206Y271028D01*
X345603Y272021D01*
X348197Y272021D01*
X350594Y271028D01*
X352428Y269194D01*
X353421Y266797D01*
X353421Y264203D01*
X352428Y261806D01*
X350594Y259972D01*
X348197Y258979D01*
X345603Y258979D01*
G37*
%LPD*%
%LPC*%
G36*
X365603Y258979D02*
X365603Y258979D01*
X363206Y259972D01*
X361372Y261806D01*
X360379Y264203D01*
X360379Y266797D01*
X361372Y269194D01*
X363206Y271028D01*
X365603Y272021D01*
X368197Y272021D01*
X370594Y271028D01*
X372428Y269194D01*
X373421Y266797D01*
X373421Y264203D01*
X372428Y261806D01*
X370594Y259972D01*
X368197Y258979D01*
X365603Y258979D01*
G37*
%LPD*%
%LPC*%
G36*
X365603Y207979D02*
X365603Y207979D01*
X363206Y208972D01*
X361372Y210806D01*
X360379Y213203D01*
X360379Y215797D01*
X361372Y218194D01*
X363206Y220028D01*
X365603Y221021D01*
X368197Y221021D01*
X370594Y220028D01*
X372428Y218194D01*
X373421Y215797D01*
X373421Y213203D01*
X372428Y210806D01*
X370594Y208972D01*
X368197Y207979D01*
X365603Y207979D01*
G37*
%LPD*%
%LPC*%
G36*
X345603Y207979D02*
X345603Y207979D01*
X343206Y208972D01*
X341372Y210806D01*
X340379Y213203D01*
X340379Y215797D01*
X341372Y218194D01*
X343206Y220028D01*
X345603Y221021D01*
X348197Y221021D01*
X350594Y220028D01*
X352428Y218194D01*
X353421Y215797D01*
X353421Y213203D01*
X352428Y210806D01*
X350594Y208972D01*
X348197Y207979D01*
X345603Y207979D01*
G37*
%LPD*%
%LPC*%
G36*
X227723Y405523D02*
X227723Y405523D01*
X227723Y421666D01*
X228579Y421531D01*
X230100Y421036D01*
X231525Y420310D01*
X232819Y419370D01*
X233950Y418239D01*
X234890Y416945D01*
X235616Y415520D01*
X236111Y413999D01*
X236361Y412420D01*
X236361Y405523D01*
X227723Y405523D01*
G37*
%LPD*%
%LPC*%
G36*
X227423Y376177D02*
X227423Y376177D01*
X236061Y376177D01*
X236061Y369280D01*
X235811Y367701D01*
X235316Y366180D01*
X234590Y364755D01*
X233650Y363461D01*
X232519Y362330D01*
X231225Y361390D01*
X229800Y360664D01*
X228279Y360169D01*
X227423Y360034D01*
X227423Y376177D01*
G37*
%LPD*%
%LPC*%
G36*
X216039Y405523D02*
X216039Y405523D01*
X216039Y412420D01*
X216289Y413999D01*
X216784Y415520D01*
X217510Y416945D01*
X218450Y418239D01*
X219581Y419370D01*
X220875Y420310D01*
X222300Y421036D01*
X223821Y421531D01*
X224677Y421666D01*
X224677Y405523D01*
X216039Y405523D01*
G37*
%LPD*%
%LPC*%
G36*
X223521Y360169D02*
X223521Y360169D01*
X222000Y360664D01*
X220575Y361390D01*
X219281Y362330D01*
X218150Y363461D01*
X217210Y364755D01*
X216484Y366180D01*
X215989Y367701D01*
X215739Y369280D01*
X215739Y376177D01*
X224377Y376177D01*
X224377Y360034D01*
X223521Y360169D01*
G37*
%LPD*%
%LPC*%
G36*
X105523Y151523D02*
X105523Y151523D01*
X105523Y163389D01*
X107152Y163131D01*
X109168Y162476D01*
X111056Y161514D01*
X112770Y160269D01*
X114269Y158770D01*
X115514Y157056D01*
X116476Y155168D01*
X117131Y153152D01*
X117389Y151523D01*
X105523Y151523D01*
G37*
%LPD*%
%LPC*%
G36*
X105523Y148477D02*
X105523Y148477D01*
X117389Y148477D01*
X117131Y146848D01*
X116476Y144832D01*
X115514Y142944D01*
X114269Y141230D01*
X112770Y139731D01*
X111056Y138486D01*
X109168Y137524D01*
X107152Y136869D01*
X105523Y136611D01*
X105523Y148477D01*
G37*
%LPD*%
%LPC*%
G36*
X90611Y151523D02*
X90611Y151523D01*
X90869Y153152D01*
X91524Y155168D01*
X92486Y157056D01*
X93731Y158770D01*
X95230Y160269D01*
X96944Y161514D01*
X98832Y162476D01*
X100848Y163131D01*
X102477Y163389D01*
X102477Y151523D01*
X90611Y151523D01*
G37*
%LPD*%
%LPC*%
G36*
X100848Y136869D02*
X100848Y136869D01*
X98832Y137524D01*
X96944Y138486D01*
X95230Y139731D01*
X93731Y141230D01*
X92486Y142944D01*
X91524Y144832D01*
X90869Y146848D01*
X90611Y148477D01*
X102477Y148477D01*
X102477Y136611D01*
X100848Y136869D01*
G37*
%LPD*%
%LPC*%
G36*
X328623Y104123D02*
X328623Y104123D01*
X328623Y110391D01*
X332684Y110391D01*
X333331Y110218D01*
X333910Y109883D01*
X334383Y109410D01*
X334718Y108831D01*
X334891Y108184D01*
X334891Y104123D01*
X328623Y104123D01*
G37*
%LPD*%
%LPC*%
G36*
X319309Y104123D02*
X319309Y104123D01*
X319309Y108184D01*
X319482Y108831D01*
X319817Y109410D01*
X320290Y109883D01*
X320869Y110218D01*
X321516Y110391D01*
X325577Y110391D01*
X325577Y104123D01*
X319309Y104123D01*
G37*
%LPD*%
%LPC*%
G36*
X328623Y94809D02*
X328623Y94809D01*
X328623Y101077D01*
X334891Y101077D01*
X334891Y97016D01*
X334718Y96369D01*
X334383Y95790D01*
X333910Y95317D01*
X333331Y94982D01*
X332684Y94809D01*
X328623Y94809D01*
G37*
%LPD*%
%LPC*%
G36*
X321516Y94809D02*
X321516Y94809D01*
X320869Y94982D01*
X320290Y95317D01*
X319817Y95790D01*
X319482Y96369D01*
X319309Y97016D01*
X319309Y101077D01*
X325577Y101077D01*
X325577Y94809D01*
X321516Y94809D01*
G37*
%LPD*%
%LPC*%
G36*
X465523Y385323D02*
X465523Y385323D01*
X465523Y392437D01*
X467577Y392437D01*
X472637Y387377D01*
X472637Y385323D01*
X465523Y385323D01*
G37*
%LPD*%
%LPC*%
G36*
X450123Y121323D02*
X450123Y121323D01*
X450123Y128437D01*
X452177Y128437D01*
X457237Y123377D01*
X457237Y121323D01*
X450123Y121323D01*
G37*
%LPD*%
%LPC*%
G36*
X439963Y121323D02*
X439963Y121323D01*
X439963Y123377D01*
X445023Y128437D01*
X447077Y128437D01*
X447077Y121323D01*
X439963Y121323D01*
G37*
%LPD*%
%LPC*%
G36*
X455363Y385323D02*
X455363Y385323D01*
X455363Y387377D01*
X460423Y392437D01*
X462477Y392437D01*
X462477Y385323D01*
X455363Y385323D01*
G37*
%LPD*%
%LPC*%
G36*
X465523Y375163D02*
X465523Y375163D01*
X465523Y382277D01*
X472637Y382277D01*
X472637Y380223D01*
X467577Y375163D01*
X465523Y375163D01*
G37*
%LPD*%
%LPC*%
G36*
X450123Y111163D02*
X450123Y111163D01*
X450123Y118277D01*
X457237Y118277D01*
X457237Y116223D01*
X452177Y111163D01*
X450123Y111163D01*
G37*
%LPD*%
%LPC*%
G36*
X460423Y375163D02*
X460423Y375163D01*
X455363Y380223D01*
X455363Y382277D01*
X462477Y382277D01*
X462477Y375163D01*
X460423Y375163D01*
G37*
%LPD*%
%LPC*%
G36*
X445023Y111163D02*
X445023Y111163D01*
X439963Y116223D01*
X439963Y118277D01*
X447077Y118277D01*
X447077Y111163D01*
X445023Y111163D01*
G37*
%LPD*%
%LPC*%
G36*
X328423Y267023D02*
X328423Y267023D01*
X328423Y273140D01*
X329172Y272991D01*
X330590Y272404D01*
X331866Y271551D01*
X332951Y270466D01*
X333804Y269190D01*
X334391Y267772D01*
X334540Y267023D01*
X328423Y267023D01*
G37*
%LPD*%
%LPC*%
G36*
X328423Y263977D02*
X328423Y263977D01*
X334540Y263977D01*
X334391Y263228D01*
X333804Y261810D01*
X332951Y260534D01*
X331866Y259449D01*
X330590Y258596D01*
X329172Y258009D01*
X328423Y257860D01*
X328423Y263977D01*
G37*
%LPD*%
%LPC*%
G36*
X319260Y267023D02*
X319260Y267023D01*
X319409Y267772D01*
X319996Y269190D01*
X320849Y270466D01*
X321934Y271551D01*
X323210Y272404D01*
X324628Y272991D01*
X325377Y273140D01*
X325377Y267023D01*
X319260Y267023D01*
G37*
%LPD*%
%LPC*%
G36*
X324628Y258009D02*
X324628Y258009D01*
X323210Y258596D01*
X321934Y259449D01*
X320849Y260534D01*
X319996Y261810D01*
X319409Y263228D01*
X319260Y263977D01*
X325377Y263977D01*
X325377Y257860D01*
X324628Y258009D01*
G37*
%LPD*%
%LPC*%
G36*
X226199Y403999D02*
X226199Y403999D01*
X226199Y404001D01*
X226201Y404001D01*
X226201Y403999D01*
X226199Y403999D01*
G37*
%LPD*%
%LPC*%
G36*
X326899Y265499D02*
X326899Y265499D01*
X326899Y265501D01*
X326901Y265501D01*
X326901Y265499D01*
X326899Y265499D01*
G37*
%LPD*%
%LPC*%
G36*
X103999Y149999D02*
X103999Y149999D01*
X103999Y150001D01*
X104001Y150001D01*
X104001Y149999D01*
X103999Y149999D01*
G37*
%LPD*%
%LPC*%
G36*
X225899Y377699D02*
X225899Y377699D01*
X225899Y377701D01*
X225901Y377701D01*
X225901Y377699D01*
X225899Y377699D01*
G37*
%LPD*%
%LPC*%
G36*
X448599Y119799D02*
X448599Y119799D01*
X448599Y119801D01*
X448601Y119801D01*
X448601Y119799D01*
X448599Y119799D01*
G37*
%LPD*%
%LPC*%
G36*
X327099Y102599D02*
X327099Y102599D01*
X327099Y102601D01*
X327101Y102601D01*
X327101Y102599D01*
X327099Y102599D01*
G37*
%LPD*%
%LPC*%
G36*
X463999Y383799D02*
X463999Y383799D01*
X463999Y383801D01*
X464001Y383801D01*
X464001Y383799D01*
X463999Y383799D01*
G37*
%LPD*%
D10*
X438200Y240000D03*
X463600Y240000D03*
D11*
X474000Y119800D03*
X448600Y119800D03*
D12*
X327100Y102600D03*
D13*
X347100Y102600D03*
X367100Y102600D03*
X367100Y153600D03*
X347100Y153600D03*
X327100Y153600D03*
D12*
X326900Y214500D03*
D13*
X346900Y214500D03*
X366900Y214500D03*
X366900Y265500D03*
X346900Y265500D03*
X326900Y265500D03*
D10*
X536300Y240200D03*
X561700Y240200D03*
D14*
X464000Y282200D03*
X464000Y383800D03*
D15*
X226200Y396380D02*
X226200Y411620D01*
X251600Y411620D02*
X251600Y396380D01*
X277000Y396380D02*
X277000Y411620D01*
X302400Y411620D02*
X302400Y396380D01*
X327800Y396380D02*
X327800Y411620D01*
D16*
X104000Y150000D03*
X154000Y150000D03*
X204000Y150000D03*
D11*
X610800Y120000D03*
X509200Y120000D03*
D17*
X562000Y383800D03*
X562000Y282200D03*
D15*
X251300Y370080D02*
X251300Y385320D01*
X225900Y385320D02*
X225900Y370080D01*
X372400Y192620D02*
X372400Y177380D01*
X347000Y177380D02*
X347000Y192620D01*
X321600Y192620D02*
X321600Y177380D01*
M02*
