G04 EAGLE Gerber RS-274X export*
G75*
%MOMM*%
%FSLAX34Y34*%
%LPD*%
%INSilkscreen Top*%
%IPPOS*%
%AMOC8*
5,1,8,0,0,1.08239X$1,22.5*%
G01*
%ADD10C,0.152400*%
%ADD11C,0.127000*%
%ADD12C,0.076200*%
%ADD13C,0.203200*%
%ADD14C,0.254000*%
%ADD15C,0.101600*%
%ADD16R,0.609600X0.863600*%
%ADD17R,0.863600X0.609600*%


D10*
X420762Y199793D02*
X425278Y199793D01*
X425278Y199794D02*
X425411Y199792D01*
X425543Y199786D01*
X425675Y199776D01*
X425807Y199763D01*
X425939Y199745D01*
X426069Y199724D01*
X426200Y199699D01*
X426329Y199670D01*
X426457Y199637D01*
X426585Y199601D01*
X426711Y199561D01*
X426836Y199517D01*
X426960Y199469D01*
X427082Y199418D01*
X427203Y199363D01*
X427322Y199305D01*
X427440Y199243D01*
X427555Y199178D01*
X427669Y199109D01*
X427780Y199038D01*
X427889Y198962D01*
X427996Y198884D01*
X428101Y198803D01*
X428203Y198718D01*
X428303Y198631D01*
X428400Y198541D01*
X428495Y198448D01*
X428586Y198352D01*
X428675Y198254D01*
X428761Y198153D01*
X428844Y198049D01*
X428924Y197943D01*
X429000Y197835D01*
X429074Y197725D01*
X429144Y197612D01*
X429211Y197498D01*
X429274Y197381D01*
X429334Y197263D01*
X429391Y197143D01*
X429444Y197021D01*
X429493Y196898D01*
X429539Y196774D01*
X429581Y196648D01*
X429619Y196521D01*
X429654Y196393D01*
X429685Y196264D01*
X429712Y196135D01*
X429735Y196004D01*
X429755Y195873D01*
X429770Y195741D01*
X429782Y195609D01*
X429790Y195477D01*
X429794Y195344D01*
X429794Y195212D01*
X429790Y195079D01*
X429782Y194947D01*
X429770Y194815D01*
X429755Y194683D01*
X429735Y194552D01*
X429712Y194421D01*
X429685Y194292D01*
X429654Y194163D01*
X429619Y194035D01*
X429581Y193908D01*
X429539Y193782D01*
X429493Y193658D01*
X429444Y193535D01*
X429391Y193413D01*
X429334Y193293D01*
X429274Y193175D01*
X429211Y193058D01*
X429144Y192944D01*
X429074Y192831D01*
X429000Y192721D01*
X428924Y192613D01*
X428844Y192507D01*
X428761Y192403D01*
X428675Y192302D01*
X428586Y192204D01*
X428495Y192108D01*
X428400Y192015D01*
X428303Y191925D01*
X428203Y191838D01*
X428101Y191753D01*
X427996Y191672D01*
X427889Y191594D01*
X427780Y191518D01*
X427669Y191447D01*
X427555Y191378D01*
X427440Y191313D01*
X427322Y191251D01*
X427203Y191193D01*
X427082Y191138D01*
X426960Y191087D01*
X426836Y191039D01*
X426711Y190995D01*
X426585Y190955D01*
X426457Y190919D01*
X426329Y190886D01*
X426200Y190857D01*
X426069Y190832D01*
X425939Y190811D01*
X425807Y190793D01*
X425675Y190780D01*
X425543Y190770D01*
X425411Y190764D01*
X425278Y190762D01*
X420762Y190762D01*
X420762Y207018D01*
X425278Y207018D01*
X425397Y207016D01*
X425517Y207010D01*
X425636Y207000D01*
X425754Y206986D01*
X425873Y206969D01*
X425990Y206947D01*
X426107Y206922D01*
X426222Y206892D01*
X426337Y206859D01*
X426451Y206822D01*
X426563Y206782D01*
X426674Y206737D01*
X426783Y206689D01*
X426891Y206638D01*
X426997Y206583D01*
X427101Y206524D01*
X427203Y206462D01*
X427303Y206397D01*
X427401Y206328D01*
X427497Y206256D01*
X427590Y206181D01*
X427680Y206104D01*
X427768Y206023D01*
X427853Y205939D01*
X427935Y205852D01*
X428015Y205763D01*
X428091Y205671D01*
X428165Y205577D01*
X428235Y205480D01*
X428302Y205382D01*
X428366Y205281D01*
X428426Y205177D01*
X428483Y205072D01*
X428536Y204965D01*
X428586Y204857D01*
X428632Y204747D01*
X428674Y204635D01*
X428713Y204522D01*
X428748Y204408D01*
X428779Y204293D01*
X428807Y204176D01*
X428830Y204059D01*
X428850Y203942D01*
X428866Y203823D01*
X428878Y203704D01*
X428886Y203585D01*
X428890Y203466D01*
X428890Y203346D01*
X428886Y203227D01*
X428878Y203108D01*
X428866Y202989D01*
X428850Y202870D01*
X428830Y202753D01*
X428807Y202636D01*
X428779Y202519D01*
X428748Y202404D01*
X428713Y202290D01*
X428674Y202177D01*
X428632Y202065D01*
X428586Y201955D01*
X428536Y201847D01*
X428483Y201740D01*
X428426Y201635D01*
X428366Y201531D01*
X428302Y201430D01*
X428235Y201332D01*
X428165Y201235D01*
X428091Y201141D01*
X428015Y201049D01*
X427935Y200960D01*
X427853Y200873D01*
X427768Y200789D01*
X427680Y200708D01*
X427590Y200631D01*
X427497Y200556D01*
X427401Y200484D01*
X427303Y200415D01*
X427203Y200350D01*
X427101Y200288D01*
X426997Y200229D01*
X426891Y200174D01*
X426783Y200123D01*
X426674Y200075D01*
X426563Y200030D01*
X426451Y199990D01*
X426337Y199953D01*
X426222Y199920D01*
X426107Y199890D01*
X425990Y199865D01*
X425873Y199843D01*
X425754Y199826D01*
X425636Y199812D01*
X425517Y199802D01*
X425397Y199796D01*
X425278Y199794D01*
X436274Y207018D02*
X436274Y190762D01*
X436274Y207018D02*
X440789Y207018D01*
X440922Y207016D01*
X441054Y207010D01*
X441186Y207000D01*
X441318Y206987D01*
X441450Y206969D01*
X441580Y206948D01*
X441711Y206923D01*
X441840Y206894D01*
X441968Y206861D01*
X442096Y206825D01*
X442222Y206785D01*
X442347Y206741D01*
X442471Y206693D01*
X442593Y206642D01*
X442714Y206587D01*
X442833Y206529D01*
X442951Y206467D01*
X443066Y206402D01*
X443180Y206333D01*
X443291Y206262D01*
X443400Y206186D01*
X443507Y206108D01*
X443612Y206027D01*
X443714Y205942D01*
X443814Y205855D01*
X443911Y205765D01*
X444006Y205672D01*
X444097Y205576D01*
X444186Y205478D01*
X444272Y205377D01*
X444355Y205273D01*
X444435Y205167D01*
X444511Y205059D01*
X444585Y204949D01*
X444655Y204836D01*
X444722Y204722D01*
X444785Y204605D01*
X444845Y204487D01*
X444902Y204367D01*
X444955Y204245D01*
X445004Y204122D01*
X445050Y203998D01*
X445092Y203872D01*
X445130Y203745D01*
X445165Y203617D01*
X445196Y203488D01*
X445223Y203359D01*
X445246Y203228D01*
X445266Y203097D01*
X445281Y202965D01*
X445293Y202833D01*
X445301Y202701D01*
X445305Y202568D01*
X445305Y202436D01*
X445301Y202303D01*
X445293Y202171D01*
X445281Y202039D01*
X445266Y201907D01*
X445246Y201776D01*
X445223Y201645D01*
X445196Y201516D01*
X445165Y201387D01*
X445130Y201259D01*
X445092Y201132D01*
X445050Y201006D01*
X445004Y200882D01*
X444955Y200759D01*
X444902Y200637D01*
X444845Y200517D01*
X444785Y200399D01*
X444722Y200282D01*
X444655Y200168D01*
X444585Y200055D01*
X444511Y199945D01*
X444435Y199837D01*
X444355Y199731D01*
X444272Y199627D01*
X444186Y199526D01*
X444097Y199428D01*
X444006Y199332D01*
X443911Y199239D01*
X443814Y199149D01*
X443714Y199062D01*
X443612Y198977D01*
X443507Y198896D01*
X443400Y198818D01*
X443291Y198742D01*
X443180Y198671D01*
X443066Y198602D01*
X442951Y198537D01*
X442833Y198475D01*
X442714Y198417D01*
X442593Y198362D01*
X442471Y198311D01*
X442347Y198263D01*
X442222Y198219D01*
X442096Y198179D01*
X441968Y198143D01*
X441840Y198110D01*
X441711Y198081D01*
X441580Y198056D01*
X441450Y198035D01*
X441318Y198017D01*
X441186Y198004D01*
X441054Y197994D01*
X440922Y197988D01*
X440789Y197986D01*
X440789Y197987D02*
X436274Y197987D01*
X441693Y197987D02*
X445305Y190762D01*
X450910Y190762D02*
X456329Y207018D01*
X461748Y190762D01*
X460393Y194826D02*
X452265Y194826D01*
X468177Y190762D02*
X468177Y207018D01*
X477208Y207018D02*
X468177Y197084D01*
X471789Y200696D02*
X477208Y190762D01*
X483627Y190762D02*
X490852Y190762D01*
X483627Y190762D02*
X483627Y207018D01*
X490852Y207018D01*
X489046Y199793D02*
X483627Y199793D01*
X580762Y230762D02*
X587987Y230762D01*
X580762Y230762D02*
X580762Y247018D01*
X587987Y247018D01*
X586181Y239793D02*
X580762Y239793D01*
X594279Y247018D02*
X594279Y230762D01*
X603310Y230762D02*
X594279Y247018D01*
X603310Y247018D02*
X603310Y230762D01*
X609528Y230762D02*
X614947Y247018D01*
X620366Y230762D01*
X619011Y234826D02*
X610883Y234826D01*
X626795Y239793D02*
X631310Y239793D01*
X631310Y239794D02*
X631443Y239792D01*
X631575Y239786D01*
X631707Y239776D01*
X631839Y239763D01*
X631971Y239745D01*
X632101Y239724D01*
X632232Y239699D01*
X632361Y239670D01*
X632489Y239637D01*
X632617Y239601D01*
X632743Y239561D01*
X632868Y239517D01*
X632992Y239469D01*
X633114Y239418D01*
X633235Y239363D01*
X633354Y239305D01*
X633472Y239243D01*
X633587Y239178D01*
X633701Y239109D01*
X633812Y239038D01*
X633921Y238962D01*
X634028Y238884D01*
X634133Y238803D01*
X634235Y238718D01*
X634335Y238631D01*
X634432Y238541D01*
X634527Y238448D01*
X634618Y238352D01*
X634707Y238254D01*
X634793Y238153D01*
X634876Y238049D01*
X634956Y237943D01*
X635032Y237835D01*
X635106Y237725D01*
X635176Y237612D01*
X635243Y237498D01*
X635306Y237381D01*
X635366Y237263D01*
X635423Y237143D01*
X635476Y237021D01*
X635525Y236898D01*
X635571Y236774D01*
X635613Y236648D01*
X635651Y236521D01*
X635686Y236393D01*
X635717Y236264D01*
X635744Y236135D01*
X635767Y236004D01*
X635787Y235873D01*
X635802Y235741D01*
X635814Y235609D01*
X635822Y235477D01*
X635826Y235344D01*
X635826Y235212D01*
X635822Y235079D01*
X635814Y234947D01*
X635802Y234815D01*
X635787Y234683D01*
X635767Y234552D01*
X635744Y234421D01*
X635717Y234292D01*
X635686Y234163D01*
X635651Y234035D01*
X635613Y233908D01*
X635571Y233782D01*
X635525Y233658D01*
X635476Y233535D01*
X635423Y233413D01*
X635366Y233293D01*
X635306Y233175D01*
X635243Y233058D01*
X635176Y232944D01*
X635106Y232831D01*
X635032Y232721D01*
X634956Y232613D01*
X634876Y232507D01*
X634793Y232403D01*
X634707Y232302D01*
X634618Y232204D01*
X634527Y232108D01*
X634432Y232015D01*
X634335Y231925D01*
X634235Y231838D01*
X634133Y231753D01*
X634028Y231672D01*
X633921Y231594D01*
X633812Y231518D01*
X633701Y231447D01*
X633587Y231378D01*
X633472Y231313D01*
X633354Y231251D01*
X633235Y231193D01*
X633114Y231138D01*
X632992Y231087D01*
X632868Y231039D01*
X632743Y230995D01*
X632617Y230955D01*
X632489Y230919D01*
X632361Y230886D01*
X632232Y230857D01*
X632101Y230832D01*
X631971Y230811D01*
X631839Y230793D01*
X631707Y230780D01*
X631575Y230770D01*
X631443Y230764D01*
X631310Y230762D01*
X626795Y230762D01*
X626795Y247018D01*
X631310Y247018D01*
X631429Y247016D01*
X631549Y247010D01*
X631668Y247000D01*
X631786Y246986D01*
X631905Y246969D01*
X632022Y246947D01*
X632139Y246922D01*
X632254Y246892D01*
X632369Y246859D01*
X632483Y246822D01*
X632595Y246782D01*
X632706Y246737D01*
X632815Y246689D01*
X632923Y246638D01*
X633029Y246583D01*
X633133Y246524D01*
X633235Y246462D01*
X633335Y246397D01*
X633433Y246328D01*
X633529Y246256D01*
X633622Y246181D01*
X633712Y246104D01*
X633800Y246023D01*
X633885Y245939D01*
X633967Y245852D01*
X634047Y245763D01*
X634123Y245671D01*
X634197Y245577D01*
X634267Y245480D01*
X634334Y245382D01*
X634398Y245281D01*
X634458Y245177D01*
X634515Y245072D01*
X634568Y244965D01*
X634618Y244857D01*
X634664Y244747D01*
X634706Y244635D01*
X634745Y244522D01*
X634780Y244408D01*
X634811Y244293D01*
X634839Y244176D01*
X634862Y244059D01*
X634882Y243942D01*
X634898Y243823D01*
X634910Y243704D01*
X634918Y243585D01*
X634922Y243466D01*
X634922Y243346D01*
X634918Y243227D01*
X634910Y243108D01*
X634898Y242989D01*
X634882Y242870D01*
X634862Y242753D01*
X634839Y242636D01*
X634811Y242519D01*
X634780Y242404D01*
X634745Y242290D01*
X634706Y242177D01*
X634664Y242065D01*
X634618Y241955D01*
X634568Y241847D01*
X634515Y241740D01*
X634458Y241635D01*
X634398Y241531D01*
X634334Y241430D01*
X634267Y241332D01*
X634197Y241235D01*
X634123Y241141D01*
X634047Y241049D01*
X633967Y240960D01*
X633885Y240873D01*
X633800Y240789D01*
X633712Y240708D01*
X633622Y240631D01*
X633529Y240556D01*
X633433Y240484D01*
X633335Y240415D01*
X633235Y240350D01*
X633133Y240288D01*
X633029Y240229D01*
X632923Y240174D01*
X632815Y240123D01*
X632706Y240075D01*
X632595Y240030D01*
X632483Y239990D01*
X632369Y239953D01*
X632254Y239920D01*
X632139Y239890D01*
X632022Y239865D01*
X631905Y239843D01*
X631786Y239826D01*
X631668Y239812D01*
X631549Y239802D01*
X631429Y239796D01*
X631310Y239794D01*
X642245Y247018D02*
X642245Y230762D01*
X649470Y230762D01*
X655792Y230762D02*
X663017Y230762D01*
X655792Y230762D02*
X655792Y247018D01*
X663017Y247018D01*
X661211Y239793D02*
X655792Y239793D01*
X420762Y177018D02*
X420762Y160762D01*
X420762Y177018D02*
X425278Y177018D01*
X425411Y177016D01*
X425543Y177010D01*
X425675Y177000D01*
X425807Y176987D01*
X425939Y176969D01*
X426069Y176948D01*
X426200Y176923D01*
X426329Y176894D01*
X426457Y176861D01*
X426585Y176825D01*
X426711Y176785D01*
X426836Y176741D01*
X426960Y176693D01*
X427082Y176642D01*
X427203Y176587D01*
X427322Y176529D01*
X427440Y176467D01*
X427555Y176402D01*
X427669Y176333D01*
X427780Y176262D01*
X427889Y176186D01*
X427996Y176108D01*
X428101Y176027D01*
X428203Y175942D01*
X428303Y175855D01*
X428400Y175765D01*
X428495Y175672D01*
X428586Y175576D01*
X428675Y175478D01*
X428761Y175377D01*
X428844Y175273D01*
X428924Y175167D01*
X429000Y175059D01*
X429074Y174949D01*
X429144Y174836D01*
X429211Y174722D01*
X429274Y174605D01*
X429334Y174487D01*
X429391Y174367D01*
X429444Y174245D01*
X429493Y174122D01*
X429539Y173998D01*
X429581Y173872D01*
X429619Y173745D01*
X429654Y173617D01*
X429685Y173488D01*
X429712Y173359D01*
X429735Y173228D01*
X429755Y173097D01*
X429770Y172965D01*
X429782Y172833D01*
X429790Y172701D01*
X429794Y172568D01*
X429794Y172436D01*
X429790Y172303D01*
X429782Y172171D01*
X429770Y172039D01*
X429755Y171907D01*
X429735Y171776D01*
X429712Y171645D01*
X429685Y171516D01*
X429654Y171387D01*
X429619Y171259D01*
X429581Y171132D01*
X429539Y171006D01*
X429493Y170882D01*
X429444Y170759D01*
X429391Y170637D01*
X429334Y170517D01*
X429274Y170399D01*
X429211Y170282D01*
X429144Y170168D01*
X429074Y170055D01*
X429000Y169945D01*
X428924Y169837D01*
X428844Y169731D01*
X428761Y169627D01*
X428675Y169526D01*
X428586Y169428D01*
X428495Y169332D01*
X428400Y169239D01*
X428303Y169149D01*
X428203Y169062D01*
X428101Y168977D01*
X427996Y168896D01*
X427889Y168818D01*
X427780Y168742D01*
X427669Y168671D01*
X427555Y168602D01*
X427440Y168537D01*
X427322Y168475D01*
X427203Y168417D01*
X427082Y168362D01*
X426960Y168311D01*
X426836Y168263D01*
X426711Y168219D01*
X426585Y168179D01*
X426457Y168143D01*
X426329Y168110D01*
X426200Y168081D01*
X426069Y168056D01*
X425939Y168035D01*
X425807Y168017D01*
X425675Y168004D01*
X425543Y167994D01*
X425411Y167988D01*
X425278Y167986D01*
X425278Y167987D02*
X420762Y167987D01*
X426181Y167987D02*
X429793Y160762D01*
X436853Y160762D02*
X444077Y160762D01*
X436853Y160762D02*
X436853Y177018D01*
X444077Y177018D01*
X442271Y169793D02*
X436853Y169793D01*
X448946Y177018D02*
X454364Y160762D01*
X459783Y177018D01*
X466031Y160762D02*
X473256Y160762D01*
X466031Y160762D02*
X466031Y177018D01*
X473256Y177018D01*
X471449Y169793D02*
X466031Y169793D01*
X479640Y177018D02*
X479640Y160762D01*
X479640Y177018D02*
X484155Y177018D01*
X484288Y177016D01*
X484420Y177010D01*
X484552Y177000D01*
X484684Y176987D01*
X484816Y176969D01*
X484946Y176948D01*
X485077Y176923D01*
X485206Y176894D01*
X485334Y176861D01*
X485462Y176825D01*
X485588Y176785D01*
X485713Y176741D01*
X485837Y176693D01*
X485959Y176642D01*
X486080Y176587D01*
X486199Y176529D01*
X486317Y176467D01*
X486432Y176402D01*
X486546Y176333D01*
X486657Y176262D01*
X486766Y176186D01*
X486873Y176108D01*
X486978Y176027D01*
X487080Y175942D01*
X487180Y175855D01*
X487277Y175765D01*
X487372Y175672D01*
X487463Y175576D01*
X487552Y175478D01*
X487638Y175377D01*
X487721Y175273D01*
X487801Y175167D01*
X487877Y175059D01*
X487951Y174949D01*
X488021Y174836D01*
X488088Y174722D01*
X488151Y174605D01*
X488211Y174487D01*
X488268Y174367D01*
X488321Y174245D01*
X488370Y174122D01*
X488416Y173998D01*
X488458Y173872D01*
X488496Y173745D01*
X488531Y173617D01*
X488562Y173488D01*
X488589Y173359D01*
X488612Y173228D01*
X488632Y173097D01*
X488647Y172965D01*
X488659Y172833D01*
X488667Y172701D01*
X488671Y172568D01*
X488671Y172436D01*
X488667Y172303D01*
X488659Y172171D01*
X488647Y172039D01*
X488632Y171907D01*
X488612Y171776D01*
X488589Y171645D01*
X488562Y171516D01*
X488531Y171387D01*
X488496Y171259D01*
X488458Y171132D01*
X488416Y171006D01*
X488370Y170882D01*
X488321Y170759D01*
X488268Y170637D01*
X488211Y170517D01*
X488151Y170399D01*
X488088Y170282D01*
X488021Y170168D01*
X487951Y170055D01*
X487877Y169945D01*
X487801Y169837D01*
X487721Y169731D01*
X487638Y169627D01*
X487552Y169526D01*
X487463Y169428D01*
X487372Y169332D01*
X487277Y169239D01*
X487180Y169149D01*
X487080Y169062D01*
X486978Y168977D01*
X486873Y168896D01*
X486766Y168818D01*
X486657Y168742D01*
X486546Y168671D01*
X486432Y168602D01*
X486317Y168537D01*
X486199Y168475D01*
X486080Y168417D01*
X485959Y168362D01*
X485837Y168311D01*
X485713Y168263D01*
X485588Y168219D01*
X485462Y168179D01*
X485334Y168143D01*
X485206Y168110D01*
X485077Y168081D01*
X484946Y168056D01*
X484816Y168035D01*
X484684Y168017D01*
X484552Y168004D01*
X484420Y167994D01*
X484288Y167988D01*
X484155Y167986D01*
X484155Y167987D02*
X479640Y167987D01*
X485058Y167987D02*
X488671Y160762D01*
X500077Y160762D02*
X500195Y160764D01*
X500313Y160770D01*
X500431Y160779D01*
X500548Y160793D01*
X500665Y160810D01*
X500782Y160831D01*
X500897Y160856D01*
X501012Y160885D01*
X501126Y160918D01*
X501238Y160954D01*
X501349Y160994D01*
X501459Y161037D01*
X501568Y161084D01*
X501675Y161134D01*
X501780Y161189D01*
X501883Y161246D01*
X501984Y161307D01*
X502084Y161371D01*
X502181Y161438D01*
X502276Y161508D01*
X502368Y161582D01*
X502459Y161658D01*
X502546Y161738D01*
X502631Y161820D01*
X502713Y161905D01*
X502793Y161992D01*
X502869Y162083D01*
X502943Y162175D01*
X503013Y162270D01*
X503080Y162367D01*
X503144Y162467D01*
X503205Y162568D01*
X503262Y162671D01*
X503317Y162776D01*
X503367Y162883D01*
X503414Y162992D01*
X503457Y163102D01*
X503497Y163213D01*
X503533Y163325D01*
X503566Y163439D01*
X503595Y163554D01*
X503620Y163669D01*
X503641Y163786D01*
X503658Y163903D01*
X503672Y164020D01*
X503681Y164138D01*
X503687Y164256D01*
X503689Y164374D01*
X500077Y160762D02*
X499894Y160764D01*
X499712Y160771D01*
X499530Y160782D01*
X499348Y160797D01*
X499166Y160817D01*
X498985Y160840D01*
X498805Y160869D01*
X498625Y160901D01*
X498446Y160938D01*
X498269Y160979D01*
X498092Y161025D01*
X497916Y161074D01*
X497742Y161128D01*
X497568Y161186D01*
X497397Y161248D01*
X497227Y161314D01*
X497058Y161385D01*
X496891Y161459D01*
X496726Y161537D01*
X496563Y161619D01*
X496402Y161705D01*
X496243Y161795D01*
X496086Y161889D01*
X495932Y161986D01*
X495780Y162087D01*
X495630Y162192D01*
X495483Y162300D01*
X495339Y162411D01*
X495197Y162526D01*
X495058Y162645D01*
X494922Y162767D01*
X494789Y162892D01*
X494659Y163020D01*
X495110Y173406D02*
X495112Y173524D01*
X495118Y173642D01*
X495127Y173760D01*
X495141Y173877D01*
X495158Y173994D01*
X495179Y174111D01*
X495204Y174226D01*
X495233Y174341D01*
X495266Y174455D01*
X495302Y174567D01*
X495342Y174678D01*
X495385Y174788D01*
X495432Y174897D01*
X495482Y175004D01*
X495537Y175109D01*
X495594Y175212D01*
X495655Y175313D01*
X495719Y175413D01*
X495786Y175510D01*
X495856Y175605D01*
X495930Y175697D01*
X496006Y175788D01*
X496086Y175875D01*
X496168Y175960D01*
X496253Y176042D01*
X496340Y176122D01*
X496431Y176198D01*
X496523Y176272D01*
X496618Y176342D01*
X496715Y176409D01*
X496815Y176473D01*
X496916Y176534D01*
X497019Y176592D01*
X497124Y176646D01*
X497231Y176696D01*
X497340Y176743D01*
X497450Y176787D01*
X497561Y176826D01*
X497674Y176862D01*
X497787Y176895D01*
X497902Y176924D01*
X498017Y176949D01*
X498134Y176970D01*
X498251Y176987D01*
X498368Y177001D01*
X498486Y177010D01*
X498604Y177016D01*
X498722Y177018D01*
X498883Y177016D01*
X499045Y177010D01*
X499206Y177001D01*
X499367Y176987D01*
X499527Y176970D01*
X499687Y176949D01*
X499847Y176924D01*
X500006Y176895D01*
X500164Y176863D01*
X500321Y176827D01*
X500477Y176787D01*
X500633Y176743D01*
X500787Y176695D01*
X500940Y176644D01*
X501092Y176590D01*
X501243Y176531D01*
X501392Y176470D01*
X501539Y176404D01*
X501685Y176335D01*
X501830Y176263D01*
X501972Y176187D01*
X502113Y176108D01*
X502252Y176026D01*
X502388Y175940D01*
X502523Y175851D01*
X502656Y175759D01*
X502786Y175663D01*
X496916Y170245D02*
X496815Y170307D01*
X496715Y170372D01*
X496618Y170441D01*
X496523Y170513D01*
X496430Y170587D01*
X496340Y170665D01*
X496252Y170746D01*
X496167Y170829D01*
X496085Y170915D01*
X496006Y171004D01*
X495929Y171095D01*
X495856Y171189D01*
X495785Y171285D01*
X495718Y171383D01*
X495654Y171483D01*
X495593Y171586D01*
X495536Y171690D01*
X495482Y171796D01*
X495432Y171904D01*
X495385Y172013D01*
X495341Y172124D01*
X495301Y172236D01*
X495265Y172350D01*
X495233Y172464D01*
X495204Y172580D01*
X495179Y172696D01*
X495158Y172813D01*
X495141Y172931D01*
X495127Y173049D01*
X495118Y173168D01*
X495112Y173287D01*
X495110Y173406D01*
X501884Y167535D02*
X501985Y167473D01*
X502085Y167408D01*
X502182Y167339D01*
X502277Y167267D01*
X502370Y167193D01*
X502460Y167115D01*
X502548Y167034D01*
X502633Y166951D01*
X502715Y166865D01*
X502794Y166776D01*
X502871Y166685D01*
X502944Y166591D01*
X503015Y166495D01*
X503082Y166397D01*
X503146Y166297D01*
X503207Y166194D01*
X503264Y166090D01*
X503318Y165984D01*
X503368Y165876D01*
X503415Y165767D01*
X503459Y165656D01*
X503499Y165544D01*
X503535Y165430D01*
X503567Y165316D01*
X503596Y165200D01*
X503621Y165084D01*
X503642Y164967D01*
X503659Y164849D01*
X503673Y164731D01*
X503682Y164612D01*
X503688Y164493D01*
X503690Y164374D01*
X501883Y167535D02*
X496916Y170245D01*
X510319Y160762D02*
X517544Y160762D01*
X510319Y160762D02*
X510319Y177018D01*
X517544Y177018D01*
X515738Y169793D02*
X510319Y169793D01*
D11*
X422357Y66129D02*
X422357Y50635D01*
X424078Y50635D02*
X420635Y50635D01*
X420635Y66129D02*
X424078Y66129D01*
X430311Y60964D02*
X430311Y50635D01*
X430311Y60964D02*
X434614Y60964D01*
X434715Y60962D01*
X434817Y60956D01*
X434917Y60946D01*
X435018Y60932D01*
X435118Y60914D01*
X435217Y60893D01*
X435315Y60867D01*
X435412Y60838D01*
X435508Y60804D01*
X435602Y60767D01*
X435695Y60727D01*
X435786Y60683D01*
X435876Y60635D01*
X435963Y60584D01*
X436048Y60529D01*
X436132Y60471D01*
X436212Y60410D01*
X436291Y60345D01*
X436367Y60278D01*
X436440Y60208D01*
X436510Y60135D01*
X436577Y60059D01*
X436642Y59981D01*
X436703Y59900D01*
X436761Y59816D01*
X436816Y59731D01*
X436867Y59644D01*
X436915Y59554D01*
X436959Y59463D01*
X436999Y59370D01*
X437036Y59276D01*
X437070Y59180D01*
X437099Y59083D01*
X437125Y58985D01*
X437146Y58886D01*
X437164Y58786D01*
X437178Y58686D01*
X437188Y58585D01*
X437194Y58483D01*
X437196Y58382D01*
X437197Y58382D02*
X437197Y50635D01*
X444254Y45470D02*
X444254Y60964D01*
X448558Y60964D01*
X448659Y60962D01*
X448761Y60956D01*
X448861Y60946D01*
X448962Y60932D01*
X449062Y60914D01*
X449161Y60893D01*
X449259Y60867D01*
X449356Y60838D01*
X449452Y60804D01*
X449546Y60767D01*
X449639Y60727D01*
X449730Y60683D01*
X449820Y60635D01*
X449907Y60584D01*
X449992Y60529D01*
X450076Y60471D01*
X450156Y60410D01*
X450235Y60345D01*
X450311Y60278D01*
X450384Y60208D01*
X450454Y60135D01*
X450521Y60059D01*
X450586Y59981D01*
X450647Y59900D01*
X450705Y59816D01*
X450760Y59731D01*
X450811Y59644D01*
X450859Y59554D01*
X450903Y59463D01*
X450943Y59370D01*
X450980Y59276D01*
X451014Y59180D01*
X451043Y59083D01*
X451069Y58985D01*
X451090Y58886D01*
X451108Y58786D01*
X451122Y58686D01*
X451132Y58585D01*
X451138Y58483D01*
X451140Y58382D01*
X451140Y53217D01*
X451138Y53118D01*
X451132Y53019D01*
X451123Y52921D01*
X451110Y52823D01*
X451093Y52725D01*
X451072Y52629D01*
X451048Y52533D01*
X451020Y52438D01*
X450988Y52344D01*
X450953Y52252D01*
X450914Y52161D01*
X450872Y52071D01*
X450826Y51984D01*
X450777Y51898D01*
X450725Y51814D01*
X450670Y51732D01*
X450611Y51652D01*
X450550Y51574D01*
X450486Y51499D01*
X450418Y51427D01*
X450348Y51357D01*
X450276Y51289D01*
X450201Y51225D01*
X450123Y51164D01*
X450043Y51105D01*
X449961Y51050D01*
X449877Y50998D01*
X449791Y50949D01*
X449704Y50903D01*
X449614Y50861D01*
X449523Y50822D01*
X449431Y50787D01*
X449337Y50755D01*
X449242Y50727D01*
X449146Y50703D01*
X449050Y50682D01*
X448952Y50665D01*
X448854Y50652D01*
X448756Y50643D01*
X448657Y50637D01*
X448558Y50635D01*
X444254Y50635D01*
X457564Y53217D02*
X457564Y60964D01*
X457565Y53217D02*
X457567Y53118D01*
X457573Y53019D01*
X457582Y52921D01*
X457595Y52823D01*
X457612Y52725D01*
X457633Y52629D01*
X457657Y52533D01*
X457685Y52438D01*
X457717Y52344D01*
X457752Y52252D01*
X457791Y52161D01*
X457833Y52071D01*
X457879Y51984D01*
X457928Y51898D01*
X457980Y51814D01*
X458035Y51732D01*
X458094Y51652D01*
X458155Y51574D01*
X458219Y51499D01*
X458287Y51427D01*
X458357Y51357D01*
X458429Y51289D01*
X458504Y51225D01*
X458582Y51164D01*
X458662Y51105D01*
X458744Y51050D01*
X458828Y50998D01*
X458914Y50949D01*
X459001Y50903D01*
X459091Y50861D01*
X459182Y50822D01*
X459274Y50787D01*
X459368Y50755D01*
X459463Y50727D01*
X459559Y50703D01*
X459655Y50682D01*
X459753Y50665D01*
X459851Y50652D01*
X459949Y50643D01*
X460048Y50637D01*
X460147Y50635D01*
X464451Y50635D01*
X464451Y60964D01*
X469714Y60964D02*
X474879Y60964D01*
X471436Y66129D02*
X471436Y53217D01*
X471438Y53118D01*
X471444Y53019D01*
X471453Y52921D01*
X471466Y52823D01*
X471483Y52725D01*
X471504Y52629D01*
X471528Y52533D01*
X471556Y52438D01*
X471588Y52344D01*
X471623Y52252D01*
X471662Y52161D01*
X471704Y52071D01*
X471750Y51984D01*
X471799Y51898D01*
X471851Y51813D01*
X471906Y51732D01*
X471965Y51652D01*
X472026Y51574D01*
X472090Y51499D01*
X472158Y51427D01*
X472228Y51357D01*
X472300Y51289D01*
X472375Y51225D01*
X472453Y51164D01*
X472533Y51105D01*
X472615Y51050D01*
X472699Y50998D01*
X472785Y50949D01*
X472872Y50903D01*
X472962Y50861D01*
X473053Y50822D01*
X473145Y50787D01*
X473239Y50755D01*
X473334Y50727D01*
X473430Y50703D01*
X473526Y50682D01*
X473624Y50665D01*
X473722Y50652D01*
X473820Y50643D01*
X473919Y50637D01*
X474018Y50635D01*
X474879Y50635D01*
X489043Y50635D02*
X489043Y66129D01*
X494208Y57521D01*
X499372Y66129D01*
X499372Y50635D01*
X506126Y54078D02*
X506126Y57521D01*
X506128Y57637D01*
X506134Y57753D01*
X506144Y57869D01*
X506157Y57985D01*
X506175Y58100D01*
X506196Y58214D01*
X506222Y58328D01*
X506251Y58440D01*
X506284Y58552D01*
X506321Y58662D01*
X506361Y58771D01*
X506405Y58879D01*
X506453Y58985D01*
X506504Y59089D01*
X506559Y59192D01*
X506617Y59293D01*
X506678Y59391D01*
X506743Y59488D01*
X506811Y59582D01*
X506882Y59674D01*
X506957Y59764D01*
X507034Y59851D01*
X507114Y59935D01*
X507197Y60016D01*
X507283Y60095D01*
X507371Y60171D01*
X507462Y60244D01*
X507555Y60313D01*
X507650Y60380D01*
X507748Y60443D01*
X507848Y60503D01*
X507949Y60559D01*
X508053Y60612D01*
X508158Y60662D01*
X508265Y60707D01*
X508373Y60750D01*
X508483Y60788D01*
X508594Y60823D01*
X508706Y60854D01*
X508819Y60881D01*
X508933Y60905D01*
X509048Y60924D01*
X509163Y60940D01*
X509279Y60952D01*
X509395Y60960D01*
X509511Y60964D01*
X509627Y60964D01*
X509743Y60960D01*
X509859Y60952D01*
X509975Y60940D01*
X510090Y60924D01*
X510205Y60905D01*
X510319Y60881D01*
X510432Y60854D01*
X510544Y60823D01*
X510655Y60788D01*
X510765Y60750D01*
X510873Y60707D01*
X510980Y60662D01*
X511085Y60612D01*
X511189Y60559D01*
X511291Y60503D01*
X511390Y60443D01*
X511488Y60380D01*
X511583Y60313D01*
X511676Y60244D01*
X511767Y60171D01*
X511855Y60095D01*
X511941Y60016D01*
X512024Y59935D01*
X512104Y59851D01*
X512181Y59764D01*
X512256Y59674D01*
X512327Y59582D01*
X512395Y59488D01*
X512460Y59391D01*
X512521Y59293D01*
X512579Y59192D01*
X512634Y59089D01*
X512685Y58985D01*
X512733Y58879D01*
X512777Y58771D01*
X512817Y58662D01*
X512854Y58552D01*
X512887Y58440D01*
X512916Y58328D01*
X512942Y58214D01*
X512963Y58100D01*
X512981Y57985D01*
X512994Y57869D01*
X513004Y57753D01*
X513010Y57637D01*
X513012Y57521D01*
X513012Y54078D01*
X513010Y53962D01*
X513004Y53846D01*
X512994Y53730D01*
X512981Y53614D01*
X512963Y53499D01*
X512942Y53385D01*
X512916Y53271D01*
X512887Y53159D01*
X512854Y53047D01*
X512817Y52937D01*
X512777Y52828D01*
X512733Y52720D01*
X512685Y52614D01*
X512634Y52510D01*
X512579Y52407D01*
X512521Y52306D01*
X512460Y52208D01*
X512395Y52111D01*
X512327Y52017D01*
X512256Y51925D01*
X512181Y51835D01*
X512104Y51748D01*
X512024Y51664D01*
X511941Y51583D01*
X511855Y51504D01*
X511767Y51428D01*
X511676Y51355D01*
X511583Y51286D01*
X511488Y51219D01*
X511390Y51156D01*
X511291Y51096D01*
X511189Y51040D01*
X511085Y50987D01*
X510980Y50937D01*
X510873Y50892D01*
X510765Y50849D01*
X510655Y50811D01*
X510544Y50776D01*
X510432Y50745D01*
X510319Y50718D01*
X510205Y50694D01*
X510090Y50675D01*
X509975Y50659D01*
X509859Y50647D01*
X509743Y50639D01*
X509627Y50635D01*
X509511Y50635D01*
X509395Y50639D01*
X509279Y50647D01*
X509163Y50659D01*
X509048Y50675D01*
X508933Y50694D01*
X508819Y50718D01*
X508706Y50745D01*
X508594Y50776D01*
X508483Y50811D01*
X508373Y50849D01*
X508265Y50892D01*
X508158Y50937D01*
X508053Y50987D01*
X507949Y51040D01*
X507848Y51096D01*
X507748Y51156D01*
X507650Y51219D01*
X507555Y51286D01*
X507462Y51355D01*
X507371Y51428D01*
X507283Y51504D01*
X507197Y51583D01*
X507114Y51664D01*
X507034Y51748D01*
X506957Y51835D01*
X506882Y51925D01*
X506811Y52017D01*
X506743Y52111D01*
X506678Y52208D01*
X506617Y52306D01*
X506559Y52407D01*
X506504Y52510D01*
X506453Y52614D01*
X506405Y52720D01*
X506361Y52828D01*
X506321Y52937D01*
X506284Y53047D01*
X506251Y53159D01*
X506222Y53271D01*
X506196Y53385D01*
X506175Y53499D01*
X506157Y53614D01*
X506144Y53730D01*
X506134Y53846D01*
X506128Y53962D01*
X506126Y54078D01*
X525827Y50635D02*
X525827Y66129D01*
X525827Y50635D02*
X521524Y50635D01*
X521425Y50637D01*
X521326Y50643D01*
X521228Y50652D01*
X521130Y50665D01*
X521032Y50682D01*
X520936Y50703D01*
X520840Y50727D01*
X520745Y50755D01*
X520651Y50787D01*
X520559Y50822D01*
X520468Y50861D01*
X520378Y50903D01*
X520291Y50949D01*
X520205Y50998D01*
X520121Y51050D01*
X520039Y51105D01*
X519959Y51164D01*
X519881Y51225D01*
X519806Y51289D01*
X519734Y51357D01*
X519664Y51427D01*
X519596Y51499D01*
X519532Y51574D01*
X519471Y51652D01*
X519412Y51732D01*
X519357Y51814D01*
X519305Y51898D01*
X519256Y51984D01*
X519210Y52071D01*
X519168Y52161D01*
X519129Y52252D01*
X519094Y52344D01*
X519062Y52438D01*
X519034Y52533D01*
X519010Y52629D01*
X518989Y52725D01*
X518972Y52823D01*
X518959Y52921D01*
X518950Y53019D01*
X518944Y53118D01*
X518942Y53217D01*
X518941Y53217D02*
X518941Y58382D01*
X518942Y58382D02*
X518944Y58481D01*
X518950Y58580D01*
X518959Y58678D01*
X518972Y58776D01*
X518989Y58874D01*
X519010Y58970D01*
X519034Y59066D01*
X519062Y59161D01*
X519094Y59255D01*
X519129Y59347D01*
X519168Y59438D01*
X519210Y59528D01*
X519256Y59615D01*
X519305Y59701D01*
X519357Y59785D01*
X519412Y59867D01*
X519471Y59947D01*
X519532Y60025D01*
X519596Y60100D01*
X519664Y60172D01*
X519734Y60242D01*
X519806Y60310D01*
X519881Y60374D01*
X519959Y60435D01*
X520039Y60494D01*
X520121Y60549D01*
X520205Y60601D01*
X520291Y60650D01*
X520378Y60696D01*
X520468Y60738D01*
X520559Y60777D01*
X520651Y60812D01*
X520745Y60844D01*
X520840Y60872D01*
X520936Y60896D01*
X521032Y60917D01*
X521130Y60934D01*
X521228Y60947D01*
X521326Y60956D01*
X521425Y60962D01*
X521524Y60964D01*
X525827Y60964D01*
X532884Y60964D02*
X532884Y53217D01*
X532885Y53217D02*
X532887Y53118D01*
X532893Y53019D01*
X532902Y52921D01*
X532915Y52823D01*
X532932Y52725D01*
X532953Y52629D01*
X532977Y52533D01*
X533005Y52438D01*
X533037Y52344D01*
X533072Y52252D01*
X533111Y52161D01*
X533153Y52071D01*
X533199Y51984D01*
X533248Y51898D01*
X533300Y51814D01*
X533355Y51732D01*
X533414Y51652D01*
X533475Y51574D01*
X533539Y51499D01*
X533607Y51427D01*
X533677Y51357D01*
X533749Y51289D01*
X533824Y51225D01*
X533902Y51164D01*
X533982Y51105D01*
X534064Y51050D01*
X534148Y50998D01*
X534234Y50949D01*
X534321Y50903D01*
X534411Y50861D01*
X534502Y50822D01*
X534594Y50787D01*
X534688Y50755D01*
X534783Y50727D01*
X534879Y50703D01*
X534975Y50682D01*
X535073Y50665D01*
X535171Y50652D01*
X535269Y50643D01*
X535368Y50637D01*
X535467Y50635D01*
X539771Y50635D01*
X539771Y60964D01*
X546493Y66129D02*
X546493Y53217D01*
X546495Y53118D01*
X546501Y53019D01*
X546510Y52921D01*
X546523Y52823D01*
X546540Y52725D01*
X546561Y52629D01*
X546585Y52533D01*
X546613Y52438D01*
X546645Y52344D01*
X546680Y52252D01*
X546719Y52161D01*
X546761Y52071D01*
X546807Y51984D01*
X546856Y51898D01*
X546908Y51814D01*
X546963Y51732D01*
X547022Y51652D01*
X547083Y51574D01*
X547147Y51499D01*
X547215Y51427D01*
X547285Y51357D01*
X547357Y51289D01*
X547432Y51225D01*
X547510Y51164D01*
X547590Y51105D01*
X547672Y51050D01*
X547756Y50998D01*
X547842Y50949D01*
X547929Y50903D01*
X548019Y50861D01*
X548110Y50822D01*
X548202Y50787D01*
X548296Y50755D01*
X548391Y50727D01*
X548487Y50703D01*
X548583Y50682D01*
X548681Y50665D01*
X548779Y50652D01*
X548877Y50643D01*
X548976Y50637D01*
X549075Y50635D01*
X556774Y50635D02*
X561078Y50635D01*
X556774Y50635D02*
X556675Y50637D01*
X556576Y50643D01*
X556478Y50652D01*
X556380Y50665D01*
X556282Y50682D01*
X556186Y50703D01*
X556090Y50727D01*
X555995Y50755D01*
X555901Y50787D01*
X555809Y50822D01*
X555718Y50861D01*
X555628Y50903D01*
X555541Y50949D01*
X555455Y50998D01*
X555371Y51050D01*
X555289Y51105D01*
X555209Y51164D01*
X555131Y51225D01*
X555056Y51289D01*
X554984Y51357D01*
X554914Y51427D01*
X554846Y51499D01*
X554782Y51574D01*
X554721Y51652D01*
X554662Y51732D01*
X554607Y51814D01*
X554555Y51898D01*
X554506Y51984D01*
X554460Y52071D01*
X554418Y52161D01*
X554379Y52252D01*
X554344Y52344D01*
X554312Y52438D01*
X554284Y52533D01*
X554260Y52629D01*
X554239Y52725D01*
X554222Y52823D01*
X554209Y52921D01*
X554200Y53019D01*
X554194Y53118D01*
X554192Y53217D01*
X554192Y57521D01*
X554194Y57637D01*
X554200Y57753D01*
X554210Y57869D01*
X554223Y57985D01*
X554241Y58100D01*
X554262Y58214D01*
X554288Y58328D01*
X554317Y58440D01*
X554350Y58552D01*
X554387Y58662D01*
X554427Y58771D01*
X554471Y58879D01*
X554519Y58985D01*
X554570Y59089D01*
X554625Y59192D01*
X554683Y59293D01*
X554744Y59391D01*
X554809Y59488D01*
X554877Y59582D01*
X554948Y59674D01*
X555023Y59764D01*
X555100Y59851D01*
X555180Y59935D01*
X555263Y60016D01*
X555349Y60095D01*
X555437Y60171D01*
X555528Y60244D01*
X555621Y60313D01*
X555716Y60380D01*
X555814Y60443D01*
X555914Y60503D01*
X556015Y60559D01*
X556119Y60612D01*
X556224Y60662D01*
X556331Y60707D01*
X556439Y60750D01*
X556549Y60788D01*
X556660Y60823D01*
X556772Y60854D01*
X556885Y60881D01*
X556999Y60905D01*
X557114Y60924D01*
X557229Y60940D01*
X557345Y60952D01*
X557461Y60960D01*
X557577Y60964D01*
X557693Y60964D01*
X557809Y60960D01*
X557925Y60952D01*
X558041Y60940D01*
X558156Y60924D01*
X558271Y60905D01*
X558385Y60881D01*
X558498Y60854D01*
X558610Y60823D01*
X558721Y60788D01*
X558831Y60750D01*
X558939Y60707D01*
X559046Y60662D01*
X559151Y60612D01*
X559255Y60559D01*
X559357Y60503D01*
X559456Y60443D01*
X559554Y60380D01*
X559649Y60313D01*
X559742Y60244D01*
X559833Y60171D01*
X559921Y60095D01*
X560007Y60016D01*
X560090Y59935D01*
X560170Y59851D01*
X560247Y59764D01*
X560322Y59674D01*
X560393Y59582D01*
X560461Y59488D01*
X560526Y59391D01*
X560587Y59293D01*
X560645Y59192D01*
X560700Y59089D01*
X560751Y58985D01*
X560799Y58879D01*
X560843Y58771D01*
X560883Y58662D01*
X560920Y58552D01*
X560953Y58440D01*
X560982Y58328D01*
X561008Y58214D01*
X561029Y58100D01*
X561047Y57985D01*
X561060Y57869D01*
X561070Y57753D01*
X561076Y57637D01*
X561078Y57521D01*
X561078Y55800D01*
X554192Y55800D01*
X574509Y60964D02*
X577952Y50635D01*
X581395Y60964D01*
X587027Y62686D02*
X591331Y66129D01*
X591331Y50635D01*
X587027Y50635D02*
X595635Y50635D01*
X601306Y50635D02*
X601306Y51496D01*
X602167Y51496D01*
X602167Y50635D01*
X601306Y50635D01*
X607839Y58382D02*
X607843Y58687D01*
X607854Y58991D01*
X607872Y59296D01*
X607897Y59599D01*
X607930Y59902D01*
X607970Y60205D01*
X608017Y60506D01*
X608071Y60806D01*
X608133Y61104D01*
X608201Y61401D01*
X608277Y61697D01*
X608359Y61990D01*
X608449Y62281D01*
X608546Y62570D01*
X608649Y62857D01*
X608759Y63141D01*
X608876Y63423D01*
X609000Y63701D01*
X609130Y63977D01*
X609168Y64080D01*
X609208Y64182D01*
X609253Y64282D01*
X609301Y64381D01*
X609352Y64478D01*
X609406Y64573D01*
X609464Y64667D01*
X609525Y64758D01*
X609589Y64847D01*
X609656Y64934D01*
X609726Y65018D01*
X609799Y65101D01*
X609875Y65180D01*
X609953Y65257D01*
X610034Y65331D01*
X610118Y65402D01*
X610204Y65470D01*
X610292Y65536D01*
X610382Y65598D01*
X610475Y65657D01*
X610569Y65713D01*
X610665Y65766D01*
X610763Y65815D01*
X610863Y65861D01*
X610964Y65903D01*
X611067Y65942D01*
X611171Y65977D01*
X611276Y66009D01*
X611382Y66037D01*
X611489Y66061D01*
X611597Y66082D01*
X611705Y66099D01*
X611814Y66112D01*
X611924Y66121D01*
X612033Y66127D01*
X612143Y66129D01*
X612253Y66127D01*
X612362Y66121D01*
X612472Y66112D01*
X612581Y66099D01*
X612689Y66082D01*
X612797Y66061D01*
X612904Y66037D01*
X613010Y66009D01*
X613115Y65977D01*
X613219Y65942D01*
X613322Y65903D01*
X613423Y65861D01*
X613523Y65815D01*
X613621Y65766D01*
X613717Y65713D01*
X613811Y65657D01*
X613904Y65598D01*
X613994Y65536D01*
X614082Y65470D01*
X614168Y65402D01*
X614252Y65331D01*
X614333Y65257D01*
X614411Y65180D01*
X614487Y65100D01*
X614560Y65018D01*
X614630Y64934D01*
X614697Y64847D01*
X614761Y64758D01*
X614822Y64667D01*
X614880Y64573D01*
X614934Y64478D01*
X614985Y64381D01*
X615033Y64282D01*
X615078Y64182D01*
X615118Y64080D01*
X615156Y63977D01*
X615286Y63701D01*
X615410Y63423D01*
X615527Y63141D01*
X615637Y62857D01*
X615740Y62570D01*
X615837Y62281D01*
X615927Y61990D01*
X616009Y61697D01*
X616085Y61401D01*
X616153Y61104D01*
X616215Y60806D01*
X616269Y60506D01*
X616316Y60205D01*
X616356Y59902D01*
X616389Y59599D01*
X616414Y59296D01*
X616432Y58991D01*
X616443Y58687D01*
X616447Y58382D01*
X607839Y58382D02*
X607843Y58077D01*
X607854Y57773D01*
X607872Y57468D01*
X607897Y57165D01*
X607930Y56862D01*
X607970Y56559D01*
X608017Y56258D01*
X608071Y55958D01*
X608133Y55660D01*
X608201Y55363D01*
X608277Y55067D01*
X608359Y54774D01*
X608449Y54483D01*
X608546Y54194D01*
X608649Y53907D01*
X608759Y53623D01*
X608876Y53341D01*
X609000Y53063D01*
X609130Y52787D01*
X609168Y52684D01*
X609208Y52582D01*
X609253Y52482D01*
X609301Y52383D01*
X609352Y52286D01*
X609406Y52191D01*
X609464Y52097D01*
X609525Y52006D01*
X609589Y51917D01*
X609656Y51830D01*
X609726Y51745D01*
X609799Y51663D01*
X609875Y51584D01*
X609953Y51507D01*
X610034Y51433D01*
X610118Y51362D01*
X610204Y51294D01*
X610292Y51228D01*
X610382Y51166D01*
X610475Y51107D01*
X610569Y51051D01*
X610665Y50998D01*
X610764Y50949D01*
X610863Y50903D01*
X610964Y50861D01*
X611067Y50822D01*
X611171Y50787D01*
X611276Y50755D01*
X611382Y50727D01*
X611489Y50703D01*
X611597Y50682D01*
X611705Y50665D01*
X611814Y50652D01*
X611924Y50643D01*
X612033Y50637D01*
X612143Y50635D01*
X615155Y52787D02*
X615285Y53063D01*
X615409Y53341D01*
X615526Y53623D01*
X615636Y53907D01*
X615739Y54194D01*
X615836Y54483D01*
X615926Y54774D01*
X616008Y55067D01*
X616084Y55363D01*
X616152Y55660D01*
X616214Y55958D01*
X616268Y56258D01*
X616315Y56559D01*
X616355Y56862D01*
X616388Y57165D01*
X616413Y57468D01*
X616431Y57773D01*
X616442Y58077D01*
X616446Y58382D01*
X615156Y52787D02*
X615118Y52684D01*
X615078Y52582D01*
X615033Y52482D01*
X614985Y52383D01*
X614934Y52286D01*
X614880Y52191D01*
X614822Y52097D01*
X614761Y52006D01*
X614697Y51917D01*
X614630Y51830D01*
X614560Y51746D01*
X614487Y51663D01*
X614411Y51584D01*
X614333Y51507D01*
X614252Y51433D01*
X614168Y51362D01*
X614082Y51294D01*
X613994Y51228D01*
X613904Y51166D01*
X613811Y51107D01*
X613717Y51051D01*
X613621Y50998D01*
X613523Y50949D01*
X613423Y50903D01*
X613322Y50861D01*
X613219Y50822D01*
X613115Y50787D01*
X613010Y50755D01*
X612904Y50727D01*
X612797Y50703D01*
X612689Y50682D01*
X612581Y50665D01*
X612472Y50652D01*
X612362Y50643D01*
X612253Y50637D01*
X612143Y50635D01*
X608700Y54078D02*
X615586Y62686D01*
D12*
X422669Y34958D02*
X420381Y34958D01*
X422669Y34957D02*
X422764Y34955D01*
X422858Y34949D01*
X422952Y34939D01*
X423046Y34926D01*
X423139Y34908D01*
X423231Y34887D01*
X423322Y34862D01*
X423412Y34833D01*
X423501Y34800D01*
X423588Y34764D01*
X423674Y34725D01*
X423758Y34681D01*
X423840Y34635D01*
X423920Y34584D01*
X423999Y34531D01*
X424074Y34475D01*
X424148Y34415D01*
X424219Y34352D01*
X424287Y34287D01*
X424352Y34219D01*
X424415Y34148D01*
X424475Y34074D01*
X424531Y33999D01*
X424584Y33920D01*
X424635Y33840D01*
X424681Y33758D01*
X424725Y33674D01*
X424764Y33588D01*
X424800Y33501D01*
X424833Y33412D01*
X424862Y33322D01*
X424887Y33231D01*
X424908Y33139D01*
X424926Y33046D01*
X424939Y32952D01*
X424949Y32858D01*
X424955Y32764D01*
X424957Y32669D01*
X424955Y32574D01*
X424949Y32480D01*
X424939Y32386D01*
X424926Y32292D01*
X424908Y32199D01*
X424887Y32107D01*
X424862Y32016D01*
X424833Y31926D01*
X424800Y31837D01*
X424764Y31750D01*
X424725Y31664D01*
X424681Y31580D01*
X424635Y31498D01*
X424584Y31418D01*
X424531Y31339D01*
X424475Y31264D01*
X424415Y31190D01*
X424352Y31119D01*
X424287Y31051D01*
X424219Y30986D01*
X424148Y30923D01*
X424074Y30863D01*
X423999Y30807D01*
X423920Y30754D01*
X423840Y30703D01*
X423758Y30657D01*
X423674Y30613D01*
X423588Y30574D01*
X423501Y30538D01*
X423412Y30505D01*
X423322Y30476D01*
X423231Y30451D01*
X423139Y30430D01*
X423046Y30412D01*
X422952Y30399D01*
X422858Y30389D01*
X422764Y30383D01*
X422669Y30381D01*
X420381Y30381D01*
X420381Y38619D01*
X422669Y38619D01*
X422754Y38617D01*
X422838Y38611D01*
X422922Y38601D01*
X423005Y38588D01*
X423088Y38570D01*
X423170Y38549D01*
X423251Y38524D01*
X423330Y38495D01*
X423409Y38463D01*
X423485Y38427D01*
X423560Y38388D01*
X423633Y38345D01*
X423704Y38299D01*
X423772Y38249D01*
X423839Y38197D01*
X423903Y38141D01*
X423964Y38083D01*
X424022Y38022D01*
X424078Y37958D01*
X424130Y37891D01*
X424180Y37823D01*
X424226Y37752D01*
X424269Y37679D01*
X424308Y37604D01*
X424344Y37528D01*
X424376Y37449D01*
X424405Y37370D01*
X424430Y37289D01*
X424451Y37207D01*
X424469Y37124D01*
X424482Y37041D01*
X424492Y36957D01*
X424498Y36873D01*
X424500Y36788D01*
X424498Y36703D01*
X424492Y36619D01*
X424482Y36535D01*
X424469Y36452D01*
X424451Y36369D01*
X424430Y36287D01*
X424405Y36206D01*
X424376Y36127D01*
X424344Y36048D01*
X424308Y35972D01*
X424269Y35897D01*
X424226Y35824D01*
X424180Y35753D01*
X424130Y35685D01*
X424078Y35618D01*
X424022Y35554D01*
X423964Y35493D01*
X423903Y35435D01*
X423839Y35379D01*
X423772Y35327D01*
X423704Y35277D01*
X423633Y35231D01*
X423560Y35188D01*
X423485Y35149D01*
X423409Y35113D01*
X423330Y35081D01*
X423251Y35052D01*
X423170Y35027D01*
X423088Y35006D01*
X423005Y34988D01*
X422922Y34975D01*
X422838Y34965D01*
X422754Y34959D01*
X422669Y34957D01*
X427946Y35873D02*
X427946Y30381D01*
X427717Y38161D02*
X427717Y38619D01*
X428175Y38619D01*
X428175Y38161D01*
X427717Y38161D01*
X431515Y35873D02*
X431515Y30381D01*
X431515Y35873D02*
X433803Y35873D01*
X433875Y35871D01*
X433947Y35865D01*
X434018Y35856D01*
X434088Y35843D01*
X434158Y35826D01*
X434227Y35806D01*
X434295Y35782D01*
X434361Y35754D01*
X434426Y35723D01*
X434490Y35689D01*
X434551Y35651D01*
X434610Y35611D01*
X434667Y35567D01*
X434722Y35520D01*
X434774Y35471D01*
X434823Y35419D01*
X434870Y35364D01*
X434914Y35307D01*
X434954Y35248D01*
X434992Y35187D01*
X435026Y35123D01*
X435057Y35058D01*
X435085Y34992D01*
X435109Y34924D01*
X435129Y34855D01*
X435146Y34785D01*
X435159Y34715D01*
X435168Y34644D01*
X435174Y34572D01*
X435176Y34500D01*
X435176Y30381D01*
X439075Y30381D02*
X439075Y38619D01*
X439075Y35873D02*
X441363Y35873D01*
X441435Y35871D01*
X441507Y35865D01*
X441578Y35856D01*
X441648Y35843D01*
X441718Y35826D01*
X441787Y35806D01*
X441855Y35782D01*
X441921Y35754D01*
X441986Y35723D01*
X442050Y35689D01*
X442111Y35651D01*
X442170Y35611D01*
X442227Y35567D01*
X442282Y35520D01*
X442334Y35471D01*
X442383Y35419D01*
X442430Y35364D01*
X442474Y35307D01*
X442514Y35248D01*
X442552Y35187D01*
X442586Y35123D01*
X442617Y35058D01*
X442645Y34992D01*
X442669Y34924D01*
X442689Y34855D01*
X442706Y34785D01*
X442719Y34715D01*
X442728Y34644D01*
X442734Y34572D01*
X442736Y34500D01*
X442736Y30381D01*
X446530Y33585D02*
X452022Y33585D01*
X455980Y30381D02*
X455980Y38619D01*
X458726Y34042D01*
X461472Y38619D01*
X461472Y30381D01*
X465206Y30381D02*
X465206Y35873D01*
X464977Y38161D02*
X464977Y38619D01*
X465435Y38619D01*
X465435Y38161D01*
X464977Y38161D01*
X468775Y35873D02*
X468775Y30381D01*
X468775Y35873D02*
X471063Y35873D01*
X471135Y35871D01*
X471207Y35865D01*
X471278Y35856D01*
X471348Y35843D01*
X471418Y35826D01*
X471487Y35806D01*
X471555Y35782D01*
X471621Y35754D01*
X471686Y35723D01*
X471750Y35689D01*
X471811Y35651D01*
X471870Y35611D01*
X471927Y35567D01*
X471982Y35520D01*
X472034Y35471D01*
X472083Y35419D01*
X472130Y35364D01*
X472174Y35307D01*
X472214Y35248D01*
X472252Y35187D01*
X472286Y35123D01*
X472317Y35058D01*
X472345Y34992D01*
X472369Y34924D01*
X472389Y34855D01*
X472406Y34785D01*
X472419Y34715D01*
X472428Y34644D01*
X472434Y34572D01*
X472436Y34500D01*
X472436Y30381D01*
X476335Y30381D02*
X476335Y38619D01*
X476335Y35873D02*
X478623Y35873D01*
X478695Y35871D01*
X478767Y35865D01*
X478838Y35856D01*
X478908Y35843D01*
X478978Y35826D01*
X479047Y35806D01*
X479115Y35782D01*
X479181Y35754D01*
X479246Y35723D01*
X479310Y35689D01*
X479371Y35651D01*
X479430Y35611D01*
X479487Y35567D01*
X479542Y35520D01*
X479594Y35471D01*
X479643Y35419D01*
X479690Y35364D01*
X479734Y35307D01*
X479774Y35248D01*
X479812Y35187D01*
X479846Y35123D01*
X479877Y35058D01*
X479905Y34992D01*
X479929Y34924D01*
X479949Y34855D01*
X479966Y34785D01*
X479979Y34715D01*
X479988Y34644D01*
X479994Y34572D01*
X479996Y34500D01*
X479996Y30381D01*
X488297Y30381D02*
X488297Y38619D01*
X492874Y30381D01*
X492874Y38619D01*
X496297Y30839D02*
X496297Y30381D01*
X496297Y30839D02*
X496755Y30839D01*
X496755Y30381D01*
X496297Y30381D01*
X505096Y36559D02*
X505060Y36621D01*
X505027Y36684D01*
X504998Y36750D01*
X504972Y36817D01*
X504950Y36885D01*
X504931Y36954D01*
X504916Y37024D01*
X504905Y37095D01*
X504897Y37166D01*
X504893Y37238D01*
X504894Y37309D01*
X504897Y37381D01*
X504905Y37452D01*
X504917Y37523D01*
X504932Y37593D01*
X504951Y37662D01*
X504974Y37730D01*
X505000Y37797D01*
X505029Y37862D01*
X505063Y37926D01*
X505099Y37987D01*
X505139Y38047D01*
X505182Y38105D01*
X505227Y38160D01*
X505276Y38212D01*
X505327Y38262D01*
X505381Y38309D01*
X505438Y38354D01*
X505497Y38395D01*
X505557Y38433D01*
X505620Y38467D01*
X505685Y38499D01*
X505751Y38527D01*
X505818Y38551D01*
X505887Y38572D01*
X505956Y38589D01*
X506027Y38602D01*
X506098Y38611D01*
X506169Y38617D01*
X506241Y38619D01*
X505097Y36560D02*
X508987Y30381D01*
X507386Y36559D02*
X507422Y36621D01*
X507455Y36684D01*
X507484Y36750D01*
X507510Y36817D01*
X507532Y36885D01*
X507551Y36954D01*
X507566Y37024D01*
X507577Y37095D01*
X507585Y37166D01*
X507589Y37238D01*
X507588Y37309D01*
X507585Y37381D01*
X507577Y37452D01*
X507565Y37523D01*
X507550Y37593D01*
X507531Y37662D01*
X507508Y37730D01*
X507482Y37797D01*
X507453Y37862D01*
X507419Y37926D01*
X507383Y37987D01*
X507343Y38047D01*
X507300Y38105D01*
X507255Y38160D01*
X507206Y38212D01*
X507155Y38262D01*
X507101Y38309D01*
X507044Y38354D01*
X506985Y38395D01*
X506925Y38433D01*
X506862Y38467D01*
X506797Y38499D01*
X506731Y38527D01*
X506664Y38551D01*
X506595Y38572D01*
X506526Y38589D01*
X506455Y38602D01*
X506384Y38611D01*
X506313Y38617D01*
X506241Y38619D01*
X504410Y31754D02*
X504412Y31682D01*
X504418Y31610D01*
X504427Y31539D01*
X504440Y31469D01*
X504457Y31399D01*
X504477Y31330D01*
X504501Y31262D01*
X504529Y31196D01*
X504560Y31131D01*
X504594Y31068D01*
X504632Y31006D01*
X504672Y30947D01*
X504716Y30890D01*
X504763Y30835D01*
X504812Y30783D01*
X504864Y30734D01*
X504919Y30687D01*
X504976Y30643D01*
X505035Y30603D01*
X505097Y30565D01*
X505160Y30531D01*
X505225Y30500D01*
X505291Y30472D01*
X505359Y30448D01*
X505428Y30428D01*
X505498Y30411D01*
X505568Y30398D01*
X505639Y30389D01*
X505711Y30383D01*
X505783Y30381D01*
X504410Y31754D02*
X504412Y31821D01*
X504418Y31888D01*
X504428Y31954D01*
X504441Y32019D01*
X504459Y32084D01*
X504480Y32147D01*
X504505Y32209D01*
X504533Y32270D01*
X504565Y32329D01*
X504600Y32386D01*
X504639Y32440D01*
X504639Y32441D02*
X507385Y36560D01*
X506469Y30610D02*
X506415Y30571D01*
X506358Y30536D01*
X506299Y30504D01*
X506238Y30476D01*
X506176Y30451D01*
X506113Y30430D01*
X506048Y30412D01*
X505983Y30399D01*
X505917Y30389D01*
X505850Y30383D01*
X505783Y30381D01*
X506470Y30610D02*
X509902Y33127D01*
X516190Y38619D02*
X518936Y30381D01*
X521682Y38619D01*
X524606Y35873D02*
X524606Y30381D01*
X524377Y38161D02*
X524377Y38619D01*
X524835Y38619D01*
X524835Y38161D01*
X524377Y38161D01*
X529288Y30381D02*
X531118Y30381D01*
X529288Y30381D02*
X529216Y30383D01*
X529144Y30389D01*
X529073Y30398D01*
X529003Y30411D01*
X528933Y30428D01*
X528864Y30448D01*
X528796Y30472D01*
X528730Y30500D01*
X528665Y30531D01*
X528602Y30565D01*
X528540Y30603D01*
X528481Y30643D01*
X528424Y30687D01*
X528369Y30734D01*
X528317Y30783D01*
X528268Y30835D01*
X528221Y30890D01*
X528177Y30947D01*
X528137Y31006D01*
X528099Y31068D01*
X528065Y31131D01*
X528034Y31196D01*
X528006Y31262D01*
X527982Y31330D01*
X527962Y31399D01*
X527945Y31469D01*
X527932Y31539D01*
X527923Y31610D01*
X527917Y31682D01*
X527915Y31754D01*
X527915Y34500D01*
X527917Y34572D01*
X527923Y34644D01*
X527932Y34715D01*
X527945Y34785D01*
X527962Y34855D01*
X527982Y34924D01*
X528006Y34992D01*
X528034Y35058D01*
X528065Y35123D01*
X528099Y35187D01*
X528137Y35248D01*
X528177Y35307D01*
X528221Y35364D01*
X528268Y35419D01*
X528317Y35471D01*
X528369Y35520D01*
X528424Y35567D01*
X528481Y35611D01*
X528540Y35651D01*
X528602Y35689D01*
X528665Y35723D01*
X528730Y35754D01*
X528796Y35782D01*
X528864Y35806D01*
X528933Y35826D01*
X529003Y35843D01*
X529073Y35856D01*
X529144Y35865D01*
X529216Y35871D01*
X529288Y35873D01*
X531118Y35873D01*
X533425Y35873D02*
X536171Y35873D01*
X534341Y38619D02*
X534341Y31754D01*
X534343Y31682D01*
X534349Y31610D01*
X534358Y31539D01*
X534371Y31469D01*
X534388Y31399D01*
X534408Y31330D01*
X534432Y31262D01*
X534460Y31196D01*
X534491Y31131D01*
X534525Y31068D01*
X534563Y31006D01*
X534603Y30947D01*
X534647Y30890D01*
X534694Y30835D01*
X534743Y30783D01*
X534795Y30734D01*
X534850Y30687D01*
X534907Y30643D01*
X534966Y30603D01*
X535028Y30565D01*
X535091Y30531D01*
X535156Y30500D01*
X535222Y30472D01*
X535290Y30448D01*
X535359Y30428D01*
X535429Y30411D01*
X535499Y30398D01*
X535570Y30389D01*
X535642Y30383D01*
X535714Y30381D01*
X536171Y30381D01*
X539245Y32212D02*
X539245Y34042D01*
X539247Y34127D01*
X539253Y34211D01*
X539263Y34295D01*
X539276Y34378D01*
X539294Y34461D01*
X539315Y34543D01*
X539340Y34624D01*
X539369Y34703D01*
X539401Y34782D01*
X539437Y34858D01*
X539476Y34933D01*
X539519Y35006D01*
X539565Y35077D01*
X539615Y35145D01*
X539667Y35212D01*
X539723Y35276D01*
X539781Y35337D01*
X539842Y35395D01*
X539906Y35451D01*
X539973Y35503D01*
X540041Y35553D01*
X540112Y35599D01*
X540185Y35642D01*
X540260Y35681D01*
X540336Y35717D01*
X540415Y35749D01*
X540494Y35778D01*
X540575Y35803D01*
X540657Y35824D01*
X540740Y35842D01*
X540823Y35855D01*
X540907Y35865D01*
X540991Y35871D01*
X541076Y35873D01*
X541161Y35871D01*
X541245Y35865D01*
X541329Y35855D01*
X541412Y35842D01*
X541495Y35824D01*
X541577Y35803D01*
X541658Y35778D01*
X541737Y35749D01*
X541816Y35717D01*
X541892Y35681D01*
X541967Y35642D01*
X542040Y35599D01*
X542111Y35553D01*
X542179Y35503D01*
X542246Y35451D01*
X542310Y35395D01*
X542371Y35337D01*
X542429Y35276D01*
X542485Y35212D01*
X542537Y35145D01*
X542587Y35077D01*
X542633Y35006D01*
X542676Y34933D01*
X542715Y34858D01*
X542751Y34782D01*
X542783Y34703D01*
X542812Y34624D01*
X542837Y34543D01*
X542858Y34461D01*
X542876Y34378D01*
X542889Y34295D01*
X542899Y34211D01*
X542905Y34127D01*
X542907Y34042D01*
X542906Y34042D02*
X542906Y32212D01*
X542907Y32212D02*
X542905Y32127D01*
X542899Y32043D01*
X542889Y31959D01*
X542876Y31876D01*
X542858Y31793D01*
X542837Y31711D01*
X542812Y31630D01*
X542783Y31551D01*
X542751Y31472D01*
X542715Y31396D01*
X542676Y31321D01*
X542633Y31248D01*
X542587Y31177D01*
X542537Y31109D01*
X542485Y31042D01*
X542429Y30978D01*
X542371Y30917D01*
X542310Y30859D01*
X542246Y30803D01*
X542179Y30751D01*
X542111Y30701D01*
X542040Y30655D01*
X541967Y30612D01*
X541892Y30573D01*
X541816Y30537D01*
X541737Y30505D01*
X541658Y30476D01*
X541577Y30451D01*
X541495Y30430D01*
X541412Y30412D01*
X541329Y30399D01*
X541245Y30389D01*
X541161Y30383D01*
X541076Y30381D01*
X540991Y30383D01*
X540907Y30389D01*
X540823Y30399D01*
X540740Y30412D01*
X540657Y30430D01*
X540575Y30451D01*
X540494Y30476D01*
X540415Y30505D01*
X540336Y30537D01*
X540260Y30573D01*
X540185Y30612D01*
X540112Y30655D01*
X540041Y30701D01*
X539973Y30751D01*
X539906Y30803D01*
X539842Y30859D01*
X539781Y30917D01*
X539723Y30978D01*
X539667Y31042D01*
X539615Y31109D01*
X539565Y31177D01*
X539519Y31248D01*
X539476Y31321D01*
X539437Y31396D01*
X539401Y31472D01*
X539369Y31551D01*
X539340Y31630D01*
X539315Y31711D01*
X539294Y31793D01*
X539276Y31876D01*
X539263Y31959D01*
X539253Y32043D01*
X539247Y32127D01*
X539245Y32212D01*
X546583Y30381D02*
X546583Y35873D01*
X549329Y35873D01*
X549329Y34958D01*
X555880Y30381D02*
X558626Y38619D01*
X561372Y30381D01*
X560685Y32441D02*
X556566Y32441D01*
X564067Y30839D02*
X564067Y30381D01*
X564067Y30839D02*
X564524Y30839D01*
X564524Y30381D01*
X564067Y30381D01*
X575471Y34958D02*
X576844Y34958D01*
X576844Y30381D01*
X574098Y30381D01*
X574013Y30383D01*
X573929Y30389D01*
X573845Y30399D01*
X573762Y30412D01*
X573679Y30430D01*
X573597Y30451D01*
X573516Y30476D01*
X573437Y30505D01*
X573358Y30537D01*
X573282Y30573D01*
X573207Y30612D01*
X573134Y30655D01*
X573063Y30701D01*
X572995Y30751D01*
X572928Y30803D01*
X572864Y30859D01*
X572803Y30917D01*
X572745Y30978D01*
X572689Y31042D01*
X572637Y31109D01*
X572587Y31177D01*
X572541Y31248D01*
X572498Y31321D01*
X572459Y31396D01*
X572423Y31472D01*
X572391Y31551D01*
X572362Y31630D01*
X572337Y31711D01*
X572316Y31793D01*
X572298Y31876D01*
X572285Y31959D01*
X572275Y32043D01*
X572269Y32127D01*
X572267Y32212D01*
X572267Y36788D01*
X572269Y36873D01*
X572275Y36957D01*
X572285Y37041D01*
X572298Y37124D01*
X572316Y37207D01*
X572337Y37289D01*
X572362Y37370D01*
X572391Y37449D01*
X572423Y37528D01*
X572459Y37604D01*
X572498Y37679D01*
X572541Y37752D01*
X572587Y37823D01*
X572637Y37891D01*
X572689Y37958D01*
X572745Y38022D01*
X572803Y38083D01*
X572864Y38141D01*
X572928Y38197D01*
X572995Y38249D01*
X573063Y38299D01*
X573134Y38345D01*
X573207Y38388D01*
X573282Y38427D01*
X573358Y38463D01*
X573437Y38495D01*
X573516Y38524D01*
X573597Y38549D01*
X573679Y38570D01*
X573762Y38588D01*
X573845Y38601D01*
X573929Y38611D01*
X574013Y38617D01*
X574098Y38619D01*
X576844Y38619D01*
X580961Y38619D02*
X580961Y30381D01*
X580961Y38619D02*
X583249Y38619D01*
X583344Y38617D01*
X583438Y38611D01*
X583532Y38601D01*
X583626Y38588D01*
X583719Y38570D01*
X583811Y38549D01*
X583902Y38524D01*
X583992Y38495D01*
X584081Y38462D01*
X584168Y38426D01*
X584254Y38387D01*
X584338Y38343D01*
X584420Y38297D01*
X584500Y38246D01*
X584579Y38193D01*
X584654Y38137D01*
X584728Y38077D01*
X584799Y38014D01*
X584867Y37949D01*
X584932Y37881D01*
X584995Y37810D01*
X585055Y37736D01*
X585111Y37661D01*
X585164Y37582D01*
X585215Y37502D01*
X585261Y37420D01*
X585305Y37336D01*
X585344Y37250D01*
X585380Y37163D01*
X585413Y37074D01*
X585442Y36984D01*
X585467Y36893D01*
X585488Y36801D01*
X585506Y36708D01*
X585519Y36614D01*
X585529Y36520D01*
X585535Y36426D01*
X585537Y36331D01*
X585535Y36236D01*
X585529Y36142D01*
X585519Y36048D01*
X585506Y35954D01*
X585488Y35861D01*
X585467Y35769D01*
X585442Y35678D01*
X585413Y35588D01*
X585380Y35499D01*
X585344Y35412D01*
X585305Y35326D01*
X585261Y35242D01*
X585215Y35160D01*
X585164Y35080D01*
X585111Y35001D01*
X585055Y34926D01*
X584995Y34852D01*
X584932Y34781D01*
X584867Y34713D01*
X584799Y34648D01*
X584728Y34585D01*
X584654Y34525D01*
X584579Y34469D01*
X584500Y34416D01*
X584420Y34365D01*
X584338Y34319D01*
X584254Y34275D01*
X584168Y34236D01*
X584081Y34200D01*
X583992Y34167D01*
X583902Y34138D01*
X583811Y34113D01*
X583719Y34092D01*
X583626Y34074D01*
X583532Y34061D01*
X583438Y34051D01*
X583344Y34045D01*
X583249Y34043D01*
X583249Y34042D02*
X580961Y34042D01*
X583707Y34042D02*
X585538Y30381D01*
X590755Y30381D02*
X590755Y38619D01*
X588467Y38619D02*
X593044Y38619D01*
X600347Y36788D02*
X602635Y38619D01*
X602635Y30381D01*
X600347Y30381D02*
X604924Y30381D01*
X610278Y34042D02*
X613024Y34042D01*
X610278Y34042D02*
X610193Y34044D01*
X610109Y34050D01*
X610025Y34060D01*
X609942Y34073D01*
X609859Y34091D01*
X609777Y34112D01*
X609696Y34137D01*
X609617Y34166D01*
X609538Y34198D01*
X609462Y34234D01*
X609387Y34273D01*
X609314Y34316D01*
X609243Y34362D01*
X609175Y34412D01*
X609108Y34464D01*
X609044Y34520D01*
X608983Y34578D01*
X608925Y34639D01*
X608869Y34703D01*
X608817Y34770D01*
X608767Y34838D01*
X608721Y34909D01*
X608678Y34982D01*
X608639Y35057D01*
X608603Y35133D01*
X608571Y35212D01*
X608542Y35291D01*
X608517Y35372D01*
X608496Y35454D01*
X608478Y35537D01*
X608465Y35620D01*
X608455Y35704D01*
X608449Y35788D01*
X608447Y35873D01*
X608447Y36331D01*
X608449Y36426D01*
X608455Y36520D01*
X608465Y36614D01*
X608478Y36708D01*
X608496Y36801D01*
X608517Y36893D01*
X608542Y36984D01*
X608571Y37074D01*
X608604Y37163D01*
X608640Y37250D01*
X608679Y37336D01*
X608723Y37420D01*
X608769Y37502D01*
X608820Y37582D01*
X608873Y37661D01*
X608929Y37736D01*
X608989Y37810D01*
X609052Y37881D01*
X609117Y37949D01*
X609185Y38014D01*
X609256Y38077D01*
X609330Y38137D01*
X609405Y38193D01*
X609484Y38246D01*
X609564Y38297D01*
X609646Y38343D01*
X609730Y38387D01*
X609816Y38426D01*
X609903Y38462D01*
X609992Y38495D01*
X610082Y38524D01*
X610173Y38549D01*
X610265Y38570D01*
X610358Y38588D01*
X610452Y38601D01*
X610546Y38611D01*
X610640Y38617D01*
X610735Y38619D01*
X610830Y38617D01*
X610924Y38611D01*
X611018Y38601D01*
X611112Y38588D01*
X611205Y38570D01*
X611297Y38549D01*
X611388Y38524D01*
X611478Y38495D01*
X611567Y38462D01*
X611654Y38426D01*
X611740Y38387D01*
X611824Y38343D01*
X611906Y38297D01*
X611986Y38246D01*
X612065Y38193D01*
X612140Y38137D01*
X612214Y38077D01*
X612285Y38014D01*
X612353Y37949D01*
X612418Y37881D01*
X612481Y37810D01*
X612541Y37736D01*
X612597Y37661D01*
X612650Y37582D01*
X612701Y37502D01*
X612747Y37420D01*
X612791Y37336D01*
X612830Y37250D01*
X612866Y37163D01*
X612899Y37074D01*
X612928Y36984D01*
X612953Y36893D01*
X612974Y36801D01*
X612992Y36708D01*
X613005Y36614D01*
X613015Y36520D01*
X613021Y36426D01*
X613023Y36331D01*
X613024Y36331D02*
X613024Y34042D01*
X613023Y34042D02*
X613021Y33922D01*
X613015Y33803D01*
X613005Y33683D01*
X612992Y33564D01*
X612974Y33446D01*
X612953Y33328D01*
X612927Y33211D01*
X612898Y33094D01*
X612865Y32979D01*
X612829Y32865D01*
X612788Y32752D01*
X612744Y32641D01*
X612697Y32531D01*
X612645Y32423D01*
X612591Y32316D01*
X612533Y32212D01*
X612471Y32109D01*
X612406Y32008D01*
X612338Y31910D01*
X612266Y31813D01*
X612192Y31719D01*
X612114Y31628D01*
X612034Y31539D01*
X611951Y31453D01*
X611865Y31370D01*
X611776Y31290D01*
X611685Y31212D01*
X611591Y31138D01*
X611494Y31066D01*
X611396Y30998D01*
X611295Y30933D01*
X611193Y30871D01*
X611088Y30813D01*
X610981Y30759D01*
X610873Y30707D01*
X610763Y30660D01*
X610652Y30616D01*
X610539Y30575D01*
X610425Y30539D01*
X610310Y30506D01*
X610193Y30477D01*
X610076Y30451D01*
X609958Y30430D01*
X609840Y30412D01*
X609721Y30399D01*
X609601Y30389D01*
X609482Y30383D01*
X609362Y30381D01*
X619064Y38620D02*
X619154Y38618D01*
X619244Y38612D01*
X619333Y38602D01*
X619422Y38589D01*
X619510Y38571D01*
X619597Y38550D01*
X619683Y38525D01*
X619769Y38496D01*
X619852Y38463D01*
X619935Y38427D01*
X620015Y38387D01*
X620094Y38344D01*
X620171Y38297D01*
X620246Y38247D01*
X620318Y38194D01*
X620388Y38138D01*
X620456Y38079D01*
X620521Y38017D01*
X620583Y37952D01*
X620642Y37884D01*
X620698Y37814D01*
X620751Y37742D01*
X620801Y37667D01*
X620848Y37590D01*
X620891Y37511D01*
X620931Y37431D01*
X620967Y37348D01*
X621000Y37265D01*
X621029Y37179D01*
X621054Y37093D01*
X621075Y37006D01*
X621093Y36918D01*
X621106Y36829D01*
X621116Y36740D01*
X621122Y36650D01*
X621124Y36560D01*
X619064Y38619D02*
X618963Y38617D01*
X618863Y38611D01*
X618762Y38602D01*
X618662Y38588D01*
X618563Y38571D01*
X618464Y38550D01*
X618366Y38525D01*
X618270Y38497D01*
X618174Y38465D01*
X618080Y38429D01*
X617987Y38390D01*
X617896Y38347D01*
X617806Y38301D01*
X617718Y38251D01*
X617632Y38198D01*
X617549Y38142D01*
X617467Y38083D01*
X617388Y38020D01*
X617311Y37955D01*
X617237Y37887D01*
X617165Y37816D01*
X617096Y37742D01*
X617031Y37666D01*
X616967Y37587D01*
X616908Y37506D01*
X616851Y37423D01*
X616797Y37338D01*
X616747Y37250D01*
X616700Y37161D01*
X616656Y37070D01*
X616616Y36978D01*
X616580Y36884D01*
X616547Y36788D01*
X620438Y34958D02*
X620501Y35021D01*
X620562Y35087D01*
X620620Y35155D01*
X620676Y35225D01*
X620728Y35298D01*
X620778Y35372D01*
X620825Y35449D01*
X620868Y35527D01*
X620908Y35607D01*
X620945Y35689D01*
X620979Y35772D01*
X621009Y35856D01*
X621036Y35941D01*
X621059Y36028D01*
X621079Y36115D01*
X621095Y36203D01*
X621108Y36292D01*
X621117Y36381D01*
X621122Y36470D01*
X621124Y36560D01*
X620437Y34958D02*
X616547Y30381D01*
X621124Y30381D01*
D13*
X476300Y220950D02*
X476300Y259050D01*
D14*
X475826Y259666D01*
X475337Y260271D01*
X474833Y260863D01*
X474315Y261443D01*
X473783Y262010D01*
X473237Y262564D01*
X472678Y263104D01*
X472105Y263630D01*
X471520Y264143D01*
X470923Y264640D01*
X470314Y265123D01*
X469693Y265591D01*
X469060Y266044D01*
X468417Y266481D01*
X467763Y266902D01*
X467099Y267306D01*
X466426Y267695D01*
X465743Y268067D01*
X465051Y268422D01*
X464351Y268760D01*
X463643Y269081D01*
X462927Y269384D01*
X462203Y269670D01*
X461474Y269938D01*
X460737Y270188D01*
X459995Y270419D01*
X459247Y270633D01*
X458495Y270828D01*
X457737Y271005D01*
X456976Y271163D01*
X456211Y271303D01*
X455443Y271423D01*
X454672Y271525D01*
X453899Y271608D01*
X453124Y271672D01*
X452348Y271717D01*
X451571Y271743D01*
X450793Y271750D01*
X450016Y271738D01*
X449239Y271707D01*
X448463Y271656D01*
X447688Y271587D01*
X446916Y271499D01*
X446146Y271392D01*
X445378Y271266D01*
X444614Y271122D01*
X443854Y270958D01*
X443098Y270776D01*
X442347Y270576D01*
X441600Y270358D01*
X440860Y270121D01*
X440125Y269866D01*
X439397Y269593D01*
X438676Y269302D01*
X437962Y268994D01*
X437256Y268669D01*
X436558Y268326D01*
X435868Y267966D01*
X435188Y267590D01*
X434517Y267197D01*
X433856Y266787D01*
X433205Y266362D01*
X432565Y265921D01*
X431936Y265464D01*
X431318Y264992D01*
X430712Y264505D01*
X430118Y264003D01*
X429536Y263487D01*
X428967Y262957D01*
X428412Y262413D01*
X427869Y261855D01*
X427341Y261285D01*
X426827Y260702D01*
X426327Y260106D01*
X425842Y259498D01*
X425372Y258879D01*
X424918Y258248D01*
X424479Y257606D01*
X424055Y256954D01*
X423648Y256291D01*
X423257Y255619D01*
X422883Y254937D01*
X422526Y254247D01*
X422186Y253548D01*
X421862Y252840D01*
X421557Y252126D01*
X421268Y251403D01*
X420998Y250674D01*
X420746Y249939D01*
X420511Y249197D01*
X420295Y248450D01*
X420097Y247698D01*
X419918Y246942D01*
X419757Y246181D01*
X419615Y245417D01*
X419492Y244649D01*
X419388Y243878D01*
X419302Y243105D01*
X419236Y242331D01*
X419188Y241555D01*
X419160Y240778D01*
X419150Y240000D01*
X419160Y239222D01*
X419188Y238445D01*
X419236Y237669D01*
X419302Y236895D01*
X419388Y236122D01*
X419492Y235351D01*
X419615Y234583D01*
X419757Y233819D01*
X419918Y233058D01*
X420097Y232302D01*
X420295Y231550D01*
X420511Y230803D01*
X420746Y230061D01*
X420998Y229326D01*
X421268Y228597D01*
X421557Y227874D01*
X421862Y227160D01*
X422186Y226452D01*
X422526Y225753D01*
X422883Y225063D01*
X423257Y224381D01*
X423648Y223709D01*
X424055Y223046D01*
X424479Y222394D01*
X424918Y221752D01*
X425372Y221121D01*
X425842Y220502D01*
X426327Y219894D01*
X426827Y219298D01*
X427341Y218715D01*
X427869Y218145D01*
X428412Y217587D01*
X428967Y217043D01*
X429536Y216513D01*
X430118Y215997D01*
X430712Y215495D01*
X431318Y215008D01*
X431936Y214536D01*
X432565Y214079D01*
X433205Y213638D01*
X433856Y213213D01*
X434517Y212803D01*
X435188Y212410D01*
X435868Y212034D01*
X436558Y211674D01*
X437256Y211331D01*
X437962Y211006D01*
X438676Y210698D01*
X439397Y210407D01*
X440125Y210134D01*
X440860Y209879D01*
X441600Y209642D01*
X442347Y209424D01*
X443098Y209224D01*
X443854Y209042D01*
X444614Y208878D01*
X445378Y208734D01*
X446146Y208608D01*
X446916Y208501D01*
X447688Y208413D01*
X448463Y208344D01*
X449239Y208293D01*
X450016Y208262D01*
X450793Y208250D01*
X451571Y208257D01*
X452348Y208283D01*
X453124Y208328D01*
X453899Y208392D01*
X454672Y208475D01*
X455443Y208577D01*
X456211Y208697D01*
X456976Y208837D01*
X457737Y208995D01*
X458495Y209172D01*
X459247Y209367D01*
X459995Y209581D01*
X460737Y209812D01*
X461474Y210062D01*
X462203Y210330D01*
X462927Y210616D01*
X463643Y210919D01*
X464351Y211240D01*
X465051Y211578D01*
X465743Y211933D01*
X466426Y212305D01*
X467099Y212694D01*
X467763Y213098D01*
X468417Y213519D01*
X469060Y213956D01*
X469693Y214409D01*
X470314Y214877D01*
X470923Y215360D01*
X471520Y215857D01*
X472105Y216370D01*
X472678Y216896D01*
X473237Y217436D01*
X473783Y217990D01*
X474315Y218557D01*
X474833Y219137D01*
X475337Y219729D01*
X475826Y220334D01*
X476300Y220950D01*
D10*
X425500Y240000D02*
X425508Y240623D01*
X425531Y241246D01*
X425569Y241869D01*
X425622Y242490D01*
X425691Y243109D01*
X425775Y243727D01*
X425874Y244342D01*
X425988Y244955D01*
X426117Y245565D01*
X426261Y246172D01*
X426420Y246775D01*
X426594Y247373D01*
X426782Y247968D01*
X426985Y248557D01*
X427202Y249141D01*
X427433Y249720D01*
X427679Y250293D01*
X427939Y250860D01*
X428212Y251420D01*
X428499Y251973D01*
X428800Y252520D01*
X429114Y253058D01*
X429441Y253589D01*
X429781Y254111D01*
X430133Y254626D01*
X430499Y255131D01*
X430876Y255627D01*
X431266Y256114D01*
X431667Y256591D01*
X432080Y257058D01*
X432504Y257514D01*
X432939Y257961D01*
X433386Y258396D01*
X433842Y258820D01*
X434309Y259233D01*
X434786Y259634D01*
X435273Y260024D01*
X435769Y260401D01*
X436274Y260767D01*
X436789Y261119D01*
X437311Y261459D01*
X437842Y261786D01*
X438380Y262100D01*
X438927Y262401D01*
X439480Y262688D01*
X440040Y262961D01*
X440607Y263221D01*
X441180Y263467D01*
X441759Y263698D01*
X442343Y263915D01*
X442932Y264118D01*
X443527Y264306D01*
X444125Y264480D01*
X444728Y264639D01*
X445335Y264783D01*
X445945Y264912D01*
X446558Y265026D01*
X447173Y265125D01*
X447791Y265209D01*
X448410Y265278D01*
X449031Y265331D01*
X449654Y265369D01*
X450277Y265392D01*
X450900Y265400D01*
X451523Y265392D01*
X452146Y265369D01*
X452769Y265331D01*
X453390Y265278D01*
X454009Y265209D01*
X454627Y265125D01*
X455242Y265026D01*
X455855Y264912D01*
X456465Y264783D01*
X457072Y264639D01*
X457675Y264480D01*
X458273Y264306D01*
X458868Y264118D01*
X459457Y263915D01*
X460041Y263698D01*
X460620Y263467D01*
X461193Y263221D01*
X461760Y262961D01*
X462320Y262688D01*
X462873Y262401D01*
X463420Y262100D01*
X463958Y261786D01*
X464489Y261459D01*
X465011Y261119D01*
X465526Y260767D01*
X466031Y260401D01*
X466527Y260024D01*
X467014Y259634D01*
X467491Y259233D01*
X467958Y258820D01*
X468414Y258396D01*
X468861Y257961D01*
X469296Y257514D01*
X469720Y257058D01*
X470133Y256591D01*
X470534Y256114D01*
X470924Y255627D01*
X471301Y255131D01*
X471667Y254626D01*
X472019Y254111D01*
X472359Y253589D01*
X472686Y253058D01*
X473000Y252520D01*
X473301Y251973D01*
X473588Y251420D01*
X473861Y250860D01*
X474121Y250293D01*
X474367Y249720D01*
X474598Y249141D01*
X474815Y248557D01*
X475018Y247968D01*
X475206Y247373D01*
X475380Y246775D01*
X475539Y246172D01*
X475683Y245565D01*
X475812Y244955D01*
X475926Y244342D01*
X476025Y243727D01*
X476109Y243109D01*
X476178Y242490D01*
X476231Y241869D01*
X476269Y241246D01*
X476292Y240623D01*
X476300Y240000D01*
X476292Y239377D01*
X476269Y238754D01*
X476231Y238131D01*
X476178Y237510D01*
X476109Y236891D01*
X476025Y236273D01*
X475926Y235658D01*
X475812Y235045D01*
X475683Y234435D01*
X475539Y233828D01*
X475380Y233225D01*
X475206Y232627D01*
X475018Y232032D01*
X474815Y231443D01*
X474598Y230859D01*
X474367Y230280D01*
X474121Y229707D01*
X473861Y229140D01*
X473588Y228580D01*
X473301Y228027D01*
X473000Y227480D01*
X472686Y226942D01*
X472359Y226411D01*
X472019Y225889D01*
X471667Y225374D01*
X471301Y224869D01*
X470924Y224373D01*
X470534Y223886D01*
X470133Y223409D01*
X469720Y222942D01*
X469296Y222486D01*
X468861Y222039D01*
X468414Y221604D01*
X467958Y221180D01*
X467491Y220767D01*
X467014Y220366D01*
X466527Y219976D01*
X466031Y219599D01*
X465526Y219233D01*
X465011Y218881D01*
X464489Y218541D01*
X463958Y218214D01*
X463420Y217900D01*
X462873Y217599D01*
X462320Y217312D01*
X461760Y217039D01*
X461193Y216779D01*
X460620Y216533D01*
X460041Y216302D01*
X459457Y216085D01*
X458868Y215882D01*
X458273Y215694D01*
X457675Y215520D01*
X457072Y215361D01*
X456465Y215217D01*
X455855Y215088D01*
X455242Y214974D01*
X454627Y214875D01*
X454009Y214791D01*
X453390Y214722D01*
X452769Y214669D01*
X452146Y214631D01*
X451523Y214608D01*
X450900Y214600D01*
X450277Y214608D01*
X449654Y214631D01*
X449031Y214669D01*
X448410Y214722D01*
X447791Y214791D01*
X447173Y214875D01*
X446558Y214974D01*
X445945Y215088D01*
X445335Y215217D01*
X444728Y215361D01*
X444125Y215520D01*
X443527Y215694D01*
X442932Y215882D01*
X442343Y216085D01*
X441759Y216302D01*
X441180Y216533D01*
X440607Y216779D01*
X440040Y217039D01*
X439480Y217312D01*
X438927Y217599D01*
X438380Y217900D01*
X437842Y218214D01*
X437311Y218541D01*
X436789Y218881D01*
X436274Y219233D01*
X435769Y219599D01*
X435273Y219976D01*
X434786Y220366D01*
X434309Y220767D01*
X433842Y221180D01*
X433386Y221604D01*
X432939Y222039D01*
X432504Y222486D01*
X432080Y222942D01*
X431667Y223409D01*
X431266Y223886D01*
X430876Y224373D01*
X430499Y224869D01*
X430133Y225374D01*
X429781Y225889D01*
X429441Y226411D01*
X429114Y226942D01*
X428800Y227480D01*
X428499Y228027D01*
X428212Y228580D01*
X427939Y229140D01*
X427679Y229707D01*
X427433Y230280D01*
X427202Y230859D01*
X426985Y231443D01*
X426782Y232032D01*
X426594Y232627D01*
X426420Y233225D01*
X426261Y233828D01*
X426117Y234435D01*
X425988Y235045D01*
X425874Y235658D01*
X425775Y236273D01*
X425691Y236891D01*
X425622Y237510D01*
X425569Y238131D01*
X425531Y238754D01*
X425508Y239377D01*
X425500Y240000D01*
D13*
X435900Y138850D02*
X435900Y100750D01*
D14*
X436374Y100134D01*
X436863Y99529D01*
X437367Y98937D01*
X437885Y98357D01*
X438417Y97790D01*
X438963Y97236D01*
X439522Y96696D01*
X440095Y96170D01*
X440680Y95657D01*
X441277Y95160D01*
X441886Y94677D01*
X442507Y94209D01*
X443140Y93756D01*
X443783Y93319D01*
X444437Y92898D01*
X445101Y92494D01*
X445774Y92105D01*
X446457Y91733D01*
X447149Y91378D01*
X447849Y91040D01*
X448557Y90719D01*
X449273Y90416D01*
X449997Y90130D01*
X450726Y89862D01*
X451463Y89612D01*
X452205Y89381D01*
X452953Y89167D01*
X453705Y88972D01*
X454463Y88795D01*
X455224Y88637D01*
X455989Y88497D01*
X456757Y88377D01*
X457528Y88275D01*
X458301Y88192D01*
X459076Y88128D01*
X459852Y88083D01*
X460629Y88057D01*
X461407Y88050D01*
X462184Y88062D01*
X462961Y88093D01*
X463737Y88144D01*
X464512Y88213D01*
X465284Y88301D01*
X466054Y88408D01*
X466822Y88534D01*
X467586Y88678D01*
X468346Y88842D01*
X469102Y89024D01*
X469853Y89224D01*
X470600Y89442D01*
X471340Y89679D01*
X472075Y89934D01*
X472803Y90207D01*
X473524Y90498D01*
X474238Y90806D01*
X474944Y91131D01*
X475642Y91474D01*
X476332Y91834D01*
X477012Y92210D01*
X477683Y92603D01*
X478344Y93013D01*
X478995Y93438D01*
X479635Y93879D01*
X480264Y94336D01*
X480882Y94808D01*
X481488Y95295D01*
X482082Y95797D01*
X482664Y96313D01*
X483233Y96843D01*
X483788Y97387D01*
X484331Y97945D01*
X484859Y98515D01*
X485373Y99098D01*
X485873Y99694D01*
X486358Y100302D01*
X486828Y100921D01*
X487282Y101552D01*
X487721Y102194D01*
X488145Y102846D01*
X488552Y103509D01*
X488943Y104181D01*
X489317Y104863D01*
X489674Y105553D01*
X490014Y106252D01*
X490338Y106960D01*
X490643Y107674D01*
X490932Y108397D01*
X491202Y109126D01*
X491454Y109861D01*
X491689Y110603D01*
X491905Y111350D01*
X492103Y112102D01*
X492282Y112858D01*
X492443Y113619D01*
X492585Y114383D01*
X492708Y115151D01*
X492812Y115922D01*
X492898Y116695D01*
X492964Y117469D01*
X493012Y118245D01*
X493040Y119022D01*
X493050Y119800D01*
X493040Y120578D01*
X493012Y121355D01*
X492964Y122131D01*
X492898Y122905D01*
X492812Y123678D01*
X492708Y124449D01*
X492585Y125217D01*
X492443Y125981D01*
X492282Y126742D01*
X492103Y127498D01*
X491905Y128250D01*
X491689Y128997D01*
X491454Y129739D01*
X491202Y130474D01*
X490932Y131203D01*
X490643Y131926D01*
X490338Y132640D01*
X490014Y133348D01*
X489674Y134047D01*
X489317Y134737D01*
X488943Y135419D01*
X488552Y136091D01*
X488145Y136754D01*
X487721Y137406D01*
X487282Y138048D01*
X486828Y138679D01*
X486358Y139298D01*
X485873Y139906D01*
X485373Y140502D01*
X484859Y141085D01*
X484331Y141655D01*
X483788Y142213D01*
X483233Y142757D01*
X482664Y143287D01*
X482082Y143803D01*
X481488Y144305D01*
X480882Y144792D01*
X480264Y145264D01*
X479635Y145721D01*
X478995Y146162D01*
X478344Y146587D01*
X477683Y146997D01*
X477012Y147390D01*
X476332Y147766D01*
X475642Y148126D01*
X474944Y148469D01*
X474238Y148794D01*
X473524Y149102D01*
X472803Y149393D01*
X472075Y149666D01*
X471340Y149921D01*
X470600Y150158D01*
X469853Y150376D01*
X469102Y150576D01*
X468346Y150758D01*
X467586Y150922D01*
X466822Y151066D01*
X466054Y151192D01*
X465284Y151299D01*
X464512Y151387D01*
X463737Y151456D01*
X462961Y151507D01*
X462184Y151538D01*
X461407Y151550D01*
X460629Y151543D01*
X459852Y151517D01*
X459076Y151472D01*
X458301Y151408D01*
X457528Y151325D01*
X456757Y151223D01*
X455989Y151103D01*
X455224Y150963D01*
X454463Y150805D01*
X453705Y150628D01*
X452953Y150433D01*
X452205Y150219D01*
X451463Y149988D01*
X450726Y149738D01*
X449997Y149470D01*
X449273Y149184D01*
X448557Y148881D01*
X447849Y148560D01*
X447149Y148222D01*
X446457Y147867D01*
X445774Y147495D01*
X445101Y147106D01*
X444437Y146702D01*
X443783Y146281D01*
X443140Y145844D01*
X442507Y145391D01*
X441886Y144923D01*
X441277Y144440D01*
X440680Y143943D01*
X440095Y143430D01*
X439522Y142904D01*
X438963Y142364D01*
X438417Y141810D01*
X437885Y141243D01*
X437367Y140663D01*
X436863Y140071D01*
X436374Y139466D01*
X435900Y138850D01*
D10*
X435900Y119800D02*
X435908Y120423D01*
X435931Y121046D01*
X435969Y121669D01*
X436022Y122290D01*
X436091Y122909D01*
X436175Y123527D01*
X436274Y124142D01*
X436388Y124755D01*
X436517Y125365D01*
X436661Y125972D01*
X436820Y126575D01*
X436994Y127173D01*
X437182Y127768D01*
X437385Y128357D01*
X437602Y128941D01*
X437833Y129520D01*
X438079Y130093D01*
X438339Y130660D01*
X438612Y131220D01*
X438899Y131773D01*
X439200Y132320D01*
X439514Y132858D01*
X439841Y133389D01*
X440181Y133911D01*
X440533Y134426D01*
X440899Y134931D01*
X441276Y135427D01*
X441666Y135914D01*
X442067Y136391D01*
X442480Y136858D01*
X442904Y137314D01*
X443339Y137761D01*
X443786Y138196D01*
X444242Y138620D01*
X444709Y139033D01*
X445186Y139434D01*
X445673Y139824D01*
X446169Y140201D01*
X446674Y140567D01*
X447189Y140919D01*
X447711Y141259D01*
X448242Y141586D01*
X448780Y141900D01*
X449327Y142201D01*
X449880Y142488D01*
X450440Y142761D01*
X451007Y143021D01*
X451580Y143267D01*
X452159Y143498D01*
X452743Y143715D01*
X453332Y143918D01*
X453927Y144106D01*
X454525Y144280D01*
X455128Y144439D01*
X455735Y144583D01*
X456345Y144712D01*
X456958Y144826D01*
X457573Y144925D01*
X458191Y145009D01*
X458810Y145078D01*
X459431Y145131D01*
X460054Y145169D01*
X460677Y145192D01*
X461300Y145200D01*
X461923Y145192D01*
X462546Y145169D01*
X463169Y145131D01*
X463790Y145078D01*
X464409Y145009D01*
X465027Y144925D01*
X465642Y144826D01*
X466255Y144712D01*
X466865Y144583D01*
X467472Y144439D01*
X468075Y144280D01*
X468673Y144106D01*
X469268Y143918D01*
X469857Y143715D01*
X470441Y143498D01*
X471020Y143267D01*
X471593Y143021D01*
X472160Y142761D01*
X472720Y142488D01*
X473273Y142201D01*
X473820Y141900D01*
X474358Y141586D01*
X474889Y141259D01*
X475411Y140919D01*
X475926Y140567D01*
X476431Y140201D01*
X476927Y139824D01*
X477414Y139434D01*
X477891Y139033D01*
X478358Y138620D01*
X478814Y138196D01*
X479261Y137761D01*
X479696Y137314D01*
X480120Y136858D01*
X480533Y136391D01*
X480934Y135914D01*
X481324Y135427D01*
X481701Y134931D01*
X482067Y134426D01*
X482419Y133911D01*
X482759Y133389D01*
X483086Y132858D01*
X483400Y132320D01*
X483701Y131773D01*
X483988Y131220D01*
X484261Y130660D01*
X484521Y130093D01*
X484767Y129520D01*
X484998Y128941D01*
X485215Y128357D01*
X485418Y127768D01*
X485606Y127173D01*
X485780Y126575D01*
X485939Y125972D01*
X486083Y125365D01*
X486212Y124755D01*
X486326Y124142D01*
X486425Y123527D01*
X486509Y122909D01*
X486578Y122290D01*
X486631Y121669D01*
X486669Y121046D01*
X486692Y120423D01*
X486700Y119800D01*
X486692Y119177D01*
X486669Y118554D01*
X486631Y117931D01*
X486578Y117310D01*
X486509Y116691D01*
X486425Y116073D01*
X486326Y115458D01*
X486212Y114845D01*
X486083Y114235D01*
X485939Y113628D01*
X485780Y113025D01*
X485606Y112427D01*
X485418Y111832D01*
X485215Y111243D01*
X484998Y110659D01*
X484767Y110080D01*
X484521Y109507D01*
X484261Y108940D01*
X483988Y108380D01*
X483701Y107827D01*
X483400Y107280D01*
X483086Y106742D01*
X482759Y106211D01*
X482419Y105689D01*
X482067Y105174D01*
X481701Y104669D01*
X481324Y104173D01*
X480934Y103686D01*
X480533Y103209D01*
X480120Y102742D01*
X479696Y102286D01*
X479261Y101839D01*
X478814Y101404D01*
X478358Y100980D01*
X477891Y100567D01*
X477414Y100166D01*
X476927Y99776D01*
X476431Y99399D01*
X475926Y99033D01*
X475411Y98681D01*
X474889Y98341D01*
X474358Y98014D01*
X473820Y97700D01*
X473273Y97399D01*
X472720Y97112D01*
X472160Y96839D01*
X471593Y96579D01*
X471020Y96333D01*
X470441Y96102D01*
X469857Y95885D01*
X469268Y95682D01*
X468673Y95494D01*
X468075Y95320D01*
X467472Y95161D01*
X466865Y95017D01*
X466255Y94888D01*
X465642Y94774D01*
X465027Y94675D01*
X464409Y94591D01*
X463790Y94522D01*
X463169Y94469D01*
X462546Y94431D01*
X461923Y94408D01*
X461300Y94400D01*
X460677Y94408D01*
X460054Y94431D01*
X459431Y94469D01*
X458810Y94522D01*
X458191Y94591D01*
X457573Y94675D01*
X456958Y94774D01*
X456345Y94888D01*
X455735Y95017D01*
X455128Y95161D01*
X454525Y95320D01*
X453927Y95494D01*
X453332Y95682D01*
X452743Y95885D01*
X452159Y96102D01*
X451580Y96333D01*
X451007Y96579D01*
X450440Y96839D01*
X449880Y97112D01*
X449327Y97399D01*
X448780Y97700D01*
X448242Y98014D01*
X447711Y98341D01*
X447189Y98681D01*
X446674Y99033D01*
X446169Y99399D01*
X445673Y99776D01*
X445186Y100166D01*
X444709Y100567D01*
X444242Y100980D01*
X443786Y101404D01*
X443339Y101839D01*
X442904Y102286D01*
X442480Y102742D01*
X442067Y103209D01*
X441666Y103686D01*
X441276Y104173D01*
X440899Y104669D01*
X440533Y105174D01*
X440181Y105689D01*
X439841Y106211D01*
X439514Y106742D01*
X439200Y107280D01*
X438899Y107827D01*
X438612Y108380D01*
X438339Y108940D01*
X438079Y109507D01*
X437833Y110080D01*
X437602Y110659D01*
X437385Y111243D01*
X437182Y111832D01*
X436994Y112427D01*
X436820Y113025D01*
X436661Y113628D01*
X436517Y114235D01*
X436388Y114845D01*
X436274Y115458D01*
X436175Y116073D01*
X436091Y116691D01*
X436022Y117310D01*
X435969Y117931D01*
X435931Y118554D01*
X435908Y119177D01*
X435900Y119800D01*
D11*
X312100Y93100D02*
X312100Y163100D01*
X312100Y93100D02*
X382100Y93100D01*
X382100Y163100D01*
X312100Y163100D01*
D15*
X267608Y140292D02*
X267608Y128608D01*
X267608Y140292D02*
X270854Y140292D01*
X270967Y140290D01*
X271080Y140284D01*
X271193Y140274D01*
X271306Y140260D01*
X271418Y140243D01*
X271529Y140221D01*
X271639Y140196D01*
X271749Y140166D01*
X271857Y140133D01*
X271964Y140096D01*
X272070Y140056D01*
X272174Y140011D01*
X272277Y139963D01*
X272378Y139912D01*
X272477Y139857D01*
X272574Y139799D01*
X272669Y139737D01*
X272762Y139672D01*
X272852Y139604D01*
X272940Y139533D01*
X273026Y139458D01*
X273109Y139381D01*
X273189Y139301D01*
X273266Y139218D01*
X273341Y139132D01*
X273412Y139044D01*
X273480Y138954D01*
X273545Y138861D01*
X273607Y138766D01*
X273665Y138669D01*
X273720Y138570D01*
X273771Y138469D01*
X273819Y138366D01*
X273864Y138262D01*
X273904Y138156D01*
X273941Y138049D01*
X273974Y137941D01*
X274004Y137831D01*
X274029Y137721D01*
X274051Y137610D01*
X274068Y137498D01*
X274082Y137385D01*
X274092Y137272D01*
X274098Y137159D01*
X274100Y137046D01*
X274099Y137046D02*
X274099Y131854D01*
X274100Y131854D02*
X274098Y131741D01*
X274092Y131628D01*
X274082Y131515D01*
X274068Y131402D01*
X274051Y131290D01*
X274029Y131179D01*
X274004Y131069D01*
X273974Y130959D01*
X273941Y130851D01*
X273904Y130744D01*
X273864Y130638D01*
X273819Y130534D01*
X273771Y130431D01*
X273720Y130330D01*
X273665Y130231D01*
X273607Y130134D01*
X273545Y130039D01*
X273480Y129946D01*
X273412Y129856D01*
X273341Y129768D01*
X273266Y129682D01*
X273189Y129599D01*
X273109Y129519D01*
X273026Y129442D01*
X272940Y129367D01*
X272852Y129296D01*
X272762Y129228D01*
X272669Y129163D01*
X272574Y129101D01*
X272477Y129043D01*
X272378Y128988D01*
X272277Y128937D01*
X272174Y128889D01*
X272070Y128844D01*
X271964Y128804D01*
X271857Y128767D01*
X271749Y128734D01*
X271639Y128704D01*
X271529Y128679D01*
X271418Y128657D01*
X271306Y128640D01*
X271193Y128626D01*
X271080Y128616D01*
X270967Y128610D01*
X270854Y128608D01*
X267608Y128608D01*
X280379Y128608D02*
X280379Y140292D01*
X279080Y128608D02*
X281677Y128608D01*
X281677Y140292D02*
X279080Y140292D01*
X286732Y140292D02*
X286732Y128608D01*
X286732Y140292D02*
X289977Y140292D01*
X290090Y140290D01*
X290203Y140284D01*
X290316Y140274D01*
X290429Y140260D01*
X290541Y140243D01*
X290652Y140221D01*
X290762Y140196D01*
X290872Y140166D01*
X290980Y140133D01*
X291087Y140096D01*
X291193Y140056D01*
X291297Y140011D01*
X291400Y139963D01*
X291501Y139912D01*
X291600Y139857D01*
X291697Y139799D01*
X291792Y139737D01*
X291885Y139672D01*
X291975Y139604D01*
X292063Y139533D01*
X292149Y139458D01*
X292232Y139381D01*
X292312Y139301D01*
X292389Y139218D01*
X292464Y139132D01*
X292535Y139044D01*
X292603Y138954D01*
X292668Y138861D01*
X292730Y138766D01*
X292788Y138669D01*
X292843Y138570D01*
X292894Y138469D01*
X292942Y138366D01*
X292987Y138262D01*
X293027Y138156D01*
X293064Y138049D01*
X293097Y137941D01*
X293127Y137831D01*
X293152Y137721D01*
X293174Y137610D01*
X293191Y137498D01*
X293205Y137385D01*
X293215Y137272D01*
X293221Y137159D01*
X293223Y137046D01*
X293221Y136933D01*
X293215Y136820D01*
X293205Y136707D01*
X293191Y136594D01*
X293174Y136482D01*
X293152Y136371D01*
X293127Y136261D01*
X293097Y136151D01*
X293064Y136043D01*
X293027Y135936D01*
X292987Y135830D01*
X292942Y135726D01*
X292894Y135623D01*
X292843Y135522D01*
X292788Y135423D01*
X292730Y135326D01*
X292668Y135231D01*
X292603Y135138D01*
X292535Y135048D01*
X292464Y134960D01*
X292389Y134874D01*
X292312Y134791D01*
X292232Y134711D01*
X292149Y134634D01*
X292063Y134559D01*
X291975Y134488D01*
X291885Y134420D01*
X291792Y134355D01*
X291697Y134293D01*
X291600Y134235D01*
X291501Y134180D01*
X291400Y134129D01*
X291297Y134081D01*
X291193Y134036D01*
X291087Y133996D01*
X290980Y133959D01*
X290872Y133926D01*
X290762Y133896D01*
X290652Y133871D01*
X290541Y133849D01*
X290429Y133832D01*
X290316Y133818D01*
X290203Y133808D01*
X290090Y133802D01*
X289977Y133800D01*
X289977Y133801D02*
X286732Y133801D01*
X290626Y133801D02*
X293223Y128608D01*
X298088Y137696D02*
X301333Y140292D01*
X301333Y128608D01*
X298088Y128608D02*
X304579Y128608D01*
D11*
X311900Y205000D02*
X311900Y275000D01*
X311900Y205000D02*
X381900Y205000D01*
X381900Y275000D01*
X311900Y275000D01*
D15*
X272601Y230508D02*
X267408Y230508D01*
X267408Y242192D01*
X272601Y242192D01*
X271303Y236999D02*
X267408Y236999D01*
X277291Y242192D02*
X277291Y230508D01*
X283783Y230508D02*
X277291Y242192D01*
X283783Y242192D02*
X283783Y230508D01*
X288453Y230508D02*
X292348Y242192D01*
X296243Y230508D01*
X295269Y233429D02*
X289427Y233429D01*
X300532Y239596D02*
X303778Y242192D01*
X303778Y230508D01*
X307023Y230508D02*
X300532Y230508D01*
D13*
X574400Y221150D02*
X574400Y259250D01*
D14*
X573926Y259866D01*
X573437Y260471D01*
X572933Y261063D01*
X572415Y261643D01*
X571883Y262210D01*
X571337Y262764D01*
X570778Y263304D01*
X570205Y263830D01*
X569620Y264343D01*
X569023Y264840D01*
X568414Y265323D01*
X567793Y265791D01*
X567160Y266244D01*
X566517Y266681D01*
X565863Y267102D01*
X565199Y267506D01*
X564526Y267895D01*
X563843Y268267D01*
X563151Y268622D01*
X562451Y268960D01*
X561743Y269281D01*
X561027Y269584D01*
X560303Y269870D01*
X559574Y270138D01*
X558837Y270388D01*
X558095Y270619D01*
X557347Y270833D01*
X556595Y271028D01*
X555837Y271205D01*
X555076Y271363D01*
X554311Y271503D01*
X553543Y271623D01*
X552772Y271725D01*
X551999Y271808D01*
X551224Y271872D01*
X550448Y271917D01*
X549671Y271943D01*
X548893Y271950D01*
X548116Y271938D01*
X547339Y271907D01*
X546563Y271856D01*
X545788Y271787D01*
X545016Y271699D01*
X544246Y271592D01*
X543478Y271466D01*
X542714Y271322D01*
X541954Y271158D01*
X541198Y270976D01*
X540447Y270776D01*
X539700Y270558D01*
X538960Y270321D01*
X538225Y270066D01*
X537497Y269793D01*
X536776Y269502D01*
X536062Y269194D01*
X535356Y268869D01*
X534658Y268526D01*
X533968Y268166D01*
X533288Y267790D01*
X532617Y267397D01*
X531956Y266987D01*
X531305Y266562D01*
X530665Y266121D01*
X530036Y265664D01*
X529418Y265192D01*
X528812Y264705D01*
X528218Y264203D01*
X527636Y263687D01*
X527067Y263157D01*
X526512Y262613D01*
X525969Y262055D01*
X525441Y261485D01*
X524927Y260902D01*
X524427Y260306D01*
X523942Y259698D01*
X523472Y259079D01*
X523018Y258448D01*
X522579Y257806D01*
X522155Y257154D01*
X521748Y256491D01*
X521357Y255819D01*
X520983Y255137D01*
X520626Y254447D01*
X520286Y253748D01*
X519962Y253040D01*
X519657Y252326D01*
X519368Y251603D01*
X519098Y250874D01*
X518846Y250139D01*
X518611Y249397D01*
X518395Y248650D01*
X518197Y247898D01*
X518018Y247142D01*
X517857Y246381D01*
X517715Y245617D01*
X517592Y244849D01*
X517488Y244078D01*
X517402Y243305D01*
X517336Y242531D01*
X517288Y241755D01*
X517260Y240978D01*
X517250Y240200D01*
X517260Y239422D01*
X517288Y238645D01*
X517336Y237869D01*
X517402Y237095D01*
X517488Y236322D01*
X517592Y235551D01*
X517715Y234783D01*
X517857Y234019D01*
X518018Y233258D01*
X518197Y232502D01*
X518395Y231750D01*
X518611Y231003D01*
X518846Y230261D01*
X519098Y229526D01*
X519368Y228797D01*
X519657Y228074D01*
X519962Y227360D01*
X520286Y226652D01*
X520626Y225953D01*
X520983Y225263D01*
X521357Y224581D01*
X521748Y223909D01*
X522155Y223246D01*
X522579Y222594D01*
X523018Y221952D01*
X523472Y221321D01*
X523942Y220702D01*
X524427Y220094D01*
X524927Y219498D01*
X525441Y218915D01*
X525969Y218345D01*
X526512Y217787D01*
X527067Y217243D01*
X527636Y216713D01*
X528218Y216197D01*
X528812Y215695D01*
X529418Y215208D01*
X530036Y214736D01*
X530665Y214279D01*
X531305Y213838D01*
X531956Y213413D01*
X532617Y213003D01*
X533288Y212610D01*
X533968Y212234D01*
X534658Y211874D01*
X535356Y211531D01*
X536062Y211206D01*
X536776Y210898D01*
X537497Y210607D01*
X538225Y210334D01*
X538960Y210079D01*
X539700Y209842D01*
X540447Y209624D01*
X541198Y209424D01*
X541954Y209242D01*
X542714Y209078D01*
X543478Y208934D01*
X544246Y208808D01*
X545016Y208701D01*
X545788Y208613D01*
X546563Y208544D01*
X547339Y208493D01*
X548116Y208462D01*
X548893Y208450D01*
X549671Y208457D01*
X550448Y208483D01*
X551224Y208528D01*
X551999Y208592D01*
X552772Y208675D01*
X553543Y208777D01*
X554311Y208897D01*
X555076Y209037D01*
X555837Y209195D01*
X556595Y209372D01*
X557347Y209567D01*
X558095Y209781D01*
X558837Y210012D01*
X559574Y210262D01*
X560303Y210530D01*
X561027Y210816D01*
X561743Y211119D01*
X562451Y211440D01*
X563151Y211778D01*
X563843Y212133D01*
X564526Y212505D01*
X565199Y212894D01*
X565863Y213298D01*
X566517Y213719D01*
X567160Y214156D01*
X567793Y214609D01*
X568414Y215077D01*
X569023Y215560D01*
X569620Y216057D01*
X570205Y216570D01*
X570778Y217096D01*
X571337Y217636D01*
X571883Y218190D01*
X572415Y218757D01*
X572933Y219337D01*
X573437Y219929D01*
X573926Y220534D01*
X574400Y221150D01*
D10*
X523600Y240200D02*
X523608Y240823D01*
X523631Y241446D01*
X523669Y242069D01*
X523722Y242690D01*
X523791Y243309D01*
X523875Y243927D01*
X523974Y244542D01*
X524088Y245155D01*
X524217Y245765D01*
X524361Y246372D01*
X524520Y246975D01*
X524694Y247573D01*
X524882Y248168D01*
X525085Y248757D01*
X525302Y249341D01*
X525533Y249920D01*
X525779Y250493D01*
X526039Y251060D01*
X526312Y251620D01*
X526599Y252173D01*
X526900Y252720D01*
X527214Y253258D01*
X527541Y253789D01*
X527881Y254311D01*
X528233Y254826D01*
X528599Y255331D01*
X528976Y255827D01*
X529366Y256314D01*
X529767Y256791D01*
X530180Y257258D01*
X530604Y257714D01*
X531039Y258161D01*
X531486Y258596D01*
X531942Y259020D01*
X532409Y259433D01*
X532886Y259834D01*
X533373Y260224D01*
X533869Y260601D01*
X534374Y260967D01*
X534889Y261319D01*
X535411Y261659D01*
X535942Y261986D01*
X536480Y262300D01*
X537027Y262601D01*
X537580Y262888D01*
X538140Y263161D01*
X538707Y263421D01*
X539280Y263667D01*
X539859Y263898D01*
X540443Y264115D01*
X541032Y264318D01*
X541627Y264506D01*
X542225Y264680D01*
X542828Y264839D01*
X543435Y264983D01*
X544045Y265112D01*
X544658Y265226D01*
X545273Y265325D01*
X545891Y265409D01*
X546510Y265478D01*
X547131Y265531D01*
X547754Y265569D01*
X548377Y265592D01*
X549000Y265600D01*
X549623Y265592D01*
X550246Y265569D01*
X550869Y265531D01*
X551490Y265478D01*
X552109Y265409D01*
X552727Y265325D01*
X553342Y265226D01*
X553955Y265112D01*
X554565Y264983D01*
X555172Y264839D01*
X555775Y264680D01*
X556373Y264506D01*
X556968Y264318D01*
X557557Y264115D01*
X558141Y263898D01*
X558720Y263667D01*
X559293Y263421D01*
X559860Y263161D01*
X560420Y262888D01*
X560973Y262601D01*
X561520Y262300D01*
X562058Y261986D01*
X562589Y261659D01*
X563111Y261319D01*
X563626Y260967D01*
X564131Y260601D01*
X564627Y260224D01*
X565114Y259834D01*
X565591Y259433D01*
X566058Y259020D01*
X566514Y258596D01*
X566961Y258161D01*
X567396Y257714D01*
X567820Y257258D01*
X568233Y256791D01*
X568634Y256314D01*
X569024Y255827D01*
X569401Y255331D01*
X569767Y254826D01*
X570119Y254311D01*
X570459Y253789D01*
X570786Y253258D01*
X571100Y252720D01*
X571401Y252173D01*
X571688Y251620D01*
X571961Y251060D01*
X572221Y250493D01*
X572467Y249920D01*
X572698Y249341D01*
X572915Y248757D01*
X573118Y248168D01*
X573306Y247573D01*
X573480Y246975D01*
X573639Y246372D01*
X573783Y245765D01*
X573912Y245155D01*
X574026Y244542D01*
X574125Y243927D01*
X574209Y243309D01*
X574278Y242690D01*
X574331Y242069D01*
X574369Y241446D01*
X574392Y240823D01*
X574400Y240200D01*
X574392Y239577D01*
X574369Y238954D01*
X574331Y238331D01*
X574278Y237710D01*
X574209Y237091D01*
X574125Y236473D01*
X574026Y235858D01*
X573912Y235245D01*
X573783Y234635D01*
X573639Y234028D01*
X573480Y233425D01*
X573306Y232827D01*
X573118Y232232D01*
X572915Y231643D01*
X572698Y231059D01*
X572467Y230480D01*
X572221Y229907D01*
X571961Y229340D01*
X571688Y228780D01*
X571401Y228227D01*
X571100Y227680D01*
X570786Y227142D01*
X570459Y226611D01*
X570119Y226089D01*
X569767Y225574D01*
X569401Y225069D01*
X569024Y224573D01*
X568634Y224086D01*
X568233Y223609D01*
X567820Y223142D01*
X567396Y222686D01*
X566961Y222239D01*
X566514Y221804D01*
X566058Y221380D01*
X565591Y220967D01*
X565114Y220566D01*
X564627Y220176D01*
X564131Y219799D01*
X563626Y219433D01*
X563111Y219081D01*
X562589Y218741D01*
X562058Y218414D01*
X561520Y218100D01*
X560973Y217799D01*
X560420Y217512D01*
X559860Y217239D01*
X559293Y216979D01*
X558720Y216733D01*
X558141Y216502D01*
X557557Y216285D01*
X556968Y216082D01*
X556373Y215894D01*
X555775Y215720D01*
X555172Y215561D01*
X554565Y215417D01*
X553955Y215288D01*
X553342Y215174D01*
X552727Y215075D01*
X552109Y214991D01*
X551490Y214922D01*
X550869Y214869D01*
X550246Y214831D01*
X549623Y214808D01*
X549000Y214800D01*
X548377Y214808D01*
X547754Y214831D01*
X547131Y214869D01*
X546510Y214922D01*
X545891Y214991D01*
X545273Y215075D01*
X544658Y215174D01*
X544045Y215288D01*
X543435Y215417D01*
X542828Y215561D01*
X542225Y215720D01*
X541627Y215894D01*
X541032Y216082D01*
X540443Y216285D01*
X539859Y216502D01*
X539280Y216733D01*
X538707Y216979D01*
X538140Y217239D01*
X537580Y217512D01*
X537027Y217799D01*
X536480Y218100D01*
X535942Y218414D01*
X535411Y218741D01*
X534889Y219081D01*
X534374Y219433D01*
X533869Y219799D01*
X533373Y220176D01*
X532886Y220566D01*
X532409Y220967D01*
X531942Y221380D01*
X531486Y221804D01*
X531039Y222239D01*
X530604Y222686D01*
X530180Y223142D01*
X529767Y223609D01*
X529366Y224086D01*
X528976Y224573D01*
X528599Y225069D01*
X528233Y225574D01*
X527881Y226089D01*
X527541Y226611D01*
X527214Y227142D01*
X526900Y227680D01*
X526599Y228227D01*
X526312Y228780D01*
X526039Y229340D01*
X525779Y229907D01*
X525533Y230480D01*
X525302Y231059D01*
X525085Y231643D01*
X524882Y232232D01*
X524694Y232827D01*
X524520Y233425D01*
X524361Y234028D01*
X524217Y234635D01*
X524088Y235245D01*
X523974Y235858D01*
X523875Y236473D01*
X523791Y237091D01*
X523722Y237710D01*
X523669Y238331D01*
X523631Y238954D01*
X523608Y239577D01*
X523600Y240200D01*
X455110Y301250D02*
X455010Y301252D01*
X454911Y301258D01*
X454811Y301268D01*
X454713Y301281D01*
X454614Y301299D01*
X454517Y301320D01*
X454421Y301345D01*
X454325Y301374D01*
X454231Y301407D01*
X454138Y301443D01*
X454047Y301483D01*
X453957Y301527D01*
X453869Y301574D01*
X453783Y301624D01*
X453699Y301678D01*
X453617Y301735D01*
X453538Y301795D01*
X453460Y301859D01*
X453386Y301925D01*
X453314Y301994D01*
X453245Y302066D01*
X453179Y302140D01*
X453115Y302218D01*
X453055Y302297D01*
X452998Y302379D01*
X452944Y302463D01*
X452894Y302549D01*
X452847Y302637D01*
X452803Y302727D01*
X452763Y302818D01*
X452727Y302911D01*
X452694Y303005D01*
X452665Y303101D01*
X452640Y303197D01*
X452619Y303294D01*
X452601Y303393D01*
X452588Y303491D01*
X452578Y303591D01*
X452572Y303690D01*
X452570Y303790D01*
X472890Y301250D02*
X472990Y301252D01*
X473089Y301258D01*
X473189Y301268D01*
X473287Y301281D01*
X473386Y301299D01*
X473483Y301320D01*
X473579Y301345D01*
X473675Y301374D01*
X473769Y301407D01*
X473862Y301443D01*
X473953Y301483D01*
X474043Y301527D01*
X474131Y301574D01*
X474217Y301624D01*
X474301Y301678D01*
X474383Y301735D01*
X474462Y301795D01*
X474540Y301859D01*
X474614Y301925D01*
X474686Y301994D01*
X474755Y302066D01*
X474821Y302140D01*
X474885Y302218D01*
X474945Y302297D01*
X475002Y302379D01*
X475056Y302463D01*
X475106Y302549D01*
X475153Y302637D01*
X475197Y302727D01*
X475237Y302818D01*
X475273Y302911D01*
X475306Y303005D01*
X475335Y303101D01*
X475360Y303197D01*
X475381Y303294D01*
X475399Y303393D01*
X475412Y303491D01*
X475422Y303591D01*
X475428Y303690D01*
X475430Y303790D01*
X475430Y362210D02*
X475428Y362310D01*
X475422Y362409D01*
X475412Y362509D01*
X475399Y362607D01*
X475381Y362706D01*
X475360Y362803D01*
X475335Y362899D01*
X475306Y362995D01*
X475273Y363089D01*
X475237Y363182D01*
X475197Y363273D01*
X475153Y363363D01*
X475106Y363451D01*
X475056Y363537D01*
X475002Y363621D01*
X474945Y363703D01*
X474885Y363782D01*
X474821Y363860D01*
X474755Y363934D01*
X474686Y364006D01*
X474614Y364075D01*
X474540Y364141D01*
X474462Y364205D01*
X474383Y364265D01*
X474301Y364322D01*
X474217Y364376D01*
X474131Y364426D01*
X474043Y364473D01*
X473953Y364517D01*
X473862Y364557D01*
X473769Y364593D01*
X473675Y364626D01*
X473579Y364655D01*
X473483Y364680D01*
X473386Y364701D01*
X473287Y364719D01*
X473189Y364732D01*
X473089Y364742D01*
X472990Y364748D01*
X472890Y364750D01*
X455110Y364750D02*
X455010Y364748D01*
X454911Y364742D01*
X454811Y364732D01*
X454713Y364719D01*
X454614Y364701D01*
X454517Y364680D01*
X454421Y364655D01*
X454325Y364626D01*
X454231Y364593D01*
X454138Y364557D01*
X454047Y364517D01*
X453957Y364473D01*
X453869Y364426D01*
X453783Y364376D01*
X453699Y364322D01*
X453617Y364265D01*
X453538Y364205D01*
X453460Y364141D01*
X453386Y364075D01*
X453314Y364006D01*
X453245Y363934D01*
X453179Y363860D01*
X453115Y363782D01*
X453055Y363703D01*
X452998Y363621D01*
X452944Y363537D01*
X452894Y363451D01*
X452847Y363363D01*
X452803Y363273D01*
X452763Y363182D01*
X452727Y363089D01*
X452694Y362995D01*
X452665Y362899D01*
X452640Y362803D01*
X452619Y362706D01*
X452601Y362607D01*
X452588Y362509D01*
X452578Y362409D01*
X452572Y362310D01*
X452570Y362210D01*
X455110Y301250D02*
X472890Y301250D01*
X452570Y303790D02*
X452570Y307600D01*
X453840Y308870D01*
X475430Y307600D02*
X475430Y303790D01*
X475430Y307600D02*
X474160Y308870D01*
X453840Y357130D02*
X452570Y358400D01*
X453840Y357130D02*
X453840Y308870D01*
X474160Y357130D02*
X475430Y358400D01*
X474160Y357130D02*
X474160Y308870D01*
X452570Y358400D02*
X452570Y362210D01*
X475430Y362210D02*
X475430Y358400D01*
X472890Y364750D02*
X455110Y364750D01*
D16*
X464000Y369068D03*
X464000Y296932D03*
D11*
X449395Y328235D02*
X437965Y328235D01*
X437965Y331410D01*
X437967Y331521D01*
X437973Y331631D01*
X437982Y331742D01*
X437996Y331852D01*
X438013Y331961D01*
X438034Y332070D01*
X438059Y332178D01*
X438088Y332285D01*
X438120Y332391D01*
X438156Y332496D01*
X438196Y332599D01*
X438239Y332701D01*
X438286Y332802D01*
X438337Y332901D01*
X438390Y332998D01*
X438447Y333092D01*
X438508Y333185D01*
X438571Y333276D01*
X438638Y333365D01*
X438708Y333451D01*
X438781Y333534D01*
X438856Y333616D01*
X438934Y333694D01*
X439016Y333769D01*
X439099Y333842D01*
X439185Y333912D01*
X439274Y333979D01*
X439365Y334042D01*
X439458Y334103D01*
X439553Y334160D01*
X439649Y334213D01*
X439748Y334264D01*
X439849Y334311D01*
X439951Y334354D01*
X440054Y334394D01*
X440159Y334430D01*
X440265Y334462D01*
X440372Y334491D01*
X440480Y334516D01*
X440589Y334537D01*
X440698Y334554D01*
X440808Y334568D01*
X440919Y334577D01*
X441029Y334583D01*
X441140Y334585D01*
X441251Y334583D01*
X441361Y334577D01*
X441472Y334568D01*
X441582Y334554D01*
X441691Y334537D01*
X441800Y334516D01*
X441908Y334491D01*
X442015Y334462D01*
X442121Y334430D01*
X442226Y334394D01*
X442329Y334354D01*
X442431Y334311D01*
X442532Y334264D01*
X442631Y334213D01*
X442728Y334160D01*
X442822Y334103D01*
X442915Y334042D01*
X443006Y333979D01*
X443095Y333912D01*
X443181Y333842D01*
X443264Y333769D01*
X443346Y333694D01*
X443424Y333616D01*
X443499Y333534D01*
X443572Y333451D01*
X443642Y333365D01*
X443709Y333276D01*
X443772Y333185D01*
X443833Y333092D01*
X443890Y332998D01*
X443943Y332901D01*
X443994Y332802D01*
X444041Y332701D01*
X444084Y332599D01*
X444124Y332496D01*
X444160Y332391D01*
X444192Y332285D01*
X444221Y332178D01*
X444246Y332070D01*
X444267Y331961D01*
X444284Y331852D01*
X444298Y331742D01*
X444307Y331631D01*
X444313Y331521D01*
X444315Y331410D01*
X444315Y328235D01*
X444315Y332045D02*
X449395Y334585D01*
X440823Y345933D02*
X440719Y345931D01*
X440614Y345925D01*
X440510Y345916D01*
X440407Y345903D01*
X440304Y345885D01*
X440202Y345865D01*
X440100Y345840D01*
X440000Y345812D01*
X439900Y345780D01*
X439802Y345744D01*
X439705Y345705D01*
X439610Y345663D01*
X439516Y345617D01*
X439424Y345567D01*
X439334Y345515D01*
X439246Y345459D01*
X439160Y345399D01*
X439076Y345337D01*
X438995Y345272D01*
X438916Y345204D01*
X438839Y345132D01*
X438766Y345059D01*
X438694Y344982D01*
X438626Y344903D01*
X438561Y344822D01*
X438499Y344738D01*
X438439Y344652D01*
X438383Y344564D01*
X438331Y344474D01*
X438281Y344382D01*
X438235Y344288D01*
X438193Y344193D01*
X438154Y344096D01*
X438118Y343998D01*
X438086Y343898D01*
X438058Y343798D01*
X438033Y343696D01*
X438013Y343594D01*
X437995Y343491D01*
X437982Y343388D01*
X437973Y343284D01*
X437967Y343179D01*
X437965Y343075D01*
X437967Y342957D01*
X437973Y342838D01*
X437982Y342720D01*
X437995Y342603D01*
X438013Y342486D01*
X438033Y342369D01*
X438058Y342253D01*
X438086Y342138D01*
X438119Y342025D01*
X438154Y341912D01*
X438194Y341800D01*
X438236Y341690D01*
X438283Y341581D01*
X438333Y341473D01*
X438386Y341368D01*
X438443Y341264D01*
X438503Y341162D01*
X438566Y341062D01*
X438633Y340964D01*
X438702Y340868D01*
X438775Y340775D01*
X438851Y340684D01*
X438929Y340595D01*
X439011Y340509D01*
X439095Y340426D01*
X439181Y340345D01*
X439271Y340268D01*
X439362Y340193D01*
X439456Y340121D01*
X439553Y340052D01*
X439651Y339987D01*
X439752Y339924D01*
X439855Y339865D01*
X439959Y339809D01*
X440065Y339757D01*
X440173Y339708D01*
X440282Y339663D01*
X440393Y339621D01*
X440505Y339583D01*
X443045Y344980D02*
X442970Y345056D01*
X442891Y345131D01*
X442810Y345202D01*
X442726Y345271D01*
X442640Y345336D01*
X442552Y345398D01*
X442462Y345458D01*
X442370Y345514D01*
X442275Y345567D01*
X442179Y345616D01*
X442081Y345662D01*
X441982Y345705D01*
X441881Y345744D01*
X441779Y345779D01*
X441676Y345811D01*
X441572Y345839D01*
X441467Y345864D01*
X441360Y345885D01*
X441254Y345902D01*
X441147Y345915D01*
X441039Y345924D01*
X440931Y345930D01*
X440823Y345932D01*
X443045Y344980D02*
X449395Y339582D01*
X449395Y345932D01*
D10*
X232550Y416700D02*
X219850Y416700D01*
X232550Y416700D02*
X238900Y410350D01*
X238900Y397650D02*
X232550Y391300D01*
X238900Y410350D02*
X245250Y416700D01*
X257950Y416700D01*
X264300Y410350D01*
X264300Y397650D02*
X257950Y391300D01*
X245250Y391300D01*
X238900Y397650D01*
X213500Y397650D02*
X213500Y410350D01*
X219850Y416700D01*
X213500Y397650D02*
X219850Y391300D01*
X232550Y391300D01*
X264300Y410350D02*
X270650Y416700D01*
X283350Y416700D01*
X289700Y410350D01*
X289700Y397650D02*
X283350Y391300D01*
X270650Y391300D01*
X264300Y397650D01*
X296050Y416700D02*
X308750Y416700D01*
X315100Y410350D01*
X315100Y397650D02*
X308750Y391300D01*
X315100Y410350D02*
X321450Y416700D01*
X334150Y416700D01*
X340500Y410350D01*
X340500Y397650D01*
X334150Y391300D01*
X321450Y391300D01*
X315100Y397650D01*
X296050Y416700D02*
X289700Y410350D01*
X289700Y397650D02*
X296050Y391300D01*
X308750Y391300D01*
D11*
X223660Y386855D02*
X220485Y384315D01*
X223660Y386855D02*
X223660Y375425D01*
X220485Y375425D02*
X226835Y375425D01*
X322085Y421145D02*
X325895Y421145D01*
X325995Y421147D01*
X326094Y421153D01*
X326194Y421163D01*
X326292Y421176D01*
X326391Y421194D01*
X326488Y421215D01*
X326584Y421240D01*
X326680Y421269D01*
X326774Y421302D01*
X326867Y421338D01*
X326958Y421378D01*
X327048Y421422D01*
X327136Y421469D01*
X327222Y421519D01*
X327306Y421573D01*
X327388Y421630D01*
X327467Y421690D01*
X327545Y421754D01*
X327619Y421820D01*
X327691Y421889D01*
X327760Y421961D01*
X327826Y422035D01*
X327890Y422113D01*
X327950Y422192D01*
X328007Y422274D01*
X328061Y422358D01*
X328111Y422444D01*
X328158Y422532D01*
X328202Y422622D01*
X328242Y422713D01*
X328278Y422806D01*
X328311Y422900D01*
X328340Y422996D01*
X328365Y423092D01*
X328386Y423189D01*
X328404Y423288D01*
X328417Y423386D01*
X328427Y423486D01*
X328433Y423585D01*
X328435Y423685D01*
X328435Y424955D01*
X328433Y425055D01*
X328427Y425154D01*
X328417Y425254D01*
X328404Y425352D01*
X328386Y425451D01*
X328365Y425548D01*
X328340Y425644D01*
X328311Y425740D01*
X328278Y425834D01*
X328242Y425927D01*
X328202Y426018D01*
X328158Y426108D01*
X328111Y426196D01*
X328061Y426282D01*
X328007Y426366D01*
X327950Y426448D01*
X327890Y426527D01*
X327826Y426605D01*
X327760Y426679D01*
X327691Y426751D01*
X327619Y426820D01*
X327545Y426886D01*
X327467Y426950D01*
X327388Y427010D01*
X327306Y427067D01*
X327222Y427121D01*
X327136Y427171D01*
X327048Y427218D01*
X326958Y427262D01*
X326867Y427302D01*
X326774Y427338D01*
X326680Y427371D01*
X326584Y427400D01*
X326488Y427425D01*
X326391Y427446D01*
X326292Y427464D01*
X326194Y427477D01*
X326094Y427487D01*
X325995Y427493D01*
X325895Y427495D01*
X322085Y427495D01*
X322085Y432575D01*
X328435Y432575D01*
D13*
X237500Y113000D02*
X70500Y113000D01*
X70500Y93000D02*
X81500Y93000D01*
X70500Y93000D02*
X70500Y113000D01*
X81500Y112000D02*
X81500Y93000D01*
X70500Y133000D02*
X237500Y133000D01*
X237500Y204000D02*
X70500Y204000D01*
X125000Y48000D02*
X125000Y13000D01*
X183000Y13000D02*
X183000Y48000D01*
X120000Y51000D02*
X120000Y112000D01*
X120000Y51000D02*
X125000Y48000D01*
X183000Y48000D02*
X188000Y51000D01*
X188000Y112000D01*
X183000Y48000D02*
X125000Y48000D01*
X125000Y13000D02*
X183000Y13000D01*
X70500Y113000D02*
X70500Y204000D01*
X237500Y204000D02*
X237500Y113000D01*
X187000Y60000D02*
X121000Y54750D01*
X121000Y59750D02*
X187000Y65000D01*
X187000Y70000D02*
X121000Y64750D01*
X121000Y69750D02*
X187000Y75000D01*
X187000Y80000D02*
X121000Y74750D01*
X121000Y79750D02*
X187000Y85000D01*
X187000Y90000D02*
X121000Y84750D01*
X121000Y89750D02*
X187000Y95000D01*
X187000Y100000D02*
X121000Y94750D01*
X121000Y99750D02*
X187000Y105000D01*
X187000Y110000D02*
X121000Y104750D01*
X123250Y49750D02*
X187000Y55000D01*
D15*
X71958Y210904D02*
X71958Y219342D01*
X71958Y210904D02*
X71960Y210791D01*
X71966Y210678D01*
X71976Y210565D01*
X71990Y210452D01*
X72007Y210340D01*
X72029Y210229D01*
X72054Y210119D01*
X72084Y210009D01*
X72117Y209901D01*
X72154Y209794D01*
X72194Y209688D01*
X72239Y209584D01*
X72287Y209481D01*
X72338Y209380D01*
X72393Y209281D01*
X72451Y209184D01*
X72513Y209089D01*
X72578Y208996D01*
X72646Y208906D01*
X72717Y208818D01*
X72792Y208732D01*
X72869Y208649D01*
X72949Y208569D01*
X73032Y208492D01*
X73118Y208417D01*
X73206Y208346D01*
X73296Y208278D01*
X73389Y208213D01*
X73484Y208151D01*
X73581Y208093D01*
X73680Y208038D01*
X73781Y207987D01*
X73884Y207939D01*
X73988Y207894D01*
X74094Y207854D01*
X74201Y207817D01*
X74309Y207784D01*
X74419Y207754D01*
X74529Y207729D01*
X74640Y207707D01*
X74752Y207690D01*
X74865Y207676D01*
X74978Y207666D01*
X75091Y207660D01*
X75204Y207658D01*
X75317Y207660D01*
X75430Y207666D01*
X75543Y207676D01*
X75656Y207690D01*
X75768Y207707D01*
X75879Y207729D01*
X75989Y207754D01*
X76099Y207784D01*
X76207Y207817D01*
X76314Y207854D01*
X76420Y207894D01*
X76524Y207939D01*
X76627Y207987D01*
X76728Y208038D01*
X76827Y208093D01*
X76924Y208151D01*
X77019Y208213D01*
X77112Y208278D01*
X77202Y208346D01*
X77290Y208417D01*
X77376Y208492D01*
X77459Y208569D01*
X77539Y208649D01*
X77616Y208732D01*
X77691Y208818D01*
X77762Y208906D01*
X77830Y208996D01*
X77895Y209089D01*
X77957Y209184D01*
X78015Y209281D01*
X78070Y209380D01*
X78121Y209481D01*
X78169Y209584D01*
X78214Y209688D01*
X78254Y209794D01*
X78291Y209901D01*
X78324Y210009D01*
X78354Y210119D01*
X78379Y210229D01*
X78401Y210340D01*
X78418Y210452D01*
X78432Y210565D01*
X78442Y210678D01*
X78448Y210791D01*
X78450Y210904D01*
X78449Y210904D02*
X78449Y219342D01*
X86253Y219342D02*
X86253Y207658D01*
X86253Y213500D02*
X84630Y214474D01*
X84629Y214473D02*
X84556Y214520D01*
X84485Y214569D01*
X84415Y214622D01*
X84349Y214678D01*
X84285Y214737D01*
X84223Y214798D01*
X84165Y214862D01*
X84109Y214929D01*
X84057Y214998D01*
X84007Y215070D01*
X83961Y215144D01*
X83918Y215219D01*
X83879Y215297D01*
X83843Y215376D01*
X83811Y215457D01*
X83782Y215539D01*
X83757Y215622D01*
X83736Y215706D01*
X83719Y215791D01*
X83705Y215877D01*
X83696Y215963D01*
X83690Y216050D01*
X83688Y216137D01*
X83690Y216224D01*
X83696Y216311D01*
X83706Y216397D01*
X83719Y216483D01*
X83737Y216568D01*
X83758Y216652D01*
X83783Y216735D01*
X83812Y216818D01*
X83844Y216898D01*
X83880Y216977D01*
X83919Y217055D01*
X83962Y217130D01*
X84009Y217204D01*
X84058Y217275D01*
X84111Y217345D01*
X84166Y217411D01*
X84225Y217475D01*
X84286Y217537D01*
X84351Y217596D01*
X84417Y217651D01*
X84486Y217704D01*
X84558Y217754D01*
X84631Y217800D01*
X84707Y217843D01*
X84784Y217882D01*
X84863Y217918D01*
X84944Y217951D01*
X85026Y217979D01*
X85109Y218005D01*
X85193Y218026D01*
X85279Y218043D01*
X85279Y218044D02*
X85419Y218068D01*
X85561Y218088D01*
X85702Y218104D01*
X85844Y218115D01*
X85987Y218123D01*
X86129Y218127D01*
X86272Y218128D01*
X86415Y218124D01*
X86557Y218116D01*
X86699Y218104D01*
X86841Y218088D01*
X86982Y218069D01*
X87123Y218045D01*
X87263Y218018D01*
X87402Y217986D01*
X87540Y217951D01*
X87678Y217912D01*
X87814Y217869D01*
X87948Y217823D01*
X88082Y217772D01*
X88214Y217719D01*
X88344Y217661D01*
X88473Y217600D01*
X88600Y217535D01*
X88726Y217467D01*
X88849Y217395D01*
X86253Y213500D02*
X87875Y212526D01*
X87876Y212527D02*
X87949Y212480D01*
X88020Y212431D01*
X88090Y212378D01*
X88156Y212322D01*
X88220Y212263D01*
X88282Y212202D01*
X88340Y212138D01*
X88396Y212071D01*
X88448Y212002D01*
X88498Y211930D01*
X88544Y211856D01*
X88587Y211781D01*
X88626Y211703D01*
X88662Y211624D01*
X88694Y211543D01*
X88723Y211461D01*
X88748Y211378D01*
X88769Y211294D01*
X88786Y211209D01*
X88800Y211123D01*
X88809Y211037D01*
X88815Y210950D01*
X88817Y210863D01*
X88815Y210776D01*
X88809Y210689D01*
X88799Y210603D01*
X88786Y210517D01*
X88768Y210432D01*
X88747Y210348D01*
X88722Y210265D01*
X88693Y210182D01*
X88661Y210102D01*
X88625Y210023D01*
X88586Y209945D01*
X88543Y209870D01*
X88496Y209796D01*
X88447Y209725D01*
X88394Y209655D01*
X88339Y209589D01*
X88280Y209525D01*
X88219Y209463D01*
X88154Y209404D01*
X88088Y209349D01*
X88019Y209296D01*
X87947Y209246D01*
X87874Y209200D01*
X87798Y209157D01*
X87721Y209118D01*
X87642Y209082D01*
X87561Y209049D01*
X87479Y209021D01*
X87396Y208995D01*
X87312Y208974D01*
X87227Y208957D01*
X87226Y208956D02*
X87086Y208932D01*
X86944Y208912D01*
X86803Y208896D01*
X86661Y208885D01*
X86518Y208877D01*
X86376Y208873D01*
X86233Y208872D01*
X86090Y208876D01*
X85948Y208884D01*
X85806Y208896D01*
X85664Y208912D01*
X85523Y208931D01*
X85382Y208955D01*
X85242Y208982D01*
X85103Y209014D01*
X84965Y209049D01*
X84827Y209088D01*
X84691Y209131D01*
X84557Y209177D01*
X84423Y209228D01*
X84291Y209281D01*
X84161Y209339D01*
X84032Y209400D01*
X83905Y209465D01*
X83779Y209533D01*
X83656Y209605D01*
X97245Y219342D02*
X97352Y219340D01*
X97458Y219334D01*
X97564Y219324D01*
X97670Y219311D01*
X97776Y219293D01*
X97880Y219272D01*
X97984Y219247D01*
X98087Y219218D01*
X98188Y219186D01*
X98288Y219149D01*
X98387Y219109D01*
X98485Y219066D01*
X98581Y219019D01*
X98675Y218968D01*
X98767Y218914D01*
X98857Y218857D01*
X98945Y218797D01*
X99030Y218733D01*
X99113Y218666D01*
X99194Y218596D01*
X99272Y218524D01*
X99348Y218448D01*
X99420Y218370D01*
X99490Y218289D01*
X99557Y218206D01*
X99621Y218121D01*
X99681Y218033D01*
X99738Y217943D01*
X99792Y217851D01*
X99843Y217757D01*
X99890Y217661D01*
X99933Y217563D01*
X99973Y217464D01*
X100010Y217364D01*
X100042Y217263D01*
X100071Y217160D01*
X100096Y217056D01*
X100117Y216952D01*
X100135Y216846D01*
X100148Y216740D01*
X100158Y216634D01*
X100164Y216528D01*
X100166Y216421D01*
X97245Y219342D02*
X97124Y219340D01*
X97003Y219334D01*
X96883Y219324D01*
X96762Y219311D01*
X96643Y219293D01*
X96523Y219272D01*
X96405Y219247D01*
X96288Y219218D01*
X96171Y219185D01*
X96056Y219149D01*
X95942Y219108D01*
X95829Y219065D01*
X95717Y219017D01*
X95608Y218966D01*
X95500Y218911D01*
X95393Y218853D01*
X95289Y218792D01*
X95187Y218727D01*
X95087Y218659D01*
X94989Y218588D01*
X94893Y218514D01*
X94800Y218437D01*
X94710Y218356D01*
X94622Y218273D01*
X94537Y218187D01*
X94454Y218098D01*
X94375Y218007D01*
X94298Y217913D01*
X94225Y217817D01*
X94155Y217719D01*
X94088Y217618D01*
X94024Y217515D01*
X93964Y217410D01*
X93907Y217303D01*
X93853Y217195D01*
X93803Y217085D01*
X93757Y216973D01*
X93714Y216860D01*
X93675Y216745D01*
X99193Y214149D02*
X99272Y214226D01*
X99348Y214307D01*
X99421Y214390D01*
X99491Y214475D01*
X99558Y214563D01*
X99622Y214653D01*
X99682Y214745D01*
X99739Y214840D01*
X99793Y214936D01*
X99844Y215034D01*
X99891Y215134D01*
X99935Y215236D01*
X99975Y215339D01*
X100011Y215443D01*
X100043Y215549D01*
X100072Y215655D01*
X100097Y215763D01*
X100119Y215871D01*
X100136Y215981D01*
X100150Y216090D01*
X100159Y216200D01*
X100165Y216311D01*
X100167Y216421D01*
X99192Y214149D02*
X93675Y207658D01*
X100166Y207658D01*
D10*
X589210Y108570D02*
X589310Y108572D01*
X589409Y108578D01*
X589509Y108588D01*
X589607Y108601D01*
X589706Y108619D01*
X589803Y108640D01*
X589899Y108665D01*
X589995Y108694D01*
X590089Y108727D01*
X590182Y108763D01*
X590273Y108803D01*
X590363Y108847D01*
X590451Y108894D01*
X590537Y108944D01*
X590621Y108998D01*
X590703Y109055D01*
X590782Y109115D01*
X590860Y109179D01*
X590934Y109245D01*
X591006Y109314D01*
X591075Y109386D01*
X591141Y109460D01*
X591205Y109538D01*
X591265Y109617D01*
X591322Y109699D01*
X591376Y109783D01*
X591426Y109869D01*
X591473Y109957D01*
X591517Y110047D01*
X591557Y110138D01*
X591593Y110231D01*
X591626Y110325D01*
X591655Y110421D01*
X591680Y110517D01*
X591701Y110614D01*
X591719Y110713D01*
X591732Y110811D01*
X591742Y110911D01*
X591748Y111010D01*
X591750Y111110D01*
X591750Y128890D02*
X591748Y128990D01*
X591742Y129089D01*
X591732Y129189D01*
X591719Y129287D01*
X591701Y129386D01*
X591680Y129483D01*
X591655Y129579D01*
X591626Y129675D01*
X591593Y129769D01*
X591557Y129862D01*
X591517Y129953D01*
X591473Y130043D01*
X591426Y130131D01*
X591376Y130217D01*
X591322Y130301D01*
X591265Y130383D01*
X591205Y130462D01*
X591141Y130540D01*
X591075Y130614D01*
X591006Y130686D01*
X590934Y130755D01*
X590860Y130821D01*
X590782Y130885D01*
X590703Y130945D01*
X590621Y131002D01*
X590537Y131056D01*
X590451Y131106D01*
X590363Y131153D01*
X590273Y131197D01*
X590182Y131237D01*
X590089Y131273D01*
X589995Y131306D01*
X589899Y131335D01*
X589803Y131360D01*
X589706Y131381D01*
X589607Y131399D01*
X589509Y131412D01*
X589409Y131422D01*
X589310Y131428D01*
X589210Y131430D01*
X530790Y131430D02*
X530690Y131428D01*
X530591Y131422D01*
X530491Y131412D01*
X530393Y131399D01*
X530294Y131381D01*
X530197Y131360D01*
X530101Y131335D01*
X530005Y131306D01*
X529911Y131273D01*
X529818Y131237D01*
X529727Y131197D01*
X529637Y131153D01*
X529549Y131106D01*
X529463Y131056D01*
X529379Y131002D01*
X529297Y130945D01*
X529218Y130885D01*
X529140Y130821D01*
X529066Y130755D01*
X528994Y130686D01*
X528925Y130614D01*
X528859Y130540D01*
X528795Y130462D01*
X528735Y130383D01*
X528678Y130301D01*
X528624Y130217D01*
X528574Y130131D01*
X528527Y130043D01*
X528483Y129953D01*
X528443Y129862D01*
X528407Y129769D01*
X528374Y129675D01*
X528345Y129579D01*
X528320Y129483D01*
X528299Y129386D01*
X528281Y129287D01*
X528268Y129189D01*
X528258Y129089D01*
X528252Y128990D01*
X528250Y128890D01*
X528250Y111110D02*
X528252Y111010D01*
X528258Y110911D01*
X528268Y110811D01*
X528281Y110713D01*
X528299Y110614D01*
X528320Y110517D01*
X528345Y110421D01*
X528374Y110325D01*
X528407Y110231D01*
X528443Y110138D01*
X528483Y110047D01*
X528527Y109957D01*
X528574Y109869D01*
X528624Y109783D01*
X528678Y109699D01*
X528735Y109617D01*
X528795Y109538D01*
X528859Y109460D01*
X528925Y109386D01*
X528994Y109314D01*
X529066Y109245D01*
X529140Y109179D01*
X529218Y109115D01*
X529297Y109055D01*
X529379Y108998D01*
X529463Y108944D01*
X529549Y108894D01*
X529637Y108847D01*
X529727Y108803D01*
X529818Y108763D01*
X529911Y108727D01*
X530005Y108694D01*
X530101Y108665D01*
X530197Y108640D01*
X530294Y108619D01*
X530393Y108601D01*
X530491Y108588D01*
X530591Y108578D01*
X530690Y108572D01*
X530790Y108570D01*
X591750Y111110D02*
X591750Y128890D01*
X589210Y108570D02*
X585400Y108570D01*
X584130Y109840D01*
X585400Y131430D02*
X589210Y131430D01*
X585400Y131430D02*
X584130Y130160D01*
X535870Y109840D02*
X534600Y108570D01*
X535870Y109840D02*
X584130Y109840D01*
X535870Y130160D02*
X534600Y131430D01*
X535870Y130160D02*
X584130Y130160D01*
X534600Y108570D02*
X530790Y108570D01*
X530790Y131430D02*
X534600Y131430D01*
X528250Y128890D02*
X528250Y111110D01*
D17*
X523932Y120000D03*
X596068Y120000D03*
D11*
X572148Y104125D02*
X572148Y92695D01*
X572148Y104125D02*
X575323Y104125D01*
X575434Y104123D01*
X575544Y104117D01*
X575655Y104108D01*
X575765Y104094D01*
X575874Y104077D01*
X575983Y104056D01*
X576091Y104031D01*
X576198Y104002D01*
X576304Y103970D01*
X576409Y103934D01*
X576512Y103894D01*
X576614Y103851D01*
X576715Y103804D01*
X576814Y103753D01*
X576911Y103700D01*
X577005Y103643D01*
X577098Y103582D01*
X577189Y103519D01*
X577278Y103452D01*
X577364Y103382D01*
X577447Y103309D01*
X577529Y103234D01*
X577607Y103156D01*
X577682Y103074D01*
X577755Y102991D01*
X577825Y102905D01*
X577892Y102816D01*
X577955Y102725D01*
X578016Y102632D01*
X578073Y102537D01*
X578126Y102441D01*
X578177Y102342D01*
X578224Y102241D01*
X578267Y102139D01*
X578307Y102036D01*
X578343Y101931D01*
X578375Y101825D01*
X578404Y101718D01*
X578429Y101610D01*
X578450Y101501D01*
X578467Y101392D01*
X578481Y101282D01*
X578490Y101171D01*
X578496Y101061D01*
X578498Y100950D01*
X578496Y100839D01*
X578490Y100729D01*
X578481Y100618D01*
X578467Y100508D01*
X578450Y100399D01*
X578429Y100290D01*
X578404Y100182D01*
X578375Y100075D01*
X578343Y99969D01*
X578307Y99864D01*
X578267Y99761D01*
X578224Y99659D01*
X578177Y99558D01*
X578126Y99459D01*
X578073Y99362D01*
X578016Y99268D01*
X577955Y99175D01*
X577892Y99084D01*
X577825Y98995D01*
X577755Y98909D01*
X577682Y98826D01*
X577607Y98744D01*
X577529Y98666D01*
X577447Y98591D01*
X577364Y98518D01*
X577278Y98448D01*
X577189Y98381D01*
X577098Y98318D01*
X577005Y98257D01*
X576911Y98200D01*
X576814Y98147D01*
X576715Y98096D01*
X576614Y98049D01*
X576512Y98006D01*
X576409Y97966D01*
X576304Y97930D01*
X576198Y97898D01*
X576091Y97869D01*
X575983Y97844D01*
X575874Y97823D01*
X575765Y97806D01*
X575655Y97792D01*
X575544Y97783D01*
X575434Y97777D01*
X575323Y97775D01*
X572148Y97775D01*
X575958Y97775D02*
X578498Y92695D01*
X583495Y101585D02*
X586670Y104125D01*
X586670Y92695D01*
X583495Y92695D02*
X589845Y92695D01*
D10*
X573430Y362210D02*
X573428Y362310D01*
X573422Y362409D01*
X573412Y362509D01*
X573399Y362607D01*
X573381Y362706D01*
X573360Y362803D01*
X573335Y362899D01*
X573306Y362995D01*
X573273Y363089D01*
X573237Y363182D01*
X573197Y363273D01*
X573153Y363363D01*
X573106Y363451D01*
X573056Y363537D01*
X573002Y363621D01*
X572945Y363703D01*
X572885Y363782D01*
X572821Y363860D01*
X572755Y363934D01*
X572686Y364006D01*
X572614Y364075D01*
X572540Y364141D01*
X572462Y364205D01*
X572383Y364265D01*
X572301Y364322D01*
X572217Y364376D01*
X572131Y364426D01*
X572043Y364473D01*
X571953Y364517D01*
X571862Y364557D01*
X571769Y364593D01*
X571675Y364626D01*
X571579Y364655D01*
X571483Y364680D01*
X571386Y364701D01*
X571287Y364719D01*
X571189Y364732D01*
X571089Y364742D01*
X570990Y364748D01*
X570890Y364750D01*
X553110Y364750D02*
X553010Y364748D01*
X552911Y364742D01*
X552811Y364732D01*
X552713Y364719D01*
X552614Y364701D01*
X552517Y364680D01*
X552421Y364655D01*
X552325Y364626D01*
X552231Y364593D01*
X552138Y364557D01*
X552047Y364517D01*
X551957Y364473D01*
X551869Y364426D01*
X551783Y364376D01*
X551699Y364322D01*
X551617Y364265D01*
X551538Y364205D01*
X551460Y364141D01*
X551386Y364075D01*
X551314Y364006D01*
X551245Y363934D01*
X551179Y363860D01*
X551115Y363782D01*
X551055Y363703D01*
X550998Y363621D01*
X550944Y363537D01*
X550894Y363451D01*
X550847Y363363D01*
X550803Y363273D01*
X550763Y363182D01*
X550727Y363089D01*
X550694Y362995D01*
X550665Y362899D01*
X550640Y362803D01*
X550619Y362706D01*
X550601Y362607D01*
X550588Y362509D01*
X550578Y362409D01*
X550572Y362310D01*
X550570Y362210D01*
X550570Y303790D02*
X550572Y303690D01*
X550578Y303591D01*
X550588Y303491D01*
X550601Y303393D01*
X550619Y303294D01*
X550640Y303197D01*
X550665Y303101D01*
X550694Y303005D01*
X550727Y302911D01*
X550763Y302818D01*
X550803Y302727D01*
X550847Y302637D01*
X550894Y302549D01*
X550944Y302463D01*
X550998Y302379D01*
X551055Y302297D01*
X551115Y302218D01*
X551179Y302140D01*
X551245Y302066D01*
X551314Y301994D01*
X551386Y301925D01*
X551460Y301859D01*
X551538Y301795D01*
X551617Y301735D01*
X551699Y301678D01*
X551783Y301624D01*
X551869Y301574D01*
X551957Y301527D01*
X552047Y301483D01*
X552138Y301443D01*
X552231Y301407D01*
X552325Y301374D01*
X552421Y301345D01*
X552517Y301320D01*
X552614Y301299D01*
X552713Y301281D01*
X552811Y301268D01*
X552911Y301258D01*
X553010Y301252D01*
X553110Y301250D01*
X570890Y301250D02*
X570990Y301252D01*
X571089Y301258D01*
X571189Y301268D01*
X571287Y301281D01*
X571386Y301299D01*
X571483Y301320D01*
X571579Y301345D01*
X571675Y301374D01*
X571769Y301407D01*
X571862Y301443D01*
X571953Y301483D01*
X572043Y301527D01*
X572131Y301574D01*
X572217Y301624D01*
X572301Y301678D01*
X572383Y301735D01*
X572462Y301795D01*
X572540Y301859D01*
X572614Y301925D01*
X572686Y301994D01*
X572755Y302066D01*
X572821Y302140D01*
X572885Y302218D01*
X572945Y302297D01*
X573002Y302379D01*
X573056Y302463D01*
X573106Y302549D01*
X573153Y302637D01*
X573197Y302727D01*
X573237Y302818D01*
X573273Y302911D01*
X573306Y303005D01*
X573335Y303101D01*
X573360Y303197D01*
X573381Y303294D01*
X573399Y303393D01*
X573412Y303491D01*
X573422Y303591D01*
X573428Y303690D01*
X573430Y303790D01*
X570890Y364750D02*
X553110Y364750D01*
X573430Y362210D02*
X573430Y358400D01*
X572160Y357130D01*
X550570Y358400D02*
X550570Y362210D01*
X550570Y358400D02*
X551840Y357130D01*
X572160Y308870D02*
X573430Y307600D01*
X572160Y308870D02*
X572160Y357130D01*
X551840Y308870D02*
X550570Y307600D01*
X551840Y308870D02*
X551840Y357130D01*
X573430Y307600D02*
X573430Y303790D01*
X550570Y303790D02*
X550570Y307600D01*
X553110Y301250D02*
X570890Y301250D01*
D16*
X562000Y296932D03*
X562000Y369068D03*
D11*
X577875Y345148D02*
X589305Y345148D01*
X577875Y345148D02*
X577875Y348323D01*
X577877Y348434D01*
X577883Y348544D01*
X577892Y348655D01*
X577906Y348765D01*
X577923Y348874D01*
X577944Y348983D01*
X577969Y349091D01*
X577998Y349198D01*
X578030Y349304D01*
X578066Y349409D01*
X578106Y349512D01*
X578149Y349614D01*
X578196Y349715D01*
X578247Y349814D01*
X578300Y349911D01*
X578357Y350005D01*
X578418Y350098D01*
X578481Y350189D01*
X578548Y350278D01*
X578618Y350364D01*
X578691Y350447D01*
X578766Y350529D01*
X578844Y350607D01*
X578926Y350682D01*
X579009Y350755D01*
X579095Y350825D01*
X579184Y350892D01*
X579275Y350955D01*
X579368Y351016D01*
X579463Y351073D01*
X579559Y351126D01*
X579658Y351177D01*
X579759Y351224D01*
X579861Y351267D01*
X579964Y351307D01*
X580069Y351343D01*
X580175Y351375D01*
X580282Y351404D01*
X580390Y351429D01*
X580499Y351450D01*
X580608Y351467D01*
X580718Y351481D01*
X580829Y351490D01*
X580939Y351496D01*
X581050Y351498D01*
X581161Y351496D01*
X581271Y351490D01*
X581382Y351481D01*
X581492Y351467D01*
X581601Y351450D01*
X581710Y351429D01*
X581818Y351404D01*
X581925Y351375D01*
X582031Y351343D01*
X582136Y351307D01*
X582239Y351267D01*
X582341Y351224D01*
X582442Y351177D01*
X582541Y351126D01*
X582638Y351073D01*
X582732Y351016D01*
X582825Y350955D01*
X582916Y350892D01*
X583005Y350825D01*
X583091Y350755D01*
X583174Y350682D01*
X583256Y350607D01*
X583334Y350529D01*
X583409Y350447D01*
X583482Y350364D01*
X583552Y350278D01*
X583619Y350189D01*
X583682Y350098D01*
X583743Y350005D01*
X583800Y349911D01*
X583853Y349814D01*
X583904Y349715D01*
X583951Y349614D01*
X583994Y349512D01*
X584034Y349409D01*
X584070Y349304D01*
X584102Y349198D01*
X584131Y349091D01*
X584156Y348983D01*
X584177Y348874D01*
X584194Y348765D01*
X584208Y348655D01*
X584217Y348544D01*
X584223Y348434D01*
X584225Y348323D01*
X584225Y345148D01*
X584225Y348958D02*
X589305Y351498D01*
X589305Y356495D02*
X589305Y359670D01*
X589303Y359781D01*
X589297Y359891D01*
X589288Y360002D01*
X589274Y360112D01*
X589257Y360221D01*
X589236Y360330D01*
X589211Y360438D01*
X589182Y360545D01*
X589150Y360651D01*
X589114Y360756D01*
X589074Y360859D01*
X589031Y360961D01*
X588984Y361062D01*
X588933Y361161D01*
X588880Y361258D01*
X588823Y361352D01*
X588762Y361445D01*
X588699Y361536D01*
X588632Y361625D01*
X588562Y361711D01*
X588489Y361794D01*
X588414Y361876D01*
X588336Y361954D01*
X588254Y362029D01*
X588171Y362102D01*
X588085Y362172D01*
X587996Y362239D01*
X587905Y362302D01*
X587812Y362363D01*
X587718Y362420D01*
X587621Y362473D01*
X587522Y362524D01*
X587421Y362571D01*
X587319Y362614D01*
X587216Y362654D01*
X587111Y362690D01*
X587005Y362722D01*
X586898Y362751D01*
X586790Y362776D01*
X586681Y362797D01*
X586572Y362814D01*
X586462Y362828D01*
X586351Y362837D01*
X586241Y362843D01*
X586130Y362845D01*
X586019Y362843D01*
X585909Y362837D01*
X585798Y362828D01*
X585688Y362814D01*
X585579Y362797D01*
X585470Y362776D01*
X585362Y362751D01*
X585255Y362722D01*
X585149Y362690D01*
X585044Y362654D01*
X584941Y362614D01*
X584839Y362571D01*
X584738Y362524D01*
X584639Y362473D01*
X584543Y362420D01*
X584448Y362363D01*
X584355Y362302D01*
X584264Y362239D01*
X584175Y362172D01*
X584089Y362102D01*
X584006Y362029D01*
X583924Y361954D01*
X583846Y361876D01*
X583771Y361794D01*
X583698Y361711D01*
X583628Y361625D01*
X583561Y361536D01*
X583498Y361445D01*
X583437Y361352D01*
X583380Y361258D01*
X583327Y361161D01*
X583276Y361062D01*
X583229Y360961D01*
X583186Y360859D01*
X583146Y360756D01*
X583110Y360651D01*
X583078Y360545D01*
X583049Y360438D01*
X583024Y360330D01*
X583003Y360221D01*
X582986Y360112D01*
X582972Y360002D01*
X582963Y359891D01*
X582957Y359781D01*
X582955Y359670D01*
X577875Y360305D02*
X577875Y356495D01*
X577875Y360305D02*
X577877Y360405D01*
X577883Y360504D01*
X577893Y360604D01*
X577906Y360702D01*
X577924Y360801D01*
X577945Y360898D01*
X577970Y360994D01*
X577999Y361090D01*
X578032Y361184D01*
X578068Y361277D01*
X578108Y361368D01*
X578152Y361458D01*
X578199Y361546D01*
X578249Y361632D01*
X578303Y361716D01*
X578360Y361798D01*
X578420Y361877D01*
X578484Y361955D01*
X578550Y362029D01*
X578619Y362101D01*
X578691Y362170D01*
X578765Y362236D01*
X578843Y362300D01*
X578922Y362360D01*
X579004Y362417D01*
X579088Y362471D01*
X579174Y362521D01*
X579262Y362568D01*
X579352Y362612D01*
X579443Y362652D01*
X579536Y362688D01*
X579630Y362721D01*
X579726Y362750D01*
X579822Y362775D01*
X579919Y362796D01*
X580018Y362814D01*
X580116Y362827D01*
X580216Y362837D01*
X580315Y362843D01*
X580415Y362845D01*
X580515Y362843D01*
X580614Y362837D01*
X580714Y362827D01*
X580812Y362814D01*
X580911Y362796D01*
X581008Y362775D01*
X581104Y362750D01*
X581200Y362721D01*
X581294Y362688D01*
X581387Y362652D01*
X581478Y362612D01*
X581568Y362568D01*
X581656Y362521D01*
X581742Y362471D01*
X581826Y362417D01*
X581908Y362360D01*
X581987Y362300D01*
X582065Y362236D01*
X582139Y362170D01*
X582211Y362101D01*
X582280Y362029D01*
X582346Y361955D01*
X582410Y361877D01*
X582470Y361798D01*
X582527Y361716D01*
X582581Y361632D01*
X582631Y361546D01*
X582678Y361458D01*
X582722Y361368D01*
X582762Y361277D01*
X582798Y361184D01*
X582831Y361090D01*
X582860Y360994D01*
X582885Y360898D01*
X582906Y360801D01*
X582924Y360702D01*
X582937Y360604D01*
X582947Y360504D01*
X582953Y360405D01*
X582955Y360305D01*
X582955Y357765D01*
D10*
X257650Y365000D02*
X244950Y365000D01*
X238600Y371350D01*
X238600Y384050D02*
X244950Y390400D01*
X238600Y371350D02*
X232250Y365000D01*
X219550Y365000D01*
X213200Y371350D01*
X213200Y384050D02*
X219550Y390400D01*
X232250Y390400D01*
X238600Y384050D01*
X264000Y384050D02*
X264000Y371350D01*
X257650Y365000D01*
X264000Y384050D02*
X257650Y390400D01*
X244950Y390400D01*
D11*
X213200Y384050D02*
X213200Y371350D01*
X269715Y380875D02*
X272890Y383415D01*
X272890Y371985D01*
X269715Y371985D02*
X276065Y371985D01*
D10*
X366050Y172300D02*
X378750Y172300D01*
X366050Y172300D02*
X359700Y178650D01*
X359700Y191350D02*
X366050Y197700D01*
X359700Y178650D02*
X353350Y172300D01*
X340650Y172300D01*
X334300Y178650D01*
X334300Y191350D02*
X340650Y197700D01*
X353350Y197700D01*
X359700Y191350D01*
X385100Y191350D02*
X385100Y178650D01*
X378750Y172300D01*
X385100Y191350D02*
X378750Y197700D01*
X366050Y197700D01*
X334300Y178650D02*
X327950Y172300D01*
X315250Y172300D01*
X308900Y178650D01*
X308900Y191350D02*
X315250Y197700D01*
X327950Y197700D01*
X334300Y191350D01*
X308900Y191350D02*
X308900Y178650D01*
D11*
X390815Y188175D02*
X393990Y190715D01*
X393990Y179285D01*
X390815Y179285D02*
X397165Y179285D01*
M02*
