G04 EAGLE Gerber RS-274X export*
G75*
%MOMM*%
%FSLAX34Y34*%
%LPD*%
%INSoldermask Top*%
%IPPOS*%
%AMOC8*
5,1,8,0,0,1.08239X$1,22.5*%
G01*
%ADD10C,3.927000*%
%ADD11P,1.457113X8X22.500000*%
%ADD12P,1.457113X8X202.500000*%
%ADD13R,1.177000X1.177000*%
%ADD14C,1.177000*%
%ADD15P,1.457113X8X112.500000*%
%ADD16C,1.651000*%
%ADD17C,2.311400*%
%ADD18P,1.457113X8X292.500000*%


D10*
X50000Y50000D03*
X50000Y450000D03*
X700000Y450000D03*
X700000Y50000D03*
D11*
X438200Y240000D03*
X463600Y240000D03*
D12*
X474000Y119800D03*
X448600Y119800D03*
D13*
X327100Y102600D03*
D14*
X347100Y102600D03*
X367100Y102600D03*
X367100Y153600D03*
X347100Y153600D03*
X327100Y153600D03*
D13*
X326900Y214500D03*
D14*
X346900Y214500D03*
X366900Y214500D03*
X366900Y265500D03*
X346900Y265500D03*
X326900Y265500D03*
D11*
X536300Y240200D03*
X561700Y240200D03*
D15*
X464000Y282200D03*
X464000Y383800D03*
D16*
X226200Y396380D02*
X226200Y411620D01*
X251600Y411620D02*
X251600Y396380D01*
X277000Y396380D02*
X277000Y411620D01*
X302400Y411620D02*
X302400Y396380D01*
X327800Y396380D02*
X327800Y411620D01*
D17*
X104000Y150000D03*
X154000Y150000D03*
X204000Y150000D03*
D12*
X610800Y120000D03*
X509200Y120000D03*
D18*
X562000Y383800D03*
X562000Y282200D03*
D16*
X251300Y370080D02*
X251300Y385320D01*
X225900Y385320D02*
X225900Y370080D01*
X372400Y192620D02*
X372400Y177380D01*
X347000Y177380D02*
X347000Y192620D01*
X321600Y192620D02*
X321600Y177380D01*
M02*
