<?xml version="1.0" encoding="UTF-8" standalone="no"?>
<svg
   xmlns:dc="http://purl.org/dc/elements/1.1/"
   xmlns:cc="http://creativecommons.org/ns#"
   xmlns:rdf="http://www.w3.org/1999/02/22-rdf-syntax-ns#"
   xmlns:svg="http://www.w3.org/2000/svg"
   xmlns="http://www.w3.org/2000/svg"
   version="1.1"
   id="Layer_1"
   x="0px"
   y="0px"
   viewBox="0 0 264.47266 99.933594"
   xml:space="preserve"
   width="264.47266"
   height="99.933594"><metadata
   id="metadata38"><rdf:RDF><cc:Work
       rdf:about=""><dc:format>image/svg+xml</dc:format><dc:type
         rdf:resource="http://purl.org/dc/dcmitype/StillImage" /><dc:title></dc:title></cc:Work></rdf:RDF></metadata><defs
   id="defs36" />
<style
   type="text/css"
   id="style29">
	.st0{fill:#000000;}
</style>
<path
   style="stroke-width:0.676141"
   d="M 53.78125,93.259762 V 77.837884 l -1.3125,0.429687 -8.435547,1.59375 -8.570312,0.464844 -2.685547,-0.75 v 18.777347 l 1.404297,-0.19336 8.46289,-1.73828 8.341797,-2.24414 z"
   id="path31" /><path
   style="stroke-width:0.676141"
   d="M 155.65625,89.205072 V 71.919915 l -3.52735,-2.53125 -7.19726,-5.222656 -1.11524,-1.052735 h -11.26562 v 10.351563 l 1.92383,1.306641 7.02929,4.828125 7.03516,4.820309 7.07617,4.76368 z"
   id="path48" /><path
   style="stroke-width:0.676141"
   d="m 174.66406,94.363272 v -11.64648 l -0.18555,0.22461 -7.77539,-3.359378 -7.34961,-5.007812 -3.69726,-2.654297 v 17.285157 l 7.32226,3.72461 8.11914,1.45898 z"
   id="path68" /><path
   style="stroke-width:0.676141"
   d="m 194.07226,47.77929 -1.44531,3.00586 -4.18555,8.603515 -4.25976,8.566406 -4.36133,8.517579 -5.15625,6.244142 v 11.64648 l 2.01172,-0.0156 5.57812,0.10937 5.67969,-3.24609 3.73828,-7.02149 3.69922,-7.041011 4.23047,-8.636719 4.22461,-8.638672 4.21875,-8.640625 1.68359,-3.453125 z"
   id="path73" /><path
   style="stroke-width:0.676141"
   d="m 132.55078,63.113274 h 11.26562 l -1.32031,-1.246093 0.60938,-5.814453 7.35546,-4.771485 5.30469,-3.501953 h -23.21484 z"
   id="path63" /><path
   style="stroke-width:0.676141"
   d="M 132.55078,73.464837 V 47.77929 h -0.64063 l -3.59961,0.81836 -9.00586,0.558593 -1.22656,-1.376953 H 97.826173 l -1.7793,2.931641 -0.7793,0.378906 v 36.796875 l 1.20508,-1.25781 4.712887,-6.275393 4.17969,-6.648438 3.86524,-6.833984 7.91015,-2.705078 5.24024,2.730469 5.03906,3.083984 z"
   id="path58" /><path
   style="stroke-width:0.676141"
   d="M 95.267573,87.886712 V 51.089837 l -6.05078,2.933594 -8.74414,0.384765 -8.740231,0.503907 -8.736328,0.566406 -8.736329,0.574219 v 1.082031 l 7.109376,3.117187 7.023437,3.304688 L 73.125,67.546868 68.392578,71.9414 60.625,75.593743 53.78125,77.837884 v 15.421878 l 5.416015,-1.77735 9.097657,-3.33593 9.089841,-3.35743 -0.52734,5.30469 -0.48633,5.31055 3.78516,3.24414 5.72265,-2.70703 5.16407,-3.64844 z"
   id="path53" /><path
   style="stroke-width:0.676141"
   d="M 32.777344,98.353512 V 79.576165 L 26.189453,77.738274 22.144531,69.03515 21.617187,61.193353 22.550781,53.394524 24.529297,47.77929 H 5.878906 l -0.935547,2.369141 -2.611328,8.74414 -1.578125,7.4375 L 0,73.894524 l 0.328125,7.591797 1.599609,7.427731 2.875,6.20508 5.414063,4.0293 6.789062,0.78516 8.619141,-0.58985 z"
   id="path43" /><path
   style="stroke-width:0.676141"
   d="m 159.29101,30.974603 -0.22851,0.398437 -6.30078,6.455078 -7.39063,5.164063 -8.26367,3.605469 -5.19727,1.18164 h 23.85547 l 2.01172,-1.328125 6.55859,-5.3125 5.42579,-6.455078 1.81445,-3.708984 z"
   id="path38" /><path
   style="stroke-width:0.676141"
   d="m 119.42187,19.527337 h -11.89648 l 0.0156,0.01367 -0.54101,6.355469 -2.5625,8.724609 -3.67383,8.318359 -2.937497,4.839844 H 118.0781 l -4.31836,-4.84375 2.07031,-8.927734 2.36524,-8.855469 1.22656,-4.150391 z"
   id="path93" /><path
   style="stroke-width:0.676141"
   d="m 42.439453,3.880853 -4.884766,1.998047 -8.041015,5.568359 -6.828125,7.011719 -5.486328,7.292968 -4.810547,7.753907 -4.09375,8.154297 -2.416016,6.11914 h 18.650391 l 0.628906,-1.787109 4.287109,-6.572266 5.146485,-5.785156 5.478515,-5.472656 2.369141,-2.173829 z"
   id="path109" /><path
   style="stroke-width:0.676141"
   d="m 42.439453,3.880853 v 22.107421 l 3.335938,-3.060546 5.847656,-5.078125 7.498047,-4.466797 8.615234,-1.322266 8.566405,1.732422 9.22461,2.484375 4.27734,0.453125 V 6.40429 L 84.822263,4.673821 75.693359,2.232415 66.033203,0.626946 56.246094,0.490228 46.607422,2.175774 Z"
   id="path119" /><path
   style="stroke-width:0.676141"
   d="m 89.804683,6.40429 v 10.326172 l 5.21875,0.550781 9.542967,-0.445312 2.95899,2.691406 h 11.89648 V 3.374993 l -2.90234,0.792969 -7.83008,3.134766 -7.41797,1.884765 -7.523437,-1.412109 z"
   id="path114" /><path
   style="stroke-width:0.676141"
   d="m 119.42187,3.374993 v 17.626953 l 1.3711,-4.638672 4.66601,-3.652343 8.01367,-1.947266 8.16602,-1.15625 3.30469,-0.04492 V 0.02148 L 141.39453,0 l -8.41406,0.589844 -8.32422,1.357422 z"
   id="path101" /><path
   style="stroke-width:0.676141"
   d="m 144.94336,0.021478 v 9.541015 l 4.93945,-0.06836 8.16602,1.121094 5.00195,4.935546 -3.51563,7.91211 -5.93945,2.193359 -5.96094,2.132813 0.0684,0.40625 7.03321,-0.775391 7.02929,-0.779297 -2.47461,4.333985 h 12.28516 l 1.88867,-3.861329 1.96094,-1.892578 4.07031,-0.615234 V 16.54882 l -4.13867,-2.484375 -1.99609,-5.916015 -4.5625,-4.158203 -5.13868,-2.126954 -5.4082,-1.253906 -8.41992,-0.558594 z"
   id="path91" /><path
   style="stroke-width:0.676141"
   d="m 179.49609,16.548821 v 8.056641 l 4.5957,-0.693359 8.67774,-1.234375 8.6875,-1.175782 3.92187,0.675782 -2.16601,5.707031 -2.29688,5.652344 -4.14062,8.625 -2.70313,5.617187 h 15.65625 l 2.5293,-5.191406 4.20508,-8.648438 3.99218,-8.234375 V 8.421868 l -2.86523,0.523438 -9.31836,1.914062 -9.28711,2.044922 -9.27734,2.105469 -9.2793,2.097656 z"
   id="path86" /><path
   style="stroke-width:0.676141"
   d="m 220.45507,8.421868 v 17.283203 l 0.20313,-0.417968 5.74805,-3.988282 9.54882,-0.748047 9.5293,-0.941406 9.52149,-1.015625 8.43945,-2.146484 1.02734,-8.671875 -3.58398,-3.515625 -8.5,0.597656 -8.50586,0.533203 -8.49219,0.710938 -8.44336,1.132812 z"
   id="path81" />
</svg>
