  0
SECTION
  2
HEADER
  9
$ACADVER
  1
AC1014
  9
$HANDSEED
  5
FFFF
  9
$MEASUREMENT
 70
     1
  0
ENDSEC
  0
SECTION
  2
TABLES
  0
TABLE
  2
VPORT
  5
8
330
0
100
AcDbSymbolTable
 70
     4
  0
VPORT
  5
2E
330
8
100
AcDbSymbolTableRecord
100
AcDbViewportTableRecord
  2
*ACTIVE
 70
     0
 10
0.0
 20
0.0
 11
1.0
 21
1.0
 12
210.0
 22
148.5
 13
0.0
 23
0.0
 14
10.0
 24
10.0
 15
10.0
 25
10.0
 16
0.0
 26
0.0
 36
1.0
 17
0.0
 27
0.0
 37
0.0
 40
341.0
 41
1.24
 42
50.0
 43
0.0
 44
0.0
 50
0.0
 51
0.0
 71
     0
 72
   100
 73
     1
 74
     3
 75
     0
 76
     0
 77
     0
 78
     0
  0
ENDTAB
  0
TABLE
  2
LTYPE
  5
5
330
0
100
AcDbSymbolTable
 70
     1
  0
LTYPE
  5
14
330
5
100
AcDbSymbolTableRecord
100
AcDbLinetypeTableRecord
  2
BYBLOCK
 70
     0
  3

 72
    65
 73
     0
 40
0.0
  0
LTYPE
  5
15
330
5
100
AcDbSymbolTableRecord
100
AcDbLinetypeTableRecord
  2
BYLAYER
 70
     0
  3

 72
    65
 73
     0
 40
0.0
  0
LTYPE
  5
16
330
5
100
AcDbSymbolTableRecord
100
AcDbLinetypeTableRecord
  2
CONTINUOUS
 70
     0
  3
Solid line
 72
    65
 73
     0
 40
0.0
  0
ENDTAB
  0
TABLE
  2
LAYER
  5
2
100
AcDbSymbolTable
 70
1
  0
LAYER
  5
50
100
AcDbSymbolTableRecord
100
AcDbLayerTableRecord
  2
0
 70
0
  6
CONTINUOUS
  0
ENDTAB
  0
TABLE
  2
STYLE
  5
3
330
0
100
AcDbSymbolTable
 70
     1
  0
STYLE
  5
11
330
3
100
AcDbSymbolTableRecord
100
AcDbTextStyleTableRecord
  2
STANDARD
 70
     0
 40
0.0
 41
1.0
 50
0.0
 71
     0
 42
2.5
  3
txt
  4

  0
ENDTAB
  0
TABLE
  2
VIEW
  5
6
330
0
100
AcDbSymbolTable
 70
     0
  0
ENDTAB
  0
TABLE
  2
UCS
  5
7
330
0
100
AcDbSymbolTable
 70
     0
  0
ENDTAB
  0
TABLE
  2
APPID
  5
9
330
0
100
AcDbSymbolTable
 70
     2
  0
APPID
  5
12
330
9
100
AcDbSymbolTableRecord
100
AcDbRegAppTableRecord
  2
ACAD
 70
     0
  0
ENDTAB
  0
TABLE
  2
DIMSTYLE
  5
A
330
0
100
AcDbSymbolTable
 70
     1
  0
DIMSTYLE
105
27
330
A
100
AcDbSymbolTableRecord
100
AcDbDimStyleTableRecord
  2
ISO-25
 70
     0
  3

  4

  5

  6

  7

 40
1.0
 41
2.5
 42
0.625
 43
3.75
 44
1.25
 45
0.0
 46
0.0
 47
0.0
 48
0.0
140
2.5
141
2.5
142
0.0
143
0.03937007874016
144
1.0
145
0.0
146
1.0
147
0.625
 71
     0
 72
     0
 73
     0
 74
     0
 75
     0
 76
     0
 77
     1
 78
     8
170
     0
171
     3
172
     1
173
     0
174
     0
175
     0
176
     0
177
     0
178
     0
270
     2
271
     2
272
     2
273
     2
274
     3
340
11
275
     0
280
     0
281
     0
282
     0
283
     0
284
     8
285
     0
286
     0
287
     3
288
     0
  0
ENDTAB
  0
TABLE
  2
BLOCK_RECORD
  5
1
330
0
100
AcDbSymbolTable
 70
     1
  0
BLOCK_RECORD
  5
1F
330
1
100
AcDbSymbolTableRecord
100
AcDbBlockTableRecord
  2
*MODEL_SPACE
  0
BLOCK_RECORD
  5
1B
330
1
100
AcDbSymbolTableRecord
100
AcDbBlockTableRecord
  2
*PAPER_SPACE
  0
ENDTAB
  0
ENDSEC
  0
SECTION
  2
BLOCKS
  0
BLOCK
  5
20
330
1F
100
AcDbEntity
  8
0
100
AcDbBlockBegin
  2
*MODEL_SPACE
 70
     0
 10
0.0
 20
0.0
 30
0.0
  3
*MODEL_SPACE
  1

  0
ENDBLK
  5
21
330
1F
100
AcDbEntity
  8
0
100
AcDbBlockEnd
  0
BLOCK
  5
1C
330
1B
100
AcDbEntity
 67
     1
  8
0
100
AcDbBlockBegin
  2
*PAPER_SPACE
  1

  0
ENDBLK
  5
1D
330
1B
100
AcDbEntity
 67
     1
  8
0
100
AcDbBlockEnd
  0
ENDSEC
  0
SECTION
  2
ENTITIES
  0
LWPOLYLINE
  5
100
100
AcDbEntity
  8
0
 62
7
100
AcDbPolyline
 90
278
 70
1
 10
604.631445
 20
168.504983
 30
0.0
 10
560.122198
 20
168.504983
 30
0.0
 10
557.252573
 20
162.521104
 30
0.0
 10
554.163220
 20
156.087511
 30
0.0
 10
551.070934
 20
149.655388
 30
0.0
 10
547.974254
 20
143.224727
 30
0.0
 10
544.870253
 20
136.796999
 30
0.0
 10
541.758925
 20
130.373665
 30
0.0
 10
538.635882
 20
123.956189
 30
0.0
 10
535.502587
 20
117.544571
 30
0.0
 10
532.354636
 20
111.137348
 30
0.0
 10
529.192038
 20
104.738914
 30
0.0
 10
526.013330
 20
98.349271
 30
0.0
 10
522.815580
 20
91.966948
 30
0.0
 10
519.597324
 20
85.596347
 30
0.0
 10
516.358557
 20
79.235998
 30
0.0
 10
513.096351
 20
72.888835
 30
0.0
 10
509.807776
 20
66.553394
 30
0.0
 10
506.481115
 20
60.401050
 30
0.0
 10
502.754555
 20
54.487484
 30
0.0
 10
497.889818
 20
49.518737
 30
0.0
 10
491.191093
 20
48.220886
 30
0.0
 10
484.628597
 20
50.567559
 30
0.0
 10
478.534851
 20
53.995297
 30
0.0
 10
472.627135
 20
57.736505
 30
0.0
 10
466.895203
 20
61.534840
 30
0.0
 10
461.204290
 20
65.393235
 30
0.0
 10
455.548536
 20
69.302900
 30
0.0
 10
449.922069
 20
73.255045
 30
0.0
 10
444.321981
 20
77.240887
 30
0.0
 10
438.739464
 20
81.254554
 30
0.0
 10
433.170133
 20
85.285802
 30
0.0
 10
427.609584
 20
89.327302
 30
0.0
 10
422.049042
 20
93.371734
 30
0.0
 10
416.484106
 20
97.410302
 30
0.0
 10
410.911842
 20
101.435691
 30
0.0
 10
407.287822
 20
104.507464
 30
0.0
 10
404.010969
 20
107.952782
 30
0.0
 10
399.692614
 20
113.491349
 30
0.0
 10
400.301989
 20
119.987927
 30
0.0
 10
405.736553
 20
124.435192
 30
0.0
 10
411.666237
 20
128.343394
 30
0.0
 10
417.623753
 20
132.203252
 30
0.0
 10
423.598849
 20
136.042604
 30
0.0
 10
429.572475
 20
139.881957
 30
0.0
 10
435.528529
 20
143.747679
 30
0.0
 10
441.452355
 20
147.663202
 30
0.0
 10
447.326374
 20
151.650506
 30
0.0
 10
453.144727
 20
155.867784
 30
0.0
 10
458.774119
 20
160.332628
 30
0.0
 10
464.176455
 20
165.068463
 30
0.0
 10
467.683288
 20
168.504983
 30
0.0
 10
423.270724
 20
168.504983
 30
0.0
 10
419.459204
 20
165.869732
 30
0.0
 10
413.396216
 20
162.156357
 30
0.0
 10
407.135482
 20
158.784292
 30
0.0
 10
400.698956
 20
155.765251
 30
0.0
 10
394.104240
 20
153.103631
 30
0.0
 10
387.377682
 20
150.800892
 30
0.0
 10
380.539794
 20
148.852656
 30
0.0
 10
373.611089
 20
147.250117
 30
0.0
 10
366.614996
 20
145.984493
 30
0.0
 10
359.567640
 20
145.039666
 30
0.0
 10
352.483662
 20
144.402459
 30
0.0
 10
345.382104
 20
144.055291
 30
0.0
 10
338.271757
 20
143.985016
 30
0.0
 10
331.288849
 20
144.882968
 30
0.0
 10
325.224397
 20
148.347321
 30
0.0
 10
322.198037
 20
154.603667
 30
0.0
 10
322.555457
 20
161.617333
 30
0.0
 10
324.055456
 20
168.505021
 30
0.0
 10
289.123351
 20
168.505021
 30
0.0
 10
286.788392
 20
163.694479
 30
0.0
 10
283.493959
 20
157.479150
 30
0.0
 10
279.982732
 20
151.383942
 30
0.0
 10
276.262029
 20
145.414703
 30
0.0
 10
272.339179
 20
139.575844
 30
0.0
 10
267.149242
 20
134.243813
 30
0.0
 10
260.380204
 20
131.173502
 30
0.0
 10
252.981279
 20
130.184733
 30
0.0
 10
245.895839
 20
129.918131
 30
0.0
 10
238.813323
 20
129.613443
 30
0.0
 10
231.730808
 20
129.275066
 30
0.0
 10
224.649755
 20
128.908856
 30
0.0
 10
217.571634
 20
128.516276
 30
0.0
 10
210.493514
 20
128.101729
 30
0.0
 10
203.416864
 20
127.668132
 30
0.0
 10
196.340206
 20
127.221357
 30
0.0
 10
189.266480
 20
126.761398
 30
0.0
 10
182.192755
 20
126.295580
 30
0.0
 10
175.117559
 20
125.826831
 30
0.0
 10
168.043834
 20
125.358081
 30
0.0
 10
160.968646
 20
124.892256
 30
0.0
 10
153.891988
 20
124.435229
 30
0.0
 10
153.891988
 20
121.367844
 30
0.0
 10
160.608294
 20
118.419115
 30
0.0
 10
167.330457
 20
115.485035
 30
0.0
 10
174.043830
 20
112.530449
 30
0.0
 10
180.729378
 20
109.514341
 30
0.0
 10
187.370969
 20
106.403013
 30
0.0
 10
193.949582
 20
103.161313
 30
0.0
 10
198.790889
 20
99.866880
 30
0.0
 10
203.094596
 20
95.878120
 30
0.0
 10
207.366076
 20
91.852730
 30
0.0
 10
203.122429
 20
87.436230
 30
0.0
 10
198.845084
 20
83.053421
 30
0.0
 10
193.949582
 20
79.394241
 30
0.0
 10
187.305052
 20
75.935745
 30
0.0
 10
180.543341
 20
72.714557
 30
0.0
 10
173.667368
 20
69.743854
 30
0.0
 10
166.682997
 20
67.033896
 30
0.0
 10
159.601944
 20
64.593473
 30
0.0
 10
152.428612
 20
62.434292
 30
0.0
 10
145.174714
 20
60.562225
 30
0.0
 10
137.851958
 20
58.983124
 30
0.0
 10
130.472083
 20
57.704315
 30
0.0
 10
123.043863
 20
56.728730
 30
0.0
 10
115.583423
 20
56.059296
 30
0.0
 10
108.102470
 20
55.693086
 30
0.0
 10
100.611265
 20
55.628661
 30
0.0
 10
93.663517
 20
55.974366
 30
0.0
 10
86.797796
 20
57.080323
 30
0.0
 10
80.213326
 20
59.295161
 30
0.0
 10
74.323194
 20
62.963131
 30
0.0
 10
69.645951
 20
68.085680
 30
0.0
 10
66.351520
 20
74.199939
 30
0.0
 10
64.198201
 20
80.810772
 30
0.0
 10
62.853475
 20
87.635475
 30
0.0
 10
61.942343
 20
95.012426
 30
0.0
 10
61.435507
 20
102.427461
 30
0.0
 10
61.359335
 20
109.858606
 30
0.0
 10
61.744589
 20
117.280969
 30
0.0
 10
62.617635
 20
124.662306
 30
0.0
 10
64.004842
 20
131.963087
 30
0.0
 10
65.925251
 20
139.143747
 30
0.0
 10
68.389116
 20
146.155950
 30
0.0
 10
71.400833
 20
152.949888
 30
0.0
 10
74.947218
 20
159.480156
 30
0.0
 10
79.009224
 20
165.702812
 30
0.0
 10
81.174263
 20
168.505051
 30
0.0
 10
25.108871
 20
168.505051
 30
0.0
 10
23.017075
 20
163.917169
 30
0.0
 10
20.197253
 20
157.306328
 30
0.0
 10
17.540028
 20
150.628115
 30
0.0
 10
15.046865
 20
143.885439
 30
0.0
 10
12.716300
 20
137.085636
 30
0.0
 10
10.548333
 20
130.233108
 30
0.0
 10
8.541498
 20
123.332227
 30
0.0
 10
6.695796
 20
116.385949
 30
0.0
 10
4.992184
 20
109.404504
 30
0.0
 10
3.490720
 20
102.374728
 30
0.0
 10
2.222167
 20
95.299533
 30
0.0
 10
1.211425
 20
88.184790
 30
0.0
 10
0.489257
 20
81.033432
 30
0.0
 10
0.082031
 20
73.857167
 30
0.0
 10
0.019043
 20
66.670649
 30
0.0
 10
0.322265
 20
59.491451
 30
0.0
 10
1.013671
 20
52.338623
 30
0.0
 10
2.109374
 20
45.237065
 30
0.0
 10
3.619627
 20
38.210215
 30
0.0
 10
5.545895
 20
31.287367
 30
0.0
 10
7.983393
 20
24.406999
 30
0.0
 10
11.103509
 20
17.812283
 30
0.0
 10
15.183096
 20
11.768337
 30
0.0
 10
20.437487
 20
6.724883
 30
0.0
 10
26.770002
 20
3.128695
 30
0.0
 10
33.751443
 20
1.033969
 30
0.0
 10
40.989232
 20
0.128697
 30
0.0
 10
48.287078
 20
0.046669
 30
0.0
 10
55.483851
 20
0.357214
 30
0.0
 10
62.673299
 20
0.820099
 30
0.0
 10
69.852494
 20
1.430944
 30
0.0
 10
77.015575
 20
2.189733
 30
0.0
 10
84.164008
 20
3.093542
 30
0.0
 10
91.291936
 20
4.137969
 30
0.0
 10
98.396419
 20
5.323028
 30
0.0
 10
105.478934
 20
6.642855
 30
0.0
 10
112.536550
 20
8.094509
 30
0.0
 10
119.564863
 20
9.673611
 30
0.0
 10
126.563881
 20
11.378690
 30
0.0
 10
133.532141
 20
13.203881
 30
0.0
 10
140.469637
 20
15.146267
 30
0.0
 10
147.373442
 20
17.201438
 30
0.0
 10
154.243550
 20
19.366477
 30
0.0
 10
161.081438
 20
21.634055
 30
0.0
 10
167.884167
 20
24.004166
 30
0.0
 10
174.339727
 20
26.343527
 30
0.0
 10
180.790901
 20
28.703386
 30
0.0
 10
187.234739
 20
31.074967
 30
0.0
 10
193.675660
 20
33.455338
 30
0.0
 10
200.113641
 20
35.841566
 30
0.0
 10
206.554554
 20
38.226325
 30
0.0
 10
212.995467
 20
40.606696
 30
0.0
 10
219.440776
 20
42.978277
 30
0.0
 10
218.838729
 20
36.963633
 30
0.0
 10
218.239607
 20
30.947527
 30
0.0
 10
217.653669
 20
24.931413
 30
0.0
 10
217.091170
 20
18.910912
 30
0.0
 10
216.566755
 20
12.887479
 30
0.0
 10
216.744003
 20
6.409943
 30
0.0
 10
221.009625
 20
2.248323
 30
0.0
 10
227.299661
 20
3.688262
 30
0.0
 10
233.901704
 20
6.512483
 30
0.0
 10
240.361660
 20
9.653106
 30
0.0
 10
246.619468
 20
13.178981
 30
0.0
 10
252.590169
 20
17.167748
 30
0.0
 10
258.156568
 20
21.704368
 30
0.0
 10
263.532542
 20
26.816665
 30
0.0
 10
268.660956
 20
32.179454
 30
0.0
 10
273.547676
 20
37.760508
 30
0.0
 10
278.207340
 20
43.534919
 30
0.0
 10
282.654605
 20
49.473392
 30
0.0
 10
286.911437
 20
55.551021
 30
0.0
 10
290.996880
 20
61.745845
 30
0.0
 10
294.935847
 20
68.034418
 30
0.0
 10
298.753225
 20
74.397691
 30
0.0
 10
302.470995
 20
80.818100
 30
0.0
 10
306.115527
 20
87.280988
 30
0.0
 10
309.713177
 20
93.768776
 30
0.0
 10
313.471965
 20
99.588593
 30
0.0
 10
318.847939
 20
103.830777
 30
0.0
 10
325.675575
 20
103.918670
 30
0.0
 10
332.138455
 20
101.435759
 30
0.0
 10
338.138452
 20
98.456273
 30
0.0
 10
344.060815
 20
95.322970
 30
0.0
 10
349.896749
 20
92.032932
 30
0.0
 10
355.637463
 20
88.578832
 30
0.0
 10
361.271249
 20
84.953350
 30
0.0
 10
367.439703
 20
80.794662
 30
0.0
 10
373.593509
 20
76.618395
 30
0.0
 10
379.738525
 20
72.426010
 30
0.0
 10
385.874751
 20
68.221918
 30
0.0
 10
392.006582
 20
64.010491
 30
0.0
 10
398.135488
 20
59.794676
 30
0.0
 10
404.264386
 20
55.580324
 30
0.0
 10
410.396217
 20
51.368896
 30
0.0
 10
416.533913
 20
47.167729
 30
0.0
 10
422.680392
 20
42.976814
 30
0.0
 10
428.837123
 20
38.803479
 30
0.0
 10
435.007047
 20
34.650650
 30
0.0
 10
441.194543
 20
30.521257
 30
0.0
 10
446.886919
 20
26.970475
 30
0.0
 10
452.800493
 20
23.803489
 30
0.0
 10
458.930854
 20
21.078876
 30
0.0
 10
465.261907
 20
18.861105
 30
0.0
 10
471.762880
 20
17.207296
 30
0.0
 10
478.388361
 20
16.165794
 30
0.0
 10
485.084162
 20
15.762962
 30
0.0
 10
491.409350
 20
15.798137
 30
0.0
 10
497.734539
 20
15.861137
 30
0.0
 10
504.061197
 20
15.887537
 30
0.0
 10
510.387855
 20
15.812837
 30
0.0
 10
516.708649
 20
15.571134
 30
0.0
 10
523.255035
 20
16.215669
 30
0.0
 10
528.944486
 20
19.450042
 30
0.0
 10
532.807276
 20
24.770351
 30
0.0
 10
535.788231
 20
30.483240
 30
0.0
 10
538.818987
 20
36.169759
 30
0.0
 10
541.874650
 20
41.840160
 30
0.0
 10
544.933238
 20
47.509106
 30
0.0
 10
547.972791
 20
53.191230
 30
0.0
 10
550.966932
 20
58.895329
 30
0.0
 10
553.890752
 20
64.636050
 30
0.0
 10
557.163218
 20
71.312801
 30
0.0
 10
560.434206
 20
77.989552
 30
0.0
 10
563.703738
 20
84.666310
 30
0.0
 10
566.973264
 20
91.344523
 30
0.0
 10
570.239864
 20
98.021281
 30
0.0
 10
573.506465
 20
104.698032
 30
0.0
 10
576.771603
 20
111.377715
 30
0.0
 10
580.035270
 20
118.055936
 30
0.0
 10
583.297476
 20
124.735619
 30
0.0
 10
586.558211
 20
131.416765
 30
0.0
 10
589.818954
 20
138.097910
 30
0.0
 10
593.076764
 20
144.779063
 30
0.0
 10
596.333112
 20
151.460209
 30
0.0
 10
599.587990
 20
158.144287
 30
0.0
 10
602.842876
 20
164.828365
 30
0.0
  0
LWPOLYLINE
  5
101
100
AcDbEntity
  8
0
 62
7
100
AcDbPolyline
 90
278
 70
1
 10
412.848363
 20
283.457060
 30
0.0
 10
405.673568
 20
283.429228
 30
0.0
 10
398.498765
 20
283.244657
 30
0.0
 10
391.332752
 20
282.894560
 30
0.0
 10
384.176999
 20
282.365752
 30
0.0
 10
377.037356
 20
281.650908
 30
0.0
 10
369.919681
 20
280.739776
 30
0.0
 10
362.832771
 20
279.625031
 30
0.0
 10
355.779558
 20
278.296418
 30
0.0
 10
348.773212
 20
276.748080
 30
0.0
 10
341.821069
 20
274.975620
 30
0.0
 10
334.928986
 20
272.971715
 30
0.0
 10
328.111603
 20
270.736365
 30
0.0
 10
321.374792
 20
268.266640
 30
0.0
 10
314.727337
 20
265.561075
 30
0.0
 10
308.180951
 20
262.622601
 30
0.0
 10
301.432425
 20
259.892133
 30
0.0
 10
294.389457
 20
258.055221
 30
0.0
 10
287.153132
 20
257.278854
 30
0.0
 10
279.884587
 20
257.623092
 30
0.0
 10
272.740549
 20
259.013228
 30
0.0
 10
265.823558
 20
261.282269
 30
0.0
 10
259.561355
 20
263.659709
 30
0.0
 10
253.256671
 20
265.917032
 30
0.0
 10
246.909508
 20
268.054238
 30
0.0
 10
240.522797
 20
270.074256
 30
0.0
 10
234.102389
 20
271.977087
 30
0.0
 10
227.646828
 20
273.764195
 30
0.0
 10
221.163435
 20
275.437045
 30
0.0
 10
214.649276
 20
276.998568
 30
0.0
 10
207.565298
 20
278.526399
 30
0.0
 10
200.435908
 20
279.824250
 30
0.0
 10
193.265500
 20
280.873077
 30
0.0
 10
186.061402
 20
281.656768
 30
0.0
 10
178.832405
 20
282.153350
 30
0.0
 10
171.587289
 20
282.345244
 30
0.0
 10
164.342181
 20
282.213408
 30
0.0
 10
157.113184
 20
281.738799
 30
0.0
 10
149.914943
 20
280.905303
 30
0.0
 10
142.769443
 20
279.695343
 30
0.0
 10
135.701575
 20
278.101594
 30
0.0
 10
128.733314
 20
276.113803
 30
0.0
 10
121.891031
 20
273.731969
 30
0.0
 10
115.196701
 20
270.956091
 30
0.0
 10
108.673760
 20
267.797890
 30
0.0
 10
102.345639
 20
264.270549
 30
0.0
 10
96.225523
 20
260.388715
 30
0.0
 10
90.329529
 20
256.177292
 30
0.0
 10
84.664985
 20
251.656787
 30
0.0
 10
79.237741
 20
246.855033
 30
0.0
 10
74.052198
 20
241.795465
 30
0.0
 10
69.102495
 20
236.501523
 30
0.0
 10
64.387165
 20
230.999574
 30
0.0
 10
59.884239
 20
225.396550
 30
0.0
 10
55.521937
 20
219.686593
 30
0.0
 10
51.301725
 20
213.868237
 30
0.0
 10
47.226532
 20
207.947345
 30
0.0
 10
43.300753
 20
201.926837
 30
0.0
 10
39.527318
 20
195.811123
 30
0.0
 10
35.907692
 20
189.601652
 30
0.0
 10
32.444804
 20
183.302826
 30
0.0
 10
29.141583
 20
176.919040
 30
0.0
 10
25.998030
 20
170.456159
 30
0.0
 10
25.108871
 20
168.504983
 30
0.0
 10
81.174263
 20
168.504983
 30
0.0
 10
83.553171
 20
171.584084
 30
0.0
 10
88.291938
 20
177.159280
 30
0.0
 10
93.159607
 20
182.623139
 30
0.0
 10
98.141539
 20
187.981533
 30
0.0
 10
103.228936
 20
193.240320
 30
0.0
 10
108.408620
 20
198.409751
 30
0.0
 10
113.668869
 20
203.494223
 30
0.0
 10
119.002363
 20
208.503983
 30
0.0
 10
124.397380
 20
213.447827
 30
0.0
 10
129.845129
 20
218.331613
 30
0.0
 10
135.335365
 20
223.167060
 30
0.0
 10
140.862217
 20
227.961490
 30
0.0
 10
146.418363
 20
232.723694
 30
0.0
 10
152.305567
 20
237.302793
 30
0.0
 10
158.627830
 20
241.257868
 30
0.0
 10
165.348523
 20
244.486382
 30
0.0
 10
172.401744
 20
246.906302
 30
0.0
 10
179.693734
 20
248.463430
 30
0.0
 10
187.119022
 20
249.147512
 30
0.0
 10
194.573604
 20
248.995168
 30
0.0
 10
201.973992
 20
248.067923
 30
0.0
 10
209.254260
 20
246.447806
 30
0.0
 10
216.374860
 20
244.224175
 30
0.0
 10
223.388526
 20
241.896540
 30
0.0
 10
230.497411
 20
239.870662
 30
0.0
 10
237.685391
 20
238.153867
 30
0.0
 10
244.940759
 20
236.749082
 30
0.0
 10
252.251792
 20
235.659239
 30
0.0
 10
259.600910
 20
234.884337
 30
0.0
 10
266.977853
 20
234.422912
 30
0.0
 10
274.366525
 20
234.270568
 30
0.0
 10
281.756653
 20
234.421447
 30
0.0
 10
289.135066
 20
234.866759
 30
0.0
 10
296.488579
 20
235.599181
 30
0.0
 10
302.775682
 20
234.093322
 30
0.0
 10
304.921678
 20
227.932193
 30
0.0
 10
304.907053
 20
221.891182
 30
0.0
 10
304.420723
 20
215.869213
 30
0.0
 10
303.389474
 20
209.916092
 30
0.0
 10
301.723950
 20
203.081138
 30
0.0
 10
299.824044
 20
196.309168
 30
0.0
 10
297.685375
 20
189.608979
 30
0.0
 10
295.310869
 20
182.986424
 30
0.0
 10
292.701981
 20
176.456155
 30
0.0
 10
289.858725
 20
170.021100
 30
0.0
 10
289.123373
 20
168.504983
 30
0.0
 10
324.055478
 20
168.504983
 30
0.0
 10
324.062978
 20
168.541583
 30
0.0
 10
325.642080
 20
175.448321
 30
0.0
 10
327.288569
 20
182.340404
 30
0.0
 10
328.999505
 20
189.213445
 30
0.0
 10
330.771964
 20
196.074770
 30
0.0
 10
332.601550
 20
202.919978
 30
0.0
 10
334.485339
 20
209.752007
 30
0.0
 10
336.418928
 20
216.569385
 30
0.0
 10
338.399399
 20
223.372115
 30
0.0
 10
340.423813
 20
230.161662
 30
0.0
 10
342.487774
 20
236.940954
 30
0.0
 10
345.758769
 20
241.619662
 30
0.0
 10
350.431619
 20
244.990265
 30
0.0
 10
355.712373
 20
247.290068
 30
0.0
 10
362.655733
 20
249.185575
 30
0.0
 10
369.640104
 20
250.915554
 30
0.0
 10
376.668417
 20
252.459498
 30
0.0
 10
383.737747
 20
253.795435
 30
0.0
 10
390.849558
 20
254.904321
 30
0.0
 10
397.993595
 20
255.762719
 30
0.0
 10
405.165466
 20
256.350121
 30
0.0
 10
412.356379
 20
256.646020
 30
0.0
 10
419.551687
 20
256.632835
 30
0.0
 10
426.741137
 20
256.294457
 30
0.0
 10
433.905687
 20
255.620629
 30
0.0
 10
441.029213
 20
254.601098
 30
0.0
 10
448.094148
 20
253.231470
 30
0.0
 10
454.901279
 20
250.895046
 30
0.0
 10
460.157133
 20
246.081572
 30
0.0
 10
462.276759
 20
239.240756
 30
0.0
 10
462.420316
 20
232.618202
 30
0.0
 10
461.140045
 20
226.130414
 30
0.0
 10
457.779694
 20
220.468796
 30
0.0
 10
452.309970
 20
216.815478
 30
0.0
 10
445.589270
 20
214.295949
 30
0.0
 10
438.850997
 20
211.821828
 30
0.0
 10
432.099531
 20
209.378471
 30
0.0
 10
425.340745
 20
206.958553
 30
0.0
 10
418.577572
 20
204.548887
 30
0.0
 10
418.769467
 20
203.398980
 30
0.0
 10
425.415453
 20
204.128474
 30
0.0
 10
432.058513
 20
204.860894
 30
0.0
 10
438.703044
 20
205.596246
 30
0.0
 10
445.347575
 20
206.331598
 30
0.0
 10
451.990636
 20
207.069875
 30
0.0
 10
458.635159
 20
207.808159
 30
0.0
 10
456.194735
 20
203.264220
 30
0.0
 10
453.799717
 20
198.693910
 30
0.0
 10
450.969639
 20
194.391666
 30
0.0
 10
446.330479
 20
189.002507
 30
0.0
 10
441.443767
 20
183.836007
 30
0.0
 10
436.308026
 20
178.918531
 30
0.0
 10
430.927657
 20
174.270581
 30
0.0
 10
425.308518
 20
169.914141
 30
0.0
 10
423.270927
 20
168.504960
 30
0.0
 10
467.683490
 20
168.504960
 30
0.0
 10
469.308004
 20
170.097246
 30
0.0
 10
474.120016
 20
175.430740
 30
0.0
 10
478.564348
 20
181.076242
 30
0.0
 10
482.589731
 20
187.024968
 30
0.0
 10
486.155161
 20
193.262271
 30
0.0
 10
489.229867
 20
199.755917
 30
0.0
 10
491.793342
 20
206.466365
 30
0.0
 10
493.978886
 20
209.779838
 30
0.0
 10
497.350959
 20
211.833548
 30
0.0
 10
504.717649
 20
212.971731
 30
0.0
 10
512.087272
 20
214.087941
 30
0.0
 10
519.461290
 20
215.182178
 30
0.0
 10
526.836777
 20
216.257373
 30
0.0
 10
534.215190
 20
217.314989
 30
0.0
 10
541.596535
 20
218.355028
 30
0.0
 10
548.979343
 20
219.378952
 30
0.0
 10
556.365076
 20
220.389695
 30
0.0
 10
563.752278
 20
221.387252
 30
0.0
 10
571.140944
 20
222.374556
 30
0.0
 10
576.732250
 20
221.699263
 30
0.0
 10
582.257639
 20
220.457077
 30
0.0
 10
579.752761
 20
214.007374
 30
0.0
 10
577.326977
 20
207.523977
 30
0.0
 10
574.898269
 20
201.044979
 30
0.0
 10
572.361163
 20
194.606998
 30
0.0
 10
569.607255
 20
188.258365
 30
0.0
 10
566.514977
 20
181.826241
 30
0.0
 10
563.425624
 20
175.391185
 30
0.0
 10
560.339196
 20
168.956137
 30
0.0
 10
560.122401
 20
168.504960
 30
0.0
 10
604.631647
 20
168.504960
 30
0.0
 10
606.095024
 20
171.512285
 30
0.0
 10
609.345514
 20
178.199289
 30
0.0
 10
612.594534
 20
184.886299
 30
0.0
 10
615.842092
 20
191.573310
 30
0.0
 10
619.086718
 20
198.261776
 30
0.0
 10
622.331343
 20
204.951719
 30
0.0
 10
625.573043
 20
211.641653
 30
0.0
 10
629.287881
 20
217.587450
 30
0.0
 10
634.990517
 20
221.585006
 30
0.0
 10
641.863558
 20
222.948775
 30
0.0
 10
649.250761
 20
223.452681
 30
0.0
 10
656.632106
 20
224.016645
 30
0.0
 10
664.010519
 20
224.631879
 30
0.0
 10
671.384536
 20
225.292523
 30
0.0
 10
678.755622
 20
225.992718
 30
0.0
 10
686.123782
 20
226.725139
 30
0.0
 10
693.489010
 20
227.480999
 30
0.0
 10
700.851312
 20
228.254436
 30
0.0
 10
708.213615
 20
229.039591
 30
0.0
 10
715.574448
 20
229.829141
 30
0.0
 10
722.936751
 20
230.615762
 30
0.0
 10
730.083713
 20
231.390663
 30
0.0
 10
737.199919
 20
232.401406
 30
0.0
 10
744.049529
 20
234.493201
 30
0.0
 10
748.577359
 20
239.834018
 30
0.0
 10
749.717006
 20
246.907743
 30
0.0
 10
749.850303
 20
254.092798
 30
0.0
 10
749.769738
 20
261.282246
 30
0.0
 10
748.920131
 20
266.810563
 30
0.0
 10
745.161344
 20
270.721693
 30
0.0
 10
739.611055
 20
271.247572
 30
0.0
 10
732.201877
 20
270.666029
 30
0.0
 10
724.786842
 20
270.144545
 30
0.0
 10
717.368882
 20
269.667007
 30
0.0
 10
709.950914
 20
269.212905
 30
0.0
 10
702.531484
 20
268.758804
 30
0.0
 10
695.113524
 20
268.288589
 30
0.0
 10
687.699951
 20
267.780289
 30
0.0
 10
680.289311
 20
267.214859
 30
0.0
 10
672.883065
 20
266.571793
 30
0.0
 10
665.487080
 20
265.830583
 30
0.0
 10
658.104272
 20
264.970720
 30
0.0
 10
650.739037
 20
263.971698
 30
0.0
 10
643.397247
 20
262.814472
 30
0.0
 10
636.017372
 20
261.538594
 30
0.0
 10
628.646279
 20
260.205586
 30
0.0
 10
621.285446
 20
258.821310
 30
0.0
 10
613.933396
 20
257.390159
 30
0.0
 10
606.591606
 20
255.916527
 30
0.0
 10
599.255673
 20
254.403344
 30
0.0
 10
591.927068
 20
252.856470
 30
0.0
 10
584.605782
 20
251.280300
 30
0.0
 10
577.288892
 20
249.679226
 30
0.0
 10
569.976397
 20
248.056180
 30
0.0
 10
562.668297
 20
246.415556
 30
0.0
 10
555.363129
 20
244.764679
 30
0.0
 10
548.059416
 20
243.105012
 30
0.0
 10
540.757181
 20
241.440950
 30
0.0
 10
533.453468
 20
239.776889
 30
0.0
 10
526.149763
 20
238.118686
 30
0.0
 10
518.844595
 20
236.469274
 30
0.0
 10
511.533562
 20
234.831580
 30
0.0
 10
504.899291
 20
234.044959
 30
0.0
 10
499.256715
 20
237.140172
 30
0.0
 10
497.159064
 20
243.456574
 30
0.0
 10
495.579962
 20
250.394069
 30
0.0
 10
493.139532
 20
257.070823
 30
0.0
 10
489.541881
 20
263.196795
 30
0.0
 10
484.627330
 20
268.316421
 30
0.0
 10
478.568743
 20
272.015149
 30
0.0
 10
472.807517
 20
274.588878
 30
0.0
 10
466.962793
 20
276.964853
 30
0.0
 10
461.000882
 20
279.024422
 30
0.0
 10
454.899809
 20
280.626960
 30
0.0
 10
448.668370
 20
281.598151
 30
0.0
 10
441.518475
 20
282.203131
 30
0.0
 10
434.361252
 20
282.701178
 30
0.0
 10
427.195239
 20
283.082037
 30
0.0
 10
420.023369
 20
283.336919
 30
0.0
  0
ENDSEC
  0
SECTION
  2
OBJECTS
  0
DICTIONARY
  5
C
330
0
100
AcDbDictionary
  3
ACAD_GROUP
350
D
  3
ACAD_MLINESTYLE
350
17
  0
DICTIONARY
  5
D
330
C
100
AcDbDictionary
  0
DICTIONARY
  5
1A
330
C
100
AcDbDictionary
  0
DICTIONARY
  5
17
330
C
100
AcDbDictionary
  3
STANDARD
350
18
  0
DICTIONARY
  5
19
330
C
100
AcDbDictionary
  0
ENDSEC
  0
EOF
