<?xml version="1.0" encoding="UTF-8" standalone="no"?>
<svg
   xmlns:dc="http://purl.org/dc/elements/1.1/"
   xmlns:cc="http://creativecommons.org/ns#"
   xmlns:rdf="http://www.w3.org/1999/02/22-rdf-syntax-ns#"
   xmlns:svg="http://www.w3.org/2000/svg"
   xmlns="http://www.w3.org/2000/svg"
   xmlns:sodipodi="http://sodipodi.sourceforge.net/DTD/sodipodi-0.dtd"
   xmlns:inkscape="http://www.inkscape.org/namespaces/inkscape"
   version="1.1"
   id="Layer_1"
   x="0px"
   y="0px"
   viewBox="0 0 264.47266 99.933601"
   xml:space="preserve"
   sodipodi:docname="GRTlogo2.svg"
   inkscape:version="1.0.2-2 (e86c870879, 2021-01-15)"
   width="264.47266"
   height="99.933601"><metadata
   id="metadata38"><rdf:RDF><cc:Work
       rdf:about=""><dc:format>image/svg+xml</dc:format><dc:type
         rdf:resource="http://purl.org/dc/dcmitype/StillImage" /><dc:title></dc:title></cc:Work></rdf:RDF></metadata><defs
   id="defs36" /><sodipodi:namedview
   pagecolor="#ffffff"
   bordercolor="#666666"
   borderopacity="1"
   objecttolerance="10"
   gridtolerance="10"
   guidetolerance="10"
   inkscape:pageopacity="0"
   inkscape:pageshadow="2"
   inkscape:window-width="1920"
   inkscape:window-height="1137"
   id="namedview34"
   showgrid="false"
   inkscape:zoom="1.190205"
   inkscape:cx="-269.21652"
   inkscape:cy="-199.41202"
   inkscape:window-x="1192"
   inkscape:window-y="208"
   inkscape:window-maximized="1"
   inkscape:current-layer="Layer_1"
   inkscape:document-rotation="0"
   fit-margin-top="0"
   fit-margin-left="0"
   fit-margin-right="0"
   fit-margin-bottom="0" />
<style
   type="text/css"
   id="style29">
	.st0{fill:#000000;}
</style>
<path
   style="stroke-width:0.676141"
   d="m 137.80859,46.291015 -0.70117,0.306641 -8.79688,2 -9.00586,0.558593 -3.47461,-3.898437 H 99.357423 l -1.46485,2.412109 v 37.068357 l 3.292967,-4.384763 4.17969,-6.648438 3.86524,-6.833984 7.91015,-2.705078 5.24024,2.730469 5.03906,3.083984 7.05469,4.791016 3.33398,2.289062 z"
   id="path31" /><path
   style="stroke-width:0.676141"
   d="m 137.80859,46.291015 v 30.769531 l 3.69531,2.539063 7.03516,4.820309 7.07617,4.76368 7.36328,3.74609 8.11914,1.45898 5.57813,-0.041 5.57812,0.10937 5.67969,-3.24609 3.73828,-7.02149 3.69922,-7.041011 4.23047,-8.636719 4.22461,-8.638672 4.21875,-8.640625 2.91211,-5.974609 h -15.67188 l -2.6582,5.527344 -4.18555,8.603515 -4.25976,8.566406 -4.36133,8.517579 -5.3418,6.468752 -7.77539,-3.359378 -7.34961,-5.007812 -7.22461,-5.185547 -7.19726,-5.222656 -2.43555,-2.298828 0.60938,-5.814453 7.35546,-4.771485 7.31641,-4.830078 1.47266,-1.193359 h -19.07227 z"
   id="path82" /><path
   style="stroke-width:0.676141"
   d="m 50.001953,78.734374 -5.96875,1.126953 -8.570312,0.464844 -9.273438,-2.587891 -4.044922,-8.703124 -0.527344,-7.841797 0.933594,-7.798829 2.607422,-7.402343 0.478516,-0.734375 H 6.875 l -1.931641,4.890625 -2.611328,8.74414 -1.578125,7.4375 L 0,73.89453 l 0.328125,7.591797 1.599609,7.427731 2.875,6.20508 5.414063,4.0293 6.789062,0.78516 8.619141,-0.58985 8.556641,-1.18359 8.46289,-1.73828 7.357422,-1.97852 z"
   id="path70" /><path
   style="stroke-width:0.676141"
   d="m 50.001953,78.734374 v 15.708984 l 0.984375,-0.26562 8.210937,-2.69532 9.097657,-3.33593 9.089841,-3.35743 -0.52734,5.30469 -0.48633,5.31055 3.78516,3.24414 5.72265,-2.70703 5.16407,-3.64844 5.42968,-5.66406 1.41992,-1.89063 V 47.669921 l -1.8457,3.041016 -6.83008,3.3125 -8.74414,0.384765 -8.740231,0.503907 -8.736328,0.566406 -8.736329,0.574219 v 1.082031 l 7.109376,3.117187 7.023437,3.304688 4.732422,3.990234 -4.732422,4.394532 -7.767578,3.652343 -8.15625,2.673828 z"
   id="path68" /><path
   style="stroke-width:0.676141"
   d="M 74.982422,2.115234 66.033203,0.626952 56.246094,0.490234 54.259765,0.83789 v 15.441406 l 4.861329,-2.896484 8.615234,-1.322266 7.246094,1.464844 z"
   id="path56" /><path
   style="stroke-width:0.676141"
   d="M 74.982422,2.115234 V 13.52539 l 1.320311,0.267578 9.22461,2.484375 9.49609,1.003906 9.542967,-0.445312 2.97461,2.705078 -0.54101,6.355469 -2.5625,8.724609 -3.67383,8.318359 -1.406247,2.31836 h 16.472647 l -2.07031,-2.322266 2.07031,-8.927734 2.36524,-8.855469 2.59766,-8.789063 4.66601,-3.652343 8.01367,-1.947266 0.32618,-0.04687 V 0.533202 l -0.81836,0.05664 -8.32422,1.357422 -8.13672,2.220703 -7.83008,3.134766 -7.41797,1.884765 L 93.748043,7.775389 84.822263,4.673826 75.693359,2.23242 Z"
   id="path97" /><path
   style="stroke-width:0.676141"
   d="m 133.79883,0.533202 v 10.183594 l 7.83984,-1.109375 8.24414,-0.113281 8.16602,1.121094 5.00195,4.935546 -3.51563,7.91211 -5.93945,2.193359 -5.96094,2.132813 0.0684,0.40625 7.03321,-0.775391 7.02929,-0.779297 -2.70312,4.732422 -6.30078,6.455078 -7.39063,5.164063 -5.19336,2.265625 h 19.07227 l 5.08593,-4.119141 5.42579,-6.455078 1.46679,-2.998047 V 6.205077 L 168.79887,3.990234 163.66019,1.86328 158.25199,0.609374 149.83207,0.05078 141.39457,0 Z"
   id="path92" /><path
   style="stroke-width:0.676141"
   d="m 171.22851,6.205077 v 25.480469 l 2.23633,-4.572266 1.96094,-1.892578 8.66601,-1.308593 8.67774,-1.234375 8.6875,-1.175782 3.92187,0.675782 -2.16601,5.707031 -2.29688,5.652344 -4.14062,8.625 -1.49024,3.095703 h 15.67188 l 1.30078,-2.669922 4.20508,-8.648438 4.19531,-8.652343 5.74805,-3.988282 9.54882,-0.748047 9.5293,-0.941406 9.52149,-1.015625 8.43945,-2.146484 1.02734,-8.671875 -3.58398,-3.515625 -8.5,0.597656 -8.50586,0.533203 -8.49219,0.710938 -8.44336,1.132812 -9.35742,1.710938 -9.31836,1.914062 -9.28711,2.044922 -9.27734,2.105469 -9.2793,2.097656 -5.07031,-3.042969 -1.99609,-5.916015 z"
   id="path87" /><path
   style="stroke-width:0.676141"
   d="M 54.259765,16.279296 V 0.83789 l -7.652343,1.33789 -9.052735,3.703126 -8.041015,5.568359 -6.828125,7.011719 -5.486328,7.292968 -4.810547,7.753907 -4.09375,8.154297 L 6.875,45.257812 h 18.761719 l 3.808593,-5.837891 5.146485,-5.785156 5.478515,-5.472656 5.705079,-5.234375 5.847656,-5.078125 z"
   id="path63" />
</svg>
