<?xml version="1.0" encoding="UTF-8" standalone="no"?>
<svg
   xmlns:dc="http://purl.org/dc/elements/1.1/"
   xmlns:cc="http://creativecommons.org/ns#"
   xmlns:rdf="http://www.w3.org/1999/02/22-rdf-syntax-ns#"
   xmlns:svg="http://www.w3.org/2000/svg"
   xmlns="http://www.w3.org/2000/svg"
   version="1.1"
   id="Layer_1"
   x="0px"
   y="0px"
   viewBox="0 0 999.8039 377.95277"
   xml:space="preserve"
   width="264.53143mm"
   height="100mm"><metadata
   id="metadata30"><rdf:RDF><cc:Work
       rdf:about=""><dc:format>image/svg+xml</dc:format><dc:type
         rdf:resource="http://purl.org/dc/dcmitype/StillImage" /><dc:title></dc:title></cc:Work></rdf:RDF></metadata><defs
   id="defs28" />
<style
   type="text/css"
   id="style21">
	.st0{fill:#000000;}
</style>
<path
   style="stroke-width:2.55549"
   d="m 806.17578,153.2793 h -59.3457 l -3.82617,7.97851 -4.11914,8.57813 -4.12305,8.57617 -4.12891,8.57422 -4.13867,8.57031 -4.14844,8.56445 -4.16406,8.55664 -4.17773,8.54883 -4.19727,8.54297 -4.2168,8.53125 -4.23828,8.51953 -4.26367,8.50977 -4.29101,8.49414 -4.31836,8.48047 -4.34961,8.46289 -4.38477,8.44726 -4.43555,8.20313 -4.96875,7.88476 -6.48632,6.625 -8.93164,1.73047 -8.75,-3.1289 -8.125,-4.57032 -7.87696,-4.98828 -7.64258,-5.06445 -7.58789,-5.14453 -7.54101,-5.21289 -7.50196,-5.26953 -7.46679,-5.31446 -7.44336,-5.35156 -7.42578,-5.375 -7.41407,-5.38867 -7.41406,-5.39258 -7.41992,-5.38476 -7.42969,-5.36719 -4.83203,-4.0957 -4.36914,-4.59376 -5.75781,-7.38476 0.8125,-8.66211 7.24609,-5.92969 7.90625,-5.21094 7.94336,-5.14648 7.9668,-5.11914 7.96484,-5.11914 7.94141,-5.1543 7.89844,-5.2207 7.83203,-5.31641 7.75781,-5.62304 7.50586,-5.95313 7.20312,-6.31445 4.67578,-4.58203 h -59.21679 l -5.08203,3.51367 -8.08399,4.95117 -8.34765,4.49609 -8.58204,4.02539 -8.79296,3.54883 -8.96875,3.07032 -9.11719,2.59765 -9.23828,2.13672 -9.32813,1.6875 -9.39648,1.25977 -9.44531,0.84961 -9.46875,0.46289 -9.48047,0.0937 -9.31055,-1.19727 -8.08594,-4.61914 -4.03515,-8.3418 0.47656,-9.35156 2,-9.18359 h -46.57617 l -3.11328,6.41406 -4.39258,8.28711 -4.68164,8.12695 -4.96094,7.95899 -5.23047,7.78515 -6.91992,7.10938 -9.02539,4.09375 -9.86524,1.31836 -9.44726,0.35547 -9.44336,0.40625 -9.44336,0.45117 -9.44141,0.48828 -9.4375,0.52344 -9.4375,0.55273 -9.43554,0.57813 -9.43555,0.5957 -9.43164,0.61328 -9.43164,0.62109 -9.4336,0.625 -9.43164,0.625 -9.43359,0.6211 -9.43555,0.60937 v 4.08985 l 8.95508,3.93164 8.96289,3.91211 8.95117,3.93945 8.91407,4.02148 8.85546,4.14844 8.77149,4.32227 6.45508,4.39258 5.73828,5.31835 5.69531,5.36719 -5.6582,5.88867 -5.70313,5.84375 -6.52734,4.87891 -8.85938,4.61133 -9.01562,4.29492 -9.16797,3.96094 -9.3125,3.61328 -9.44141,3.2539 -9.56445,2.87891 -9.67187,2.49609 -9.76368,2.10547 -9.83984,1.70508 -9.9043,1.30078 -9.94726,0.89258 -9.97461,0.48828 -9.98828,0.0859 -9.26367,-0.46094 -9.1543,-1.47461 -8.7793,-2.95312 -7.853514,-4.89063 -6.236328,-6.83007 -4.392578,-8.15235 -2.871094,-8.81445 -1.792968,-9.09961 -1.214844,-9.83594 -0.675782,-9.88672 -0.101562,-9.9082 0.513672,-9.89649 1.164062,-9.84179 1.84961,-9.73438 2.560547,-9.57422 3.285156,-9.34961 4.015625,-9.05859 4.728516,-8.70703 5.416012,-8.29688 2.88672,-3.73632 H 33.478516 l -2.789063,6.11718 -3.759765,8.81446 -3.542969,8.90429 -3.324219,8.99024 -3.107422,9.06641 -2.890625,9.13671 -2.675781,9.20118 -2.4609376,9.26171 -2.2714844,9.3086 -2.0019531,9.37304 -1.6914063,9.4336 -1.3476562,9.48633 -0.96289065,9.53515 -0.54296875,9.56836 -0.08398437,9.58203 0.40429687,9.57227 0.921875,9.53711 1.4609375,9.46875 2.0136719,9.36914 2.5683593,9.23047 3.2499998,9.17383 4.160157,8.79296 5.439453,8.0586 7.005859,6.72461 8.443359,4.79492 9.308594,2.79297 9.650391,1.20703 9.730468,0.10937 9.595704,-0.41406 9.585937,-0.61718 9.572266,-0.81446 9.550781,-1.01172 9.53125,-1.20508 9.50391,-1.39257 9.47265,-1.58008 9.44336,-1.75977 9.41016,-1.93554 9.37109,-2.10547 9.33203,-2.27344 9.29102,-2.43359 9.25,-2.58985 9.20508,-2.74023 9.16015,-2.88672 9.11719,-3.02344 9.07031,-3.16015 8.60742,-3.11915 8.60157,-3.14648 8.59179,-3.16211 8.5879,-3.17383 8.58398,-3.18164 8.58789,-3.17968 8.58789,-3.17383 8.59375,-3.16211 -0.80273,8.01953 -0.79883,8.02148 -0.78125,8.02149 -0.75,8.02734 -0.69922,8.03125 0.23633,8.63672 5.6875,5.54883 8.38672,-1.91992 8.80273,-3.76563 8.61328,-4.1875 8.34375,-4.70117 7.96094,-5.31836 7.42187,-6.04883 7.16797,-6.8164 6.83789,-7.15039 6.51563,-7.44141 6.21289,-7.69922 5.92969,-7.91797 5.67578,-8.10351 5.44726,-8.25977 5.25196,-8.38477 5.08984,-8.48437 4.95703,-8.56055 4.85938,-8.61719 4.79687,-8.65039 5.01172,-7.75976 7.16797,-5.65625 9.10352,-0.11719 8.61718,3.31055 8,3.97265 7.89649,4.17774 7.78125,4.38672 7.65429,4.60547 7.51172,4.83398 8.22461,5.54492 8.20508,5.56836 8.19336,5.58985 8.18164,5.60546 8.17578,5.61524 8.17188,5.62109 8.17187,5.61914 8.17578,5.61524 8.1836,5.60156 8.19531,5.58789 8.20898,5.56445 8.22657,5.53711 8.25,5.50586 7.58984,4.73438 7.88477,4.22265 8.17382,3.63282 8.44141,2.95703 8.66797,2.20508 8.83398,1.38867 8.92774,0.53711 8.43359,-0.0469 8.43359,-0.084 8.43555,-0.0352 8.43555,0.0996 8.42773,0.32227 8.72852,-0.85938 7.58594,-4.3125 5.15039,-7.09375 3.97461,-7.61719 4.04101,-7.58203 4.07422,-7.56054 4.07812,-7.5586 4.05274,-7.57617 3.99219,-7.60547 3.89843,-7.6543 4.36329,-8.90234 4.36132,-8.90234 4.35938,-8.90235 4.35937,-8.90429 4.35547,-8.90235 4.35547,-8.90234 4.35352,-8.90625 4.35156,-8.9043 4.34961,-8.90625 4.34765,-8.9082 4.34766,-8.9082 4.34375,-8.90821 4.3418,-8.9082 4.33984,-8.91211 4.33985,-8.91211 z"
   id="path23" /><path
   style="stroke-width:2.55549"
   d="m 550.46484,0.00976563 -9.5664,0.03710937 -9.56641,0.24609375 -9.55469,0.46679687 -9.54101,0.70507818 -9.51953,0.953125 -9.49024,1.2148437 -9.44922,1.4863281 -9.40429,1.7714844 -9.3418,2.0644531 -9.26953,2.3632809 -9.18945,2.671875 -9.08985,2.980469 -8.98242,3.292969 -8.86328,3.607422 -8.72852,3.917968 -8.99804,3.640626 -9.39063,2.449218 -9.64844,1.035156 -9.6914,-0.458984 -9.52539,-1.853516 -9.22266,-3.02539 -8.34961,-3.169922 -8.40625,-3.009766 -8.46289,-2.849609 -8.51562,-2.693359 -8.56055,-2.53711 -8.60742,-2.382812 -8.64453,-2.230469 -8.68555,-2.0820312 -9.44531,-2.0371094 -9.50586,-1.7304688 -9.56055,-1.3984375 -9.60547,-1.0449219 -9.63867,-0.6621093 -9.66016,-0.2558594 -9.66015,0.1757813 -9.63867,0.6328124 -9.59766,1.1113282 -9.52734,1.6132812 -9.42383,2.125 -9.29102,2.6503906 -9.12305,3.1757808 -8.92578,3.701172 -8.69726,4.210938 -8.4375,4.703125 -8.16016,5.175781 -7.86133,5.615234 -7.55273,6.027344 -7.23633,6.402344 -6.914062,6.746094 -6.599609,7.058594 -6.28711,7.335937 -6.003906,7.470703 -5.816406,7.613281 -5.626953,7.757813 -5.433594,7.894528 -5.234375,8.02735 -5.03125,8.15429 -4.826172,8.2793 -4.617187,8.39844 -4.404297,8.51172 -4.191407,8.61718 -1.185546,2.60157 h 74.753904 l 3.17188,-4.10547 6.31836,-7.4336 6.49023,-7.28515 6.64258,-7.14453 6.7832,-7.01172 6.90625,-6.89258 7.01367,-6.7793 7.11133,-6.679684 7.19336,-6.591797 7.26367,-6.511719 7.32032,-6.447266 7.36914,-6.392578 7.4082,-6.349609 7.84961,-6.105469 8.42969,-5.273437 8.96093,-4.304688 9.4043,-3.226562 9.72266,-2.076172 9.90039,-0.91211 9.93945,0.203125 9.86719,1.236328 9.70703,2.160157 9.49414,2.964843 9.35156,3.103516 9.47852,2.701172 9.58398,2.289062 9.67383,1.873047 9.74805,1.453125 9.79883,1.033204 9.83593,0.615234 9.85157,0.203125 9.85351,-0.201172 9.83789,-0.59375 9.80469,-0.976563 8.38281,2.007813 2.86133,8.214844 -0.0195,8.054687 -0.64844,8.029297 -1.375,7.9375 -2.2207,9.113277 -2.53321,9.0293 -2.85156,8.93359 -3.16601,8.83008 -3.47852,8.70703 -3.79101,8.58008 -0.98047,2.02149 h 46.57617 l 0.01,-0.0488 2.10547,-9.20899 2.19532,-9.18945 2.28125,-9.16406 2.36328,-9.14844 2.43945,-9.12695 2.51172,-9.109377 2.57812,-9.089844 2.64063,-9.070312 2.69922,-9.052735 2.75195,-9.039062 4.36133,-6.238281 6.23047,-4.494141 7.04101,-3.066406 9.25782,-2.527344 9.3125,-2.30664 9.37109,-2.058594 9.42578,-1.78125 9.48242,-1.478516 9.52539,-1.144531 9.5625,-0.783203 9.58789,-0.394532 9.59375,0.01758 9.58594,0.451171 9.55274,0.898438 9.49804,1.359375 9.41992,1.826172 9.07618,3.115234 7.00781,6.417969 2.82617,9.121094 0.19141,8.830078 -1.70703,8.65039 -4.48047,7.548829 -7.29297,4.871093 -8.96094,3.359375 -8.98437,3.298829 -9.00196,3.257812 -9.01172,3.22656 -9.01757,3.21289 0.25586,1.53321 8.86132,-0.97266 8.85742,-0.97656 8.85938,-0.98047 8.85938,-0.98047 8.85742,-0.98437 8.85937,-0.98438 -3.2539,6.05859 -3.19336,6.09375 -3.77344,5.73633 -6.18555,7.18555 -6.51562,6.88867 -6.84766,6.55664 -7.17383,6.19727 -7.49219,5.80859 -2.71679,1.87891 h 59.21679 l 2.16602,-2.12305 6.41602,-7.11133 5.92578,-7.52734 5.36718,-7.93164 4.75391,-8.31641 4.09961,-8.6582 3.41797,-8.94727 2.91406,-4.417966 4.4961,-2.738282 9.82226,-1.517578 9.82617,-1.488281 9.83203,-1.458984 9.83399,-1.433594 9.83789,-1.410156 9.8418,-1.386719 9.84375,-1.365234 9.84765,-1.347657 9.84961,-1.330078 9.85156,-1.316406 7.45508,0.900391 7.36719,1.65625 -3.33984,8.599609 -3.23438,8.644535 -3.23828,8.63867 -3.38281,8.58398 -3.67188,8.46485 -4.12304,8.57617 -4.11914,8.58008 -4.11524,8.58007 -0.28906,0.60157 h 59.3457 l 1.95117,-4.00977 4.33399,-8.91601 4.33203,-8.91602 4.33008,-8.91602 4.32617,-8.91796 4.32617,-8.91993 4.32227,-8.919918 4.95312,-7.927734 7.60352,-5.330079 9.16406,-1.818359 9.84961,-0.671875 9.8418,-0.751953 9.83789,-0.820313 9.83203,-0.880859 9.82812,-0.933594 9.82422,-0.976562 9.82031,-1.007813 9.81641,-1.03125 9.81641,-1.046875 9.81445,-1.052734 9.81641,-1.048828 9.52929,-1.033203 9.48828,-1.347657 9.13282,-2.789062 6.03711,-7.121094 1.51953,-9.43164 0.17773,-9.580079 -0.10742,-9.585937 -1.13281,-7.371094 -5.01172,-5.214844 -7.40039,-0.701172 -9.87891,0.775391 -9.88672,0.695313 -9.89062,0.636718 -9.89063,0.605469 -9.89258,0.605469 -9.89062,0.626953 -9.88477,0.677734 -9.88086,0.753907 -9.875,0.857422 -9.86132,0.988281 -9.84375,1.146484 -9.82032,1.332031 -9.78906,1.542969 -9.83984,1.701172 -9.82813,1.777344 -9.81445,1.845703 -9.80274,1.908203 -9.78906,1.964844 -9.78125,2.017578 -9.77148,2.0625 -9.76172,2.101562 -9.75586,2.134766 -9.75,2.164063 -9.74414,2.1875 -9.74023,2.201171 -9.73829,2.212891 -9.73632,2.21875 -9.73829,2.21875 -9.73828,2.210938 -9.74023,2.199218 -9.74805,2.183594 -8.8457,1.048828 -7.52344,-4.126953 -2.79687,-8.421875 -2.10547,-9.25 -3.25391,-8.902344 -4.79687,-8.167968 -6.55274,-6.826172 -8.07812,-4.931641 -7.68164,-3.431641 -7.79297,-3.1679684 -7.94922,-2.7460937 -8.13477,-2.1367188 -8.30859,-1.2949219 -9.5332,-0.8066406 -9.54297,-0.6640625 -9.55469,-0.50781248 -9.5625,-0.33984374 z"
   id="path51" />
</svg>
