M48
;GenerationSoftware,Autodesk,EAGLE,9.6.2*%
;CreationDate,2021-12-20T08:41:36Z*%
FMAT,2
ICI,OFF
METRIC,TZ,000.000
T6C0.350
T5C0.813
T4C1.016
T3C1.092
T2C3.400
T1C3.404
%
G90
M71
T1
X16256Y45974
X59436Y45974
X54356Y45974
X46736Y45974
X41656Y45974
X28956Y45974
X70866Y22860
X34036Y45974
X21336Y45974
X8636Y45974
X70866Y33020
X4826Y25908
X4826Y33528
X67056Y45974
T2
X73025Y47625
X3175Y47625
X3175Y3175
X73025Y3175
T3
X9906Y37338
X12446Y37338
X14986Y37338
X22606Y37338
X40386Y37338
X50546Y37338
X48006Y37338
X53086Y37338
X60706Y37338
X63246Y37338
X65786Y37338
X25146Y37338
X13462Y27178
X13462Y32258
X35306Y37338
X37846Y37338
X27686Y37338
X13462Y29718
X62230Y26670
X62230Y29210
X62230Y31750
X62230Y24130
T4
X17526Y10922
X20066Y10922
X14986Y13462
X17526Y13462
X20066Y13462
X14986Y10922
T5
X2286Y10198
X2286Y8191
X43942Y31242
X46482Y31242
X49022Y31242
X51562Y31242
X54102Y31242
X56642Y31242
X2286Y16192
X55969Y2540
X10249Y2540
X12255Y2540
X14237Y2540
X16243Y2540
X18250Y2540
X20257Y2540
X25489Y2540
X27495Y2540
X29477Y2540
X31483Y2540
X33490Y2540
X35497Y2540
X40729Y2540
X42736Y2540
X44717Y2540
X46723Y2540
X48730Y2540
X50736Y2540
X57975Y2540
X59957Y2540
X61963Y2540
X63970Y2540
X65977Y2540
X72136Y8217
X72136Y10224
X72136Y12205
X72136Y14211
X72136Y16218
X72136Y18225
X2286Y18199
X2286Y14211
X2286Y12205
T6
X28702Y19558
X30429Y7823
X32456Y18614
X35052Y33528
X48514Y18034
X32512Y17526
X34036Y33528
X50292Y17272
X31750Y24130
X30632Y12446
X23368Y20280
X23368Y21189
X36068Y21082
X42418Y27178
X37437Y21336
X37592Y20320
X36068Y22098
X30734Y20320
X23393Y18463
X42926Y33274
X38176Y32563
X12192Y13970
X23393Y19372
M30