M48
;GenerationSoftware,Autodesk,EAGLE,9.4.2*%
;CreationDate,2019-07-20T20:17:07Z*%
FMAT,2
ICI,OFF
METRIC,TZ,000.000
T5C0.700
T4C0.813
T3C1.016
T2C1.200
T1C3.800
%
G90
M71
T1
X5000Y5000
X5000Y45000
X70000Y45000
X70000Y5000
T2
X10400Y15000
X20400Y15000
X15400Y15000
T3
X22590Y37770
X37240Y18500
X34700Y18500
X32160Y18500
X22620Y40400
X25160Y40400
X27700Y40400
X30240Y40400
X32780Y40400
X25130Y37770
T4
X43820Y24000
X46360Y24000
X47400Y11980
X44860Y11980
X61080Y12000
X50920Y12000
X56200Y38380
X56200Y28220
X46400Y38380
X56170Y24020
X46400Y28220
X53630Y24020
T5
X32710Y10260
X34710Y10260
X36710Y10260
X36710Y15360
X34710Y15360
X32710Y15360
X32690Y21450
X34690Y21450
X36690Y21450
X34690Y26550
X36690Y26550
X32690Y26550
M30