G04 EAGLE Gerber RS-274X export*
G75*
%MOMM*%
%FSLAX34Y34*%
%LPD*%
%INBottom Copper*%
%IPPOS*%
%AMOC8*
5,1,8,0,0,1.08239X$1,22.5*%
G01*
%ADD10C,1.638300*%
%ADD11C,1.524000*%
%ADD12P,1.649562X8X22.500000*%
%ADD13C,1.320800*%
%ADD14C,1.219200*%
%ADD15C,0.525000*%
%ADD16C,0.152400*%

G36*
X759027Y2036D02*
X759027Y2036D01*
X759046Y2034D01*
X759148Y2056D01*
X759250Y2072D01*
X759267Y2082D01*
X759287Y2086D01*
X759376Y2139D01*
X759467Y2188D01*
X759481Y2202D01*
X759498Y2212D01*
X759565Y2291D01*
X759637Y2366D01*
X759645Y2384D01*
X759658Y2399D01*
X759697Y2495D01*
X759740Y2589D01*
X759742Y2609D01*
X759750Y2627D01*
X759768Y2794D01*
X759966Y505206D01*
X759963Y505226D01*
X759965Y505245D01*
X759943Y505347D01*
X759927Y505448D01*
X759917Y505466D01*
X759913Y505486D01*
X759860Y505575D01*
X759812Y505666D01*
X759797Y505680D01*
X759787Y505697D01*
X759708Y505764D01*
X759633Y505835D01*
X759615Y505844D01*
X759600Y505857D01*
X759503Y505896D01*
X759410Y505939D01*
X759390Y505941D01*
X759372Y505949D01*
X759205Y505967D01*
X2794Y505967D01*
X2774Y505964D01*
X2755Y505966D01*
X2653Y505944D01*
X2551Y505928D01*
X2534Y505918D01*
X2514Y505914D01*
X2425Y505861D01*
X2334Y505812D01*
X2320Y505798D01*
X2303Y505788D01*
X2236Y505709D01*
X2164Y505634D01*
X2156Y505616D01*
X2143Y505601D01*
X2104Y505505D01*
X2061Y505411D01*
X2059Y505391D01*
X2051Y505373D01*
X2033Y505206D01*
X2033Y2794D01*
X2036Y2774D01*
X2034Y2755D01*
X2056Y2653D01*
X2072Y2551D01*
X2082Y2534D01*
X2086Y2514D01*
X2139Y2425D01*
X2188Y2334D01*
X2202Y2320D01*
X2212Y2303D01*
X2291Y2236D01*
X2366Y2164D01*
X2384Y2156D01*
X2399Y2143D01*
X2495Y2104D01*
X2589Y2061D01*
X2609Y2059D01*
X2627Y2051D01*
X2794Y2033D01*
X759007Y2033D01*
X759027Y2036D01*
G37*
%LPC*%
G36*
X719794Y114172D02*
X719794Y114172D01*
X716899Y115371D01*
X714684Y117586D01*
X713873Y119544D01*
X713812Y119644D01*
X713752Y119744D01*
X713747Y119748D01*
X713743Y119753D01*
X713653Y119828D01*
X713565Y119904D01*
X713559Y119906D01*
X713554Y119910D01*
X713446Y119952D01*
X713337Y119996D01*
X713329Y119997D01*
X713324Y119998D01*
X713306Y119999D01*
X713170Y120014D01*
X385111Y120014D01*
X358647Y146478D01*
X358647Y207028D01*
X358633Y207118D01*
X358625Y207209D01*
X358613Y207239D01*
X358608Y207271D01*
X358565Y207351D01*
X358529Y207435D01*
X358503Y207467D01*
X358492Y207488D01*
X358469Y207510D01*
X358424Y207566D01*
X356784Y209206D01*
X356784Y212434D01*
X359066Y214716D01*
X362232Y214716D01*
X362302Y214727D01*
X362374Y214729D01*
X362423Y214747D01*
X362474Y214755D01*
X362538Y214789D01*
X362605Y214814D01*
X362646Y214846D01*
X362692Y214871D01*
X362741Y214923D01*
X362797Y214967D01*
X362825Y215011D01*
X362861Y215049D01*
X362891Y215114D01*
X362930Y215174D01*
X362943Y215225D01*
X362965Y215272D01*
X362973Y215343D01*
X362990Y215413D01*
X362986Y215465D01*
X362992Y215516D01*
X362977Y215587D01*
X362971Y215658D01*
X362951Y215706D01*
X362940Y215757D01*
X362903Y215818D01*
X362875Y215884D01*
X362830Y215940D01*
X362814Y215968D01*
X362796Y215983D01*
X362770Y216015D01*
X361924Y216861D01*
X361850Y216914D01*
X361781Y216974D01*
X361750Y216986D01*
X361724Y217005D01*
X361637Y217032D01*
X361552Y217066D01*
X361511Y217070D01*
X361489Y217077D01*
X361457Y217076D01*
X361386Y217084D01*
X359066Y217084D01*
X356784Y219366D01*
X356784Y222594D01*
X359066Y224876D01*
X362294Y224876D01*
X364576Y222594D01*
X364576Y220274D01*
X364590Y220184D01*
X364598Y220093D01*
X364610Y220064D01*
X364615Y220032D01*
X364658Y219951D01*
X364694Y219867D01*
X364720Y219835D01*
X364731Y219814D01*
X364754Y219792D01*
X364799Y219736D01*
X368919Y215616D01*
X369478Y215056D01*
X369495Y215045D01*
X369507Y215029D01*
X369594Y214973D01*
X369678Y214913D01*
X369697Y214907D01*
X369714Y214896D01*
X369814Y214871D01*
X369913Y214840D01*
X369933Y214841D01*
X369952Y214836D01*
X370055Y214844D01*
X370159Y214847D01*
X370178Y214854D01*
X370198Y214855D01*
X370293Y214896D01*
X370390Y214931D01*
X370406Y214944D01*
X370424Y214952D01*
X370555Y215056D01*
X372754Y217256D01*
X375074Y217256D01*
X375164Y217270D01*
X375255Y217278D01*
X375284Y217290D01*
X375316Y217295D01*
X375397Y217338D01*
X375481Y217374D01*
X375513Y217400D01*
X375534Y217411D01*
X375556Y217434D01*
X375612Y217479D01*
X424718Y266585D01*
X424760Y266643D01*
X424809Y266695D01*
X424831Y266742D01*
X424862Y266784D01*
X424883Y266853D01*
X424913Y266918D01*
X424919Y266970D01*
X424934Y267020D01*
X424932Y267091D01*
X424940Y267162D01*
X424929Y267213D01*
X424928Y267265D01*
X424903Y267333D01*
X424888Y267403D01*
X424861Y267448D01*
X424843Y267496D01*
X424798Y267552D01*
X424762Y267614D01*
X424722Y267648D01*
X424689Y267688D01*
X424629Y267727D01*
X424575Y267774D01*
X424526Y267793D01*
X424482Y267821D01*
X424413Y267839D01*
X424346Y267866D01*
X424275Y267874D01*
X424244Y267882D01*
X424221Y267880D01*
X424180Y267884D01*
X422566Y267884D01*
X420284Y270166D01*
X420284Y273394D01*
X422566Y275676D01*
X424886Y275676D01*
X424976Y275690D01*
X425067Y275698D01*
X425096Y275710D01*
X425128Y275715D01*
X425209Y275758D01*
X425293Y275794D01*
X425325Y275820D01*
X425346Y275831D01*
X425368Y275854D01*
X425424Y275899D01*
X437164Y287639D01*
X437217Y287713D01*
X437277Y287782D01*
X437289Y287813D01*
X437308Y287839D01*
X437335Y287926D01*
X437369Y288011D01*
X437373Y288052D01*
X437380Y288074D01*
X437379Y288106D01*
X437387Y288177D01*
X437387Y298684D01*
X437368Y298798D01*
X437351Y298915D01*
X437349Y298920D01*
X437348Y298926D01*
X437293Y299029D01*
X437240Y299134D01*
X437235Y299138D01*
X437232Y299144D01*
X437148Y299224D01*
X437064Y299306D01*
X437058Y299310D01*
X437054Y299313D01*
X437037Y299321D01*
X436917Y299387D01*
X435247Y300079D01*
X433175Y302151D01*
X432053Y304859D01*
X432053Y319981D01*
X433175Y322689D01*
X435247Y324761D01*
X437955Y325883D01*
X440885Y325883D01*
X443593Y324761D01*
X445665Y322689D01*
X446787Y319981D01*
X446787Y304859D01*
X445665Y302151D01*
X443593Y300079D01*
X441923Y299387D01*
X441823Y299325D01*
X441723Y299265D01*
X441719Y299261D01*
X441714Y299257D01*
X441639Y299167D01*
X441563Y299079D01*
X441561Y299073D01*
X441557Y299068D01*
X441515Y298959D01*
X441471Y298850D01*
X441470Y298843D01*
X441469Y298838D01*
X441468Y298820D01*
X441453Y298684D01*
X441453Y286178D01*
X428299Y273024D01*
X428246Y272950D01*
X428186Y272881D01*
X428174Y272850D01*
X428155Y272824D01*
X428128Y272737D01*
X428094Y272652D01*
X428090Y272611D01*
X428083Y272589D01*
X428084Y272557D01*
X428076Y272486D01*
X428076Y271780D01*
X428087Y271710D01*
X428089Y271638D01*
X428107Y271589D01*
X428115Y271538D01*
X428149Y271474D01*
X428174Y271407D01*
X428206Y271366D01*
X428231Y271320D01*
X428282Y271271D01*
X428327Y271215D01*
X428371Y271187D01*
X428409Y271151D01*
X428474Y271121D01*
X428534Y271082D01*
X428585Y271069D01*
X428632Y271047D01*
X428703Y271039D01*
X428773Y271022D01*
X428825Y271026D01*
X428876Y271020D01*
X428947Y271035D01*
X429018Y271041D01*
X429066Y271061D01*
X429117Y271072D01*
X429178Y271109D01*
X429244Y271137D01*
X429300Y271182D01*
X429328Y271198D01*
X429343Y271216D01*
X429375Y271242D01*
X458891Y300758D01*
X458903Y300774D01*
X458919Y300787D01*
X458975Y300874D01*
X459035Y300958D01*
X459041Y300977D01*
X459051Y300994D01*
X459077Y301094D01*
X459107Y301193D01*
X459107Y301213D01*
X459112Y301232D01*
X459104Y301335D01*
X459101Y301439D01*
X459094Y301458D01*
X459092Y301477D01*
X459052Y301572D01*
X459016Y301670D01*
X459004Y301685D01*
X458996Y301704D01*
X458891Y301835D01*
X458575Y302151D01*
X457453Y304859D01*
X457453Y319981D01*
X458575Y322689D01*
X460647Y324761D01*
X463355Y325883D01*
X466285Y325883D01*
X468993Y324761D01*
X471065Y322689D01*
X472187Y319981D01*
X472187Y304859D01*
X471871Y304097D01*
X471849Y304002D01*
X471820Y303909D01*
X471821Y303883D01*
X471815Y303858D01*
X471824Y303761D01*
X471827Y303663D01*
X471836Y303639D01*
X471838Y303613D01*
X471878Y303524D01*
X471911Y303432D01*
X471928Y303412D01*
X471938Y303388D01*
X472004Y303317D01*
X472065Y303240D01*
X472087Y303226D01*
X472105Y303207D01*
X472190Y303160D01*
X472272Y303107D01*
X472297Y303101D01*
X472320Y303088D01*
X472416Y303071D01*
X472510Y303047D01*
X472536Y303049D01*
X472562Y303045D01*
X472659Y303059D01*
X472756Y303067D01*
X472780Y303077D01*
X472806Y303081D01*
X472893Y303125D01*
X472982Y303163D01*
X473007Y303183D01*
X473025Y303192D01*
X473048Y303216D01*
X473113Y303268D01*
X482630Y312785D01*
X482683Y312859D01*
X482743Y312928D01*
X482755Y312959D01*
X482774Y312985D01*
X482801Y313072D01*
X482835Y313157D01*
X482839Y313198D01*
X482846Y313220D01*
X482845Y313252D01*
X482853Y313323D01*
X482853Y319981D01*
X483975Y322689D01*
X486047Y324761D01*
X488755Y325883D01*
X491685Y325883D01*
X494393Y324761D01*
X496465Y322689D01*
X497587Y319981D01*
X497587Y304859D01*
X496465Y302151D01*
X494393Y300079D01*
X491685Y298957D01*
X488755Y298957D01*
X486047Y300079D01*
X483975Y302151D01*
X482853Y304859D01*
X482853Y305421D01*
X482842Y305491D01*
X482840Y305563D01*
X482822Y305612D01*
X482814Y305663D01*
X482780Y305727D01*
X482755Y305794D01*
X482723Y305835D01*
X482698Y305881D01*
X482646Y305930D01*
X482602Y305986D01*
X482558Y306014D01*
X482520Y306050D01*
X482455Y306080D01*
X482395Y306119D01*
X482344Y306132D01*
X482297Y306154D01*
X482226Y306162D01*
X482156Y306179D01*
X482104Y306175D01*
X482053Y306181D01*
X481982Y306166D01*
X481911Y306160D01*
X481863Y306140D01*
X481812Y306129D01*
X481751Y306092D01*
X481685Y306064D01*
X481629Y306019D01*
X481601Y306003D01*
X481586Y305985D01*
X481554Y305959D01*
X380039Y204444D01*
X379986Y204370D01*
X379926Y204301D01*
X379914Y204270D01*
X379895Y204244D01*
X379868Y204157D01*
X379834Y204072D01*
X379830Y204031D01*
X379823Y204009D01*
X379824Y203977D01*
X379816Y203906D01*
X379816Y201586D01*
X377534Y199304D01*
X374306Y199304D01*
X372024Y201586D01*
X372024Y204814D01*
X374306Y207096D01*
X376626Y207096D01*
X376716Y207110D01*
X376807Y207118D01*
X376836Y207130D01*
X376868Y207135D01*
X376949Y207178D01*
X377033Y207214D01*
X377065Y207240D01*
X377086Y207251D01*
X377108Y207274D01*
X377164Y207319D01*
X467876Y298031D01*
X467933Y298110D01*
X467995Y298185D01*
X468005Y298210D01*
X468020Y298231D01*
X468049Y298324D01*
X468083Y298415D01*
X468085Y298441D01*
X468092Y298466D01*
X468090Y298563D01*
X468094Y298661D01*
X468087Y298686D01*
X468086Y298712D01*
X468052Y298803D01*
X468025Y298897D01*
X468010Y298918D01*
X468001Y298943D01*
X467940Y299019D01*
X467885Y299099D01*
X467864Y299114D01*
X467848Y299135D01*
X467766Y299188D01*
X467688Y299246D01*
X467663Y299254D01*
X467641Y299268D01*
X467546Y299292D01*
X467454Y299322D01*
X467428Y299322D01*
X467402Y299328D01*
X467305Y299320D01*
X467208Y299319D01*
X467176Y299310D01*
X467157Y299309D01*
X467127Y299296D01*
X467047Y299273D01*
X466285Y298957D01*
X463279Y298957D01*
X463234Y298969D01*
X463228Y298968D01*
X463222Y298970D01*
X463104Y298959D01*
X462988Y298949D01*
X462983Y298947D01*
X462977Y298947D01*
X462869Y298899D01*
X462762Y298853D01*
X462757Y298849D01*
X462752Y298847D01*
X462739Y298834D01*
X462631Y298748D01*
X378487Y214604D01*
X378434Y214530D01*
X378374Y214461D01*
X378362Y214430D01*
X378343Y214404D01*
X378316Y214317D01*
X378282Y214232D01*
X378278Y214191D01*
X378271Y214169D01*
X378272Y214137D01*
X378264Y214066D01*
X378264Y211746D01*
X375982Y209464D01*
X372754Y209464D01*
X371632Y210586D01*
X371574Y210628D01*
X371522Y210678D01*
X371475Y210700D01*
X371433Y210730D01*
X371364Y210751D01*
X371299Y210781D01*
X371247Y210787D01*
X371197Y210802D01*
X371126Y210800D01*
X371055Y210808D01*
X371004Y210797D01*
X370952Y210796D01*
X370884Y210771D01*
X370814Y210756D01*
X370769Y210729D01*
X370721Y210711D01*
X370665Y210667D01*
X370603Y210630D01*
X370569Y210590D01*
X370529Y210558D01*
X370490Y210497D01*
X370443Y210443D01*
X370424Y210395D01*
X370396Y210351D01*
X370378Y210281D01*
X370351Y210215D01*
X370343Y210143D01*
X370335Y210112D01*
X370337Y210089D01*
X370333Y210048D01*
X370333Y151017D01*
X370347Y150927D01*
X370355Y150836D01*
X370367Y150807D01*
X370372Y150775D01*
X370415Y150694D01*
X370451Y150610D01*
X370477Y150578D01*
X370488Y150557D01*
X370511Y150535D01*
X370556Y150479D01*
X376666Y144369D01*
X376740Y144316D01*
X376809Y144256D01*
X376840Y144244D01*
X376866Y144225D01*
X376953Y144198D01*
X377038Y144164D01*
X377079Y144160D01*
X377101Y144153D01*
X377133Y144154D01*
X377204Y144146D01*
X713170Y144146D01*
X713285Y144165D01*
X713401Y144182D01*
X713406Y144184D01*
X713413Y144185D01*
X713515Y144240D01*
X713620Y144293D01*
X713624Y144298D01*
X713630Y144301D01*
X713710Y144385D01*
X713792Y144469D01*
X713796Y144475D01*
X713799Y144479D01*
X713807Y144496D01*
X713873Y144616D01*
X714684Y146574D01*
X716899Y148789D01*
X719794Y149988D01*
X722926Y149988D01*
X725821Y148789D01*
X728036Y146574D01*
X729235Y143679D01*
X729235Y140547D01*
X728036Y137652D01*
X725821Y135437D01*
X722926Y134238D01*
X719794Y134238D01*
X716899Y135437D01*
X714684Y137652D01*
X713873Y139610D01*
X713812Y139709D01*
X713752Y139810D01*
X713747Y139814D01*
X713743Y139819D01*
X713653Y139894D01*
X713565Y139970D01*
X713559Y139972D01*
X713554Y139976D01*
X713446Y140018D01*
X713337Y140062D01*
X713329Y140063D01*
X713324Y140064D01*
X713306Y140065D01*
X713170Y140080D01*
X375205Y140080D01*
X366267Y149018D01*
X366267Y212203D01*
X366253Y212293D01*
X366245Y212384D01*
X366233Y212413D01*
X366228Y212445D01*
X366185Y212526D01*
X366149Y212610D01*
X366123Y212642D01*
X366112Y212663D01*
X366089Y212685D01*
X366044Y212741D01*
X365875Y212910D01*
X365817Y212952D01*
X365765Y213001D01*
X365718Y213023D01*
X365676Y213054D01*
X365607Y213075D01*
X365542Y213105D01*
X365490Y213111D01*
X365440Y213126D01*
X365369Y213124D01*
X365298Y213132D01*
X365247Y213121D01*
X365195Y213120D01*
X365127Y213095D01*
X365057Y213080D01*
X365013Y213053D01*
X364964Y213035D01*
X364908Y212990D01*
X364846Y212954D01*
X364812Y212914D01*
X364772Y212881D01*
X364733Y212821D01*
X364686Y212767D01*
X364667Y212718D01*
X364639Y212674D01*
X364621Y212605D01*
X364594Y212538D01*
X364586Y212467D01*
X364578Y212436D01*
X364580Y212413D01*
X364576Y212372D01*
X364576Y209206D01*
X362936Y207566D01*
X362883Y207492D01*
X362823Y207423D01*
X362811Y207393D01*
X362792Y207367D01*
X362765Y207280D01*
X362731Y207195D01*
X362727Y207154D01*
X362720Y207131D01*
X362721Y207099D01*
X362713Y207028D01*
X362713Y148477D01*
X362727Y148387D01*
X362735Y148296D01*
X362747Y148267D01*
X362752Y148235D01*
X362795Y148154D01*
X362831Y148070D01*
X362857Y148038D01*
X362868Y148017D01*
X362891Y147995D01*
X362936Y147939D01*
X386572Y124303D01*
X386646Y124250D01*
X386715Y124190D01*
X386746Y124178D01*
X386772Y124159D01*
X386859Y124132D01*
X386944Y124098D01*
X386985Y124094D01*
X387007Y124087D01*
X387039Y124088D01*
X387110Y124080D01*
X713170Y124080D01*
X713285Y124099D01*
X713401Y124116D01*
X713406Y124118D01*
X713413Y124119D01*
X713515Y124174D01*
X713620Y124227D01*
X713624Y124232D01*
X713630Y124235D01*
X713710Y124319D01*
X713792Y124403D01*
X713796Y124409D01*
X713799Y124413D01*
X713807Y124430D01*
X713873Y124550D01*
X714684Y126508D01*
X716899Y128723D01*
X719794Y129922D01*
X722926Y129922D01*
X725821Y128723D01*
X728036Y126508D01*
X729235Y123613D01*
X729235Y120481D01*
X728036Y117586D01*
X725821Y115371D01*
X722926Y114172D01*
X719794Y114172D01*
G37*
%LPD*%
%LPC*%
G36*
X160867Y17525D02*
X160867Y17525D01*
X157972Y18724D01*
X155757Y20939D01*
X154558Y23834D01*
X154558Y26966D01*
X155757Y29861D01*
X157972Y32076D01*
X160867Y33275D01*
X163999Y33275D01*
X165957Y32464D01*
X166071Y32437D01*
X166184Y32408D01*
X166191Y32409D01*
X166197Y32408D01*
X166313Y32419D01*
X166430Y32428D01*
X166435Y32430D01*
X166442Y32431D01*
X166549Y32478D01*
X166656Y32524D01*
X166662Y32529D01*
X166666Y32531D01*
X166680Y32543D01*
X166787Y32629D01*
X219740Y85582D01*
X219793Y85656D01*
X219853Y85725D01*
X219865Y85756D01*
X219884Y85782D01*
X219911Y85869D01*
X219945Y85954D01*
X219949Y85995D01*
X219956Y86017D01*
X219955Y86049D01*
X219963Y86120D01*
X219963Y201050D01*
X229561Y210648D01*
X229614Y210722D01*
X229674Y210791D01*
X229686Y210822D01*
X229705Y210848D01*
X229732Y210935D01*
X229766Y211020D01*
X229770Y211061D01*
X229777Y211083D01*
X229776Y211115D01*
X229784Y211186D01*
X229784Y213506D01*
X232066Y215788D01*
X235294Y215788D01*
X237576Y213506D01*
X237576Y210278D01*
X235184Y207886D01*
X235172Y207870D01*
X235156Y207858D01*
X235100Y207770D01*
X235040Y207687D01*
X235034Y207668D01*
X235023Y207651D01*
X234998Y207550D01*
X234968Y207451D01*
X234968Y207432D01*
X234963Y207412D01*
X234971Y207309D01*
X234974Y207206D01*
X234981Y207187D01*
X234983Y207167D01*
X235023Y207072D01*
X235059Y206975D01*
X235071Y206959D01*
X235079Y206941D01*
X235184Y206810D01*
X237576Y204418D01*
X237576Y201190D01*
X235297Y198911D01*
X235255Y198853D01*
X235205Y198801D01*
X235183Y198754D01*
X235153Y198712D01*
X235132Y198643D01*
X235102Y198578D01*
X235096Y198526D01*
X235081Y198476D01*
X235083Y198405D01*
X235075Y198334D01*
X235086Y198283D01*
X235087Y198231D01*
X235112Y198163D01*
X235127Y198093D01*
X235154Y198048D01*
X235172Y198000D01*
X235216Y197944D01*
X235253Y197882D01*
X235293Y197848D01*
X235325Y197808D01*
X235386Y197769D01*
X235421Y197739D01*
X237830Y195330D01*
X237830Y192102D01*
X235438Y189710D01*
X235426Y189694D01*
X235410Y189682D01*
X235354Y189594D01*
X235294Y189511D01*
X235288Y189492D01*
X235277Y189475D01*
X235252Y189374D01*
X235222Y189275D01*
X235222Y189256D01*
X235217Y189236D01*
X235225Y189133D01*
X235228Y189030D01*
X235235Y189011D01*
X235237Y188991D01*
X235277Y188896D01*
X235313Y188799D01*
X235325Y188783D01*
X235333Y188765D01*
X235438Y188634D01*
X237830Y186242D01*
X237830Y183014D01*
X235548Y180732D01*
X233426Y180732D01*
X233406Y180729D01*
X233387Y180731D01*
X233285Y180709D01*
X233183Y180693D01*
X233166Y180683D01*
X233146Y180679D01*
X233057Y180626D01*
X232966Y180577D01*
X232952Y180563D01*
X232935Y180553D01*
X232868Y180474D01*
X232796Y180399D01*
X232788Y180381D01*
X232775Y180366D01*
X232736Y180270D01*
X232693Y180176D01*
X232691Y180156D01*
X232683Y180138D01*
X232665Y179971D01*
X232665Y123585D01*
X232679Y123495D01*
X232687Y123404D01*
X232699Y123375D01*
X232704Y123343D01*
X232747Y123262D01*
X232783Y123178D01*
X232809Y123146D01*
X232820Y123125D01*
X232843Y123103D01*
X232888Y123047D01*
X313039Y42896D01*
X313113Y42843D01*
X313182Y42783D01*
X313213Y42771D01*
X313239Y42752D01*
X313326Y42725D01*
X313411Y42691D01*
X313452Y42687D01*
X313474Y42680D01*
X313506Y42681D01*
X313577Y42673D01*
X432769Y42673D01*
X434183Y41259D01*
X442813Y32629D01*
X442908Y32560D01*
X443002Y32491D01*
X443008Y32489D01*
X443013Y32485D01*
X443124Y32451D01*
X443236Y32415D01*
X443242Y32415D01*
X443248Y32413D01*
X443365Y32416D01*
X443482Y32417D01*
X443489Y32419D01*
X443494Y32419D01*
X443511Y32426D01*
X443643Y32464D01*
X445601Y33275D01*
X448733Y33275D01*
X451628Y32076D01*
X453843Y29861D01*
X455042Y26966D01*
X455042Y23834D01*
X453843Y20939D01*
X451628Y18724D01*
X448733Y17525D01*
X445601Y17525D01*
X442706Y18724D01*
X440491Y20939D01*
X439292Y23834D01*
X439292Y26966D01*
X440103Y28924D01*
X440130Y29038D01*
X440159Y29151D01*
X440158Y29158D01*
X440159Y29164D01*
X440148Y29280D01*
X440139Y29397D01*
X440137Y29402D01*
X440136Y29409D01*
X440089Y29516D01*
X440043Y29623D01*
X440038Y29629D01*
X440036Y29633D01*
X440024Y29647D01*
X439938Y29754D01*
X431308Y38384D01*
X431234Y38437D01*
X431165Y38497D01*
X431134Y38509D01*
X431108Y38528D01*
X431021Y38555D01*
X430936Y38589D01*
X430895Y38593D01*
X430873Y38600D01*
X430841Y38599D01*
X430770Y38607D01*
X311578Y38607D01*
X231170Y119015D01*
X231112Y119057D01*
X231060Y119106D01*
X231013Y119128D01*
X230971Y119159D01*
X230902Y119180D01*
X230837Y119210D01*
X230785Y119216D01*
X230735Y119231D01*
X230664Y119229D01*
X230593Y119237D01*
X230542Y119226D01*
X230490Y119225D01*
X230422Y119200D01*
X230352Y119185D01*
X230308Y119158D01*
X230259Y119140D01*
X230203Y119095D01*
X230141Y119059D01*
X230107Y119019D01*
X230067Y118986D01*
X230028Y118926D01*
X229981Y118872D01*
X229962Y118823D01*
X229934Y118779D01*
X229916Y118710D01*
X229889Y118643D01*
X229881Y118572D01*
X229873Y118541D01*
X229875Y118518D01*
X229871Y118477D01*
X229871Y113552D01*
X229885Y113462D01*
X229893Y113371D01*
X229905Y113342D01*
X229910Y113310D01*
X229953Y113229D01*
X229989Y113145D01*
X230015Y113113D01*
X230026Y113092D01*
X230049Y113070D01*
X230094Y113014D01*
X310479Y32629D01*
X310574Y32561D01*
X310668Y32491D01*
X310674Y32489D01*
X310679Y32485D01*
X310790Y32451D01*
X310902Y32415D01*
X310908Y32415D01*
X310914Y32413D01*
X311031Y32416D01*
X311148Y32417D01*
X311155Y32419D01*
X311160Y32419D01*
X311177Y32426D01*
X311309Y32464D01*
X313267Y33275D01*
X316399Y33275D01*
X319294Y32076D01*
X321509Y29861D01*
X322708Y26966D01*
X322708Y23834D01*
X321509Y20939D01*
X319294Y18724D01*
X316399Y17525D01*
X313267Y17525D01*
X310372Y18724D01*
X308157Y20939D01*
X306958Y23834D01*
X306958Y26966D01*
X307769Y28924D01*
X307796Y29038D01*
X307825Y29151D01*
X307824Y29158D01*
X307825Y29164D01*
X307814Y29280D01*
X307805Y29397D01*
X307803Y29402D01*
X307802Y29409D01*
X307755Y29516D01*
X307709Y29623D01*
X307704Y29629D01*
X307702Y29633D01*
X307690Y29647D01*
X307604Y29754D01*
X228376Y108982D01*
X228318Y109024D01*
X228266Y109073D01*
X228219Y109095D01*
X228177Y109126D01*
X228108Y109147D01*
X228043Y109177D01*
X227991Y109183D01*
X227941Y109198D01*
X227870Y109196D01*
X227799Y109204D01*
X227748Y109193D01*
X227696Y109192D01*
X227628Y109167D01*
X227558Y109152D01*
X227514Y109125D01*
X227465Y109107D01*
X227409Y109062D01*
X227347Y109026D01*
X227313Y108986D01*
X227273Y108953D01*
X227234Y108893D01*
X227187Y108839D01*
X227168Y108790D01*
X227140Y108746D01*
X227122Y108677D01*
X227095Y108610D01*
X227087Y108539D01*
X227079Y108508D01*
X227081Y108485D01*
X227077Y108444D01*
X227077Y96280D01*
X227091Y96190D01*
X227099Y96099D01*
X227111Y96070D01*
X227116Y96038D01*
X227159Y95957D01*
X227195Y95873D01*
X227221Y95841D01*
X227232Y95820D01*
X227255Y95798D01*
X227300Y95742D01*
X290413Y32629D01*
X290508Y32561D01*
X290602Y32491D01*
X290608Y32489D01*
X290613Y32485D01*
X290724Y32451D01*
X290836Y32415D01*
X290842Y32415D01*
X290848Y32413D01*
X290965Y32416D01*
X291082Y32417D01*
X291089Y32419D01*
X291094Y32419D01*
X291111Y32426D01*
X291243Y32464D01*
X293201Y33275D01*
X296333Y33275D01*
X299228Y32076D01*
X301443Y29861D01*
X302642Y26966D01*
X302642Y23834D01*
X301443Y20939D01*
X299228Y18724D01*
X296333Y17525D01*
X293201Y17525D01*
X290306Y18724D01*
X288091Y20939D01*
X286892Y23834D01*
X286892Y26966D01*
X287703Y28924D01*
X287730Y29038D01*
X287759Y29151D01*
X287758Y29158D01*
X287759Y29164D01*
X287748Y29280D01*
X287739Y29397D01*
X287737Y29402D01*
X287736Y29409D01*
X287689Y29516D01*
X287643Y29623D01*
X287638Y29629D01*
X287636Y29633D01*
X287624Y29647D01*
X287538Y29754D01*
X225328Y91964D01*
X225270Y92006D01*
X225218Y92055D01*
X225171Y92077D01*
X225129Y92108D01*
X225060Y92129D01*
X224995Y92159D01*
X224943Y92165D01*
X224893Y92180D01*
X224822Y92178D01*
X224751Y92186D01*
X224700Y92175D01*
X224648Y92174D01*
X224580Y92149D01*
X224510Y92134D01*
X224466Y92107D01*
X224417Y92089D01*
X224361Y92044D01*
X224299Y92008D01*
X224265Y91968D01*
X224225Y91935D01*
X224186Y91875D01*
X224139Y91821D01*
X224120Y91772D01*
X224092Y91728D01*
X224074Y91659D01*
X224047Y91592D01*
X224039Y91521D01*
X224031Y91490D01*
X224033Y91467D01*
X224029Y91426D01*
X224029Y84121D01*
X222615Y82707D01*
X169662Y29754D01*
X169594Y29659D01*
X169524Y29565D01*
X169522Y29559D01*
X169518Y29554D01*
X169484Y29443D01*
X169448Y29331D01*
X169448Y29325D01*
X169446Y29319D01*
X169449Y29202D01*
X169450Y29085D01*
X169452Y29078D01*
X169452Y29073D01*
X169459Y29056D01*
X169497Y28924D01*
X170308Y26966D01*
X170308Y23834D01*
X169109Y20939D01*
X166894Y18724D01*
X163999Y17525D01*
X160867Y17525D01*
G37*
%LPD*%
%LPC*%
G36*
X618067Y17525D02*
X618067Y17525D01*
X615172Y18724D01*
X612957Y20939D01*
X611758Y23834D01*
X611758Y26966D01*
X612569Y28924D01*
X612596Y29038D01*
X612625Y29151D01*
X612624Y29158D01*
X612625Y29164D01*
X612614Y29280D01*
X612605Y29397D01*
X612603Y29402D01*
X612602Y29409D01*
X612555Y29516D01*
X612509Y29623D01*
X612504Y29629D01*
X612502Y29633D01*
X612490Y29647D01*
X612404Y29754D01*
X591074Y51084D01*
X591000Y51137D01*
X590931Y51197D01*
X590900Y51209D01*
X590874Y51228D01*
X590787Y51255D01*
X590702Y51289D01*
X590661Y51293D01*
X590639Y51300D01*
X590607Y51299D01*
X590536Y51307D01*
X430958Y51307D01*
X305307Y176958D01*
X305307Y199408D01*
X305293Y199498D01*
X305285Y199589D01*
X305273Y199619D01*
X305268Y199651D01*
X305225Y199731D01*
X305189Y199815D01*
X305163Y199847D01*
X305152Y199868D01*
X305129Y199890D01*
X305084Y199946D01*
X303444Y201586D01*
X303444Y204814D01*
X305726Y207096D01*
X308954Y207096D01*
X311236Y204814D01*
X311236Y201586D01*
X309596Y199946D01*
X309543Y199872D01*
X309483Y199803D01*
X309471Y199773D01*
X309452Y199747D01*
X309425Y199660D01*
X309391Y199575D01*
X309387Y199534D01*
X309380Y199511D01*
X309381Y199479D01*
X309373Y199408D01*
X309373Y178957D01*
X309387Y178867D01*
X309395Y178776D01*
X309407Y178747D01*
X309412Y178715D01*
X309455Y178634D01*
X309491Y178550D01*
X309517Y178518D01*
X309528Y178497D01*
X309551Y178475D01*
X309596Y178419D01*
X432419Y55596D01*
X432493Y55543D01*
X432562Y55483D01*
X432593Y55471D01*
X432619Y55452D01*
X432706Y55425D01*
X432791Y55391D01*
X432832Y55387D01*
X432854Y55380D01*
X432886Y55381D01*
X432957Y55373D01*
X592535Y55373D01*
X593949Y53959D01*
X615279Y32629D01*
X615374Y32561D01*
X615468Y32491D01*
X615474Y32489D01*
X615479Y32485D01*
X615590Y32451D01*
X615702Y32415D01*
X615708Y32415D01*
X615714Y32413D01*
X615831Y32416D01*
X615948Y32417D01*
X615955Y32419D01*
X615960Y32419D01*
X615977Y32426D01*
X616109Y32464D01*
X618067Y33275D01*
X621199Y33275D01*
X624094Y32076D01*
X626309Y29861D01*
X627508Y26966D01*
X627508Y23834D01*
X626309Y20939D01*
X624094Y18724D01*
X621199Y17525D01*
X618067Y17525D01*
G37*
%LPD*%
%LPC*%
G36*
X323506Y171364D02*
X323506Y171364D01*
X321224Y173646D01*
X321224Y175966D01*
X321210Y176056D01*
X321202Y176147D01*
X321190Y176176D01*
X321185Y176208D01*
X321142Y176289D01*
X321106Y176373D01*
X321080Y176405D01*
X321069Y176426D01*
X321046Y176448D01*
X321001Y176504D01*
X312927Y184578D01*
X312927Y198962D01*
X338104Y224139D01*
X338157Y224213D01*
X338217Y224282D01*
X338229Y224313D01*
X338248Y224339D01*
X338275Y224426D01*
X338309Y224511D01*
X338313Y224552D01*
X338320Y224574D01*
X338319Y224606D01*
X338327Y224677D01*
X338327Y331488D01*
X338313Y331578D01*
X338305Y331669D01*
X338293Y331699D01*
X338288Y331731D01*
X338245Y331811D01*
X338209Y331895D01*
X338183Y331927D01*
X338172Y331948D01*
X338149Y331970D01*
X338104Y332026D01*
X336464Y333666D01*
X336464Y336894D01*
X338746Y339176D01*
X341974Y339176D01*
X344256Y336894D01*
X344256Y333666D01*
X342616Y332026D01*
X342563Y331952D01*
X342503Y331883D01*
X342491Y331853D01*
X342472Y331827D01*
X342445Y331740D01*
X342411Y331655D01*
X342407Y331614D01*
X342400Y331591D01*
X342401Y331559D01*
X342393Y331488D01*
X342393Y222678D01*
X317216Y197501D01*
X317163Y197427D01*
X317103Y197358D01*
X317091Y197327D01*
X317072Y197301D01*
X317045Y197214D01*
X317011Y197129D01*
X317007Y197088D01*
X317000Y197066D01*
X317001Y197034D01*
X316993Y196963D01*
X316993Y186577D01*
X317007Y186487D01*
X317015Y186396D01*
X317027Y186367D01*
X317032Y186335D01*
X317075Y186254D01*
X317111Y186170D01*
X317137Y186138D01*
X317148Y186117D01*
X317171Y186095D01*
X317216Y186039D01*
X319361Y183894D01*
X319419Y183852D01*
X319471Y183803D01*
X319518Y183781D01*
X319560Y183750D01*
X319629Y183729D01*
X319694Y183699D01*
X319746Y183693D01*
X319796Y183678D01*
X319867Y183680D01*
X319938Y183672D01*
X319989Y183683D01*
X320041Y183684D01*
X320109Y183709D01*
X320179Y183724D01*
X320224Y183751D01*
X320272Y183769D01*
X320328Y183814D01*
X320390Y183850D01*
X320424Y183890D01*
X320464Y183923D01*
X320503Y183983D01*
X320550Y184037D01*
X320569Y184086D01*
X320597Y184130D01*
X320615Y184199D01*
X320642Y184266D01*
X320650Y184337D01*
X320658Y184368D01*
X320656Y184391D01*
X320660Y184432D01*
X320660Y187750D01*
X322300Y189390D01*
X322353Y189464D01*
X322413Y189533D01*
X322425Y189564D01*
X322444Y189590D01*
X322471Y189677D01*
X322505Y189762D01*
X322509Y189803D01*
X322516Y189825D01*
X322515Y189857D01*
X322523Y189928D01*
X322523Y195858D01*
X348264Y221599D01*
X348317Y221673D01*
X348377Y221742D01*
X348389Y221773D01*
X348408Y221799D01*
X348435Y221886D01*
X348469Y221971D01*
X348473Y222012D01*
X348480Y222034D01*
X348479Y222066D01*
X348487Y222137D01*
X348487Y331488D01*
X348473Y331578D01*
X348465Y331669D01*
X348453Y331699D01*
X348448Y331731D01*
X348405Y331811D01*
X348369Y331895D01*
X348343Y331927D01*
X348332Y331948D01*
X348309Y331970D01*
X348264Y332026D01*
X346624Y333666D01*
X346624Y336894D01*
X348906Y339176D01*
X352134Y339176D01*
X354416Y336894D01*
X354416Y333666D01*
X352776Y332026D01*
X352723Y331952D01*
X352663Y331883D01*
X352651Y331853D01*
X352632Y331827D01*
X352605Y331740D01*
X352571Y331655D01*
X352567Y331614D01*
X352560Y331591D01*
X352561Y331559D01*
X352553Y331488D01*
X352553Y220138D01*
X326812Y194397D01*
X326768Y194337D01*
X326730Y194296D01*
X326723Y194281D01*
X326699Y194254D01*
X326687Y194223D01*
X326668Y194197D01*
X326641Y194110D01*
X326629Y194079D01*
X326626Y194073D01*
X326626Y194071D01*
X326607Y194025D01*
X326603Y193984D01*
X326596Y193962D01*
X326597Y193930D01*
X326589Y193859D01*
X326589Y189928D01*
X326603Y189838D01*
X326611Y189747D01*
X326623Y189718D01*
X326628Y189686D01*
X326671Y189605D01*
X326707Y189521D01*
X326733Y189489D01*
X326744Y189468D01*
X326767Y189446D01*
X326812Y189390D01*
X328452Y187750D01*
X328452Y184523D01*
X326170Y182241D01*
X322852Y182241D01*
X322781Y182229D01*
X322709Y182227D01*
X322660Y182209D01*
X322609Y182201D01*
X322546Y182167D01*
X322478Y182143D01*
X322438Y182110D01*
X322392Y182086D01*
X322342Y182034D01*
X322286Y181989D01*
X322258Y181945D01*
X322222Y181907D01*
X322192Y181842D01*
X322153Y181782D01*
X322141Y181732D01*
X322119Y181684D01*
X322111Y181613D01*
X322093Y181544D01*
X322097Y181492D01*
X322092Y181440D01*
X322107Y181370D01*
X322112Y181298D01*
X322133Y181251D01*
X322144Y181200D01*
X322181Y181138D01*
X322209Y181072D01*
X322254Y181016D01*
X322270Y180988D01*
X322288Y180973D01*
X322314Y180941D01*
X323876Y179379D01*
X323950Y179326D01*
X324019Y179266D01*
X324050Y179254D01*
X324076Y179235D01*
X324163Y179208D01*
X324248Y179174D01*
X324289Y179170D01*
X324311Y179163D01*
X324343Y179164D01*
X324414Y179156D01*
X326734Y179156D01*
X329016Y176874D01*
X329016Y173646D01*
X326734Y171364D01*
X323506Y171364D01*
G37*
%LPD*%
%LPC*%
G36*
X427646Y328844D02*
X427646Y328844D01*
X425364Y331126D01*
X425364Y334354D01*
X427646Y336636D01*
X429966Y336636D01*
X430056Y336650D01*
X430147Y336658D01*
X430176Y336670D01*
X430208Y336675D01*
X430289Y336718D01*
X430373Y336754D01*
X430405Y336780D01*
X430426Y336791D01*
X430448Y336814D01*
X430504Y336859D01*
X446198Y352553D01*
X646543Y352553D01*
X646633Y352567D01*
X646724Y352575D01*
X646753Y352587D01*
X646785Y352592D01*
X646866Y352635D01*
X646950Y352671D01*
X646982Y352697D01*
X647003Y352708D01*
X647025Y352731D01*
X647081Y352776D01*
X655604Y361299D01*
X655657Y361373D01*
X655717Y361442D01*
X655729Y361473D01*
X655748Y361499D01*
X655775Y361586D01*
X655809Y361671D01*
X655813Y361712D01*
X655820Y361734D01*
X655819Y361766D01*
X655827Y361837D01*
X655827Y363471D01*
X655808Y363586D01*
X655791Y363702D01*
X655789Y363708D01*
X655788Y363714D01*
X655733Y363817D01*
X655680Y363922D01*
X655675Y363926D01*
X655672Y363932D01*
X655588Y364011D01*
X655504Y364094D01*
X655498Y364098D01*
X655494Y364101D01*
X655477Y364109D01*
X655357Y364175D01*
X652500Y365358D01*
X649838Y368020D01*
X648398Y371498D01*
X648398Y375262D01*
X649838Y378740D01*
X652500Y381402D01*
X655978Y382842D01*
X659742Y382842D01*
X663220Y381402D01*
X665882Y378740D01*
X667322Y375262D01*
X667322Y371498D01*
X665882Y368020D01*
X663220Y365358D01*
X660363Y364175D01*
X660263Y364113D01*
X660163Y364053D01*
X660159Y364048D01*
X660154Y364045D01*
X660079Y363956D01*
X660003Y363866D01*
X660001Y363860D01*
X659997Y363856D01*
X659955Y363748D01*
X659911Y363638D01*
X659910Y363631D01*
X659909Y363626D01*
X659908Y363608D01*
X659893Y363471D01*
X659893Y359838D01*
X648542Y348487D01*
X448197Y348487D01*
X448107Y348473D01*
X448016Y348465D01*
X447987Y348453D01*
X447955Y348448D01*
X447874Y348405D01*
X447790Y348369D01*
X447758Y348343D01*
X447737Y348332D01*
X447715Y348309D01*
X447659Y348264D01*
X433379Y333984D01*
X433326Y333910D01*
X433266Y333841D01*
X433254Y333810D01*
X433235Y333784D01*
X433208Y333697D01*
X433174Y333612D01*
X433170Y333571D01*
X433163Y333549D01*
X433164Y333517D01*
X433156Y333446D01*
X433156Y331126D01*
X430874Y328844D01*
X427646Y328844D01*
G37*
%LPD*%
%LPC*%
G36*
X196977Y100329D02*
X196977Y100329D01*
X191769Y105537D01*
X191769Y112903D01*
X196977Y118111D01*
X204343Y118111D01*
X204971Y117482D01*
X204987Y117471D01*
X205000Y117455D01*
X205087Y117399D01*
X205171Y117339D01*
X205190Y117333D01*
X205207Y117322D01*
X205307Y117297D01*
X205406Y117266D01*
X205426Y117267D01*
X205445Y117262D01*
X205548Y117270D01*
X205652Y117273D01*
X205671Y117280D01*
X205690Y117281D01*
X205785Y117322D01*
X205883Y117357D01*
X205898Y117370D01*
X205917Y117378D01*
X206048Y117482D01*
X213644Y125079D01*
X213697Y125153D01*
X213757Y125222D01*
X213769Y125253D01*
X213788Y125279D01*
X213815Y125366D01*
X213849Y125451D01*
X213853Y125492D01*
X213860Y125514D01*
X213859Y125546D01*
X213867Y125617D01*
X213867Y219282D01*
X237918Y243333D01*
X313708Y243333D01*
X313798Y243347D01*
X313889Y243355D01*
X313919Y243367D01*
X313951Y243372D01*
X314031Y243415D01*
X314115Y243451D01*
X314147Y243477D01*
X314168Y243488D01*
X314183Y243503D01*
X314184Y243504D01*
X314194Y243514D01*
X314246Y243556D01*
X315886Y245196D01*
X319114Y245196D01*
X321396Y242914D01*
X321396Y239686D01*
X319114Y237404D01*
X315886Y237404D01*
X314246Y239044D01*
X314172Y239097D01*
X314103Y239157D01*
X314073Y239169D01*
X314047Y239188D01*
X313960Y239215D01*
X313875Y239249D01*
X313834Y239253D01*
X313811Y239260D01*
X313779Y239259D01*
X313708Y239267D01*
X239917Y239267D01*
X239827Y239253D01*
X239736Y239245D01*
X239707Y239233D01*
X239675Y239228D01*
X239594Y239185D01*
X239510Y239149D01*
X239478Y239123D01*
X239457Y239112D01*
X239435Y239089D01*
X239379Y239044D01*
X218156Y217821D01*
X218103Y217747D01*
X218043Y217678D01*
X218031Y217647D01*
X218012Y217621D01*
X217985Y217534D01*
X217951Y217449D01*
X217947Y217408D01*
X217940Y217386D01*
X217941Y217354D01*
X217933Y217283D01*
X217933Y123618D01*
X216519Y122204D01*
X208922Y114608D01*
X208911Y114591D01*
X208895Y114579D01*
X208839Y114492D01*
X208779Y114408D01*
X208773Y114389D01*
X208762Y114372D01*
X208737Y114272D01*
X208706Y114173D01*
X208707Y114153D01*
X208702Y114134D01*
X208710Y114031D01*
X208713Y113927D01*
X208720Y113908D01*
X208721Y113888D01*
X208762Y113793D01*
X208797Y113696D01*
X208810Y113680D01*
X208818Y113662D01*
X208922Y113531D01*
X209551Y112903D01*
X209551Y105537D01*
X204343Y100329D01*
X196977Y100329D01*
G37*
%LPD*%
%LPC*%
G36*
X463571Y440689D02*
X463571Y440689D01*
X456569Y443590D01*
X451210Y448949D01*
X448309Y455951D01*
X448309Y463529D01*
X451210Y470531D01*
X456569Y475890D01*
X463571Y478791D01*
X471149Y478791D01*
X478151Y475890D01*
X483510Y470531D01*
X486411Y463529D01*
X486411Y455951D01*
X483510Y448949D01*
X478151Y443590D01*
X471149Y440689D01*
X463571Y440689D01*
G37*
%LPD*%
%LPC*%
G36*
X44471Y316229D02*
X44471Y316229D01*
X37469Y319130D01*
X32110Y324489D01*
X29209Y331491D01*
X29209Y339069D01*
X32110Y346071D01*
X37469Y351430D01*
X44471Y354331D01*
X52049Y354331D01*
X59051Y351430D01*
X64410Y346071D01*
X67311Y339069D01*
X67311Y331491D01*
X64410Y324489D01*
X59051Y319130D01*
X52049Y316229D01*
X44471Y316229D01*
G37*
%LPD*%
%LPC*%
G36*
X336571Y440689D02*
X336571Y440689D01*
X329569Y443590D01*
X324210Y448949D01*
X321309Y455951D01*
X321309Y463529D01*
X324210Y470531D01*
X329569Y475890D01*
X336571Y478791D01*
X344149Y478791D01*
X351151Y475890D01*
X356510Y470531D01*
X359411Y463529D01*
X359411Y455951D01*
X356510Y448949D01*
X351151Y443590D01*
X344149Y440689D01*
X336571Y440689D01*
G37*
%LPD*%
%LPC*%
G36*
X209571Y440689D02*
X209571Y440689D01*
X202569Y443590D01*
X197210Y448949D01*
X194309Y455951D01*
X194309Y463529D01*
X197210Y470531D01*
X202569Y475890D01*
X209571Y478791D01*
X217149Y478791D01*
X224151Y475890D01*
X229510Y470531D01*
X232411Y463529D01*
X232411Y455951D01*
X229510Y448949D01*
X224151Y443590D01*
X217149Y440689D01*
X209571Y440689D01*
G37*
%LPD*%
%LPC*%
G36*
X666771Y440689D02*
X666771Y440689D01*
X659769Y443590D01*
X654410Y448949D01*
X651509Y455951D01*
X651509Y463529D01*
X654410Y470531D01*
X659769Y475890D01*
X666771Y478791D01*
X674349Y478791D01*
X681351Y475890D01*
X686710Y470531D01*
X689611Y463529D01*
X689611Y455951D01*
X686710Y448949D01*
X681351Y443590D01*
X674349Y440689D01*
X666771Y440689D01*
G37*
%LPD*%
%LPC*%
G36*
X590571Y440689D02*
X590571Y440689D01*
X583569Y443590D01*
X578210Y448949D01*
X575309Y455951D01*
X575309Y463529D01*
X578210Y470531D01*
X583569Y475890D01*
X590571Y478791D01*
X598149Y478791D01*
X605151Y475890D01*
X610510Y470531D01*
X613411Y463529D01*
X613411Y455951D01*
X610510Y448949D01*
X605151Y443590D01*
X598149Y440689D01*
X590571Y440689D01*
G37*
%LPD*%
%LPC*%
G36*
X539771Y440689D02*
X539771Y440689D01*
X532769Y443590D01*
X527410Y448949D01*
X524509Y455951D01*
X524509Y463529D01*
X527410Y470531D01*
X532769Y475890D01*
X539771Y478791D01*
X547349Y478791D01*
X554351Y475890D01*
X559710Y470531D01*
X562611Y463529D01*
X562611Y455951D01*
X559710Y448949D01*
X554351Y443590D01*
X547349Y440689D01*
X539771Y440689D01*
G37*
%LPD*%
%LPC*%
G36*
X412771Y440689D02*
X412771Y440689D01*
X405769Y443590D01*
X400410Y448949D01*
X397509Y455951D01*
X397509Y463529D01*
X400410Y470531D01*
X405769Y475890D01*
X412771Y478791D01*
X420349Y478791D01*
X427351Y475890D01*
X432710Y470531D01*
X435611Y463529D01*
X435611Y455951D01*
X432710Y448949D01*
X427351Y443590D01*
X420349Y440689D01*
X412771Y440689D01*
G37*
%LPD*%
%LPC*%
G36*
X158771Y440689D02*
X158771Y440689D01*
X151769Y443590D01*
X146410Y448949D01*
X143509Y455951D01*
X143509Y463529D01*
X146410Y470531D01*
X151769Y475890D01*
X158771Y478791D01*
X166349Y478791D01*
X173351Y475890D01*
X178710Y470531D01*
X181611Y463529D01*
X181611Y455951D01*
X178710Y448949D01*
X173351Y443590D01*
X166349Y440689D01*
X158771Y440689D01*
G37*
%LPD*%
%LPC*%
G36*
X285771Y440689D02*
X285771Y440689D01*
X278769Y443590D01*
X273410Y448949D01*
X270509Y455951D01*
X270509Y463529D01*
X273410Y470531D01*
X278769Y475890D01*
X285771Y478791D01*
X293349Y478791D01*
X300351Y475890D01*
X305710Y470531D01*
X308611Y463529D01*
X308611Y455951D01*
X305710Y448949D01*
X300351Y443590D01*
X293349Y440689D01*
X285771Y440689D01*
G37*
%LPD*%
%LPC*%
G36*
X82571Y440689D02*
X82571Y440689D01*
X75569Y443590D01*
X70210Y448949D01*
X67309Y455951D01*
X67309Y463529D01*
X70210Y470531D01*
X75569Y475890D01*
X82571Y478791D01*
X90149Y478791D01*
X97151Y475890D01*
X102510Y470531D01*
X105411Y463529D01*
X105411Y455951D01*
X102510Y448949D01*
X97151Y443590D01*
X90149Y440689D01*
X82571Y440689D01*
G37*
%LPD*%
%LPC*%
G36*
X704871Y311149D02*
X704871Y311149D01*
X697869Y314050D01*
X692510Y319409D01*
X689609Y326411D01*
X689609Y333989D01*
X692510Y340991D01*
X697869Y346350D01*
X704871Y349251D01*
X712449Y349251D01*
X719451Y346350D01*
X724810Y340991D01*
X727711Y333989D01*
X727711Y326411D01*
X724810Y319409D01*
X719451Y314050D01*
X712449Y311149D01*
X704871Y311149D01*
G37*
%LPD*%
%LPC*%
G36*
X44471Y240029D02*
X44471Y240029D01*
X37469Y242930D01*
X32110Y248289D01*
X29209Y255291D01*
X29209Y262869D01*
X32110Y269871D01*
X37469Y275230D01*
X44471Y278131D01*
X52049Y278131D01*
X59051Y275230D01*
X64410Y269871D01*
X67311Y262869D01*
X67311Y255291D01*
X64410Y248289D01*
X59051Y242930D01*
X52049Y240029D01*
X44471Y240029D01*
G37*
%LPD*%
%LPC*%
G36*
X704871Y209549D02*
X704871Y209549D01*
X697869Y212450D01*
X692510Y217809D01*
X689609Y224811D01*
X689609Y232389D01*
X692510Y239391D01*
X697869Y244750D01*
X704871Y247651D01*
X712449Y247651D01*
X719451Y244750D01*
X724810Y239391D01*
X727711Y232389D01*
X727711Y224811D01*
X724810Y217809D01*
X719451Y212450D01*
X712449Y209549D01*
X704871Y209549D01*
G37*
%LPD*%
%LPC*%
G36*
X726464Y457217D02*
X726464Y457217D01*
X719469Y460115D01*
X714115Y465469D01*
X711217Y472464D01*
X711217Y480036D01*
X714115Y487031D01*
X719469Y492385D01*
X726464Y495283D01*
X734036Y495283D01*
X741031Y492385D01*
X746385Y487031D01*
X749283Y480036D01*
X749283Y472464D01*
X746385Y465469D01*
X741031Y460115D01*
X734036Y457217D01*
X726464Y457217D01*
G37*
%LPD*%
%LPC*%
G36*
X27964Y457217D02*
X27964Y457217D01*
X20969Y460115D01*
X15615Y465469D01*
X12717Y472464D01*
X12717Y480036D01*
X15615Y487031D01*
X20969Y492385D01*
X27964Y495283D01*
X35536Y495283D01*
X42531Y492385D01*
X47885Y487031D01*
X50783Y480036D01*
X50783Y472464D01*
X47885Y465469D01*
X42531Y460115D01*
X35536Y457217D01*
X27964Y457217D01*
G37*
%LPD*%
%LPC*%
G36*
X726464Y12717D02*
X726464Y12717D01*
X719469Y15615D01*
X714115Y20969D01*
X711217Y27964D01*
X711217Y35536D01*
X714115Y42531D01*
X719469Y47885D01*
X726464Y50783D01*
X734036Y50783D01*
X741031Y47885D01*
X746385Y42531D01*
X749283Y35536D01*
X749283Y27964D01*
X746385Y20969D01*
X741031Y15615D01*
X734036Y12717D01*
X726464Y12717D01*
G37*
%LPD*%
%LPC*%
G36*
X27964Y12717D02*
X27964Y12717D01*
X20969Y15615D01*
X15615Y20969D01*
X12717Y27964D01*
X12717Y35536D01*
X15615Y42531D01*
X20969Y47885D01*
X27964Y50783D01*
X35536Y50783D01*
X42531Y47885D01*
X47885Y42531D01*
X50783Y35536D01*
X50783Y27964D01*
X47885Y20969D01*
X42531Y15615D01*
X35536Y12717D01*
X27964Y12717D01*
G37*
%LPD*%
%LPC*%
G36*
X483526Y176444D02*
X483526Y176444D01*
X481244Y178726D01*
X481244Y181954D01*
X483526Y184236D01*
X485846Y184236D01*
X485936Y184250D01*
X486027Y184258D01*
X486056Y184270D01*
X486088Y184275D01*
X486169Y184318D01*
X486253Y184354D01*
X486285Y184380D01*
X486306Y184391D01*
X486328Y184414D01*
X486384Y184459D01*
X613856Y311931D01*
X613923Y312024D01*
X613994Y312120D01*
X613996Y312126D01*
X614000Y312131D01*
X614034Y312242D01*
X614070Y312354D01*
X614070Y312360D01*
X614072Y312366D01*
X614069Y312483D01*
X614068Y312599D01*
X614066Y312607D01*
X614066Y312612D01*
X614059Y312629D01*
X614021Y312761D01*
X612838Y315618D01*
X612838Y319382D01*
X614278Y322860D01*
X616940Y325522D01*
X620418Y326962D01*
X624182Y326962D01*
X627660Y325522D01*
X630322Y322860D01*
X631762Y319382D01*
X631762Y315618D01*
X630322Y312140D01*
X627660Y309478D01*
X624182Y308038D01*
X620418Y308038D01*
X617561Y309221D01*
X617447Y309248D01*
X617333Y309277D01*
X617327Y309276D01*
X617321Y309277D01*
X617205Y309266D01*
X617088Y309257D01*
X617083Y309255D01*
X617076Y309254D01*
X616969Y309207D01*
X616862Y309161D01*
X616856Y309156D01*
X616852Y309154D01*
X616838Y309142D01*
X616731Y309056D01*
X489259Y181584D01*
X489206Y181510D01*
X489146Y181441D01*
X489134Y181410D01*
X489115Y181384D01*
X489088Y181297D01*
X489054Y181212D01*
X489050Y181171D01*
X489043Y181149D01*
X489044Y181117D01*
X489036Y181046D01*
X489036Y178726D01*
X486754Y176444D01*
X483526Y176444D01*
G37*
%LPD*%
%LPC*%
G36*
X140801Y17525D02*
X140801Y17525D01*
X137906Y18724D01*
X135691Y20939D01*
X134492Y23834D01*
X134492Y26966D01*
X135691Y29861D01*
X137906Y32076D01*
X140801Y33275D01*
X143933Y33275D01*
X145891Y32464D01*
X146005Y32437D01*
X146118Y32408D01*
X146125Y32409D01*
X146131Y32408D01*
X146247Y32419D01*
X146364Y32428D01*
X146369Y32430D01*
X146376Y32431D01*
X146483Y32478D01*
X146590Y32524D01*
X146596Y32529D01*
X146600Y32531D01*
X146614Y32543D01*
X146721Y32629D01*
X173004Y58912D01*
X173057Y58986D01*
X173117Y59055D01*
X173129Y59086D01*
X173148Y59112D01*
X173175Y59199D01*
X173209Y59284D01*
X173213Y59325D01*
X173220Y59347D01*
X173219Y59379D01*
X173227Y59450D01*
X173227Y99568D01*
X173224Y99588D01*
X173226Y99607D01*
X173204Y99709D01*
X173188Y99811D01*
X173178Y99828D01*
X173174Y99848D01*
X173121Y99937D01*
X173072Y100028D01*
X173058Y100042D01*
X173048Y100059D01*
X172969Y100126D01*
X172894Y100198D01*
X172876Y100206D01*
X172861Y100219D01*
X172765Y100258D01*
X172671Y100301D01*
X172651Y100303D01*
X172633Y100311D01*
X172466Y100329D01*
X171577Y100329D01*
X166369Y105537D01*
X166369Y112903D01*
X166998Y113531D01*
X167009Y113547D01*
X167025Y113560D01*
X167081Y113647D01*
X167141Y113731D01*
X167147Y113750D01*
X167158Y113767D01*
X167183Y113867D01*
X167214Y113966D01*
X167213Y113986D01*
X167218Y114005D01*
X167210Y114108D01*
X167207Y114212D01*
X167200Y114231D01*
X167199Y114250D01*
X167158Y114345D01*
X167123Y114443D01*
X167110Y114458D01*
X167102Y114477D01*
X166998Y114608D01*
X161941Y119664D01*
X161867Y119717D01*
X161798Y119777D01*
X161767Y119789D01*
X161741Y119808D01*
X161654Y119835D01*
X161569Y119869D01*
X161528Y119873D01*
X161506Y119880D01*
X161474Y119879D01*
X161403Y119887D01*
X138858Y119887D01*
X123164Y135581D01*
X123090Y135634D01*
X123021Y135694D01*
X122990Y135706D01*
X122964Y135725D01*
X122877Y135752D01*
X122792Y135786D01*
X122751Y135790D01*
X122729Y135797D01*
X122697Y135796D01*
X122626Y135804D01*
X120306Y135804D01*
X118024Y138086D01*
X118024Y141314D01*
X120306Y143596D01*
X123534Y143596D01*
X125816Y141314D01*
X125816Y138994D01*
X125830Y138904D01*
X125838Y138813D01*
X125850Y138784D01*
X125855Y138752D01*
X125898Y138671D01*
X125934Y138587D01*
X125960Y138555D01*
X125971Y138534D01*
X125994Y138512D01*
X126039Y138456D01*
X140319Y124176D01*
X140393Y124123D01*
X140462Y124063D01*
X140493Y124051D01*
X140519Y124032D01*
X140606Y124005D01*
X140691Y123971D01*
X140732Y123967D01*
X140754Y123960D01*
X140786Y123961D01*
X140857Y123953D01*
X163402Y123953D01*
X164816Y122539D01*
X169872Y117482D01*
X169889Y117471D01*
X169901Y117455D01*
X169988Y117399D01*
X170072Y117339D01*
X170091Y117333D01*
X170108Y117322D01*
X170208Y117297D01*
X170307Y117266D01*
X170327Y117267D01*
X170346Y117262D01*
X170449Y117270D01*
X170553Y117273D01*
X170572Y117280D01*
X170592Y117281D01*
X170687Y117322D01*
X170784Y117357D01*
X170800Y117370D01*
X170818Y117378D01*
X170949Y117482D01*
X171577Y118111D01*
X178943Y118111D01*
X184151Y112903D01*
X184151Y105537D01*
X178943Y100329D01*
X178054Y100329D01*
X178034Y100326D01*
X178015Y100328D01*
X177913Y100306D01*
X177811Y100290D01*
X177794Y100280D01*
X177774Y100276D01*
X177685Y100223D01*
X177594Y100174D01*
X177580Y100160D01*
X177563Y100150D01*
X177496Y100071D01*
X177424Y99996D01*
X177416Y99978D01*
X177403Y99963D01*
X177364Y99867D01*
X177321Y99773D01*
X177319Y99753D01*
X177311Y99735D01*
X177293Y99568D01*
X177293Y57451D01*
X175879Y56037D01*
X149596Y29754D01*
X149528Y29659D01*
X149458Y29565D01*
X149456Y29559D01*
X149452Y29554D01*
X149418Y29443D01*
X149382Y29331D01*
X149382Y29325D01*
X149380Y29319D01*
X149383Y29202D01*
X149384Y29085D01*
X149386Y29078D01*
X149386Y29073D01*
X149393Y29056D01*
X149431Y28924D01*
X150242Y26966D01*
X150242Y23834D01*
X149043Y20939D01*
X146828Y18724D01*
X143933Y17525D01*
X140801Y17525D01*
G37*
%LPD*%
%LPC*%
G36*
X171577Y125729D02*
X171577Y125729D01*
X166369Y130937D01*
X166369Y138303D01*
X166998Y138931D01*
X167009Y138947D01*
X167025Y138960D01*
X167081Y139047D01*
X167141Y139131D01*
X167147Y139150D01*
X167158Y139167D01*
X167183Y139267D01*
X167214Y139366D01*
X167213Y139386D01*
X167218Y139405D01*
X167210Y139508D01*
X167207Y139612D01*
X167200Y139631D01*
X167199Y139650D01*
X167158Y139745D01*
X167123Y139843D01*
X167110Y139858D01*
X167102Y139877D01*
X166998Y140008D01*
X161941Y145064D01*
X161867Y145117D01*
X161798Y145177D01*
X161767Y145189D01*
X161741Y145208D01*
X161654Y145235D01*
X161569Y145269D01*
X161528Y145273D01*
X161506Y145280D01*
X161474Y145279D01*
X161403Y145287D01*
X31208Y145287D01*
X31163Y145280D01*
X31117Y145282D01*
X31042Y145260D01*
X30965Y145248D01*
X30925Y145226D01*
X30881Y145213D01*
X30817Y145169D01*
X30748Y145132D01*
X30716Y145099D01*
X30679Y145073D01*
X30632Y145011D01*
X30579Y144954D01*
X30559Y144912D01*
X30532Y144876D01*
X30508Y144802D01*
X30475Y144731D01*
X30470Y144685D01*
X30456Y144642D01*
X30456Y144564D01*
X30448Y144487D01*
X30458Y144442D01*
X30458Y144396D01*
X30496Y144264D01*
X30500Y144246D01*
X30503Y144242D01*
X30505Y144235D01*
X30735Y143679D01*
X30735Y140547D01*
X29536Y137652D01*
X27321Y135437D01*
X24426Y134238D01*
X21294Y134238D01*
X18399Y135437D01*
X16184Y137652D01*
X14985Y140547D01*
X14985Y143679D01*
X16184Y146574D01*
X18399Y148789D01*
X21294Y149988D01*
X24426Y149988D01*
X26384Y149177D01*
X26499Y149150D01*
X26612Y149121D01*
X26618Y149122D01*
X26624Y149121D01*
X26740Y149131D01*
X26857Y149141D01*
X26863Y149143D01*
X26869Y149144D01*
X26975Y149191D01*
X27083Y149237D01*
X27089Y149242D01*
X27093Y149244D01*
X27107Y149256D01*
X27214Y149342D01*
X27225Y149353D01*
X163402Y149353D01*
X164816Y147939D01*
X169872Y142882D01*
X169889Y142871D01*
X169901Y142855D01*
X169988Y142799D01*
X170072Y142739D01*
X170091Y142733D01*
X170108Y142722D01*
X170208Y142697D01*
X170307Y142666D01*
X170327Y142667D01*
X170346Y142662D01*
X170449Y142670D01*
X170553Y142673D01*
X170572Y142680D01*
X170592Y142681D01*
X170687Y142722D01*
X170784Y142757D01*
X170800Y142770D01*
X170818Y142778D01*
X170949Y142882D01*
X171577Y143511D01*
X178943Y143511D01*
X184151Y138303D01*
X184151Y130937D01*
X178943Y125729D01*
X171577Y125729D01*
G37*
%LPD*%
%LPC*%
G36*
X501306Y168824D02*
X501306Y168824D01*
X499024Y171106D01*
X499024Y174334D01*
X501306Y176616D01*
X503626Y176616D01*
X503716Y176630D01*
X503807Y176638D01*
X503836Y176650D01*
X503868Y176655D01*
X503949Y176698D01*
X504033Y176734D01*
X504065Y176760D01*
X504086Y176771D01*
X504108Y176794D01*
X504164Y176839D01*
X613856Y286531D01*
X613924Y286625D01*
X613994Y286720D01*
X613996Y286726D01*
X614000Y286731D01*
X614034Y286842D01*
X614070Y286954D01*
X614070Y286960D01*
X614072Y286966D01*
X614069Y287083D01*
X614068Y287200D01*
X614066Y287207D01*
X614066Y287212D01*
X614059Y287229D01*
X614021Y287361D01*
X612838Y290218D01*
X612838Y293982D01*
X614278Y297460D01*
X616940Y300122D01*
X620418Y301562D01*
X624182Y301562D01*
X627660Y300122D01*
X630322Y297460D01*
X631762Y293982D01*
X631762Y290218D01*
X630322Y286740D01*
X627660Y284078D01*
X624182Y282638D01*
X620418Y282638D01*
X617561Y283821D01*
X617447Y283848D01*
X617334Y283877D01*
X617327Y283876D01*
X617321Y283877D01*
X617205Y283866D01*
X617088Y283857D01*
X617083Y283855D01*
X617076Y283854D01*
X616969Y283807D01*
X616862Y283761D01*
X616856Y283756D01*
X616852Y283754D01*
X616838Y283742D01*
X616731Y283656D01*
X507039Y173964D01*
X506986Y173890D01*
X506926Y173821D01*
X506914Y173790D01*
X506895Y173764D01*
X506868Y173677D01*
X506834Y173592D01*
X506830Y173551D01*
X506823Y173529D01*
X506824Y173497D01*
X506816Y173426D01*
X506816Y171106D01*
X504534Y168824D01*
X501306Y168824D01*
G37*
%LPD*%
%LPC*%
G36*
X148092Y100329D02*
X148092Y100329D01*
X144824Y101683D01*
X142323Y104184D01*
X141273Y106717D01*
X141212Y106817D01*
X141152Y106917D01*
X141147Y106921D01*
X141144Y106926D01*
X141054Y107001D01*
X140965Y107077D01*
X140959Y107079D01*
X140954Y107083D01*
X140846Y107125D01*
X140737Y107169D01*
X140729Y107170D01*
X140725Y107171D01*
X140706Y107172D01*
X140570Y107187D01*
X100758Y107187D01*
X99344Y108601D01*
X88154Y119791D01*
X88080Y119844D01*
X88011Y119904D01*
X87980Y119916D01*
X87954Y119935D01*
X87867Y119962D01*
X87782Y119996D01*
X87741Y120000D01*
X87719Y120007D01*
X87687Y120006D01*
X87616Y120014D01*
X31050Y120014D01*
X30935Y119995D01*
X30819Y119978D01*
X30814Y119976D01*
X30807Y119975D01*
X30705Y119920D01*
X30600Y119867D01*
X30596Y119862D01*
X30590Y119859D01*
X30510Y119775D01*
X30428Y119691D01*
X30424Y119685D01*
X30421Y119681D01*
X30413Y119664D01*
X30347Y119544D01*
X29536Y117586D01*
X27321Y115371D01*
X24426Y114172D01*
X21294Y114172D01*
X18399Y115371D01*
X16184Y117586D01*
X14985Y120481D01*
X14985Y123613D01*
X16184Y126508D01*
X18399Y128723D01*
X21294Y129922D01*
X24426Y129922D01*
X27321Y128723D01*
X29536Y126508D01*
X30347Y124550D01*
X30408Y124450D01*
X30468Y124350D01*
X30473Y124346D01*
X30477Y124341D01*
X30567Y124266D01*
X30655Y124190D01*
X30661Y124188D01*
X30666Y124184D01*
X30774Y124142D01*
X30883Y124098D01*
X30891Y124097D01*
X30896Y124096D01*
X30914Y124095D01*
X31050Y124080D01*
X89615Y124080D01*
X102219Y111476D01*
X102293Y111423D01*
X102362Y111363D01*
X102393Y111351D01*
X102419Y111332D01*
X102506Y111305D01*
X102591Y111271D01*
X102632Y111267D01*
X102654Y111260D01*
X102686Y111261D01*
X102757Y111253D01*
X140570Y111253D01*
X140685Y111272D01*
X140801Y111289D01*
X140807Y111291D01*
X140813Y111292D01*
X140915Y111347D01*
X141020Y111400D01*
X141025Y111405D01*
X141030Y111408D01*
X141110Y111492D01*
X141193Y111576D01*
X141196Y111582D01*
X141200Y111586D01*
X141207Y111603D01*
X141273Y111723D01*
X142323Y114256D01*
X144824Y116757D01*
X148092Y118111D01*
X151628Y118111D01*
X154896Y116757D01*
X157397Y114256D01*
X158751Y110988D01*
X158751Y107452D01*
X157397Y104184D01*
X154896Y101683D01*
X151628Y100329D01*
X148092Y100329D01*
G37*
%LPD*%
%LPC*%
G36*
X380148Y321732D02*
X380148Y321732D01*
X377866Y324014D01*
X377866Y327242D01*
X379506Y328882D01*
X379559Y328956D01*
X379619Y329025D01*
X379631Y329055D01*
X379650Y329081D01*
X379677Y329168D01*
X379711Y329253D01*
X379715Y329294D01*
X379722Y329316D01*
X379721Y329349D01*
X379729Y329420D01*
X379729Y334344D01*
X381143Y335758D01*
X382808Y337423D01*
X382861Y337497D01*
X382921Y337566D01*
X382933Y337597D01*
X382952Y337623D01*
X382979Y337710D01*
X383013Y337795D01*
X383017Y337836D01*
X383024Y337858D01*
X383023Y337890D01*
X383031Y337961D01*
X383031Y355426D01*
X384445Y356840D01*
X395416Y367811D01*
X395484Y367905D01*
X395554Y368000D01*
X395556Y368006D01*
X395560Y368011D01*
X395594Y368122D01*
X395630Y368234D01*
X395630Y368240D01*
X395632Y368246D01*
X395629Y368363D01*
X395628Y368479D01*
X395626Y368487D01*
X395626Y368492D01*
X395619Y368509D01*
X395581Y368641D01*
X394398Y371498D01*
X394398Y375262D01*
X395838Y378740D01*
X398500Y381402D01*
X401978Y382842D01*
X405742Y382842D01*
X409220Y381402D01*
X411882Y378740D01*
X413322Y375262D01*
X413322Y371498D01*
X411882Y368020D01*
X409220Y365358D01*
X405742Y363918D01*
X401978Y363918D01*
X399121Y365101D01*
X399055Y365117D01*
X399021Y365130D01*
X398978Y365135D01*
X398893Y365157D01*
X398887Y365156D01*
X398881Y365157D01*
X398765Y365146D01*
X398648Y365137D01*
X398643Y365135D01*
X398636Y365134D01*
X398582Y365110D01*
X398576Y365109D01*
X398558Y365100D01*
X398529Y365087D01*
X398422Y365041D01*
X398416Y365036D01*
X398412Y365034D01*
X398398Y365022D01*
X398372Y365001D01*
X398359Y364994D01*
X398345Y364979D01*
X398291Y364936D01*
X387320Y353965D01*
X387267Y353891D01*
X387207Y353822D01*
X387195Y353791D01*
X387176Y353765D01*
X387149Y353678D01*
X387115Y353593D01*
X387111Y353552D01*
X387104Y353530D01*
X387105Y353498D01*
X387097Y353427D01*
X387097Y335962D01*
X385683Y334548D01*
X384018Y332883D01*
X383965Y332809D01*
X383905Y332740D01*
X383893Y332709D01*
X383874Y332683D01*
X383847Y332596D01*
X383813Y332511D01*
X383809Y332470D01*
X383802Y332448D01*
X383803Y332416D01*
X383795Y332345D01*
X383795Y329420D01*
X383809Y329330D01*
X383817Y329239D01*
X383829Y329209D01*
X383834Y329177D01*
X383877Y329097D01*
X383913Y329013D01*
X383939Y328980D01*
X383950Y328960D01*
X383973Y328938D01*
X384018Y328882D01*
X385658Y327242D01*
X385658Y324014D01*
X383376Y321732D01*
X380148Y321732D01*
G37*
%LPD*%
%LPC*%
G36*
X539555Y298957D02*
X539555Y298957D01*
X536847Y300079D01*
X534775Y302151D01*
X533653Y304859D01*
X533653Y319981D01*
X534775Y322689D01*
X536847Y324761D01*
X539555Y325883D01*
X542485Y325883D01*
X545193Y324761D01*
X547265Y322689D01*
X548387Y319981D01*
X548387Y304859D01*
X547265Y302151D01*
X545193Y300079D01*
X542485Y298957D01*
X539555Y298957D01*
G37*
%LPD*%
%LPC*%
G36*
X514155Y298957D02*
X514155Y298957D01*
X511447Y300079D01*
X509375Y302151D01*
X508253Y304859D01*
X508253Y319981D01*
X509375Y322689D01*
X511447Y324761D01*
X514155Y325883D01*
X517085Y325883D01*
X519793Y324761D01*
X521865Y322689D01*
X522987Y319981D01*
X522987Y304859D01*
X521865Y302151D01*
X519793Y300079D01*
X517085Y298957D01*
X514155Y298957D01*
G37*
%LPD*%
%LPC*%
G36*
X132738Y262318D02*
X132738Y262318D01*
X129260Y263758D01*
X126598Y266420D01*
X125158Y269898D01*
X125158Y273662D01*
X126598Y277140D01*
X129260Y279802D01*
X132738Y281242D01*
X136502Y281242D01*
X139980Y279802D01*
X142642Y277140D01*
X144082Y273662D01*
X144082Y269898D01*
X142642Y266420D01*
X139980Y263758D01*
X136502Y262318D01*
X132738Y262318D01*
G37*
%LPD*%
%LPC*%
G36*
X620418Y257238D02*
X620418Y257238D01*
X616940Y258678D01*
X614278Y261340D01*
X612838Y264818D01*
X612838Y268582D01*
X614278Y272060D01*
X616940Y274722D01*
X620418Y276162D01*
X624182Y276162D01*
X627660Y274722D01*
X630322Y272060D01*
X631762Y268582D01*
X631762Y264818D01*
X630322Y261340D01*
X627660Y258678D01*
X624182Y257238D01*
X620418Y257238D01*
G37*
%LPD*%
%LPC*%
G36*
X630578Y363918D02*
X630578Y363918D01*
X627100Y365358D01*
X624438Y368020D01*
X622998Y371498D01*
X622998Y375262D01*
X624438Y378740D01*
X627100Y381402D01*
X630578Y382842D01*
X634342Y382842D01*
X637820Y381402D01*
X640482Y378740D01*
X641922Y375262D01*
X641922Y371498D01*
X640482Y368020D01*
X637820Y365358D01*
X634342Y363918D01*
X630578Y363918D01*
G37*
%LPD*%
%LPC*%
G36*
X528978Y363918D02*
X528978Y363918D01*
X525500Y365358D01*
X522838Y368020D01*
X521398Y371498D01*
X521398Y375262D01*
X522838Y378740D01*
X525500Y381402D01*
X528978Y382842D01*
X532742Y382842D01*
X536220Y381402D01*
X538882Y378740D01*
X540322Y375262D01*
X540322Y371498D01*
X538882Y368020D01*
X536220Y365358D01*
X532742Y363918D01*
X528978Y363918D01*
G37*
%LPD*%
%LPC*%
G36*
X503578Y363918D02*
X503578Y363918D01*
X500100Y365358D01*
X497438Y368020D01*
X495998Y371498D01*
X495998Y375262D01*
X497438Y378740D01*
X500100Y381402D01*
X503578Y382842D01*
X507342Y382842D01*
X510820Y381402D01*
X513482Y378740D01*
X514922Y375262D01*
X514922Y371498D01*
X513482Y368020D01*
X510820Y365358D01*
X507342Y363918D01*
X503578Y363918D01*
G37*
%LPD*%
%LPC*%
G36*
X376578Y363918D02*
X376578Y363918D01*
X373100Y365358D01*
X370438Y368020D01*
X368998Y371498D01*
X368998Y375262D01*
X370438Y378740D01*
X373100Y381402D01*
X376578Y382842D01*
X380342Y382842D01*
X383820Y381402D01*
X386482Y378740D01*
X387922Y375262D01*
X387922Y371498D01*
X386482Y368020D01*
X383820Y365358D01*
X380342Y363918D01*
X376578Y363918D01*
G37*
%LPD*%
%LPC*%
G36*
X122578Y363918D02*
X122578Y363918D01*
X119100Y365358D01*
X116438Y368020D01*
X114998Y371498D01*
X114998Y375262D01*
X116438Y378740D01*
X119100Y381402D01*
X122578Y382842D01*
X126342Y382842D01*
X129820Y381402D01*
X132482Y378740D01*
X133922Y375262D01*
X133922Y371498D01*
X132482Y368020D01*
X129820Y365358D01*
X126342Y363918D01*
X122578Y363918D01*
G37*
%LPD*%
%LPC*%
G36*
X147978Y363918D02*
X147978Y363918D01*
X144500Y365358D01*
X141838Y368020D01*
X140398Y371498D01*
X140398Y375262D01*
X141838Y378740D01*
X144500Y381402D01*
X147978Y382842D01*
X151742Y382842D01*
X155220Y381402D01*
X157882Y378740D01*
X159322Y375262D01*
X159322Y371498D01*
X157882Y368020D01*
X155220Y365358D01*
X151742Y363918D01*
X147978Y363918D01*
G37*
%LPD*%
%LPC*%
G36*
X274978Y363918D02*
X274978Y363918D01*
X271500Y365358D01*
X268838Y368020D01*
X267398Y371498D01*
X267398Y375262D01*
X268838Y378740D01*
X271500Y381402D01*
X274978Y382842D01*
X278742Y382842D01*
X282220Y381402D01*
X284882Y378740D01*
X286322Y375262D01*
X286322Y371498D01*
X284882Y368020D01*
X282220Y365358D01*
X278742Y363918D01*
X274978Y363918D01*
G37*
%LPD*%
%LPC*%
G36*
X132738Y287718D02*
X132738Y287718D01*
X129260Y289158D01*
X126598Y291820D01*
X125158Y295298D01*
X125158Y299062D01*
X126598Y302540D01*
X129260Y305202D01*
X132738Y306642D01*
X136502Y306642D01*
X139980Y305202D01*
X142642Y302540D01*
X144082Y299062D01*
X144082Y295298D01*
X142642Y291820D01*
X139980Y289158D01*
X136502Y287718D01*
X132738Y287718D01*
G37*
%LPD*%
%LPC*%
G36*
X249578Y363918D02*
X249578Y363918D01*
X246100Y365358D01*
X243438Y368020D01*
X241998Y371498D01*
X241998Y375262D01*
X243438Y378740D01*
X246100Y381402D01*
X249578Y382842D01*
X253342Y382842D01*
X256820Y381402D01*
X259482Y378740D01*
X260922Y375262D01*
X260922Y371498D01*
X259482Y368020D01*
X256820Y365358D01*
X253342Y363918D01*
X249578Y363918D01*
G37*
%LPD*%
%LPC*%
G36*
X146177Y125729D02*
X146177Y125729D01*
X140969Y130937D01*
X140969Y138303D01*
X146177Y143511D01*
X153543Y143511D01*
X158751Y138303D01*
X158751Y130937D01*
X153543Y125729D01*
X146177Y125729D01*
G37*
%LPD*%
%LPC*%
G36*
X353399Y17525D02*
X353399Y17525D01*
X350504Y18724D01*
X348289Y20939D01*
X347090Y23834D01*
X347090Y26966D01*
X348289Y29861D01*
X350504Y32076D01*
X353399Y33275D01*
X356531Y33275D01*
X359426Y32076D01*
X361641Y29861D01*
X362840Y26966D01*
X362840Y23834D01*
X361641Y20939D01*
X359426Y18724D01*
X356531Y17525D01*
X353399Y17525D01*
G37*
%LPD*%
%LPC*%
G36*
X425789Y17525D02*
X425789Y17525D01*
X422894Y18724D01*
X420679Y20939D01*
X419480Y23834D01*
X419480Y26966D01*
X420679Y29861D01*
X422894Y32076D01*
X425789Y33275D01*
X428921Y33275D01*
X431816Y32076D01*
X434031Y29861D01*
X435230Y26966D01*
X435230Y23834D01*
X434031Y20939D01*
X431816Y18724D01*
X428921Y17525D01*
X425789Y17525D01*
G37*
%LPD*%
%LPC*%
G36*
X465667Y17525D02*
X465667Y17525D01*
X462772Y18724D01*
X460557Y20939D01*
X459358Y23834D01*
X459358Y26966D01*
X460557Y29861D01*
X462772Y32076D01*
X465667Y33275D01*
X468799Y33275D01*
X471694Y32076D01*
X473909Y29861D01*
X475108Y26966D01*
X475108Y23834D01*
X473909Y20939D01*
X471694Y18724D01*
X468799Y17525D01*
X465667Y17525D01*
G37*
%LPD*%
%LPC*%
G36*
X505799Y17525D02*
X505799Y17525D01*
X502904Y18724D01*
X500689Y20939D01*
X499490Y23834D01*
X499490Y26966D01*
X500689Y29861D01*
X502904Y32076D01*
X505799Y33275D01*
X508931Y33275D01*
X511826Y32076D01*
X514041Y29861D01*
X515240Y26966D01*
X515240Y23834D01*
X514041Y20939D01*
X511826Y18724D01*
X508931Y17525D01*
X505799Y17525D01*
G37*
%LPD*%
%LPC*%
G36*
X120989Y17525D02*
X120989Y17525D01*
X118094Y18724D01*
X115879Y20939D01*
X114680Y23834D01*
X114680Y26966D01*
X115879Y29861D01*
X118094Y32076D01*
X120989Y33275D01*
X124121Y33275D01*
X127016Y32076D01*
X129231Y29861D01*
X130430Y26966D01*
X130430Y23834D01*
X129231Y20939D01*
X127016Y18724D01*
X124121Y17525D01*
X120989Y17525D01*
G37*
%LPD*%
%LPC*%
G36*
X485733Y17525D02*
X485733Y17525D01*
X482838Y18724D01*
X480623Y20939D01*
X479424Y23834D01*
X479424Y26966D01*
X480623Y29861D01*
X482838Y32076D01*
X485733Y33275D01*
X488865Y33275D01*
X491760Y32076D01*
X493975Y29861D01*
X495174Y26966D01*
X495174Y23834D01*
X493975Y20939D01*
X491760Y18724D01*
X488865Y17525D01*
X485733Y17525D01*
G37*
%LPD*%
%LPC*%
G36*
X21294Y154050D02*
X21294Y154050D01*
X18399Y155249D01*
X16184Y157464D01*
X14985Y160359D01*
X14985Y163491D01*
X16184Y166386D01*
X18399Y168601D01*
X21294Y169800D01*
X24426Y169800D01*
X27321Y168601D01*
X29536Y166386D01*
X30735Y163491D01*
X30735Y160359D01*
X29536Y157464D01*
X27321Y155249D01*
X24426Y154050D01*
X21294Y154050D01*
G37*
%LPD*%
%LPC*%
G36*
X719794Y154304D02*
X719794Y154304D01*
X716899Y155503D01*
X714684Y157718D01*
X713485Y160613D01*
X713485Y163745D01*
X714684Y166640D01*
X716899Y168855D01*
X719794Y170054D01*
X722926Y170054D01*
X725821Y168855D01*
X728036Y166640D01*
X729235Y163745D01*
X729235Y160613D01*
X728036Y157718D01*
X725821Y155503D01*
X722926Y154304D01*
X719794Y154304D01*
G37*
%LPD*%
%LPC*%
G36*
X578189Y17525D02*
X578189Y17525D01*
X575294Y18724D01*
X573079Y20939D01*
X571880Y23834D01*
X571880Y26966D01*
X573079Y29861D01*
X575294Y32076D01*
X578189Y33275D01*
X581321Y33275D01*
X584216Y32076D01*
X586431Y29861D01*
X587630Y26966D01*
X587630Y23834D01*
X586431Y20939D01*
X584216Y18724D01*
X581321Y17525D01*
X578189Y17525D01*
G37*
%LPD*%
%LPC*%
G36*
X638133Y17525D02*
X638133Y17525D01*
X635238Y18724D01*
X633023Y20939D01*
X631824Y23834D01*
X631824Y26966D01*
X633023Y29861D01*
X635238Y32076D01*
X638133Y33275D01*
X641265Y33275D01*
X644160Y32076D01*
X646375Y29861D01*
X647574Y26966D01*
X647574Y23834D01*
X646375Y20939D01*
X644160Y18724D01*
X641265Y17525D01*
X638133Y17525D01*
G37*
%LPD*%
%LPC*%
G36*
X200999Y17525D02*
X200999Y17525D01*
X198104Y18724D01*
X195889Y20939D01*
X194690Y23834D01*
X194690Y26966D01*
X195889Y29861D01*
X198104Y32076D01*
X200999Y33275D01*
X204131Y33275D01*
X207026Y32076D01*
X209241Y29861D01*
X210440Y26966D01*
X210440Y23834D01*
X209241Y20939D01*
X207026Y18724D01*
X204131Y17525D01*
X200999Y17525D01*
G37*
%LPD*%
%LPC*%
G36*
X273389Y17525D02*
X273389Y17525D01*
X270494Y18724D01*
X268279Y20939D01*
X267080Y23834D01*
X267080Y26966D01*
X268279Y29861D01*
X270494Y32076D01*
X273389Y33275D01*
X276521Y33275D01*
X279416Y32076D01*
X281631Y29861D01*
X282830Y26966D01*
X282830Y23834D01*
X281631Y20939D01*
X279416Y18724D01*
X276521Y17525D01*
X273389Y17525D01*
G37*
%LPD*%
%LPC*%
G36*
X333333Y17525D02*
X333333Y17525D01*
X330438Y18724D01*
X328223Y20939D01*
X327024Y23834D01*
X327024Y26966D01*
X328223Y29861D01*
X330438Y32076D01*
X333333Y33275D01*
X336465Y33275D01*
X339360Y32076D01*
X341575Y29861D01*
X342774Y26966D01*
X342774Y23834D01*
X341575Y20939D01*
X339360Y18724D01*
X336465Y17525D01*
X333333Y17525D01*
G37*
%LPD*%
%LPC*%
G36*
X719794Y174370D02*
X719794Y174370D01*
X716899Y175569D01*
X714684Y177784D01*
X713485Y180679D01*
X713485Y183811D01*
X714684Y186706D01*
X716899Y188921D01*
X719794Y190120D01*
X722926Y190120D01*
X725821Y188921D01*
X728036Y186706D01*
X729235Y183811D01*
X729235Y180679D01*
X728036Y177784D01*
X725821Y175569D01*
X722926Y174370D01*
X719794Y174370D01*
G37*
%LPD*%
%LPC*%
G36*
X658199Y17525D02*
X658199Y17525D01*
X655304Y18724D01*
X653089Y20939D01*
X651890Y23834D01*
X651890Y26966D01*
X653089Y29861D01*
X655304Y32076D01*
X658199Y33275D01*
X661331Y33275D01*
X664226Y32076D01*
X666441Y29861D01*
X667640Y26966D01*
X667640Y23834D01*
X666441Y20939D01*
X664226Y18724D01*
X661331Y17525D01*
X658199Y17525D01*
G37*
%LPD*%
%LPC*%
G36*
X719794Y94360D02*
X719794Y94360D01*
X716899Y95559D01*
X714684Y97774D01*
X713485Y100669D01*
X713485Y103801D01*
X714684Y106696D01*
X716899Y108911D01*
X719794Y110110D01*
X722926Y110110D01*
X725821Y108911D01*
X728036Y106696D01*
X729235Y103801D01*
X729235Y100669D01*
X728036Y97774D01*
X725821Y95559D01*
X722926Y94360D01*
X719794Y94360D01*
G37*
%LPD*%
%LPC*%
G36*
X21294Y74040D02*
X21294Y74040D01*
X18399Y75239D01*
X16184Y77454D01*
X14985Y80349D01*
X14985Y83481D01*
X16184Y86376D01*
X18399Y88591D01*
X21294Y89790D01*
X24426Y89790D01*
X27321Y88591D01*
X29536Y86376D01*
X30735Y83481D01*
X30735Y80349D01*
X29536Y77454D01*
X27321Y75239D01*
X24426Y74040D01*
X21294Y74040D01*
G37*
%LPD*%
%LPC*%
G36*
X180933Y17525D02*
X180933Y17525D01*
X178038Y18724D01*
X175823Y20939D01*
X174624Y23834D01*
X174624Y26966D01*
X175823Y29861D01*
X178038Y32076D01*
X180933Y33275D01*
X184065Y33275D01*
X186960Y32076D01*
X189175Y29861D01*
X190374Y26966D01*
X190374Y23834D01*
X189175Y20939D01*
X186960Y18724D01*
X184065Y17525D01*
X180933Y17525D01*
G37*
%LPD*%
%LPC*%
G36*
X21294Y94106D02*
X21294Y94106D01*
X18399Y95305D01*
X16184Y97520D01*
X14985Y100415D01*
X14985Y103547D01*
X16184Y106442D01*
X18399Y108657D01*
X21294Y109856D01*
X24426Y109856D01*
X27321Y108657D01*
X29536Y106442D01*
X30735Y103547D01*
X30735Y100415D01*
X29536Y97520D01*
X27321Y95305D01*
X24426Y94106D01*
X21294Y94106D01*
G37*
%LPD*%
%LPC*%
G36*
X598001Y17525D02*
X598001Y17525D01*
X595106Y18724D01*
X592891Y20939D01*
X591692Y23834D01*
X591692Y26966D01*
X592891Y29861D01*
X595106Y32076D01*
X598001Y33275D01*
X601133Y33275D01*
X604028Y32076D01*
X606243Y29861D01*
X607442Y26966D01*
X607442Y23834D01*
X606243Y20939D01*
X604028Y18724D01*
X601133Y17525D01*
X598001Y17525D01*
G37*
%LPD*%
%LPC*%
G36*
X567943Y313943D02*
X567943Y313943D01*
X567943Y327019D01*
X568939Y326821D01*
X570511Y326170D01*
X571926Y325225D01*
X573129Y324022D01*
X574074Y322607D01*
X574725Y321035D01*
X575057Y319367D01*
X575057Y313943D01*
X567943Y313943D01*
G37*
%LPD*%
%LPC*%
G36*
X567943Y310897D02*
X567943Y310897D01*
X575057Y310897D01*
X575057Y305473D01*
X574725Y303805D01*
X574074Y302233D01*
X573129Y300818D01*
X571926Y299615D01*
X570511Y298670D01*
X568939Y298019D01*
X567943Y297821D01*
X567943Y310897D01*
G37*
%LPD*%
%LPC*%
G36*
X557783Y313943D02*
X557783Y313943D01*
X557783Y319367D01*
X558115Y321035D01*
X558766Y322607D01*
X559711Y324022D01*
X560914Y325225D01*
X562329Y326170D01*
X563901Y326821D01*
X564897Y327019D01*
X564897Y313943D01*
X557783Y313943D01*
G37*
%LPD*%
%LPC*%
G36*
X563901Y298019D02*
X563901Y298019D01*
X562329Y298670D01*
X560914Y299615D01*
X559711Y300818D01*
X558766Y302233D01*
X558115Y303805D01*
X557783Y305473D01*
X557783Y310897D01*
X564897Y310897D01*
X564897Y297821D01*
X563901Y298019D01*
G37*
%LPD*%
%LPC*%
G36*
X136143Y324103D02*
X136143Y324103D01*
X136143Y333205D01*
X137133Y333048D01*
X138740Y332526D01*
X140245Y331759D01*
X141612Y330766D01*
X142806Y329572D01*
X143799Y328205D01*
X144566Y326700D01*
X145088Y325093D01*
X145245Y324103D01*
X136143Y324103D01*
G37*
%LPD*%
%LPC*%
G36*
X354583Y374903D02*
X354583Y374903D01*
X354583Y384005D01*
X355573Y383848D01*
X357180Y383326D01*
X358685Y382559D01*
X360052Y381566D01*
X361246Y380372D01*
X362239Y379005D01*
X363006Y377500D01*
X363528Y375893D01*
X363685Y374903D01*
X354583Y374903D01*
G37*
%LPD*%
%LPC*%
G36*
X100583Y374903D02*
X100583Y374903D01*
X100583Y384005D01*
X101573Y383848D01*
X103180Y383326D01*
X104685Y382559D01*
X106052Y381566D01*
X107246Y380372D01*
X108239Y379005D01*
X109006Y377500D01*
X109528Y375893D01*
X109685Y374903D01*
X100583Y374903D01*
G37*
%LPD*%
%LPC*%
G36*
X608583Y374903D02*
X608583Y374903D01*
X608583Y384005D01*
X609573Y383848D01*
X611180Y383326D01*
X612685Y382559D01*
X614052Y381566D01*
X615246Y380372D01*
X616239Y379005D01*
X617006Y377500D01*
X617528Y375893D01*
X617685Y374903D01*
X608583Y374903D01*
G37*
%LPD*%
%LPC*%
G36*
X227583Y374903D02*
X227583Y374903D01*
X227583Y384005D01*
X228573Y383848D01*
X230180Y383326D01*
X231685Y382559D01*
X233052Y381566D01*
X234246Y380372D01*
X235239Y379005D01*
X236006Y377500D01*
X236528Y375893D01*
X236685Y374903D01*
X227583Y374903D01*
G37*
%LPD*%
%LPC*%
G36*
X623823Y242823D02*
X623823Y242823D01*
X623823Y251925D01*
X624813Y251768D01*
X626420Y251246D01*
X627925Y250479D01*
X629292Y249486D01*
X630486Y248292D01*
X631479Y246925D01*
X632246Y245420D01*
X632768Y243813D01*
X632925Y242823D01*
X623823Y242823D01*
G37*
%LPD*%
%LPC*%
G36*
X481583Y374903D02*
X481583Y374903D01*
X481583Y384005D01*
X482573Y383848D01*
X484180Y383326D01*
X485685Y382559D01*
X487052Y381566D01*
X488246Y380372D01*
X489239Y379005D01*
X490006Y377500D01*
X490528Y375893D01*
X490685Y374903D01*
X481583Y374903D01*
G37*
%LPD*%
%LPC*%
G36*
X596435Y374903D02*
X596435Y374903D01*
X596592Y375893D01*
X597114Y377500D01*
X597881Y379005D01*
X598874Y380372D01*
X600068Y381566D01*
X601435Y382559D01*
X602940Y383326D01*
X604547Y383848D01*
X605537Y384005D01*
X605537Y374903D01*
X596435Y374903D01*
G37*
%LPD*%
%LPC*%
G36*
X611675Y242823D02*
X611675Y242823D01*
X611832Y243813D01*
X612354Y245420D01*
X613121Y246925D01*
X614114Y248292D01*
X615308Y249486D01*
X616675Y250479D01*
X618180Y251246D01*
X619787Y251768D01*
X620777Y251925D01*
X620777Y242823D01*
X611675Y242823D01*
G37*
%LPD*%
%LPC*%
G36*
X469435Y374903D02*
X469435Y374903D01*
X469592Y375893D01*
X470114Y377500D01*
X470881Y379005D01*
X471874Y380372D01*
X473068Y381566D01*
X474435Y382559D01*
X475940Y383326D01*
X477547Y383848D01*
X478537Y384005D01*
X478537Y374903D01*
X469435Y374903D01*
G37*
%LPD*%
%LPC*%
G36*
X481583Y371857D02*
X481583Y371857D01*
X490685Y371857D01*
X490528Y370867D01*
X490006Y369260D01*
X489239Y367755D01*
X488246Y366388D01*
X487052Y365194D01*
X485685Y364201D01*
X484180Y363434D01*
X482573Y362912D01*
X481583Y362755D01*
X481583Y371857D01*
G37*
%LPD*%
%LPC*%
G36*
X623823Y239777D02*
X623823Y239777D01*
X632925Y239777D01*
X632768Y238787D01*
X632246Y237180D01*
X631479Y235675D01*
X630486Y234308D01*
X629292Y233114D01*
X627925Y232121D01*
X626420Y231354D01*
X624813Y230832D01*
X623823Y230675D01*
X623823Y239777D01*
G37*
%LPD*%
%LPC*%
G36*
X215435Y374903D02*
X215435Y374903D01*
X215592Y375893D01*
X216114Y377500D01*
X216881Y379005D01*
X217874Y380372D01*
X219068Y381566D01*
X220435Y382559D01*
X221940Y383326D01*
X223547Y383848D01*
X224537Y384005D01*
X224537Y374903D01*
X215435Y374903D01*
G37*
%LPD*%
%LPC*%
G36*
X88435Y374903D02*
X88435Y374903D01*
X88592Y375893D01*
X89114Y377500D01*
X89881Y379005D01*
X90874Y380372D01*
X92068Y381566D01*
X93435Y382559D01*
X94940Y383326D01*
X96547Y383848D01*
X97537Y384005D01*
X97537Y374903D01*
X88435Y374903D01*
G37*
%LPD*%
%LPC*%
G36*
X354583Y371857D02*
X354583Y371857D01*
X363685Y371857D01*
X363528Y370867D01*
X363006Y369260D01*
X362239Y367755D01*
X361246Y366388D01*
X360052Y365194D01*
X358685Y364201D01*
X357180Y363434D01*
X355573Y362912D01*
X354583Y362755D01*
X354583Y371857D01*
G37*
%LPD*%
%LPC*%
G36*
X608583Y371857D02*
X608583Y371857D01*
X617685Y371857D01*
X617528Y370867D01*
X617006Y369260D01*
X616239Y367755D01*
X615246Y366388D01*
X614052Y365194D01*
X612685Y364201D01*
X611180Y363434D01*
X609573Y362912D01*
X608583Y362755D01*
X608583Y371857D01*
G37*
%LPD*%
%LPC*%
G36*
X227583Y371857D02*
X227583Y371857D01*
X236685Y371857D01*
X236528Y370867D01*
X236006Y369260D01*
X235239Y367755D01*
X234246Y366388D01*
X233052Y365194D01*
X231685Y364201D01*
X230180Y363434D01*
X228573Y362912D01*
X227583Y362755D01*
X227583Y371857D01*
G37*
%LPD*%
%LPC*%
G36*
X342435Y374903D02*
X342435Y374903D01*
X342592Y375893D01*
X343114Y377500D01*
X343881Y379005D01*
X344874Y380372D01*
X346068Y381566D01*
X347435Y382559D01*
X348940Y383326D01*
X350547Y383848D01*
X351537Y384005D01*
X351537Y374903D01*
X342435Y374903D01*
G37*
%LPD*%
%LPC*%
G36*
X123995Y324103D02*
X123995Y324103D01*
X124152Y325093D01*
X124674Y326700D01*
X125441Y328205D01*
X126434Y329572D01*
X127628Y330766D01*
X128995Y331759D01*
X130500Y332526D01*
X132107Y333048D01*
X133097Y333205D01*
X133097Y324103D01*
X123995Y324103D01*
G37*
%LPD*%
%LPC*%
G36*
X136143Y321057D02*
X136143Y321057D01*
X145245Y321057D01*
X145088Y320067D01*
X144566Y318460D01*
X143799Y316955D01*
X142806Y315588D01*
X141612Y314394D01*
X140245Y313401D01*
X138740Y312634D01*
X137133Y312112D01*
X136143Y311955D01*
X136143Y321057D01*
G37*
%LPD*%
%LPC*%
G36*
X100583Y371857D02*
X100583Y371857D01*
X109685Y371857D01*
X109528Y370867D01*
X109006Y369260D01*
X108239Y367755D01*
X107246Y366388D01*
X106052Y365194D01*
X104685Y364201D01*
X103180Y363434D01*
X101573Y362912D01*
X100583Y362755D01*
X100583Y371857D01*
G37*
%LPD*%
%LPC*%
G36*
X604547Y362912D02*
X604547Y362912D01*
X602940Y363434D01*
X601435Y364201D01*
X600068Y365194D01*
X598874Y366388D01*
X597881Y367755D01*
X597114Y369260D01*
X596592Y370867D01*
X596435Y371857D01*
X605537Y371857D01*
X605537Y362755D01*
X604547Y362912D01*
G37*
%LPD*%
%LPC*%
G36*
X96547Y362912D02*
X96547Y362912D01*
X94940Y363434D01*
X93435Y364201D01*
X92068Y365194D01*
X90874Y366388D01*
X89881Y367755D01*
X89114Y369260D01*
X88592Y370867D01*
X88435Y371857D01*
X97537Y371857D01*
X97537Y362755D01*
X96547Y362912D01*
G37*
%LPD*%
%LPC*%
G36*
X619787Y230832D02*
X619787Y230832D01*
X618180Y231354D01*
X616675Y232121D01*
X615308Y233114D01*
X614114Y234308D01*
X613121Y235675D01*
X612354Y237180D01*
X611832Y238787D01*
X611675Y239777D01*
X620777Y239777D01*
X620777Y230675D01*
X619787Y230832D01*
G37*
%LPD*%
%LPC*%
G36*
X132107Y312112D02*
X132107Y312112D01*
X130500Y312634D01*
X128995Y313401D01*
X127628Y314394D01*
X126434Y315588D01*
X125441Y316955D01*
X124674Y318460D01*
X124152Y320067D01*
X123995Y321057D01*
X133097Y321057D01*
X133097Y311955D01*
X132107Y312112D01*
G37*
%LPD*%
%LPC*%
G36*
X223547Y362912D02*
X223547Y362912D01*
X221940Y363434D01*
X220435Y364201D01*
X219068Y365194D01*
X217874Y366388D01*
X216881Y367755D01*
X216114Y369260D01*
X215592Y370867D01*
X215435Y371857D01*
X224537Y371857D01*
X224537Y362755D01*
X223547Y362912D01*
G37*
%LPD*%
%LPC*%
G36*
X350547Y362912D02*
X350547Y362912D01*
X348940Y363434D01*
X347435Y364201D01*
X346068Y365194D01*
X344874Y366388D01*
X343881Y367755D01*
X343114Y369260D01*
X342592Y370867D01*
X342435Y371857D01*
X351537Y371857D01*
X351537Y362755D01*
X350547Y362912D01*
G37*
%LPD*%
%LPC*%
G36*
X477547Y362912D02*
X477547Y362912D01*
X475940Y363434D01*
X474435Y364201D01*
X473068Y365194D01*
X471874Y366388D01*
X470881Y367755D01*
X470114Y369260D01*
X469592Y370867D01*
X469435Y371857D01*
X478537Y371857D01*
X478537Y362755D01*
X477547Y362912D01*
G37*
%LPD*%
%LPC*%
G36*
X202183Y136143D02*
X202183Y136143D01*
X202183Y144781D01*
X204869Y144781D01*
X210821Y138829D01*
X210821Y136143D01*
X202183Y136143D01*
G37*
%LPD*%
%LPC*%
G36*
X190499Y136143D02*
X190499Y136143D01*
X190499Y138829D01*
X196451Y144781D01*
X199137Y144781D01*
X199137Y136143D01*
X190499Y136143D01*
G37*
%LPD*%
%LPC*%
G36*
X202183Y124459D02*
X202183Y124459D01*
X202183Y133097D01*
X210821Y133097D01*
X210821Y130411D01*
X204869Y124459D01*
X202183Y124459D01*
G37*
%LPD*%
%LPC*%
G36*
X196451Y124459D02*
X196451Y124459D01*
X190499Y130411D01*
X190499Y133097D01*
X199137Y133097D01*
X199137Y124459D01*
X196451Y124459D01*
G37*
%LPD*%
%LPC*%
G36*
X408812Y26923D02*
X408812Y26923D01*
X408812Y34421D01*
X409956Y34193D01*
X411621Y33504D01*
X413119Y32503D01*
X414392Y31230D01*
X415393Y29732D01*
X416082Y28067D01*
X416310Y26923D01*
X408812Y26923D01*
G37*
%LPD*%
%LPC*%
G36*
X722883Y83692D02*
X722883Y83692D01*
X722883Y91190D01*
X724027Y90962D01*
X725692Y90273D01*
X727190Y89272D01*
X728463Y87999D01*
X729464Y86501D01*
X730153Y84836D01*
X730381Y83692D01*
X722883Y83692D01*
G37*
%LPD*%
%LPC*%
G36*
X24383Y183514D02*
X24383Y183514D01*
X24383Y191012D01*
X25527Y190784D01*
X27192Y190095D01*
X28690Y189094D01*
X29963Y187821D01*
X30964Y186323D01*
X31653Y184658D01*
X31881Y183514D01*
X24383Y183514D01*
G37*
%LPD*%
%LPC*%
G36*
X561212Y26923D02*
X561212Y26923D01*
X561212Y34421D01*
X562356Y34193D01*
X564021Y33504D01*
X565519Y32503D01*
X566792Y31230D01*
X567793Y29732D01*
X568482Y28067D01*
X568710Y26923D01*
X561212Y26923D01*
G37*
%LPD*%
%LPC*%
G36*
X104012Y26923D02*
X104012Y26923D01*
X104012Y34421D01*
X105156Y34193D01*
X106821Y33504D01*
X108319Y32503D01*
X109592Y31230D01*
X110593Y29732D01*
X111282Y28067D01*
X111510Y26923D01*
X104012Y26923D01*
G37*
%LPD*%
%LPC*%
G36*
X256412Y26923D02*
X256412Y26923D01*
X256412Y34421D01*
X257556Y34193D01*
X259221Y33504D01*
X260719Y32503D01*
X261992Y31230D01*
X262993Y29732D01*
X263682Y28067D01*
X263910Y26923D01*
X256412Y26923D01*
G37*
%LPD*%
%LPC*%
G36*
X13839Y183514D02*
X13839Y183514D01*
X14067Y184658D01*
X14756Y186323D01*
X15757Y187821D01*
X17030Y189094D01*
X18528Y190095D01*
X20193Y190784D01*
X21337Y191012D01*
X21337Y183514D01*
X13839Y183514D01*
G37*
%LPD*%
%LPC*%
G36*
X722883Y80646D02*
X722883Y80646D01*
X730381Y80646D01*
X730153Y79502D01*
X729464Y77837D01*
X728463Y76339D01*
X727190Y75066D01*
X725692Y74065D01*
X724027Y73376D01*
X722883Y73148D01*
X722883Y80646D01*
G37*
%LPD*%
%LPC*%
G36*
X550668Y26923D02*
X550668Y26923D01*
X550896Y28067D01*
X551585Y29732D01*
X552586Y31230D01*
X553859Y32503D01*
X555357Y33504D01*
X557022Y34193D01*
X558166Y34421D01*
X558166Y26923D01*
X550668Y26923D01*
G37*
%LPD*%
%LPC*%
G36*
X24383Y180468D02*
X24383Y180468D01*
X31881Y180468D01*
X31653Y179324D01*
X30964Y177659D01*
X29963Y176161D01*
X28690Y174888D01*
X27192Y173887D01*
X25527Y173198D01*
X24383Y172970D01*
X24383Y180468D01*
G37*
%LPD*%
%LPC*%
G36*
X245868Y26923D02*
X245868Y26923D01*
X246096Y28067D01*
X246785Y29732D01*
X247786Y31230D01*
X249059Y32503D01*
X250557Y33504D01*
X252222Y34193D01*
X253366Y34421D01*
X253366Y26923D01*
X245868Y26923D01*
G37*
%LPD*%
%LPC*%
G36*
X398268Y26923D02*
X398268Y26923D01*
X398496Y28067D01*
X399185Y29732D01*
X400186Y31230D01*
X401459Y32503D01*
X402957Y33504D01*
X404622Y34193D01*
X405766Y34421D01*
X405766Y26923D01*
X398268Y26923D01*
G37*
%LPD*%
%LPC*%
G36*
X93468Y26923D02*
X93468Y26923D01*
X93696Y28067D01*
X94385Y29732D01*
X95386Y31230D01*
X96659Y32503D01*
X98157Y33504D01*
X99822Y34193D01*
X100966Y34421D01*
X100966Y26923D01*
X93468Y26923D01*
G37*
%LPD*%
%LPC*%
G36*
X712339Y83692D02*
X712339Y83692D01*
X712567Y84836D01*
X713256Y86501D01*
X714257Y87999D01*
X715530Y89272D01*
X717028Y90273D01*
X718693Y90962D01*
X719837Y91190D01*
X719837Y83692D01*
X712339Y83692D01*
G37*
%LPD*%
%LPC*%
G36*
X408812Y23877D02*
X408812Y23877D01*
X416310Y23877D01*
X416082Y22733D01*
X415393Y21068D01*
X414392Y19570D01*
X413119Y18297D01*
X411621Y17296D01*
X409956Y16607D01*
X408812Y16379D01*
X408812Y23877D01*
G37*
%LPD*%
%LPC*%
G36*
X561212Y23877D02*
X561212Y23877D01*
X568710Y23877D01*
X568482Y22733D01*
X567793Y21068D01*
X566792Y19570D01*
X565519Y18297D01*
X564021Y17296D01*
X562356Y16607D01*
X561212Y16379D01*
X561212Y23877D01*
G37*
%LPD*%
%LPC*%
G36*
X256412Y23877D02*
X256412Y23877D01*
X263910Y23877D01*
X263682Y22733D01*
X262993Y21068D01*
X261992Y19570D01*
X260719Y18297D01*
X259221Y17296D01*
X257556Y16607D01*
X256412Y16379D01*
X256412Y23877D01*
G37*
%LPD*%
%LPC*%
G36*
X104012Y23877D02*
X104012Y23877D01*
X111510Y23877D01*
X111282Y22733D01*
X110593Y21068D01*
X109592Y19570D01*
X108319Y18297D01*
X106821Y17296D01*
X105156Y16607D01*
X104012Y16379D01*
X104012Y23877D01*
G37*
%LPD*%
%LPC*%
G36*
X20193Y173198D02*
X20193Y173198D01*
X18528Y173887D01*
X17030Y174888D01*
X15757Y176161D01*
X14756Y177659D01*
X14067Y179324D01*
X13839Y180468D01*
X21337Y180468D01*
X21337Y172970D01*
X20193Y173198D01*
G37*
%LPD*%
%LPC*%
G36*
X718693Y73376D02*
X718693Y73376D01*
X717028Y74065D01*
X715530Y75066D01*
X714257Y76339D01*
X713256Y77837D01*
X712567Y79502D01*
X712339Y80646D01*
X719837Y80646D01*
X719837Y73148D01*
X718693Y73376D01*
G37*
%LPD*%
%LPC*%
G36*
X99822Y16607D02*
X99822Y16607D01*
X98157Y17296D01*
X96659Y18297D01*
X95386Y19570D01*
X94385Y21068D01*
X93696Y22733D01*
X93468Y23877D01*
X100966Y23877D01*
X100966Y16379D01*
X99822Y16607D01*
G37*
%LPD*%
%LPC*%
G36*
X557022Y16607D02*
X557022Y16607D01*
X555357Y17296D01*
X553859Y18297D01*
X552586Y19570D01*
X551585Y21068D01*
X550896Y22733D01*
X550668Y23877D01*
X558166Y23877D01*
X558166Y16379D01*
X557022Y16607D01*
G37*
%LPD*%
%LPC*%
G36*
X404622Y16607D02*
X404622Y16607D01*
X402957Y17296D01*
X401459Y18297D01*
X400186Y19570D01*
X399185Y21068D01*
X398496Y22733D01*
X398268Y23877D01*
X405766Y23877D01*
X405766Y16379D01*
X404622Y16607D01*
G37*
%LPD*%
%LPC*%
G36*
X252222Y16607D02*
X252222Y16607D01*
X250557Y17296D01*
X249059Y18297D01*
X247786Y19570D01*
X246785Y21068D01*
X246096Y22733D01*
X245868Y23877D01*
X253366Y23877D01*
X253366Y16379D01*
X252222Y16607D01*
G37*
%LPD*%
%LPC*%
G36*
X22859Y181990D02*
X22859Y181990D01*
X22859Y181992D01*
X22861Y181992D01*
X22861Y181990D01*
X22859Y181990D01*
G37*
%LPD*%
%LPC*%
G36*
X200659Y134619D02*
X200659Y134619D01*
X200659Y134621D01*
X200661Y134621D01*
X200661Y134619D01*
X200659Y134619D01*
G37*
%LPD*%
%LPC*%
G36*
X226059Y373379D02*
X226059Y373379D01*
X226059Y373381D01*
X226061Y373381D01*
X226061Y373379D01*
X226059Y373379D01*
G37*
%LPD*%
%LPC*%
G36*
X559688Y25399D02*
X559688Y25399D01*
X559688Y25401D01*
X559690Y25401D01*
X559690Y25399D01*
X559688Y25399D01*
G37*
%LPD*%
%LPC*%
G36*
X353059Y373379D02*
X353059Y373379D01*
X353059Y373381D01*
X353061Y373381D01*
X353061Y373379D01*
X353059Y373379D01*
G37*
%LPD*%
%LPC*%
G36*
X566419Y312419D02*
X566419Y312419D01*
X566419Y312421D01*
X566421Y312421D01*
X566421Y312419D01*
X566419Y312419D01*
G37*
%LPD*%
%LPC*%
G36*
X102488Y25399D02*
X102488Y25399D01*
X102488Y25401D01*
X102490Y25401D01*
X102490Y25399D01*
X102488Y25399D01*
G37*
%LPD*%
%LPC*%
G36*
X607059Y373379D02*
X607059Y373379D01*
X607059Y373381D01*
X607061Y373381D01*
X607061Y373379D01*
X607059Y373379D01*
G37*
%LPD*%
%LPC*%
G36*
X99059Y373379D02*
X99059Y373379D01*
X99059Y373381D01*
X99061Y373381D01*
X99061Y373379D01*
X99059Y373379D01*
G37*
%LPD*%
%LPC*%
G36*
X407288Y25399D02*
X407288Y25399D01*
X407288Y25401D01*
X407290Y25401D01*
X407290Y25399D01*
X407288Y25399D01*
G37*
%LPD*%
%LPC*%
G36*
X721359Y82168D02*
X721359Y82168D01*
X721359Y82170D01*
X721361Y82170D01*
X721361Y82168D01*
X721359Y82168D01*
G37*
%LPD*%
%LPC*%
G36*
X622299Y241299D02*
X622299Y241299D01*
X622299Y241301D01*
X622301Y241301D01*
X622301Y241299D01*
X622299Y241299D01*
G37*
%LPD*%
%LPC*%
G36*
X480059Y373379D02*
X480059Y373379D01*
X480059Y373381D01*
X480061Y373381D01*
X480061Y373379D01*
X480059Y373379D01*
G37*
%LPD*%
%LPC*%
G36*
X134619Y322579D02*
X134619Y322579D01*
X134619Y322581D01*
X134621Y322581D01*
X134621Y322579D01*
X134619Y322579D01*
G37*
%LPD*%
%LPC*%
G36*
X254888Y25399D02*
X254888Y25399D01*
X254888Y25401D01*
X254890Y25401D01*
X254890Y25399D01*
X254888Y25399D01*
G37*
%LPD*%
D10*
X622300Y266700D03*
X622300Y292100D03*
X622300Y317500D03*
X622300Y241300D03*
D11*
X149860Y109220D03*
D12*
X175260Y109220D03*
X200660Y109220D03*
X149860Y134620D03*
X175260Y134620D03*
X200660Y134620D03*
D10*
X99060Y373380D03*
X124460Y373380D03*
X149860Y373380D03*
X226060Y373380D03*
X251460Y373380D03*
X276860Y373380D03*
X353060Y373380D03*
X378460Y373380D03*
X403860Y373380D03*
X480060Y373380D03*
X505460Y373380D03*
X530860Y373380D03*
X607060Y373380D03*
X632460Y373380D03*
X657860Y373380D03*
D13*
X102489Y25400D03*
X122555Y25400D03*
X142367Y25400D03*
X162433Y25400D03*
X182499Y25400D03*
X202565Y25400D03*
X254889Y25400D03*
X274955Y25400D03*
X294767Y25400D03*
X314833Y25400D03*
X334899Y25400D03*
X354965Y25400D03*
X407289Y25400D03*
X427355Y25400D03*
X447167Y25400D03*
X467233Y25400D03*
X487299Y25400D03*
X507365Y25400D03*
X559689Y25400D03*
X579755Y25400D03*
X599567Y25400D03*
X619633Y25400D03*
X639699Y25400D03*
X659765Y25400D03*
X721360Y82169D03*
X721360Y102235D03*
X721360Y122047D03*
X721360Y142113D03*
X721360Y162179D03*
X721360Y182245D03*
X22860Y181991D03*
X22860Y161925D03*
X22860Y142113D03*
X22860Y122047D03*
X22860Y101981D03*
X22860Y81915D03*
D14*
X439420Y306324D02*
X439420Y318516D01*
X464820Y318516D02*
X464820Y306324D01*
X490220Y306324D02*
X490220Y318516D01*
X515620Y318516D02*
X515620Y306324D01*
X541020Y306324D02*
X541020Y318516D01*
X566420Y318516D02*
X566420Y306324D01*
D10*
X134620Y322580D03*
X134620Y297180D03*
X134620Y271780D03*
D15*
X306324Y124460D03*
X287020Y195580D03*
X304292Y78232D03*
X324556Y186136D03*
X350520Y335280D03*
D16*
X324556Y195016D02*
X324556Y186136D01*
X350520Y220980D02*
X350520Y335280D01*
X350520Y220980D02*
X324556Y195016D01*
D15*
X485140Y180340D03*
D16*
X622300Y317500D01*
D15*
X325120Y175260D03*
X340360Y335280D03*
D16*
X314960Y185420D02*
X325120Y175260D01*
X340360Y223520D02*
X340360Y335280D01*
X314960Y198120D02*
X314960Y185420D01*
X314960Y198120D02*
X340360Y223520D01*
D15*
X502920Y172720D03*
D16*
X622300Y292100D01*
X215900Y124460D02*
X200660Y109220D01*
X215900Y124460D02*
X215900Y218440D01*
X238760Y241300D01*
D15*
X317500Y241300D03*
D16*
X238760Y241300D01*
X28067Y147320D02*
X22860Y142113D01*
X162560Y147320D02*
X175260Y134620D01*
X162560Y147320D02*
X28067Y147320D01*
D15*
X121920Y139700D03*
D16*
X139700Y121920D01*
X162560Y121920D02*
X175260Y109220D01*
X162560Y121920D02*
X139700Y121920D01*
X175260Y58293D02*
X142367Y25400D01*
X175260Y58293D02*
X175260Y109220D01*
X88773Y122047D02*
X22860Y122047D01*
X88773Y122047D02*
X101600Y109220D01*
X149860Y109220D01*
D15*
X381762Y325628D03*
D16*
X381762Y333502D02*
X385064Y336804D01*
X381762Y333502D02*
X381762Y325628D01*
X385064Y354584D02*
X403860Y373380D01*
X385064Y354584D02*
X385064Y336804D01*
D15*
X429260Y332740D03*
D16*
X447040Y350520D01*
X647700Y350520D01*
X657860Y360680D01*
X657860Y373380D01*
X221996Y200208D02*
X221996Y88900D01*
X221996Y200208D02*
X233680Y211892D01*
D15*
X233680Y211892D03*
D16*
X221996Y84963D02*
X162433Y25400D01*
X221996Y84963D02*
X221996Y88900D01*
X225044Y194168D02*
X233680Y202804D01*
D15*
X233680Y202804D03*
D16*
X225044Y194168D02*
X225044Y99060D01*
X225044Y95123D02*
X294767Y25400D01*
X225044Y95123D02*
X225044Y99060D01*
D15*
X233934Y193716D03*
D16*
X227838Y187620D01*
X227838Y112395D02*
X314833Y25400D01*
X227838Y112395D02*
X227838Y187620D01*
D15*
X233934Y184628D03*
D16*
X431927Y40640D02*
X447167Y25400D01*
X431927Y40640D02*
X312420Y40640D01*
X230632Y122428D01*
X230632Y181326D02*
X233934Y184628D01*
X230632Y181326D02*
X230632Y122428D01*
X307340Y177800D02*
X307340Y203200D01*
D15*
X307340Y203200D03*
D16*
X307340Y177800D02*
X431800Y53340D01*
X591693Y53340D02*
X619633Y25400D01*
X591693Y53340D02*
X431800Y53340D01*
D15*
X360680Y220980D03*
D16*
X368300Y213360D01*
X368300Y149860D02*
X376047Y142113D01*
X721360Y142113D01*
X368300Y149860D02*
X368300Y213360D01*
D15*
X375920Y203200D03*
D16*
X485140Y312420D02*
X490220Y312420D01*
X485140Y312420D02*
X375920Y203200D01*
D15*
X374368Y213360D03*
D16*
X464820Y303812D01*
X464820Y312420D01*
X439420Y312420D02*
X439420Y287020D01*
X424180Y271780D01*
D15*
X424180Y271780D03*
X360680Y210820D03*
D16*
X360680Y147320D01*
X385953Y122047D01*
X721360Y122047D01*
M02*
