G04 EAGLE Gerber RS-274X export*
G75*
%MOMM*%
%FSLAX34Y34*%
%LPD*%
%INSilkscreen Bottom*%
%IPPOS*%
%AMOC8*
5,1,8,0,0,1.08239X$1,22.5*%
G01*
%ADD10C,0.076200*%
%ADD11C,0.127000*%
%ADD12C,0.152400*%
%ADD13C,0.508000*%
%ADD14C,0.101600*%


D10*
X599618Y314889D02*
X599620Y314800D01*
X599626Y314712D01*
X599635Y314624D01*
X599648Y314536D01*
X599665Y314449D01*
X599685Y314363D01*
X599710Y314278D01*
X599737Y314193D01*
X599769Y314110D01*
X599803Y314029D01*
X599842Y313949D01*
X599883Y313871D01*
X599928Y313794D01*
X599976Y313720D01*
X600027Y313647D01*
X600081Y313577D01*
X600139Y313510D01*
X600199Y313444D01*
X600261Y313382D01*
X600327Y313322D01*
X600394Y313264D01*
X600464Y313210D01*
X600537Y313159D01*
X600611Y313111D01*
X600688Y313066D01*
X600766Y313025D01*
X600846Y312986D01*
X600927Y312952D01*
X601010Y312920D01*
X601095Y312893D01*
X601180Y312868D01*
X601266Y312848D01*
X601353Y312831D01*
X601441Y312818D01*
X601529Y312809D01*
X601617Y312803D01*
X601706Y312801D01*
X601835Y312803D01*
X601964Y312809D01*
X602093Y312818D01*
X602221Y312831D01*
X602349Y312848D01*
X602476Y312869D01*
X602603Y312893D01*
X602729Y312921D01*
X602854Y312953D01*
X602978Y312988D01*
X603101Y313027D01*
X603223Y313070D01*
X603343Y313116D01*
X603462Y313166D01*
X603580Y313219D01*
X603696Y313275D01*
X603810Y313335D01*
X603923Y313398D01*
X604033Y313465D01*
X604142Y313534D01*
X604248Y313607D01*
X604353Y313683D01*
X604455Y313762D01*
X604555Y313844D01*
X604652Y313928D01*
X604747Y314016D01*
X604839Y314106D01*
X604578Y320111D02*
X604576Y320200D01*
X604570Y320288D01*
X604561Y320376D01*
X604548Y320464D01*
X604531Y320551D01*
X604511Y320637D01*
X604486Y320722D01*
X604459Y320807D01*
X604427Y320890D01*
X604393Y320971D01*
X604354Y321051D01*
X604313Y321129D01*
X604268Y321206D01*
X604220Y321280D01*
X604169Y321353D01*
X604115Y321423D01*
X604057Y321490D01*
X603997Y321556D01*
X603935Y321618D01*
X603869Y321678D01*
X603802Y321736D01*
X603732Y321790D01*
X603659Y321841D01*
X603585Y321889D01*
X603508Y321934D01*
X603430Y321975D01*
X603350Y322014D01*
X603269Y322048D01*
X603186Y322080D01*
X603101Y322107D01*
X603016Y322132D01*
X602930Y322152D01*
X602843Y322169D01*
X602755Y322182D01*
X602667Y322191D01*
X602579Y322197D01*
X602490Y322199D01*
X602370Y322197D01*
X602250Y322192D01*
X602131Y322182D01*
X602011Y322170D01*
X601892Y322153D01*
X601774Y322133D01*
X601656Y322109D01*
X601540Y322082D01*
X601424Y322051D01*
X601309Y322017D01*
X601195Y321979D01*
X601082Y321937D01*
X600971Y321892D01*
X600861Y321844D01*
X600753Y321793D01*
X600646Y321738D01*
X600541Y321680D01*
X600438Y321618D01*
X600337Y321554D01*
X600237Y321486D01*
X600140Y321416D01*
X603534Y318284D02*
X603612Y318332D01*
X603688Y318384D01*
X603761Y318438D01*
X603832Y318496D01*
X603901Y318557D01*
X603967Y318621D01*
X604030Y318688D01*
X604090Y318757D01*
X604147Y318829D01*
X604201Y318903D01*
X604251Y318980D01*
X604299Y319059D01*
X604342Y319139D01*
X604383Y319222D01*
X604419Y319306D01*
X604452Y319391D01*
X604481Y319478D01*
X604507Y319567D01*
X604529Y319656D01*
X604546Y319746D01*
X604560Y319836D01*
X604570Y319928D01*
X604576Y320019D01*
X604578Y320111D01*
X600662Y316716D02*
X600584Y316668D01*
X600508Y316616D01*
X600435Y316562D01*
X600364Y316504D01*
X600295Y316443D01*
X600229Y316379D01*
X600166Y316312D01*
X600106Y316243D01*
X600049Y316171D01*
X599995Y316097D01*
X599945Y316020D01*
X599897Y315941D01*
X599854Y315861D01*
X599813Y315778D01*
X599777Y315694D01*
X599744Y315609D01*
X599715Y315522D01*
X599689Y315433D01*
X599667Y315344D01*
X599650Y315254D01*
X599636Y315164D01*
X599626Y315072D01*
X599620Y314981D01*
X599618Y314889D01*
X600662Y316717D02*
X603534Y318283D01*
X593937Y312801D02*
X591849Y312801D01*
X593937Y312801D02*
X594026Y312803D01*
X594114Y312809D01*
X594202Y312818D01*
X594290Y312831D01*
X594377Y312848D01*
X594463Y312868D01*
X594548Y312893D01*
X594633Y312920D01*
X594716Y312952D01*
X594797Y312986D01*
X594877Y313025D01*
X594955Y313066D01*
X595032Y313111D01*
X595106Y313159D01*
X595179Y313210D01*
X595249Y313264D01*
X595316Y313322D01*
X595382Y313382D01*
X595444Y313444D01*
X595504Y313510D01*
X595562Y313577D01*
X595616Y313647D01*
X595667Y313720D01*
X595715Y313794D01*
X595760Y313871D01*
X595801Y313949D01*
X595840Y314029D01*
X595874Y314110D01*
X595906Y314193D01*
X595933Y314278D01*
X595958Y314363D01*
X595978Y314449D01*
X595995Y314536D01*
X596008Y314624D01*
X596017Y314712D01*
X596023Y314800D01*
X596025Y314889D01*
X596026Y314889D02*
X596026Y320111D01*
X596025Y320111D02*
X596023Y320200D01*
X596017Y320288D01*
X596008Y320376D01*
X595995Y320464D01*
X595978Y320551D01*
X595958Y320637D01*
X595933Y320722D01*
X595906Y320807D01*
X595874Y320890D01*
X595840Y320971D01*
X595801Y321051D01*
X595760Y321129D01*
X595715Y321206D01*
X595667Y321280D01*
X595616Y321353D01*
X595562Y321423D01*
X595504Y321490D01*
X595444Y321556D01*
X595382Y321618D01*
X595316Y321678D01*
X595249Y321736D01*
X595179Y321790D01*
X595106Y321841D01*
X595032Y321889D01*
X594955Y321934D01*
X594877Y321975D01*
X594797Y322014D01*
X594716Y322048D01*
X594633Y322080D01*
X594548Y322107D01*
X594463Y322132D01*
X594377Y322152D01*
X594290Y322169D01*
X594202Y322182D01*
X594114Y322191D01*
X594026Y322197D01*
X593937Y322199D01*
X591849Y322199D01*
X588058Y322199D02*
X588058Y312801D01*
X583881Y312801D01*
X601307Y289489D02*
X601309Y289400D01*
X601315Y289312D01*
X601324Y289224D01*
X601337Y289136D01*
X601354Y289049D01*
X601374Y288963D01*
X601399Y288878D01*
X601426Y288793D01*
X601458Y288710D01*
X601492Y288629D01*
X601531Y288549D01*
X601572Y288471D01*
X601617Y288394D01*
X601665Y288320D01*
X601716Y288247D01*
X601770Y288177D01*
X601828Y288110D01*
X601888Y288044D01*
X601950Y287982D01*
X602016Y287922D01*
X602083Y287864D01*
X602153Y287810D01*
X602226Y287759D01*
X602300Y287711D01*
X602377Y287666D01*
X602455Y287625D01*
X602535Y287586D01*
X602616Y287552D01*
X602699Y287520D01*
X602784Y287493D01*
X602869Y287468D01*
X602955Y287448D01*
X603042Y287431D01*
X603130Y287418D01*
X603218Y287409D01*
X603306Y287403D01*
X603395Y287401D01*
X603524Y287403D01*
X603653Y287409D01*
X603782Y287418D01*
X603910Y287431D01*
X604038Y287448D01*
X604165Y287469D01*
X604292Y287493D01*
X604418Y287521D01*
X604543Y287553D01*
X604667Y287588D01*
X604790Y287627D01*
X604912Y287670D01*
X605032Y287716D01*
X605151Y287766D01*
X605269Y287819D01*
X605385Y287875D01*
X605499Y287935D01*
X605612Y287998D01*
X605722Y288065D01*
X605831Y288134D01*
X605937Y288207D01*
X606042Y288283D01*
X606144Y288362D01*
X606244Y288444D01*
X606341Y288528D01*
X606436Y288616D01*
X606528Y288706D01*
X606266Y294711D02*
X606264Y294800D01*
X606258Y294888D01*
X606249Y294976D01*
X606236Y295064D01*
X606219Y295151D01*
X606199Y295237D01*
X606174Y295322D01*
X606147Y295407D01*
X606115Y295490D01*
X606081Y295571D01*
X606042Y295651D01*
X606001Y295729D01*
X605956Y295806D01*
X605908Y295880D01*
X605857Y295953D01*
X605803Y296023D01*
X605745Y296090D01*
X605685Y296156D01*
X605623Y296218D01*
X605557Y296278D01*
X605490Y296336D01*
X605420Y296390D01*
X605347Y296441D01*
X605273Y296489D01*
X605196Y296534D01*
X605118Y296575D01*
X605038Y296614D01*
X604957Y296648D01*
X604874Y296680D01*
X604789Y296707D01*
X604704Y296732D01*
X604618Y296752D01*
X604531Y296769D01*
X604443Y296782D01*
X604355Y296791D01*
X604267Y296797D01*
X604178Y296799D01*
X604058Y296797D01*
X603938Y296792D01*
X603819Y296782D01*
X603699Y296770D01*
X603580Y296753D01*
X603462Y296733D01*
X603344Y296709D01*
X603228Y296682D01*
X603112Y296651D01*
X602997Y296617D01*
X602883Y296579D01*
X602770Y296537D01*
X602659Y296492D01*
X602549Y296444D01*
X602441Y296393D01*
X602334Y296338D01*
X602229Y296280D01*
X602126Y296218D01*
X602025Y296154D01*
X601925Y296086D01*
X601828Y296016D01*
X605223Y292884D02*
X605301Y292932D01*
X605377Y292984D01*
X605450Y293038D01*
X605521Y293096D01*
X605590Y293157D01*
X605656Y293221D01*
X605719Y293288D01*
X605779Y293357D01*
X605836Y293429D01*
X605890Y293503D01*
X605940Y293580D01*
X605988Y293659D01*
X606031Y293739D01*
X606072Y293822D01*
X606108Y293906D01*
X606141Y293991D01*
X606170Y294078D01*
X606196Y294167D01*
X606218Y294256D01*
X606235Y294346D01*
X606249Y294436D01*
X606259Y294528D01*
X606265Y294619D01*
X606267Y294711D01*
X602351Y291316D02*
X602273Y291268D01*
X602197Y291216D01*
X602124Y291162D01*
X602053Y291104D01*
X601984Y291043D01*
X601918Y290979D01*
X601855Y290912D01*
X601795Y290843D01*
X601738Y290771D01*
X601684Y290697D01*
X601634Y290620D01*
X601586Y290541D01*
X601543Y290461D01*
X601502Y290378D01*
X601466Y290294D01*
X601433Y290209D01*
X601404Y290122D01*
X601378Y290033D01*
X601356Y289944D01*
X601339Y289854D01*
X601325Y289764D01*
X601315Y289672D01*
X601309Y289581D01*
X601307Y289489D01*
X602351Y291317D02*
X605223Y292883D01*
X597384Y296799D02*
X597384Y287401D01*
X597384Y296799D02*
X594773Y296799D01*
X594673Y296797D01*
X594573Y296791D01*
X594474Y296782D01*
X594374Y296768D01*
X594276Y296751D01*
X594178Y296730D01*
X594081Y296706D01*
X593985Y296677D01*
X593890Y296645D01*
X593797Y296610D01*
X593705Y296571D01*
X593614Y296528D01*
X593526Y296482D01*
X593439Y296432D01*
X593354Y296380D01*
X593271Y296324D01*
X593190Y296265D01*
X593112Y296202D01*
X593036Y296137D01*
X592962Y296069D01*
X592892Y295999D01*
X592824Y295925D01*
X592759Y295849D01*
X592696Y295771D01*
X592637Y295690D01*
X592581Y295607D01*
X592529Y295522D01*
X592479Y295435D01*
X592433Y295347D01*
X592390Y295256D01*
X592351Y295164D01*
X592316Y295071D01*
X592284Y294976D01*
X592255Y294880D01*
X592231Y294783D01*
X592210Y294685D01*
X592193Y294587D01*
X592179Y294487D01*
X592170Y294388D01*
X592164Y294288D01*
X592162Y294188D01*
X592163Y294188D02*
X592163Y290012D01*
X592162Y290012D02*
X592164Y289912D01*
X592170Y289812D01*
X592179Y289713D01*
X592193Y289613D01*
X592210Y289515D01*
X592231Y289417D01*
X592255Y289320D01*
X592284Y289224D01*
X592316Y289129D01*
X592351Y289036D01*
X592390Y288944D01*
X592433Y288853D01*
X592479Y288765D01*
X592529Y288678D01*
X592581Y288593D01*
X592637Y288510D01*
X592696Y288429D01*
X592759Y288351D01*
X592824Y288275D01*
X592892Y288201D01*
X592962Y288131D01*
X593036Y288063D01*
X593112Y287998D01*
X593190Y287935D01*
X593271Y287876D01*
X593354Y287820D01*
X593439Y287768D01*
X593526Y287718D01*
X593614Y287672D01*
X593705Y287629D01*
X593797Y287590D01*
X593890Y287555D01*
X593985Y287523D01*
X594081Y287494D01*
X594178Y287470D01*
X594276Y287449D01*
X594374Y287432D01*
X594474Y287418D01*
X594573Y287409D01*
X594673Y287403D01*
X594773Y287401D01*
X597384Y287401D01*
X588457Y287401D02*
X585325Y296799D01*
X582192Y287401D01*
X582975Y289751D02*
X587674Y289751D01*
X600676Y265656D02*
X606941Y265656D01*
X603809Y268788D02*
X603809Y262523D01*
X596666Y262001D02*
X593533Y262001D01*
X593444Y262003D01*
X593356Y262009D01*
X593268Y262018D01*
X593180Y262031D01*
X593093Y262048D01*
X593007Y262068D01*
X592922Y262093D01*
X592837Y262120D01*
X592754Y262152D01*
X592673Y262186D01*
X592593Y262225D01*
X592515Y262266D01*
X592438Y262311D01*
X592364Y262359D01*
X592291Y262410D01*
X592221Y262464D01*
X592154Y262522D01*
X592088Y262582D01*
X592026Y262644D01*
X591966Y262710D01*
X591908Y262777D01*
X591854Y262847D01*
X591803Y262920D01*
X591755Y262994D01*
X591710Y263071D01*
X591669Y263149D01*
X591630Y263229D01*
X591596Y263310D01*
X591564Y263393D01*
X591537Y263478D01*
X591512Y263563D01*
X591492Y263649D01*
X591475Y263736D01*
X591462Y263824D01*
X591453Y263912D01*
X591447Y264000D01*
X591445Y264089D01*
X591445Y265134D01*
X591447Y265223D01*
X591453Y265311D01*
X591462Y265399D01*
X591475Y265487D01*
X591492Y265574D01*
X591512Y265660D01*
X591537Y265745D01*
X591564Y265830D01*
X591596Y265913D01*
X591630Y265994D01*
X591669Y266074D01*
X591710Y266152D01*
X591755Y266229D01*
X591803Y266303D01*
X591854Y266376D01*
X591908Y266446D01*
X591966Y266513D01*
X592026Y266579D01*
X592088Y266641D01*
X592154Y266701D01*
X592221Y266759D01*
X592291Y266813D01*
X592364Y266864D01*
X592438Y266912D01*
X592515Y266957D01*
X592593Y266998D01*
X592673Y267037D01*
X592754Y267071D01*
X592837Y267103D01*
X592922Y267130D01*
X593007Y267155D01*
X593093Y267175D01*
X593180Y267192D01*
X593268Y267205D01*
X593356Y267214D01*
X593444Y267220D01*
X593533Y267222D01*
X596666Y267222D01*
X596666Y271399D01*
X591445Y271399D01*
X588044Y271399D02*
X584911Y262001D01*
X581779Y271399D01*
X601503Y241822D02*
X603069Y241822D01*
X601503Y241822D02*
X601503Y236601D01*
X604636Y236601D01*
X604725Y236603D01*
X604813Y236609D01*
X604901Y236618D01*
X604989Y236631D01*
X605076Y236648D01*
X605162Y236668D01*
X605247Y236693D01*
X605332Y236720D01*
X605415Y236752D01*
X605496Y236786D01*
X605576Y236825D01*
X605654Y236866D01*
X605731Y236911D01*
X605805Y236959D01*
X605878Y237010D01*
X605948Y237064D01*
X606015Y237122D01*
X606081Y237182D01*
X606143Y237244D01*
X606203Y237310D01*
X606261Y237377D01*
X606315Y237447D01*
X606366Y237520D01*
X606414Y237594D01*
X606459Y237671D01*
X606500Y237749D01*
X606539Y237829D01*
X606573Y237910D01*
X606605Y237993D01*
X606632Y238078D01*
X606657Y238163D01*
X606677Y238249D01*
X606694Y238336D01*
X606707Y238424D01*
X606716Y238512D01*
X606722Y238600D01*
X606724Y238689D01*
X606724Y243911D01*
X606722Y244000D01*
X606716Y244088D01*
X606707Y244176D01*
X606694Y244264D01*
X606677Y244351D01*
X606657Y244437D01*
X606632Y244522D01*
X606605Y244607D01*
X606573Y244690D01*
X606539Y244771D01*
X606500Y244851D01*
X606459Y244929D01*
X606414Y245006D01*
X606366Y245080D01*
X606315Y245153D01*
X606261Y245223D01*
X606203Y245290D01*
X606143Y245356D01*
X606081Y245418D01*
X606015Y245478D01*
X605948Y245536D01*
X605878Y245590D01*
X605805Y245641D01*
X605731Y245689D01*
X605654Y245734D01*
X605576Y245775D01*
X605496Y245814D01*
X605415Y245848D01*
X605332Y245880D01*
X605247Y245907D01*
X605162Y245932D01*
X605076Y245952D01*
X604989Y245969D01*
X604901Y245982D01*
X604813Y245991D01*
X604725Y245997D01*
X604636Y245999D01*
X601503Y245999D01*
X596971Y245999D02*
X596971Y236601D01*
X591749Y236601D02*
X596971Y245999D01*
X591749Y245999D02*
X591749Y236601D01*
X587217Y236601D02*
X587217Y245999D01*
X584606Y245999D01*
X584506Y245997D01*
X584406Y245991D01*
X584307Y245982D01*
X584207Y245968D01*
X584109Y245951D01*
X584011Y245930D01*
X583914Y245906D01*
X583818Y245877D01*
X583723Y245845D01*
X583630Y245810D01*
X583538Y245771D01*
X583447Y245728D01*
X583359Y245682D01*
X583272Y245632D01*
X583187Y245580D01*
X583104Y245524D01*
X583023Y245465D01*
X582945Y245402D01*
X582869Y245337D01*
X582795Y245269D01*
X582725Y245199D01*
X582657Y245125D01*
X582592Y245049D01*
X582529Y244971D01*
X582470Y244890D01*
X582414Y244807D01*
X582362Y244722D01*
X582312Y244635D01*
X582266Y244547D01*
X582223Y244456D01*
X582184Y244364D01*
X582149Y244271D01*
X582117Y244176D01*
X582088Y244080D01*
X582064Y243983D01*
X582043Y243885D01*
X582026Y243787D01*
X582012Y243687D01*
X582003Y243588D01*
X581997Y243488D01*
X581995Y243388D01*
X581996Y243388D02*
X581996Y239212D01*
X581995Y239212D02*
X581997Y239112D01*
X582003Y239012D01*
X582012Y238913D01*
X582026Y238813D01*
X582043Y238715D01*
X582064Y238617D01*
X582088Y238520D01*
X582117Y238424D01*
X582149Y238329D01*
X582184Y238236D01*
X582223Y238144D01*
X582266Y238053D01*
X582312Y237965D01*
X582362Y237878D01*
X582414Y237793D01*
X582470Y237710D01*
X582529Y237629D01*
X582592Y237551D01*
X582657Y237475D01*
X582725Y237401D01*
X582795Y237331D01*
X582869Y237263D01*
X582945Y237198D01*
X583023Y237135D01*
X583104Y237076D01*
X583187Y237020D01*
X583272Y236968D01*
X583359Y236918D01*
X583447Y236872D01*
X583538Y236829D01*
X583630Y236790D01*
X583723Y236755D01*
X583818Y236723D01*
X583914Y236694D01*
X584011Y236670D01*
X584109Y236649D01*
X584207Y236632D01*
X584307Y236618D01*
X584406Y236609D01*
X584506Y236603D01*
X584606Y236601D01*
X587217Y236601D01*
X171052Y323102D02*
X169486Y323102D01*
X169486Y317881D01*
X172618Y317881D01*
X172707Y317883D01*
X172795Y317889D01*
X172883Y317898D01*
X172971Y317911D01*
X173058Y317928D01*
X173144Y317948D01*
X173229Y317973D01*
X173314Y318000D01*
X173397Y318032D01*
X173478Y318066D01*
X173558Y318105D01*
X173636Y318146D01*
X173713Y318191D01*
X173787Y318239D01*
X173860Y318290D01*
X173930Y318344D01*
X173997Y318402D01*
X174063Y318462D01*
X174125Y318524D01*
X174185Y318590D01*
X174243Y318657D01*
X174297Y318727D01*
X174348Y318800D01*
X174396Y318874D01*
X174441Y318951D01*
X174482Y319029D01*
X174521Y319109D01*
X174555Y319190D01*
X174587Y319273D01*
X174614Y319358D01*
X174639Y319443D01*
X174659Y319529D01*
X174676Y319616D01*
X174689Y319704D01*
X174698Y319792D01*
X174704Y319880D01*
X174706Y319969D01*
X174707Y319969D02*
X174707Y325191D01*
X174706Y325191D02*
X174704Y325280D01*
X174698Y325368D01*
X174689Y325456D01*
X174676Y325544D01*
X174659Y325631D01*
X174639Y325717D01*
X174614Y325802D01*
X174587Y325887D01*
X174555Y325970D01*
X174521Y326051D01*
X174482Y326131D01*
X174441Y326209D01*
X174396Y326286D01*
X174348Y326360D01*
X174297Y326433D01*
X174243Y326503D01*
X174185Y326570D01*
X174125Y326636D01*
X174063Y326698D01*
X173997Y326758D01*
X173930Y326816D01*
X173860Y326870D01*
X173787Y326921D01*
X173713Y326969D01*
X173636Y327014D01*
X173558Y327055D01*
X173478Y327094D01*
X173397Y327128D01*
X173314Y327160D01*
X173229Y327187D01*
X173144Y327212D01*
X173058Y327232D01*
X172971Y327249D01*
X172883Y327262D01*
X172795Y327271D01*
X172707Y327277D01*
X172618Y327279D01*
X169486Y327279D01*
X164953Y327279D02*
X164953Y317881D01*
X159732Y317881D02*
X164953Y327279D01*
X159732Y327279D02*
X159732Y317881D01*
X155200Y317881D02*
X155200Y327279D01*
X152589Y327279D01*
X152489Y327277D01*
X152389Y327271D01*
X152290Y327262D01*
X152190Y327248D01*
X152092Y327231D01*
X151994Y327210D01*
X151897Y327186D01*
X151801Y327157D01*
X151706Y327125D01*
X151613Y327090D01*
X151521Y327051D01*
X151430Y327008D01*
X151342Y326962D01*
X151255Y326912D01*
X151170Y326860D01*
X151087Y326804D01*
X151006Y326745D01*
X150928Y326682D01*
X150852Y326617D01*
X150778Y326549D01*
X150708Y326479D01*
X150640Y326405D01*
X150575Y326329D01*
X150512Y326251D01*
X150453Y326170D01*
X150397Y326087D01*
X150345Y326002D01*
X150295Y325915D01*
X150249Y325827D01*
X150206Y325736D01*
X150167Y325644D01*
X150132Y325551D01*
X150100Y325456D01*
X150071Y325360D01*
X150047Y325263D01*
X150026Y325165D01*
X150009Y325067D01*
X149995Y324967D01*
X149986Y324868D01*
X149980Y324768D01*
X149978Y324668D01*
X149979Y324668D02*
X149979Y320492D01*
X149978Y320492D02*
X149980Y320392D01*
X149986Y320292D01*
X149995Y320193D01*
X150009Y320093D01*
X150026Y319995D01*
X150047Y319897D01*
X150071Y319800D01*
X150100Y319704D01*
X150132Y319609D01*
X150167Y319516D01*
X150206Y319424D01*
X150249Y319333D01*
X150295Y319245D01*
X150345Y319158D01*
X150397Y319073D01*
X150453Y318990D01*
X150512Y318909D01*
X150575Y318831D01*
X150640Y318755D01*
X150708Y318681D01*
X150778Y318611D01*
X150852Y318543D01*
X150928Y318478D01*
X151006Y318415D01*
X151087Y318356D01*
X151170Y318300D01*
X151255Y318248D01*
X151342Y318198D01*
X151430Y318152D01*
X151521Y318109D01*
X151613Y318070D01*
X151706Y318035D01*
X151801Y318003D01*
X151897Y317974D01*
X151994Y317950D01*
X152092Y317929D01*
X152190Y317912D01*
X152290Y317898D01*
X152389Y317889D01*
X152489Y317883D01*
X152589Y317881D01*
X155200Y317881D01*
X168876Y296136D02*
X175141Y296136D01*
X172009Y299268D02*
X172009Y293003D01*
X164866Y292481D02*
X161733Y292481D01*
X161644Y292483D01*
X161556Y292489D01*
X161468Y292498D01*
X161380Y292511D01*
X161293Y292528D01*
X161207Y292548D01*
X161122Y292573D01*
X161037Y292600D01*
X160954Y292632D01*
X160873Y292666D01*
X160793Y292705D01*
X160715Y292746D01*
X160638Y292791D01*
X160564Y292839D01*
X160491Y292890D01*
X160421Y292944D01*
X160354Y293002D01*
X160288Y293062D01*
X160226Y293124D01*
X160166Y293190D01*
X160108Y293257D01*
X160054Y293327D01*
X160003Y293400D01*
X159955Y293474D01*
X159910Y293551D01*
X159869Y293629D01*
X159830Y293709D01*
X159796Y293790D01*
X159764Y293873D01*
X159737Y293958D01*
X159712Y294043D01*
X159692Y294129D01*
X159675Y294216D01*
X159662Y294304D01*
X159653Y294392D01*
X159647Y294480D01*
X159645Y294569D01*
X159645Y295614D01*
X159647Y295703D01*
X159653Y295791D01*
X159662Y295879D01*
X159675Y295967D01*
X159692Y296054D01*
X159712Y296140D01*
X159737Y296225D01*
X159764Y296310D01*
X159796Y296393D01*
X159830Y296474D01*
X159869Y296554D01*
X159910Y296632D01*
X159955Y296709D01*
X160003Y296783D01*
X160054Y296856D01*
X160108Y296926D01*
X160166Y296993D01*
X160226Y297059D01*
X160288Y297121D01*
X160354Y297181D01*
X160421Y297239D01*
X160491Y297293D01*
X160564Y297344D01*
X160638Y297392D01*
X160715Y297437D01*
X160793Y297478D01*
X160873Y297517D01*
X160954Y297551D01*
X161037Y297583D01*
X161122Y297610D01*
X161207Y297635D01*
X161293Y297655D01*
X161380Y297672D01*
X161468Y297685D01*
X161556Y297694D01*
X161644Y297700D01*
X161733Y297702D01*
X164866Y297702D01*
X164866Y301879D01*
X159645Y301879D01*
X156244Y301879D02*
X153111Y292481D01*
X149979Y301879D01*
X163578Y276479D02*
X163578Y267081D01*
X158357Y267081D02*
X163578Y276479D01*
X158357Y276479D02*
X158357Y267081D01*
X152067Y267081D02*
X149979Y267081D01*
X152067Y267081D02*
X152156Y267083D01*
X152244Y267089D01*
X152332Y267098D01*
X152420Y267111D01*
X152507Y267128D01*
X152593Y267148D01*
X152678Y267173D01*
X152763Y267200D01*
X152846Y267232D01*
X152927Y267266D01*
X153007Y267305D01*
X153085Y267346D01*
X153162Y267391D01*
X153236Y267439D01*
X153309Y267490D01*
X153379Y267544D01*
X153446Y267602D01*
X153512Y267662D01*
X153574Y267724D01*
X153634Y267790D01*
X153692Y267857D01*
X153746Y267927D01*
X153797Y268000D01*
X153845Y268074D01*
X153890Y268151D01*
X153931Y268229D01*
X153970Y268309D01*
X154004Y268390D01*
X154036Y268473D01*
X154063Y268558D01*
X154088Y268643D01*
X154108Y268729D01*
X154125Y268816D01*
X154138Y268904D01*
X154147Y268992D01*
X154153Y269080D01*
X154155Y269169D01*
X154155Y274391D01*
X154153Y274480D01*
X154147Y274568D01*
X154138Y274656D01*
X154125Y274744D01*
X154108Y274831D01*
X154088Y274917D01*
X154063Y275002D01*
X154036Y275087D01*
X154004Y275170D01*
X153970Y275251D01*
X153931Y275331D01*
X153890Y275409D01*
X153845Y275486D01*
X153797Y275560D01*
X153746Y275633D01*
X153692Y275703D01*
X153634Y275770D01*
X153574Y275836D01*
X153512Y275898D01*
X153446Y275958D01*
X153379Y276016D01*
X153309Y276070D01*
X153236Y276121D01*
X153162Y276169D01*
X153085Y276214D01*
X153007Y276255D01*
X152927Y276294D01*
X152846Y276328D01*
X152763Y276360D01*
X152678Y276387D01*
X152593Y276412D01*
X152507Y276432D01*
X152420Y276449D01*
X152332Y276462D01*
X152244Y276471D01*
X152156Y276477D01*
X152067Y276479D01*
X149979Y276479D01*
D11*
X680788Y487686D02*
X680788Y498365D01*
X680788Y487686D02*
X680790Y487577D01*
X680796Y487468D01*
X680805Y487360D01*
X680819Y487252D01*
X680836Y487144D01*
X680858Y487037D01*
X680883Y486931D01*
X680912Y486826D01*
X680944Y486722D01*
X680980Y486620D01*
X681020Y486518D01*
X681064Y486419D01*
X681111Y486320D01*
X681161Y486224D01*
X681215Y486129D01*
X681272Y486037D01*
X681333Y485946D01*
X681397Y485858D01*
X681463Y485772D01*
X681533Y485688D01*
X681606Y485607D01*
X681682Y485529D01*
X681760Y485453D01*
X681841Y485380D01*
X681925Y485310D01*
X682011Y485244D01*
X682099Y485180D01*
X682190Y485119D01*
X682282Y485062D01*
X682377Y485008D01*
X682473Y484958D01*
X682572Y484911D01*
X682671Y484867D01*
X682773Y484827D01*
X682875Y484791D01*
X682979Y484759D01*
X683084Y484730D01*
X683190Y484705D01*
X683297Y484683D01*
X683405Y484666D01*
X683513Y484652D01*
X683621Y484643D01*
X683730Y484637D01*
X683839Y484635D01*
X685365Y484635D01*
X674045Y484635D02*
X674045Y498365D01*
X674045Y484635D02*
X667943Y484635D01*
X659812Y484635D02*
X656761Y484635D01*
X659812Y484635D02*
X659921Y484637D01*
X660030Y484643D01*
X660138Y484652D01*
X660246Y484666D01*
X660354Y484683D01*
X660461Y484705D01*
X660567Y484730D01*
X660672Y484759D01*
X660776Y484791D01*
X660878Y484827D01*
X660980Y484867D01*
X661079Y484911D01*
X661178Y484958D01*
X661274Y485008D01*
X661369Y485062D01*
X661462Y485119D01*
X661552Y485180D01*
X661640Y485244D01*
X661726Y485310D01*
X661810Y485380D01*
X661891Y485453D01*
X661969Y485529D01*
X662045Y485607D01*
X662118Y485688D01*
X662188Y485772D01*
X662254Y485858D01*
X662318Y485946D01*
X662379Y486037D01*
X662436Y486129D01*
X662490Y486224D01*
X662540Y486320D01*
X662587Y486419D01*
X662631Y486518D01*
X662671Y486620D01*
X662707Y486723D01*
X662739Y486826D01*
X662768Y486931D01*
X662793Y487037D01*
X662815Y487144D01*
X662832Y487252D01*
X662846Y487360D01*
X662855Y487468D01*
X662861Y487577D01*
X662863Y487686D01*
X662863Y495314D01*
X662861Y495423D01*
X662855Y495532D01*
X662846Y495640D01*
X662832Y495748D01*
X662815Y495856D01*
X662793Y495963D01*
X662768Y496069D01*
X662739Y496174D01*
X662707Y496277D01*
X662671Y496380D01*
X662631Y496482D01*
X662587Y496581D01*
X662540Y496680D01*
X662490Y496776D01*
X662436Y496871D01*
X662379Y496963D01*
X662318Y497054D01*
X662254Y497142D01*
X662188Y497228D01*
X662118Y497312D01*
X662045Y497393D01*
X661969Y497471D01*
X661891Y497547D01*
X661810Y497620D01*
X661726Y497690D01*
X661640Y497756D01*
X661552Y497820D01*
X661462Y497881D01*
X661369Y497938D01*
X661274Y497992D01*
X661178Y498042D01*
X661079Y498089D01*
X660980Y498133D01*
X660878Y498173D01*
X660776Y498209D01*
X660672Y498241D01*
X660567Y498270D01*
X660461Y498295D01*
X660354Y498317D01*
X660246Y498334D01*
X660138Y498348D01*
X660030Y498357D01*
X659921Y498363D01*
X659812Y498365D01*
X656761Y498365D01*
X648388Y498365D02*
X648388Y487686D01*
X648389Y487686D02*
X648391Y487577D01*
X648397Y487468D01*
X648406Y487360D01*
X648420Y487252D01*
X648437Y487144D01*
X648459Y487037D01*
X648484Y486931D01*
X648513Y486826D01*
X648545Y486722D01*
X648581Y486620D01*
X648621Y486518D01*
X648665Y486419D01*
X648712Y486320D01*
X648762Y486224D01*
X648816Y486129D01*
X648873Y486037D01*
X648934Y485946D01*
X648998Y485858D01*
X649064Y485772D01*
X649134Y485688D01*
X649207Y485607D01*
X649283Y485529D01*
X649361Y485453D01*
X649442Y485380D01*
X649526Y485310D01*
X649612Y485244D01*
X649700Y485180D01*
X649791Y485119D01*
X649883Y485062D01*
X649978Y485008D01*
X650074Y484958D01*
X650173Y484911D01*
X650272Y484867D01*
X650374Y484827D01*
X650476Y484791D01*
X650580Y484759D01*
X650685Y484730D01*
X650791Y484705D01*
X650898Y484683D01*
X651006Y484666D01*
X651114Y484652D01*
X651222Y484643D01*
X651331Y484637D01*
X651440Y484635D01*
X652965Y484635D01*
X641645Y484635D02*
X641645Y498365D01*
X641645Y484635D02*
X635543Y484635D01*
X627412Y484635D02*
X624361Y484635D01*
X627412Y484635D02*
X627521Y484637D01*
X627630Y484643D01*
X627738Y484652D01*
X627846Y484666D01*
X627954Y484683D01*
X628061Y484705D01*
X628167Y484730D01*
X628272Y484759D01*
X628376Y484791D01*
X628478Y484827D01*
X628580Y484867D01*
X628679Y484911D01*
X628778Y484958D01*
X628874Y485008D01*
X628969Y485062D01*
X629062Y485119D01*
X629152Y485180D01*
X629240Y485244D01*
X629326Y485310D01*
X629410Y485380D01*
X629491Y485453D01*
X629569Y485529D01*
X629645Y485607D01*
X629718Y485688D01*
X629788Y485772D01*
X629854Y485858D01*
X629918Y485946D01*
X629979Y486037D01*
X630036Y486129D01*
X630090Y486224D01*
X630140Y486320D01*
X630187Y486419D01*
X630231Y486518D01*
X630271Y486620D01*
X630307Y486723D01*
X630339Y486826D01*
X630368Y486931D01*
X630393Y487037D01*
X630415Y487144D01*
X630432Y487252D01*
X630446Y487360D01*
X630455Y487468D01*
X630461Y487577D01*
X630463Y487686D01*
X630463Y495314D01*
X630461Y495423D01*
X630455Y495532D01*
X630446Y495640D01*
X630432Y495748D01*
X630415Y495856D01*
X630393Y495963D01*
X630368Y496069D01*
X630339Y496174D01*
X630307Y496277D01*
X630271Y496380D01*
X630231Y496482D01*
X630187Y496581D01*
X630140Y496680D01*
X630090Y496776D01*
X630036Y496871D01*
X629979Y496963D01*
X629918Y497054D01*
X629854Y497142D01*
X629788Y497228D01*
X629718Y497312D01*
X629645Y497393D01*
X629569Y497471D01*
X629491Y497547D01*
X629410Y497620D01*
X629326Y497690D01*
X629240Y497756D01*
X629152Y497820D01*
X629062Y497881D01*
X628969Y497938D01*
X628874Y497992D01*
X628778Y498042D01*
X628679Y498089D01*
X628580Y498133D01*
X628478Y498173D01*
X628376Y498209D01*
X628272Y498241D01*
X628167Y498270D01*
X628061Y498295D01*
X627954Y498317D01*
X627846Y498334D01*
X627738Y498348D01*
X627630Y498357D01*
X627521Y498363D01*
X627412Y498365D01*
X624361Y498365D01*
X615989Y498365D02*
X615989Y487686D01*
X615991Y487577D01*
X615997Y487468D01*
X616006Y487360D01*
X616020Y487252D01*
X616037Y487144D01*
X616059Y487037D01*
X616084Y486931D01*
X616113Y486826D01*
X616145Y486722D01*
X616181Y486620D01*
X616221Y486518D01*
X616265Y486419D01*
X616312Y486320D01*
X616362Y486224D01*
X616416Y486129D01*
X616473Y486037D01*
X616534Y485946D01*
X616598Y485858D01*
X616664Y485772D01*
X616734Y485688D01*
X616807Y485607D01*
X616883Y485529D01*
X616961Y485453D01*
X617042Y485380D01*
X617126Y485310D01*
X617212Y485244D01*
X617300Y485180D01*
X617391Y485119D01*
X617483Y485062D01*
X617578Y485008D01*
X617674Y484958D01*
X617773Y484911D01*
X617872Y484867D01*
X617974Y484827D01*
X618076Y484791D01*
X618180Y484759D01*
X618285Y484730D01*
X618391Y484705D01*
X618498Y484683D01*
X618606Y484666D01*
X618714Y484652D01*
X618822Y484643D01*
X618931Y484637D01*
X619040Y484635D01*
X620565Y484635D01*
X609245Y484635D02*
X609245Y498365D01*
X609245Y484635D02*
X603143Y484635D01*
X595012Y484635D02*
X591961Y484635D01*
X595012Y484635D02*
X595121Y484637D01*
X595230Y484643D01*
X595338Y484652D01*
X595446Y484666D01*
X595554Y484683D01*
X595661Y484705D01*
X595767Y484730D01*
X595872Y484759D01*
X595976Y484791D01*
X596078Y484827D01*
X596180Y484867D01*
X596279Y484911D01*
X596378Y484958D01*
X596474Y485008D01*
X596569Y485062D01*
X596662Y485119D01*
X596752Y485180D01*
X596840Y485244D01*
X596926Y485310D01*
X597010Y485380D01*
X597091Y485453D01*
X597169Y485529D01*
X597245Y485607D01*
X597318Y485688D01*
X597388Y485772D01*
X597454Y485858D01*
X597518Y485946D01*
X597579Y486037D01*
X597636Y486129D01*
X597690Y486224D01*
X597740Y486320D01*
X597787Y486419D01*
X597831Y486518D01*
X597871Y486620D01*
X597907Y486723D01*
X597939Y486826D01*
X597968Y486931D01*
X597993Y487037D01*
X598015Y487144D01*
X598032Y487252D01*
X598046Y487360D01*
X598055Y487468D01*
X598061Y487577D01*
X598063Y487686D01*
X598063Y495314D01*
X598061Y495423D01*
X598055Y495532D01*
X598046Y495640D01*
X598032Y495748D01*
X598015Y495856D01*
X597993Y495963D01*
X597968Y496069D01*
X597939Y496174D01*
X597907Y496277D01*
X597871Y496380D01*
X597831Y496482D01*
X597787Y496581D01*
X597740Y496680D01*
X597690Y496776D01*
X597636Y496871D01*
X597579Y496963D01*
X597518Y497054D01*
X597454Y497142D01*
X597388Y497228D01*
X597318Y497312D01*
X597245Y497393D01*
X597169Y497471D01*
X597091Y497547D01*
X597010Y497620D01*
X596926Y497690D01*
X596840Y497756D01*
X596752Y497820D01*
X596662Y497881D01*
X596569Y497938D01*
X596474Y497992D01*
X596378Y498042D01*
X596279Y498089D01*
X596180Y498133D01*
X596078Y498173D01*
X595976Y498209D01*
X595872Y498241D01*
X595767Y498270D01*
X595661Y498295D01*
X595554Y498317D01*
X595446Y498334D01*
X595338Y498348D01*
X595230Y498357D01*
X595121Y498363D01*
X595012Y498365D01*
X591961Y498365D01*
X583589Y498365D02*
X583589Y487686D01*
X583591Y487577D01*
X583597Y487468D01*
X583606Y487360D01*
X583620Y487252D01*
X583637Y487144D01*
X583659Y487037D01*
X583684Y486931D01*
X583713Y486826D01*
X583745Y486722D01*
X583781Y486620D01*
X583821Y486518D01*
X583865Y486419D01*
X583912Y486320D01*
X583962Y486224D01*
X584016Y486129D01*
X584073Y486037D01*
X584134Y485946D01*
X584198Y485858D01*
X584264Y485772D01*
X584334Y485688D01*
X584407Y485607D01*
X584483Y485529D01*
X584561Y485453D01*
X584642Y485380D01*
X584726Y485310D01*
X584812Y485244D01*
X584900Y485180D01*
X584991Y485119D01*
X585083Y485062D01*
X585178Y485008D01*
X585274Y484958D01*
X585373Y484911D01*
X585472Y484867D01*
X585574Y484827D01*
X585676Y484791D01*
X585780Y484759D01*
X585885Y484730D01*
X585991Y484705D01*
X586098Y484683D01*
X586206Y484666D01*
X586314Y484652D01*
X586422Y484643D01*
X586531Y484637D01*
X586640Y484635D01*
X588165Y484635D01*
X576846Y484635D02*
X576846Y498365D01*
X576846Y484635D02*
X570743Y484635D01*
X562612Y484635D02*
X559561Y484635D01*
X562612Y484635D02*
X562721Y484637D01*
X562830Y484643D01*
X562938Y484652D01*
X563046Y484666D01*
X563154Y484683D01*
X563261Y484705D01*
X563367Y484730D01*
X563472Y484759D01*
X563576Y484791D01*
X563678Y484827D01*
X563780Y484867D01*
X563879Y484911D01*
X563978Y484958D01*
X564074Y485008D01*
X564169Y485062D01*
X564262Y485119D01*
X564352Y485180D01*
X564440Y485244D01*
X564526Y485310D01*
X564610Y485380D01*
X564691Y485453D01*
X564769Y485529D01*
X564845Y485607D01*
X564918Y485688D01*
X564988Y485772D01*
X565054Y485858D01*
X565118Y485946D01*
X565179Y486037D01*
X565236Y486129D01*
X565290Y486224D01*
X565340Y486320D01*
X565387Y486419D01*
X565431Y486518D01*
X565471Y486620D01*
X565507Y486723D01*
X565539Y486826D01*
X565568Y486931D01*
X565593Y487037D01*
X565615Y487144D01*
X565632Y487252D01*
X565646Y487360D01*
X565655Y487468D01*
X565661Y487577D01*
X565663Y487686D01*
X565663Y495314D01*
X565661Y495423D01*
X565655Y495532D01*
X565646Y495640D01*
X565632Y495748D01*
X565615Y495856D01*
X565593Y495963D01*
X565568Y496069D01*
X565539Y496174D01*
X565507Y496277D01*
X565471Y496380D01*
X565431Y496482D01*
X565387Y496581D01*
X565340Y496680D01*
X565290Y496776D01*
X565236Y496871D01*
X565179Y496963D01*
X565118Y497054D01*
X565054Y497142D01*
X564988Y497228D01*
X564918Y497312D01*
X564845Y497393D01*
X564769Y497471D01*
X564691Y497547D01*
X564610Y497620D01*
X564526Y497690D01*
X564440Y497756D01*
X564352Y497820D01*
X564262Y497881D01*
X564169Y497938D01*
X564074Y497992D01*
X563978Y498042D01*
X563879Y498089D01*
X563780Y498133D01*
X563678Y498173D01*
X563576Y498209D01*
X563472Y498241D01*
X563367Y498270D01*
X563261Y498295D01*
X563154Y498317D01*
X563046Y498334D01*
X562938Y498348D01*
X562830Y498357D01*
X562721Y498363D01*
X562612Y498365D01*
X559561Y498365D01*
X614680Y349250D02*
X614680Y209550D01*
X758190Y209550D01*
X758190Y349250D01*
X614680Y349250D01*
X642798Y202565D02*
X642798Y191135D01*
X637718Y191135D01*
X630796Y191135D02*
X628256Y191135D01*
X630796Y191135D02*
X630896Y191137D01*
X630995Y191143D01*
X631095Y191153D01*
X631193Y191166D01*
X631292Y191184D01*
X631389Y191205D01*
X631485Y191230D01*
X631581Y191259D01*
X631675Y191292D01*
X631768Y191328D01*
X631859Y191368D01*
X631949Y191412D01*
X632037Y191459D01*
X632123Y191509D01*
X632207Y191563D01*
X632289Y191620D01*
X632368Y191680D01*
X632446Y191744D01*
X632520Y191810D01*
X632592Y191879D01*
X632661Y191951D01*
X632727Y192025D01*
X632791Y192103D01*
X632851Y192182D01*
X632908Y192264D01*
X632962Y192348D01*
X633012Y192434D01*
X633059Y192522D01*
X633103Y192612D01*
X633143Y192703D01*
X633179Y192796D01*
X633212Y192890D01*
X633241Y192986D01*
X633266Y193082D01*
X633287Y193179D01*
X633305Y193278D01*
X633318Y193376D01*
X633328Y193476D01*
X633334Y193575D01*
X633336Y193675D01*
X633336Y200025D01*
X633334Y200125D01*
X633328Y200224D01*
X633318Y200324D01*
X633305Y200422D01*
X633287Y200521D01*
X633266Y200618D01*
X633241Y200714D01*
X633212Y200810D01*
X633179Y200904D01*
X633143Y200997D01*
X633103Y201088D01*
X633059Y201178D01*
X633012Y201266D01*
X632962Y201352D01*
X632908Y201436D01*
X632851Y201518D01*
X632791Y201597D01*
X632727Y201675D01*
X632661Y201749D01*
X632592Y201821D01*
X632520Y201890D01*
X632446Y201956D01*
X632368Y202020D01*
X632289Y202080D01*
X632207Y202137D01*
X632123Y202191D01*
X632037Y202241D01*
X631949Y202288D01*
X631859Y202332D01*
X631768Y202372D01*
X631675Y202408D01*
X631581Y202441D01*
X631485Y202470D01*
X631389Y202495D01*
X631292Y202516D01*
X631193Y202534D01*
X631095Y202547D01*
X630995Y202557D01*
X630896Y202563D01*
X630796Y202565D01*
X628256Y202565D01*
X623392Y202565D02*
X623392Y191135D01*
X623392Y202565D02*
X620217Y202565D01*
X620106Y202563D01*
X619996Y202557D01*
X619885Y202548D01*
X619775Y202534D01*
X619666Y202517D01*
X619557Y202496D01*
X619449Y202471D01*
X619342Y202442D01*
X619236Y202410D01*
X619131Y202374D01*
X619028Y202334D01*
X618926Y202291D01*
X618825Y202244D01*
X618726Y202193D01*
X618630Y202140D01*
X618535Y202083D01*
X618442Y202022D01*
X618351Y201959D01*
X618262Y201892D01*
X618176Y201822D01*
X618093Y201749D01*
X618011Y201674D01*
X617933Y201596D01*
X617858Y201514D01*
X617785Y201431D01*
X617715Y201345D01*
X617648Y201256D01*
X617585Y201165D01*
X617524Y201072D01*
X617467Y200978D01*
X617414Y200881D01*
X617363Y200782D01*
X617316Y200681D01*
X617273Y200579D01*
X617233Y200476D01*
X617197Y200371D01*
X617165Y200265D01*
X617136Y200158D01*
X617111Y200050D01*
X617090Y199941D01*
X617073Y199832D01*
X617059Y199722D01*
X617050Y199611D01*
X617044Y199501D01*
X617042Y199390D01*
X617042Y194310D01*
X617044Y194199D01*
X617050Y194089D01*
X617059Y193978D01*
X617073Y193868D01*
X617090Y193759D01*
X617111Y193650D01*
X617136Y193542D01*
X617165Y193435D01*
X617197Y193329D01*
X617233Y193224D01*
X617273Y193121D01*
X617316Y193019D01*
X617363Y192918D01*
X617414Y192819D01*
X617467Y192723D01*
X617524Y192628D01*
X617585Y192535D01*
X617648Y192444D01*
X617715Y192355D01*
X617785Y192269D01*
X617858Y192186D01*
X617933Y192104D01*
X618011Y192026D01*
X618093Y191951D01*
X618176Y191878D01*
X618262Y191808D01*
X618351Y191741D01*
X618442Y191678D01*
X618535Y191617D01*
X618630Y191560D01*
X618726Y191507D01*
X618825Y191456D01*
X618926Y191409D01*
X619028Y191366D01*
X619131Y191326D01*
X619236Y191290D01*
X619342Y191258D01*
X619449Y191229D01*
X619557Y191204D01*
X619666Y191183D01*
X619775Y191166D01*
X619885Y191152D01*
X619996Y191143D01*
X620106Y191137D01*
X620217Y191135D01*
X623392Y191135D01*
D12*
X223139Y54610D02*
X81661Y54610D01*
X223139Y54610D02*
X223139Y7112D01*
X81661Y7112D01*
X81661Y54610D01*
D13*
X79121Y7620D02*
X79123Y7742D01*
X79129Y7864D01*
X79139Y7986D01*
X79152Y8107D01*
X79170Y8228D01*
X79191Y8348D01*
X79217Y8468D01*
X79246Y8586D01*
X79278Y8704D01*
X79315Y8821D01*
X79355Y8936D01*
X79399Y9050D01*
X79447Y9162D01*
X79498Y9273D01*
X79553Y9382D01*
X79611Y9490D01*
X79673Y9595D01*
X79738Y9698D01*
X79806Y9800D01*
X79878Y9899D01*
X79952Y9995D01*
X80030Y10090D01*
X80111Y10181D01*
X80194Y10271D01*
X80280Y10357D01*
X80370Y10440D01*
X80461Y10521D01*
X80556Y10599D01*
X80652Y10673D01*
X80751Y10745D01*
X80853Y10813D01*
X80956Y10878D01*
X81061Y10940D01*
X81169Y10998D01*
X81278Y11053D01*
X81389Y11104D01*
X81501Y11152D01*
X81615Y11196D01*
X81730Y11236D01*
X81847Y11273D01*
X81965Y11305D01*
X82083Y11334D01*
X82203Y11360D01*
X82323Y11381D01*
X82444Y11399D01*
X82565Y11412D01*
X82687Y11422D01*
X82809Y11428D01*
X82931Y11430D01*
X83053Y11428D01*
X83175Y11422D01*
X83297Y11412D01*
X83418Y11399D01*
X83539Y11381D01*
X83659Y11360D01*
X83779Y11334D01*
X83897Y11305D01*
X84015Y11273D01*
X84132Y11236D01*
X84247Y11196D01*
X84361Y11152D01*
X84473Y11104D01*
X84584Y11053D01*
X84693Y10998D01*
X84801Y10940D01*
X84906Y10878D01*
X85009Y10813D01*
X85111Y10745D01*
X85210Y10673D01*
X85306Y10599D01*
X85401Y10521D01*
X85492Y10440D01*
X85582Y10357D01*
X85668Y10271D01*
X85751Y10181D01*
X85832Y10090D01*
X85910Y9995D01*
X85984Y9899D01*
X86056Y9800D01*
X86124Y9698D01*
X86189Y9595D01*
X86251Y9490D01*
X86309Y9382D01*
X86364Y9273D01*
X86415Y9162D01*
X86463Y9050D01*
X86507Y8936D01*
X86547Y8821D01*
X86584Y8704D01*
X86616Y8586D01*
X86645Y8468D01*
X86671Y8348D01*
X86692Y8228D01*
X86710Y8107D01*
X86723Y7986D01*
X86733Y7864D01*
X86739Y7742D01*
X86741Y7620D01*
X86739Y7498D01*
X86733Y7376D01*
X86723Y7254D01*
X86710Y7133D01*
X86692Y7012D01*
X86671Y6892D01*
X86645Y6772D01*
X86616Y6654D01*
X86584Y6536D01*
X86547Y6419D01*
X86507Y6304D01*
X86463Y6190D01*
X86415Y6078D01*
X86364Y5967D01*
X86309Y5858D01*
X86251Y5750D01*
X86189Y5645D01*
X86124Y5542D01*
X86056Y5440D01*
X85984Y5341D01*
X85910Y5245D01*
X85832Y5150D01*
X85751Y5059D01*
X85668Y4969D01*
X85582Y4883D01*
X85492Y4800D01*
X85401Y4719D01*
X85306Y4641D01*
X85210Y4567D01*
X85111Y4495D01*
X85009Y4427D01*
X84906Y4362D01*
X84801Y4300D01*
X84693Y4242D01*
X84584Y4187D01*
X84473Y4136D01*
X84361Y4088D01*
X84247Y4044D01*
X84132Y4004D01*
X84015Y3967D01*
X83897Y3935D01*
X83779Y3906D01*
X83659Y3880D01*
X83539Y3859D01*
X83418Y3841D01*
X83297Y3828D01*
X83175Y3818D01*
X83053Y3812D01*
X82931Y3810D01*
X82809Y3812D01*
X82687Y3818D01*
X82565Y3828D01*
X82444Y3841D01*
X82323Y3859D01*
X82203Y3880D01*
X82083Y3906D01*
X81965Y3935D01*
X81847Y3967D01*
X81730Y4004D01*
X81615Y4044D01*
X81501Y4088D01*
X81389Y4136D01*
X81278Y4187D01*
X81169Y4242D01*
X81061Y4300D01*
X80956Y4362D01*
X80853Y4427D01*
X80751Y4495D01*
X80652Y4567D01*
X80556Y4641D01*
X80461Y4719D01*
X80370Y4800D01*
X80280Y4883D01*
X80194Y4969D01*
X80111Y5059D01*
X80030Y5150D01*
X79952Y5245D01*
X79878Y5341D01*
X79806Y5440D01*
X79738Y5542D01*
X79673Y5645D01*
X79611Y5750D01*
X79553Y5858D01*
X79498Y5967D01*
X79447Y6078D01*
X79399Y6190D01*
X79355Y6304D01*
X79315Y6419D01*
X79278Y6536D01*
X79246Y6654D01*
X79217Y6772D01*
X79191Y6892D01*
X79170Y7012D01*
X79152Y7133D01*
X79139Y7254D01*
X79129Y7376D01*
X79123Y7498D01*
X79121Y7620D01*
D10*
X185095Y61341D02*
X185095Y73279D01*
X186422Y61341D02*
X183769Y61341D01*
X183769Y73279D02*
X186422Y73279D01*
X178886Y73279D02*
X178886Y61341D01*
X172254Y61341D02*
X178886Y73279D01*
X172254Y73279D02*
X172254Y61341D01*
X166546Y61341D02*
X166546Y73279D01*
X163230Y73279D01*
X163116Y73277D01*
X163001Y73271D01*
X162887Y73261D01*
X162774Y73247D01*
X162660Y73230D01*
X162548Y73208D01*
X162436Y73183D01*
X162326Y73153D01*
X162216Y73120D01*
X162108Y73083D01*
X162001Y73043D01*
X161895Y72998D01*
X161791Y72951D01*
X161689Y72899D01*
X161589Y72844D01*
X161490Y72786D01*
X161394Y72724D01*
X161299Y72659D01*
X161208Y72591D01*
X161118Y72519D01*
X161031Y72445D01*
X160947Y72368D01*
X160865Y72287D01*
X160786Y72204D01*
X160710Y72119D01*
X160637Y72030D01*
X160568Y71940D01*
X160501Y71847D01*
X160438Y71751D01*
X160378Y71654D01*
X160321Y71554D01*
X160268Y71453D01*
X160218Y71350D01*
X160172Y71245D01*
X160129Y71139D01*
X160091Y71031D01*
X160056Y70922D01*
X160025Y70812D01*
X159997Y70701D01*
X159974Y70589D01*
X159954Y70476D01*
X159938Y70363D01*
X159926Y70249D01*
X159918Y70135D01*
X159914Y70020D01*
X159914Y69906D01*
X159918Y69791D01*
X159926Y69677D01*
X159938Y69563D01*
X159954Y69450D01*
X159974Y69337D01*
X159997Y69225D01*
X160025Y69114D01*
X160056Y69004D01*
X160091Y68895D01*
X160129Y68787D01*
X160172Y68681D01*
X160218Y68576D01*
X160268Y68473D01*
X160321Y68372D01*
X160378Y68272D01*
X160438Y68175D01*
X160501Y68079D01*
X160568Y67986D01*
X160637Y67896D01*
X160710Y67807D01*
X160786Y67722D01*
X160865Y67639D01*
X160947Y67558D01*
X161031Y67481D01*
X161118Y67407D01*
X161208Y67335D01*
X161299Y67267D01*
X161394Y67202D01*
X161490Y67140D01*
X161589Y67082D01*
X161689Y67027D01*
X161791Y66975D01*
X161895Y66928D01*
X162001Y66883D01*
X162108Y66843D01*
X162216Y66806D01*
X162326Y66773D01*
X162436Y66743D01*
X162548Y66718D01*
X162660Y66696D01*
X162774Y66679D01*
X162887Y66665D01*
X163001Y66655D01*
X163116Y66649D01*
X163230Y66647D01*
X166546Y66647D01*
X155265Y64657D02*
X155265Y73279D01*
X155264Y64657D02*
X155262Y64543D01*
X155256Y64428D01*
X155246Y64314D01*
X155232Y64201D01*
X155215Y64087D01*
X155193Y63975D01*
X155168Y63863D01*
X155138Y63753D01*
X155105Y63643D01*
X155068Y63535D01*
X155028Y63428D01*
X154983Y63322D01*
X154936Y63218D01*
X154884Y63116D01*
X154829Y63016D01*
X154771Y62917D01*
X154709Y62821D01*
X154644Y62726D01*
X154576Y62635D01*
X154504Y62545D01*
X154430Y62458D01*
X154353Y62374D01*
X154272Y62292D01*
X154189Y62213D01*
X154104Y62137D01*
X154015Y62064D01*
X153925Y61995D01*
X153832Y61928D01*
X153736Y61865D01*
X153639Y61805D01*
X153539Y61748D01*
X153438Y61695D01*
X153335Y61645D01*
X153230Y61599D01*
X153124Y61556D01*
X153016Y61518D01*
X152907Y61483D01*
X152797Y61452D01*
X152686Y61424D01*
X152574Y61401D01*
X152461Y61381D01*
X152348Y61365D01*
X152234Y61353D01*
X152120Y61345D01*
X152005Y61341D01*
X151891Y61341D01*
X151776Y61345D01*
X151662Y61353D01*
X151548Y61365D01*
X151435Y61381D01*
X151322Y61401D01*
X151210Y61424D01*
X151099Y61452D01*
X150989Y61483D01*
X150880Y61518D01*
X150772Y61556D01*
X150666Y61599D01*
X150561Y61645D01*
X150458Y61695D01*
X150357Y61748D01*
X150257Y61805D01*
X150160Y61865D01*
X150064Y61928D01*
X149971Y61995D01*
X149881Y62064D01*
X149792Y62137D01*
X149707Y62213D01*
X149624Y62292D01*
X149543Y62374D01*
X149466Y62458D01*
X149392Y62545D01*
X149320Y62635D01*
X149252Y62726D01*
X149187Y62821D01*
X149125Y62917D01*
X149067Y63016D01*
X149012Y63116D01*
X148960Y63218D01*
X148913Y63322D01*
X148868Y63428D01*
X148828Y63535D01*
X148791Y63643D01*
X148758Y63753D01*
X148728Y63863D01*
X148703Y63975D01*
X148681Y64087D01*
X148664Y64201D01*
X148650Y64314D01*
X148640Y64428D01*
X148634Y64543D01*
X148632Y64657D01*
X148632Y73279D01*
X140899Y73279D02*
X140899Y61341D01*
X137583Y73279D02*
X144216Y73279D01*
X133449Y65984D02*
X125490Y65984D01*
X121257Y61341D02*
X117278Y73279D01*
X113298Y61341D01*
X114293Y64326D02*
X120262Y64326D01*
D12*
X234061Y54610D02*
X375539Y54610D01*
X375539Y7112D01*
X234061Y7112D01*
X234061Y54610D01*
D13*
X231521Y7620D02*
X231523Y7742D01*
X231529Y7864D01*
X231539Y7986D01*
X231552Y8107D01*
X231570Y8228D01*
X231591Y8348D01*
X231617Y8468D01*
X231646Y8586D01*
X231678Y8704D01*
X231715Y8821D01*
X231755Y8936D01*
X231799Y9050D01*
X231847Y9162D01*
X231898Y9273D01*
X231953Y9382D01*
X232011Y9490D01*
X232073Y9595D01*
X232138Y9698D01*
X232206Y9800D01*
X232278Y9899D01*
X232352Y9995D01*
X232430Y10090D01*
X232511Y10181D01*
X232594Y10271D01*
X232680Y10357D01*
X232770Y10440D01*
X232861Y10521D01*
X232956Y10599D01*
X233052Y10673D01*
X233151Y10745D01*
X233253Y10813D01*
X233356Y10878D01*
X233461Y10940D01*
X233569Y10998D01*
X233678Y11053D01*
X233789Y11104D01*
X233901Y11152D01*
X234015Y11196D01*
X234130Y11236D01*
X234247Y11273D01*
X234365Y11305D01*
X234483Y11334D01*
X234603Y11360D01*
X234723Y11381D01*
X234844Y11399D01*
X234965Y11412D01*
X235087Y11422D01*
X235209Y11428D01*
X235331Y11430D01*
X235453Y11428D01*
X235575Y11422D01*
X235697Y11412D01*
X235818Y11399D01*
X235939Y11381D01*
X236059Y11360D01*
X236179Y11334D01*
X236297Y11305D01*
X236415Y11273D01*
X236532Y11236D01*
X236647Y11196D01*
X236761Y11152D01*
X236873Y11104D01*
X236984Y11053D01*
X237093Y10998D01*
X237201Y10940D01*
X237306Y10878D01*
X237409Y10813D01*
X237511Y10745D01*
X237610Y10673D01*
X237706Y10599D01*
X237801Y10521D01*
X237892Y10440D01*
X237982Y10357D01*
X238068Y10271D01*
X238151Y10181D01*
X238232Y10090D01*
X238310Y9995D01*
X238384Y9899D01*
X238456Y9800D01*
X238524Y9698D01*
X238589Y9595D01*
X238651Y9490D01*
X238709Y9382D01*
X238764Y9273D01*
X238815Y9162D01*
X238863Y9050D01*
X238907Y8936D01*
X238947Y8821D01*
X238984Y8704D01*
X239016Y8586D01*
X239045Y8468D01*
X239071Y8348D01*
X239092Y8228D01*
X239110Y8107D01*
X239123Y7986D01*
X239133Y7864D01*
X239139Y7742D01*
X239141Y7620D01*
X239139Y7498D01*
X239133Y7376D01*
X239123Y7254D01*
X239110Y7133D01*
X239092Y7012D01*
X239071Y6892D01*
X239045Y6772D01*
X239016Y6654D01*
X238984Y6536D01*
X238947Y6419D01*
X238907Y6304D01*
X238863Y6190D01*
X238815Y6078D01*
X238764Y5967D01*
X238709Y5858D01*
X238651Y5750D01*
X238589Y5645D01*
X238524Y5542D01*
X238456Y5440D01*
X238384Y5341D01*
X238310Y5245D01*
X238232Y5150D01*
X238151Y5059D01*
X238068Y4969D01*
X237982Y4883D01*
X237892Y4800D01*
X237801Y4719D01*
X237706Y4641D01*
X237610Y4567D01*
X237511Y4495D01*
X237409Y4427D01*
X237306Y4362D01*
X237201Y4300D01*
X237093Y4242D01*
X236984Y4187D01*
X236873Y4136D01*
X236761Y4088D01*
X236647Y4044D01*
X236532Y4004D01*
X236415Y3967D01*
X236297Y3935D01*
X236179Y3906D01*
X236059Y3880D01*
X235939Y3859D01*
X235818Y3841D01*
X235697Y3828D01*
X235575Y3818D01*
X235453Y3812D01*
X235331Y3810D01*
X235209Y3812D01*
X235087Y3818D01*
X234965Y3828D01*
X234844Y3841D01*
X234723Y3859D01*
X234603Y3880D01*
X234483Y3906D01*
X234365Y3935D01*
X234247Y3967D01*
X234130Y4004D01*
X234015Y4044D01*
X233901Y4088D01*
X233789Y4136D01*
X233678Y4187D01*
X233569Y4242D01*
X233461Y4300D01*
X233356Y4362D01*
X233253Y4427D01*
X233151Y4495D01*
X233052Y4567D01*
X232956Y4641D01*
X232861Y4719D01*
X232770Y4800D01*
X232680Y4883D01*
X232594Y4969D01*
X232511Y5059D01*
X232430Y5150D01*
X232352Y5245D01*
X232278Y5341D01*
X232206Y5440D01*
X232138Y5542D01*
X232073Y5645D01*
X232011Y5750D01*
X231953Y5858D01*
X231898Y5967D01*
X231847Y6078D01*
X231799Y6190D01*
X231755Y6304D01*
X231715Y6419D01*
X231678Y6536D01*
X231646Y6654D01*
X231617Y6772D01*
X231591Y6892D01*
X231570Y7012D01*
X231552Y7133D01*
X231539Y7254D01*
X231529Y7376D01*
X231523Y7498D01*
X231521Y7620D01*
D10*
X337428Y61341D02*
X337428Y73279D01*
X338755Y61341D02*
X336102Y61341D01*
X336102Y73279D02*
X338755Y73279D01*
X331219Y73279D02*
X331219Y61341D01*
X324587Y61341D02*
X331219Y73279D01*
X324587Y73279D02*
X324587Y61341D01*
X318879Y61341D02*
X318879Y73279D01*
X315563Y73279D01*
X315449Y73277D01*
X315334Y73271D01*
X315220Y73261D01*
X315107Y73247D01*
X314993Y73230D01*
X314881Y73208D01*
X314769Y73183D01*
X314659Y73153D01*
X314549Y73120D01*
X314441Y73083D01*
X314334Y73043D01*
X314228Y72998D01*
X314124Y72951D01*
X314022Y72899D01*
X313922Y72844D01*
X313823Y72786D01*
X313727Y72724D01*
X313632Y72659D01*
X313541Y72591D01*
X313451Y72519D01*
X313364Y72445D01*
X313280Y72368D01*
X313198Y72287D01*
X313119Y72204D01*
X313043Y72119D01*
X312970Y72030D01*
X312901Y71940D01*
X312834Y71847D01*
X312771Y71751D01*
X312711Y71654D01*
X312654Y71554D01*
X312601Y71453D01*
X312551Y71350D01*
X312505Y71245D01*
X312462Y71139D01*
X312424Y71031D01*
X312389Y70922D01*
X312358Y70812D01*
X312330Y70701D01*
X312307Y70589D01*
X312287Y70476D01*
X312271Y70363D01*
X312259Y70249D01*
X312251Y70135D01*
X312247Y70020D01*
X312247Y69906D01*
X312251Y69791D01*
X312259Y69677D01*
X312271Y69563D01*
X312287Y69450D01*
X312307Y69337D01*
X312330Y69225D01*
X312358Y69114D01*
X312389Y69004D01*
X312424Y68895D01*
X312462Y68787D01*
X312505Y68681D01*
X312551Y68576D01*
X312601Y68473D01*
X312654Y68372D01*
X312711Y68272D01*
X312771Y68175D01*
X312834Y68079D01*
X312901Y67986D01*
X312970Y67896D01*
X313043Y67807D01*
X313119Y67722D01*
X313198Y67639D01*
X313280Y67558D01*
X313364Y67481D01*
X313451Y67407D01*
X313541Y67335D01*
X313632Y67267D01*
X313727Y67202D01*
X313823Y67140D01*
X313922Y67082D01*
X314022Y67027D01*
X314124Y66975D01*
X314228Y66928D01*
X314334Y66883D01*
X314441Y66843D01*
X314549Y66806D01*
X314659Y66773D01*
X314769Y66743D01*
X314881Y66718D01*
X314993Y66696D01*
X315107Y66679D01*
X315220Y66665D01*
X315334Y66655D01*
X315449Y66649D01*
X315563Y66647D01*
X318879Y66647D01*
X307598Y64657D02*
X307598Y73279D01*
X307597Y64657D02*
X307595Y64543D01*
X307589Y64428D01*
X307579Y64314D01*
X307565Y64201D01*
X307548Y64087D01*
X307526Y63975D01*
X307501Y63863D01*
X307471Y63753D01*
X307438Y63643D01*
X307401Y63535D01*
X307361Y63428D01*
X307316Y63322D01*
X307269Y63218D01*
X307217Y63116D01*
X307162Y63016D01*
X307104Y62917D01*
X307042Y62821D01*
X306977Y62726D01*
X306909Y62635D01*
X306837Y62545D01*
X306763Y62458D01*
X306686Y62374D01*
X306605Y62292D01*
X306522Y62213D01*
X306437Y62137D01*
X306348Y62064D01*
X306258Y61995D01*
X306165Y61928D01*
X306069Y61865D01*
X305972Y61805D01*
X305872Y61748D01*
X305771Y61695D01*
X305668Y61645D01*
X305563Y61599D01*
X305457Y61556D01*
X305349Y61518D01*
X305240Y61483D01*
X305130Y61452D01*
X305019Y61424D01*
X304907Y61401D01*
X304794Y61381D01*
X304681Y61365D01*
X304567Y61353D01*
X304453Y61345D01*
X304338Y61341D01*
X304224Y61341D01*
X304109Y61345D01*
X303995Y61353D01*
X303881Y61365D01*
X303768Y61381D01*
X303655Y61401D01*
X303543Y61424D01*
X303432Y61452D01*
X303322Y61483D01*
X303213Y61518D01*
X303105Y61556D01*
X302999Y61599D01*
X302894Y61645D01*
X302791Y61695D01*
X302690Y61748D01*
X302590Y61805D01*
X302493Y61865D01*
X302397Y61928D01*
X302304Y61995D01*
X302214Y62064D01*
X302125Y62137D01*
X302040Y62213D01*
X301957Y62292D01*
X301876Y62374D01*
X301799Y62458D01*
X301725Y62545D01*
X301653Y62635D01*
X301585Y62726D01*
X301520Y62821D01*
X301458Y62917D01*
X301400Y63016D01*
X301345Y63116D01*
X301293Y63218D01*
X301246Y63322D01*
X301201Y63428D01*
X301161Y63535D01*
X301124Y63643D01*
X301091Y63753D01*
X301061Y63863D01*
X301036Y63975D01*
X301014Y64087D01*
X300997Y64201D01*
X300983Y64314D01*
X300973Y64428D01*
X300967Y64543D01*
X300965Y64657D01*
X300965Y73279D01*
X293232Y73279D02*
X293232Y61341D01*
X289916Y73279D02*
X296549Y73279D01*
X285782Y65984D02*
X277823Y65984D01*
X272397Y67973D02*
X269081Y67973D01*
X268967Y67971D01*
X268852Y67965D01*
X268738Y67955D01*
X268625Y67941D01*
X268511Y67924D01*
X268399Y67902D01*
X268287Y67877D01*
X268177Y67847D01*
X268067Y67814D01*
X267959Y67777D01*
X267852Y67737D01*
X267746Y67692D01*
X267642Y67645D01*
X267540Y67593D01*
X267440Y67538D01*
X267341Y67480D01*
X267245Y67418D01*
X267150Y67353D01*
X267059Y67285D01*
X266969Y67213D01*
X266882Y67139D01*
X266798Y67062D01*
X266716Y66981D01*
X266637Y66898D01*
X266561Y66813D01*
X266488Y66724D01*
X266419Y66634D01*
X266352Y66541D01*
X266289Y66445D01*
X266229Y66348D01*
X266172Y66248D01*
X266119Y66147D01*
X266069Y66044D01*
X266023Y65939D01*
X265980Y65833D01*
X265942Y65725D01*
X265907Y65616D01*
X265876Y65506D01*
X265848Y65395D01*
X265825Y65283D01*
X265805Y65170D01*
X265789Y65057D01*
X265777Y64943D01*
X265769Y64829D01*
X265765Y64714D01*
X265765Y64600D01*
X265769Y64485D01*
X265777Y64371D01*
X265789Y64257D01*
X265805Y64144D01*
X265825Y64031D01*
X265848Y63919D01*
X265876Y63808D01*
X265907Y63698D01*
X265942Y63589D01*
X265980Y63481D01*
X266023Y63375D01*
X266069Y63270D01*
X266119Y63167D01*
X266172Y63066D01*
X266229Y62966D01*
X266289Y62869D01*
X266352Y62773D01*
X266419Y62680D01*
X266488Y62590D01*
X266561Y62501D01*
X266637Y62416D01*
X266716Y62333D01*
X266798Y62252D01*
X266882Y62175D01*
X266969Y62101D01*
X267059Y62029D01*
X267150Y61961D01*
X267245Y61896D01*
X267341Y61834D01*
X267440Y61776D01*
X267540Y61721D01*
X267642Y61669D01*
X267746Y61622D01*
X267852Y61577D01*
X267959Y61537D01*
X268067Y61500D01*
X268177Y61467D01*
X268287Y61437D01*
X268399Y61412D01*
X268511Y61390D01*
X268625Y61373D01*
X268738Y61359D01*
X268852Y61349D01*
X268967Y61343D01*
X269081Y61341D01*
X272397Y61341D01*
X272397Y73279D01*
X269081Y73279D01*
X268979Y73277D01*
X268878Y73271D01*
X268777Y73261D01*
X268676Y73248D01*
X268576Y73230D01*
X268477Y73209D01*
X268378Y73184D01*
X268281Y73155D01*
X268184Y73123D01*
X268089Y73087D01*
X267996Y73047D01*
X267904Y73004D01*
X267814Y72957D01*
X267725Y72906D01*
X267639Y72853D01*
X267555Y72796D01*
X267473Y72736D01*
X267393Y72673D01*
X267316Y72607D01*
X267241Y72538D01*
X267169Y72466D01*
X267100Y72391D01*
X267034Y72314D01*
X266971Y72234D01*
X266911Y72152D01*
X266854Y72068D01*
X266801Y71982D01*
X266750Y71893D01*
X266703Y71803D01*
X266660Y71711D01*
X266620Y71618D01*
X266584Y71523D01*
X266552Y71426D01*
X266523Y71329D01*
X266498Y71230D01*
X266477Y71131D01*
X266459Y71031D01*
X266446Y70930D01*
X266436Y70829D01*
X266430Y70728D01*
X266428Y70626D01*
X266430Y70524D01*
X266436Y70423D01*
X266446Y70322D01*
X266459Y70221D01*
X266477Y70121D01*
X266498Y70022D01*
X266523Y69923D01*
X266552Y69826D01*
X266584Y69729D01*
X266620Y69634D01*
X266660Y69541D01*
X266703Y69449D01*
X266750Y69359D01*
X266801Y69270D01*
X266854Y69184D01*
X266911Y69100D01*
X266971Y69018D01*
X267034Y68938D01*
X267100Y68861D01*
X267169Y68786D01*
X267241Y68714D01*
X267316Y68645D01*
X267393Y68579D01*
X267473Y68516D01*
X267555Y68456D01*
X267639Y68399D01*
X267725Y68346D01*
X267814Y68295D01*
X267904Y68248D01*
X267996Y68205D01*
X268089Y68165D01*
X268184Y68129D01*
X268281Y68097D01*
X268378Y68068D01*
X268477Y68043D01*
X268576Y68022D01*
X268676Y68004D01*
X268777Y67991D01*
X268878Y67981D01*
X268979Y67975D01*
X269081Y67973D01*
D12*
X386461Y54610D02*
X527939Y54610D01*
X527939Y7112D01*
X386461Y7112D01*
X386461Y54610D01*
D13*
X383921Y7620D02*
X383923Y7742D01*
X383929Y7864D01*
X383939Y7986D01*
X383952Y8107D01*
X383970Y8228D01*
X383991Y8348D01*
X384017Y8468D01*
X384046Y8586D01*
X384078Y8704D01*
X384115Y8821D01*
X384155Y8936D01*
X384199Y9050D01*
X384247Y9162D01*
X384298Y9273D01*
X384353Y9382D01*
X384411Y9490D01*
X384473Y9595D01*
X384538Y9698D01*
X384606Y9800D01*
X384678Y9899D01*
X384752Y9995D01*
X384830Y10090D01*
X384911Y10181D01*
X384994Y10271D01*
X385080Y10357D01*
X385170Y10440D01*
X385261Y10521D01*
X385356Y10599D01*
X385452Y10673D01*
X385551Y10745D01*
X385653Y10813D01*
X385756Y10878D01*
X385861Y10940D01*
X385969Y10998D01*
X386078Y11053D01*
X386189Y11104D01*
X386301Y11152D01*
X386415Y11196D01*
X386530Y11236D01*
X386647Y11273D01*
X386765Y11305D01*
X386883Y11334D01*
X387003Y11360D01*
X387123Y11381D01*
X387244Y11399D01*
X387365Y11412D01*
X387487Y11422D01*
X387609Y11428D01*
X387731Y11430D01*
X387853Y11428D01*
X387975Y11422D01*
X388097Y11412D01*
X388218Y11399D01*
X388339Y11381D01*
X388459Y11360D01*
X388579Y11334D01*
X388697Y11305D01*
X388815Y11273D01*
X388932Y11236D01*
X389047Y11196D01*
X389161Y11152D01*
X389273Y11104D01*
X389384Y11053D01*
X389493Y10998D01*
X389601Y10940D01*
X389706Y10878D01*
X389809Y10813D01*
X389911Y10745D01*
X390010Y10673D01*
X390106Y10599D01*
X390201Y10521D01*
X390292Y10440D01*
X390382Y10357D01*
X390468Y10271D01*
X390551Y10181D01*
X390632Y10090D01*
X390710Y9995D01*
X390784Y9899D01*
X390856Y9800D01*
X390924Y9698D01*
X390989Y9595D01*
X391051Y9490D01*
X391109Y9382D01*
X391164Y9273D01*
X391215Y9162D01*
X391263Y9050D01*
X391307Y8936D01*
X391347Y8821D01*
X391384Y8704D01*
X391416Y8586D01*
X391445Y8468D01*
X391471Y8348D01*
X391492Y8228D01*
X391510Y8107D01*
X391523Y7986D01*
X391533Y7864D01*
X391539Y7742D01*
X391541Y7620D01*
X391539Y7498D01*
X391533Y7376D01*
X391523Y7254D01*
X391510Y7133D01*
X391492Y7012D01*
X391471Y6892D01*
X391445Y6772D01*
X391416Y6654D01*
X391384Y6536D01*
X391347Y6419D01*
X391307Y6304D01*
X391263Y6190D01*
X391215Y6078D01*
X391164Y5967D01*
X391109Y5858D01*
X391051Y5750D01*
X390989Y5645D01*
X390924Y5542D01*
X390856Y5440D01*
X390784Y5341D01*
X390710Y5245D01*
X390632Y5150D01*
X390551Y5059D01*
X390468Y4969D01*
X390382Y4883D01*
X390292Y4800D01*
X390201Y4719D01*
X390106Y4641D01*
X390010Y4567D01*
X389911Y4495D01*
X389809Y4427D01*
X389706Y4362D01*
X389601Y4300D01*
X389493Y4242D01*
X389384Y4187D01*
X389273Y4136D01*
X389161Y4088D01*
X389047Y4044D01*
X388932Y4004D01*
X388815Y3967D01*
X388697Y3935D01*
X388579Y3906D01*
X388459Y3880D01*
X388339Y3859D01*
X388218Y3841D01*
X388097Y3828D01*
X387975Y3818D01*
X387853Y3812D01*
X387731Y3810D01*
X387609Y3812D01*
X387487Y3818D01*
X387365Y3828D01*
X387244Y3841D01*
X387123Y3859D01*
X387003Y3880D01*
X386883Y3906D01*
X386765Y3935D01*
X386647Y3967D01*
X386530Y4004D01*
X386415Y4044D01*
X386301Y4088D01*
X386189Y4136D01*
X386078Y4187D01*
X385969Y4242D01*
X385861Y4300D01*
X385756Y4362D01*
X385653Y4427D01*
X385551Y4495D01*
X385452Y4567D01*
X385356Y4641D01*
X385261Y4719D01*
X385170Y4800D01*
X385080Y4883D01*
X384994Y4969D01*
X384911Y5059D01*
X384830Y5150D01*
X384752Y5245D01*
X384678Y5341D01*
X384606Y5440D01*
X384538Y5542D01*
X384473Y5645D01*
X384411Y5750D01*
X384353Y5858D01*
X384298Y5967D01*
X384247Y6078D01*
X384199Y6190D01*
X384155Y6304D01*
X384115Y6419D01*
X384078Y6536D01*
X384046Y6654D01*
X384017Y6772D01*
X383991Y6892D01*
X383970Y7012D01*
X383952Y7133D01*
X383939Y7254D01*
X383929Y7376D01*
X383923Y7498D01*
X383921Y7620D01*
D10*
X488886Y61341D02*
X488886Y73279D01*
X490212Y61341D02*
X487560Y61341D01*
X487560Y73279D02*
X490212Y73279D01*
X482677Y73279D02*
X482677Y61341D01*
X476045Y61341D02*
X482677Y73279D01*
X476045Y73279D02*
X476045Y61341D01*
X470337Y61341D02*
X470337Y73279D01*
X467021Y73279D01*
X466907Y73277D01*
X466792Y73271D01*
X466678Y73261D01*
X466565Y73247D01*
X466451Y73230D01*
X466339Y73208D01*
X466227Y73183D01*
X466117Y73153D01*
X466007Y73120D01*
X465899Y73083D01*
X465792Y73043D01*
X465686Y72998D01*
X465582Y72951D01*
X465480Y72899D01*
X465380Y72844D01*
X465281Y72786D01*
X465185Y72724D01*
X465090Y72659D01*
X464999Y72591D01*
X464909Y72519D01*
X464822Y72445D01*
X464738Y72368D01*
X464656Y72287D01*
X464577Y72204D01*
X464501Y72119D01*
X464428Y72030D01*
X464359Y71940D01*
X464292Y71847D01*
X464229Y71751D01*
X464169Y71654D01*
X464112Y71554D01*
X464059Y71453D01*
X464009Y71350D01*
X463963Y71245D01*
X463920Y71139D01*
X463882Y71031D01*
X463847Y70922D01*
X463816Y70812D01*
X463788Y70701D01*
X463765Y70589D01*
X463745Y70476D01*
X463729Y70363D01*
X463717Y70249D01*
X463709Y70135D01*
X463705Y70020D01*
X463705Y69906D01*
X463709Y69791D01*
X463717Y69677D01*
X463729Y69563D01*
X463745Y69450D01*
X463765Y69337D01*
X463788Y69225D01*
X463816Y69114D01*
X463847Y69004D01*
X463882Y68895D01*
X463920Y68787D01*
X463963Y68681D01*
X464009Y68576D01*
X464059Y68473D01*
X464112Y68372D01*
X464169Y68272D01*
X464229Y68175D01*
X464292Y68079D01*
X464359Y67986D01*
X464428Y67896D01*
X464501Y67807D01*
X464577Y67722D01*
X464656Y67639D01*
X464738Y67558D01*
X464822Y67481D01*
X464909Y67407D01*
X464999Y67335D01*
X465090Y67267D01*
X465185Y67202D01*
X465281Y67140D01*
X465380Y67082D01*
X465480Y67027D01*
X465582Y66975D01*
X465686Y66928D01*
X465792Y66883D01*
X465899Y66843D01*
X466007Y66806D01*
X466117Y66773D01*
X466227Y66743D01*
X466339Y66718D01*
X466451Y66696D01*
X466565Y66679D01*
X466678Y66665D01*
X466792Y66655D01*
X466907Y66649D01*
X467021Y66647D01*
X470337Y66647D01*
X459055Y64657D02*
X459055Y73279D01*
X459055Y64657D02*
X459053Y64543D01*
X459047Y64428D01*
X459037Y64314D01*
X459023Y64201D01*
X459006Y64087D01*
X458984Y63975D01*
X458959Y63863D01*
X458929Y63753D01*
X458896Y63643D01*
X458859Y63535D01*
X458819Y63428D01*
X458774Y63322D01*
X458727Y63218D01*
X458675Y63116D01*
X458620Y63016D01*
X458562Y62917D01*
X458500Y62821D01*
X458435Y62726D01*
X458367Y62635D01*
X458295Y62545D01*
X458221Y62458D01*
X458144Y62374D01*
X458063Y62292D01*
X457980Y62213D01*
X457895Y62137D01*
X457806Y62064D01*
X457716Y61995D01*
X457623Y61928D01*
X457527Y61865D01*
X457430Y61805D01*
X457330Y61748D01*
X457229Y61695D01*
X457126Y61645D01*
X457021Y61599D01*
X456915Y61556D01*
X456807Y61518D01*
X456698Y61483D01*
X456588Y61452D01*
X456477Y61424D01*
X456365Y61401D01*
X456252Y61381D01*
X456139Y61365D01*
X456025Y61353D01*
X455911Y61345D01*
X455796Y61341D01*
X455682Y61341D01*
X455567Y61345D01*
X455453Y61353D01*
X455339Y61365D01*
X455226Y61381D01*
X455113Y61401D01*
X455001Y61424D01*
X454890Y61452D01*
X454780Y61483D01*
X454671Y61518D01*
X454563Y61556D01*
X454457Y61599D01*
X454352Y61645D01*
X454249Y61695D01*
X454148Y61748D01*
X454048Y61805D01*
X453951Y61865D01*
X453855Y61928D01*
X453762Y61995D01*
X453672Y62064D01*
X453583Y62137D01*
X453498Y62213D01*
X453415Y62292D01*
X453334Y62374D01*
X453257Y62458D01*
X453183Y62545D01*
X453111Y62635D01*
X453043Y62726D01*
X452978Y62821D01*
X452916Y62917D01*
X452858Y63016D01*
X452803Y63116D01*
X452751Y63218D01*
X452704Y63322D01*
X452659Y63428D01*
X452619Y63535D01*
X452582Y63643D01*
X452549Y63753D01*
X452519Y63863D01*
X452494Y63975D01*
X452472Y64087D01*
X452455Y64201D01*
X452441Y64314D01*
X452431Y64428D01*
X452425Y64543D01*
X452423Y64657D01*
X452423Y73279D01*
X444690Y73279D02*
X444690Y61341D01*
X448006Y73279D02*
X441374Y73279D01*
X437239Y65984D02*
X429281Y65984D01*
X421760Y61341D02*
X419108Y61341D01*
X421760Y61341D02*
X421862Y61343D01*
X421963Y61349D01*
X422064Y61359D01*
X422165Y61372D01*
X422265Y61390D01*
X422364Y61411D01*
X422463Y61436D01*
X422560Y61465D01*
X422657Y61497D01*
X422752Y61533D01*
X422845Y61573D01*
X422937Y61616D01*
X423027Y61663D01*
X423116Y61714D01*
X423202Y61767D01*
X423286Y61824D01*
X423368Y61884D01*
X423448Y61947D01*
X423525Y62013D01*
X423600Y62082D01*
X423672Y62154D01*
X423741Y62229D01*
X423807Y62306D01*
X423870Y62386D01*
X423930Y62468D01*
X423987Y62552D01*
X424040Y62638D01*
X424091Y62727D01*
X424138Y62817D01*
X424181Y62909D01*
X424221Y63002D01*
X424257Y63097D01*
X424289Y63194D01*
X424318Y63291D01*
X424343Y63390D01*
X424364Y63489D01*
X424382Y63589D01*
X424395Y63690D01*
X424405Y63791D01*
X424411Y63892D01*
X424413Y63994D01*
X424413Y70626D01*
X424411Y70728D01*
X424405Y70829D01*
X424395Y70930D01*
X424382Y71031D01*
X424364Y71131D01*
X424343Y71230D01*
X424318Y71329D01*
X424289Y71426D01*
X424257Y71523D01*
X424221Y71618D01*
X424181Y71711D01*
X424138Y71803D01*
X424091Y71893D01*
X424040Y71982D01*
X423987Y72068D01*
X423930Y72152D01*
X423870Y72234D01*
X423807Y72314D01*
X423741Y72391D01*
X423672Y72466D01*
X423600Y72538D01*
X423525Y72607D01*
X423448Y72673D01*
X423368Y72736D01*
X423286Y72796D01*
X423202Y72853D01*
X423116Y72906D01*
X423027Y72957D01*
X422937Y73004D01*
X422845Y73047D01*
X422752Y73087D01*
X422657Y73123D01*
X422560Y73155D01*
X422463Y73184D01*
X422364Y73209D01*
X422265Y73230D01*
X422165Y73248D01*
X422064Y73261D01*
X421963Y73271D01*
X421862Y73277D01*
X421760Y73279D01*
X419108Y73279D01*
D12*
X538861Y54610D02*
X680339Y54610D01*
X680339Y7112D01*
X538861Y7112D01*
X538861Y54610D01*
D13*
X536321Y7620D02*
X536323Y7742D01*
X536329Y7864D01*
X536339Y7986D01*
X536352Y8107D01*
X536370Y8228D01*
X536391Y8348D01*
X536417Y8468D01*
X536446Y8586D01*
X536478Y8704D01*
X536515Y8821D01*
X536555Y8936D01*
X536599Y9050D01*
X536647Y9162D01*
X536698Y9273D01*
X536753Y9382D01*
X536811Y9490D01*
X536873Y9595D01*
X536938Y9698D01*
X537006Y9800D01*
X537078Y9899D01*
X537152Y9995D01*
X537230Y10090D01*
X537311Y10181D01*
X537394Y10271D01*
X537480Y10357D01*
X537570Y10440D01*
X537661Y10521D01*
X537756Y10599D01*
X537852Y10673D01*
X537951Y10745D01*
X538053Y10813D01*
X538156Y10878D01*
X538261Y10940D01*
X538369Y10998D01*
X538478Y11053D01*
X538589Y11104D01*
X538701Y11152D01*
X538815Y11196D01*
X538930Y11236D01*
X539047Y11273D01*
X539165Y11305D01*
X539283Y11334D01*
X539403Y11360D01*
X539523Y11381D01*
X539644Y11399D01*
X539765Y11412D01*
X539887Y11422D01*
X540009Y11428D01*
X540131Y11430D01*
X540253Y11428D01*
X540375Y11422D01*
X540497Y11412D01*
X540618Y11399D01*
X540739Y11381D01*
X540859Y11360D01*
X540979Y11334D01*
X541097Y11305D01*
X541215Y11273D01*
X541332Y11236D01*
X541447Y11196D01*
X541561Y11152D01*
X541673Y11104D01*
X541784Y11053D01*
X541893Y10998D01*
X542001Y10940D01*
X542106Y10878D01*
X542209Y10813D01*
X542311Y10745D01*
X542410Y10673D01*
X542506Y10599D01*
X542601Y10521D01*
X542692Y10440D01*
X542782Y10357D01*
X542868Y10271D01*
X542951Y10181D01*
X543032Y10090D01*
X543110Y9995D01*
X543184Y9899D01*
X543256Y9800D01*
X543324Y9698D01*
X543389Y9595D01*
X543451Y9490D01*
X543509Y9382D01*
X543564Y9273D01*
X543615Y9162D01*
X543663Y9050D01*
X543707Y8936D01*
X543747Y8821D01*
X543784Y8704D01*
X543816Y8586D01*
X543845Y8468D01*
X543871Y8348D01*
X543892Y8228D01*
X543910Y8107D01*
X543923Y7986D01*
X543933Y7864D01*
X543939Y7742D01*
X543941Y7620D01*
X543939Y7498D01*
X543933Y7376D01*
X543923Y7254D01*
X543910Y7133D01*
X543892Y7012D01*
X543871Y6892D01*
X543845Y6772D01*
X543816Y6654D01*
X543784Y6536D01*
X543747Y6419D01*
X543707Y6304D01*
X543663Y6190D01*
X543615Y6078D01*
X543564Y5967D01*
X543509Y5858D01*
X543451Y5750D01*
X543389Y5645D01*
X543324Y5542D01*
X543256Y5440D01*
X543184Y5341D01*
X543110Y5245D01*
X543032Y5150D01*
X542951Y5059D01*
X542868Y4969D01*
X542782Y4883D01*
X542692Y4800D01*
X542601Y4719D01*
X542506Y4641D01*
X542410Y4567D01*
X542311Y4495D01*
X542209Y4427D01*
X542106Y4362D01*
X542001Y4300D01*
X541893Y4242D01*
X541784Y4187D01*
X541673Y4136D01*
X541561Y4088D01*
X541447Y4044D01*
X541332Y4004D01*
X541215Y3967D01*
X541097Y3935D01*
X540979Y3906D01*
X540859Y3880D01*
X540739Y3859D01*
X540618Y3841D01*
X540497Y3828D01*
X540375Y3818D01*
X540253Y3812D01*
X540131Y3810D01*
X540009Y3812D01*
X539887Y3818D01*
X539765Y3828D01*
X539644Y3841D01*
X539523Y3859D01*
X539403Y3880D01*
X539283Y3906D01*
X539165Y3935D01*
X539047Y3967D01*
X538930Y4004D01*
X538815Y4044D01*
X538701Y4088D01*
X538589Y4136D01*
X538478Y4187D01*
X538369Y4242D01*
X538261Y4300D01*
X538156Y4362D01*
X538053Y4427D01*
X537951Y4495D01*
X537852Y4567D01*
X537756Y4641D01*
X537661Y4719D01*
X537570Y4800D01*
X537480Y4883D01*
X537394Y4969D01*
X537311Y5059D01*
X537230Y5150D01*
X537152Y5245D01*
X537078Y5341D01*
X537006Y5440D01*
X536938Y5542D01*
X536873Y5645D01*
X536811Y5750D01*
X536753Y5858D01*
X536698Y5967D01*
X536647Y6078D01*
X536599Y6190D01*
X536555Y6304D01*
X536515Y6419D01*
X536478Y6536D01*
X536446Y6654D01*
X536417Y6772D01*
X536391Y6892D01*
X536370Y7012D01*
X536352Y7133D01*
X536339Y7254D01*
X536329Y7376D01*
X536323Y7498D01*
X536321Y7620D01*
D10*
X642154Y61341D02*
X642154Y73279D01*
X643481Y61341D02*
X640828Y61341D01*
X640828Y73279D02*
X643481Y73279D01*
X635945Y73279D02*
X635945Y61341D01*
X629313Y61341D02*
X635945Y73279D01*
X629313Y73279D02*
X629313Y61341D01*
X623605Y61341D02*
X623605Y73279D01*
X620289Y73279D01*
X620175Y73277D01*
X620060Y73271D01*
X619946Y73261D01*
X619833Y73247D01*
X619719Y73230D01*
X619607Y73208D01*
X619495Y73183D01*
X619385Y73153D01*
X619275Y73120D01*
X619167Y73083D01*
X619060Y73043D01*
X618954Y72998D01*
X618850Y72951D01*
X618748Y72899D01*
X618648Y72844D01*
X618549Y72786D01*
X618453Y72724D01*
X618358Y72659D01*
X618267Y72591D01*
X618177Y72519D01*
X618090Y72445D01*
X618006Y72368D01*
X617924Y72287D01*
X617845Y72204D01*
X617769Y72119D01*
X617696Y72030D01*
X617627Y71940D01*
X617560Y71847D01*
X617497Y71751D01*
X617437Y71654D01*
X617380Y71554D01*
X617327Y71453D01*
X617277Y71350D01*
X617231Y71245D01*
X617188Y71139D01*
X617150Y71031D01*
X617115Y70922D01*
X617084Y70812D01*
X617056Y70701D01*
X617033Y70589D01*
X617013Y70476D01*
X616997Y70363D01*
X616985Y70249D01*
X616977Y70135D01*
X616973Y70020D01*
X616973Y69906D01*
X616977Y69791D01*
X616985Y69677D01*
X616997Y69563D01*
X617013Y69450D01*
X617033Y69337D01*
X617056Y69225D01*
X617084Y69114D01*
X617115Y69004D01*
X617150Y68895D01*
X617188Y68787D01*
X617231Y68681D01*
X617277Y68576D01*
X617327Y68473D01*
X617380Y68372D01*
X617437Y68272D01*
X617497Y68175D01*
X617560Y68079D01*
X617627Y67986D01*
X617696Y67896D01*
X617769Y67807D01*
X617845Y67722D01*
X617924Y67639D01*
X618006Y67558D01*
X618090Y67481D01*
X618177Y67407D01*
X618267Y67335D01*
X618358Y67267D01*
X618453Y67202D01*
X618549Y67140D01*
X618648Y67082D01*
X618748Y67027D01*
X618850Y66975D01*
X618954Y66928D01*
X619060Y66883D01*
X619167Y66843D01*
X619275Y66806D01*
X619385Y66773D01*
X619495Y66743D01*
X619607Y66718D01*
X619719Y66696D01*
X619833Y66679D01*
X619946Y66665D01*
X620060Y66655D01*
X620175Y66649D01*
X620289Y66647D01*
X623605Y66647D01*
X612323Y64657D02*
X612323Y73279D01*
X612323Y64657D02*
X612321Y64543D01*
X612315Y64428D01*
X612305Y64314D01*
X612291Y64201D01*
X612274Y64087D01*
X612252Y63975D01*
X612227Y63863D01*
X612197Y63753D01*
X612164Y63643D01*
X612127Y63535D01*
X612087Y63428D01*
X612042Y63322D01*
X611995Y63218D01*
X611943Y63116D01*
X611888Y63016D01*
X611830Y62917D01*
X611768Y62821D01*
X611703Y62726D01*
X611635Y62635D01*
X611563Y62545D01*
X611489Y62458D01*
X611412Y62374D01*
X611331Y62292D01*
X611248Y62213D01*
X611163Y62137D01*
X611074Y62064D01*
X610984Y61995D01*
X610891Y61928D01*
X610795Y61865D01*
X610698Y61805D01*
X610598Y61748D01*
X610497Y61695D01*
X610394Y61645D01*
X610289Y61599D01*
X610183Y61556D01*
X610075Y61518D01*
X609966Y61483D01*
X609856Y61452D01*
X609745Y61424D01*
X609633Y61401D01*
X609520Y61381D01*
X609407Y61365D01*
X609293Y61353D01*
X609179Y61345D01*
X609064Y61341D01*
X608950Y61341D01*
X608835Y61345D01*
X608721Y61353D01*
X608607Y61365D01*
X608494Y61381D01*
X608381Y61401D01*
X608269Y61424D01*
X608158Y61452D01*
X608048Y61483D01*
X607939Y61518D01*
X607831Y61556D01*
X607725Y61599D01*
X607620Y61645D01*
X607517Y61695D01*
X607416Y61748D01*
X607316Y61805D01*
X607219Y61865D01*
X607123Y61928D01*
X607030Y61995D01*
X606940Y62064D01*
X606851Y62137D01*
X606766Y62213D01*
X606683Y62292D01*
X606602Y62374D01*
X606525Y62458D01*
X606451Y62545D01*
X606379Y62635D01*
X606311Y62726D01*
X606246Y62821D01*
X606184Y62917D01*
X606126Y63016D01*
X606071Y63116D01*
X606019Y63218D01*
X605972Y63322D01*
X605927Y63428D01*
X605887Y63535D01*
X605850Y63643D01*
X605817Y63753D01*
X605787Y63863D01*
X605762Y63975D01*
X605740Y64087D01*
X605723Y64201D01*
X605709Y64314D01*
X605699Y64428D01*
X605693Y64543D01*
X605691Y64657D01*
X605691Y73279D01*
X597958Y73279D02*
X597958Y61341D01*
X601274Y73279D02*
X594642Y73279D01*
X590508Y65984D02*
X582549Y65984D01*
X577272Y61341D02*
X577272Y73279D01*
X573955Y73279D01*
X573842Y73277D01*
X573729Y73271D01*
X573616Y73262D01*
X573503Y73248D01*
X573392Y73231D01*
X573280Y73210D01*
X573170Y73185D01*
X573060Y73156D01*
X572952Y73124D01*
X572845Y73088D01*
X572739Y73048D01*
X572634Y73004D01*
X572531Y72958D01*
X572429Y72907D01*
X572330Y72853D01*
X572232Y72796D01*
X572136Y72736D01*
X572043Y72672D01*
X571951Y72605D01*
X571862Y72535D01*
X571776Y72462D01*
X571692Y72386D01*
X571610Y72308D01*
X571532Y72226D01*
X571456Y72142D01*
X571383Y72056D01*
X571313Y71967D01*
X571246Y71875D01*
X571182Y71782D01*
X571122Y71686D01*
X571065Y71588D01*
X571011Y71489D01*
X570960Y71387D01*
X570914Y71284D01*
X570870Y71179D01*
X570830Y71073D01*
X570794Y70966D01*
X570762Y70858D01*
X570733Y70748D01*
X570708Y70638D01*
X570687Y70526D01*
X570670Y70415D01*
X570656Y70302D01*
X570647Y70189D01*
X570641Y70076D01*
X570639Y69963D01*
X570639Y64657D01*
X570641Y64544D01*
X570647Y64431D01*
X570656Y64318D01*
X570670Y64205D01*
X570687Y64094D01*
X570708Y63982D01*
X570733Y63872D01*
X570762Y63762D01*
X570794Y63654D01*
X570830Y63547D01*
X570870Y63441D01*
X570914Y63336D01*
X570960Y63233D01*
X571011Y63131D01*
X571065Y63032D01*
X571122Y62934D01*
X571182Y62838D01*
X571246Y62745D01*
X571313Y62653D01*
X571383Y62564D01*
X571456Y62478D01*
X571532Y62394D01*
X571610Y62312D01*
X571692Y62234D01*
X571776Y62158D01*
X571862Y62085D01*
X571951Y62015D01*
X572043Y61948D01*
X572136Y61884D01*
X572232Y61824D01*
X572330Y61767D01*
X572429Y61713D01*
X572531Y61662D01*
X572634Y61616D01*
X572739Y61572D01*
X572845Y61532D01*
X572952Y61496D01*
X573060Y61464D01*
X573170Y61435D01*
X573280Y61410D01*
X573392Y61389D01*
X573503Y61372D01*
X573616Y61358D01*
X573729Y61349D01*
X573842Y61343D01*
X573955Y61341D01*
X577272Y61341D01*
D12*
X692150Y61341D02*
X692150Y202819D01*
X739648Y202819D01*
X739648Y61341D01*
X692150Y61341D01*
D13*
X739140Y58801D02*
X739018Y58803D01*
X738896Y58809D01*
X738774Y58819D01*
X738653Y58832D01*
X738532Y58850D01*
X738412Y58871D01*
X738292Y58897D01*
X738174Y58926D01*
X738056Y58958D01*
X737939Y58995D01*
X737824Y59035D01*
X737710Y59079D01*
X737598Y59127D01*
X737487Y59178D01*
X737378Y59233D01*
X737270Y59291D01*
X737165Y59353D01*
X737062Y59418D01*
X736960Y59486D01*
X736861Y59558D01*
X736765Y59632D01*
X736670Y59710D01*
X736579Y59791D01*
X736489Y59874D01*
X736403Y59960D01*
X736320Y60050D01*
X736239Y60141D01*
X736161Y60236D01*
X736087Y60332D01*
X736015Y60431D01*
X735947Y60533D01*
X735882Y60636D01*
X735820Y60741D01*
X735762Y60849D01*
X735707Y60958D01*
X735656Y61069D01*
X735608Y61181D01*
X735564Y61295D01*
X735524Y61410D01*
X735487Y61527D01*
X735455Y61645D01*
X735426Y61763D01*
X735400Y61883D01*
X735379Y62003D01*
X735361Y62124D01*
X735348Y62245D01*
X735338Y62367D01*
X735332Y62489D01*
X735330Y62611D01*
X735332Y62733D01*
X735338Y62855D01*
X735348Y62977D01*
X735361Y63098D01*
X735379Y63219D01*
X735400Y63339D01*
X735426Y63459D01*
X735455Y63577D01*
X735487Y63695D01*
X735524Y63812D01*
X735564Y63927D01*
X735608Y64041D01*
X735656Y64153D01*
X735707Y64264D01*
X735762Y64373D01*
X735820Y64481D01*
X735882Y64586D01*
X735947Y64689D01*
X736015Y64791D01*
X736087Y64890D01*
X736161Y64986D01*
X736239Y65081D01*
X736320Y65172D01*
X736403Y65262D01*
X736489Y65348D01*
X736579Y65431D01*
X736670Y65512D01*
X736765Y65590D01*
X736861Y65664D01*
X736960Y65736D01*
X737062Y65804D01*
X737165Y65869D01*
X737270Y65931D01*
X737378Y65989D01*
X737487Y66044D01*
X737598Y66095D01*
X737710Y66143D01*
X737824Y66187D01*
X737939Y66227D01*
X738056Y66264D01*
X738174Y66296D01*
X738292Y66325D01*
X738412Y66351D01*
X738532Y66372D01*
X738653Y66390D01*
X738774Y66403D01*
X738896Y66413D01*
X739018Y66419D01*
X739140Y66421D01*
X739262Y66419D01*
X739384Y66413D01*
X739506Y66403D01*
X739627Y66390D01*
X739748Y66372D01*
X739868Y66351D01*
X739988Y66325D01*
X740106Y66296D01*
X740224Y66264D01*
X740341Y66227D01*
X740456Y66187D01*
X740570Y66143D01*
X740682Y66095D01*
X740793Y66044D01*
X740902Y65989D01*
X741010Y65931D01*
X741115Y65869D01*
X741218Y65804D01*
X741320Y65736D01*
X741419Y65664D01*
X741515Y65590D01*
X741610Y65512D01*
X741701Y65431D01*
X741791Y65348D01*
X741877Y65262D01*
X741960Y65172D01*
X742041Y65081D01*
X742119Y64986D01*
X742193Y64890D01*
X742265Y64791D01*
X742333Y64689D01*
X742398Y64586D01*
X742460Y64481D01*
X742518Y64373D01*
X742573Y64264D01*
X742624Y64153D01*
X742672Y64041D01*
X742716Y63927D01*
X742756Y63812D01*
X742793Y63695D01*
X742825Y63577D01*
X742854Y63459D01*
X742880Y63339D01*
X742901Y63219D01*
X742919Y63098D01*
X742932Y62977D01*
X742942Y62855D01*
X742948Y62733D01*
X742950Y62611D01*
X742948Y62489D01*
X742942Y62367D01*
X742932Y62245D01*
X742919Y62124D01*
X742901Y62003D01*
X742880Y61883D01*
X742854Y61763D01*
X742825Y61645D01*
X742793Y61527D01*
X742756Y61410D01*
X742716Y61295D01*
X742672Y61181D01*
X742624Y61069D01*
X742573Y60958D01*
X742518Y60849D01*
X742460Y60741D01*
X742398Y60636D01*
X742333Y60533D01*
X742265Y60431D01*
X742193Y60332D01*
X742119Y60236D01*
X742041Y60141D01*
X741960Y60050D01*
X741877Y59960D01*
X741791Y59874D01*
X741701Y59791D01*
X741610Y59710D01*
X741515Y59632D01*
X741419Y59558D01*
X741320Y59486D01*
X741218Y59418D01*
X741115Y59353D01*
X741010Y59291D01*
X740902Y59233D01*
X740793Y59178D01*
X740682Y59127D01*
X740570Y59079D01*
X740456Y59035D01*
X740341Y58995D01*
X740224Y58958D01*
X740106Y58926D01*
X739988Y58897D01*
X739868Y58871D01*
X739748Y58850D01*
X739627Y58832D01*
X739506Y58819D01*
X739384Y58809D01*
X739262Y58803D01*
X739140Y58801D01*
D10*
X685419Y98147D02*
X673481Y98147D01*
X673481Y96821D02*
X673481Y99474D01*
X685419Y99474D02*
X685419Y96821D01*
X685419Y104356D02*
X673481Y104356D01*
X673481Y110988D02*
X685419Y104356D01*
X685419Y110988D02*
X673481Y110988D01*
X673481Y116696D02*
X685419Y116696D01*
X685419Y120012D01*
X685417Y120126D01*
X685411Y120241D01*
X685401Y120355D01*
X685387Y120468D01*
X685370Y120582D01*
X685348Y120694D01*
X685323Y120806D01*
X685293Y120916D01*
X685260Y121026D01*
X685223Y121134D01*
X685183Y121241D01*
X685138Y121347D01*
X685091Y121451D01*
X685039Y121553D01*
X684984Y121653D01*
X684926Y121752D01*
X684864Y121848D01*
X684799Y121943D01*
X684731Y122034D01*
X684659Y122124D01*
X684585Y122211D01*
X684508Y122295D01*
X684427Y122377D01*
X684344Y122456D01*
X684259Y122532D01*
X684170Y122605D01*
X684080Y122674D01*
X683987Y122741D01*
X683891Y122804D01*
X683794Y122864D01*
X683694Y122921D01*
X683593Y122974D01*
X683490Y123024D01*
X683385Y123070D01*
X683279Y123113D01*
X683171Y123151D01*
X683062Y123186D01*
X682952Y123217D01*
X682841Y123245D01*
X682729Y123268D01*
X682616Y123288D01*
X682503Y123304D01*
X682389Y123316D01*
X682275Y123324D01*
X682160Y123328D01*
X682046Y123328D01*
X681931Y123324D01*
X681817Y123316D01*
X681703Y123304D01*
X681590Y123288D01*
X681477Y123268D01*
X681365Y123245D01*
X681254Y123217D01*
X681144Y123186D01*
X681035Y123151D01*
X680927Y123113D01*
X680821Y123070D01*
X680716Y123024D01*
X680613Y122974D01*
X680512Y122921D01*
X680412Y122864D01*
X680315Y122804D01*
X680219Y122741D01*
X680126Y122674D01*
X680036Y122605D01*
X679947Y122532D01*
X679862Y122456D01*
X679779Y122377D01*
X679698Y122295D01*
X679621Y122211D01*
X679547Y122124D01*
X679475Y122034D01*
X679407Y121943D01*
X679342Y121848D01*
X679280Y121752D01*
X679222Y121653D01*
X679167Y121553D01*
X679115Y121451D01*
X679068Y121347D01*
X679023Y121241D01*
X678983Y121134D01*
X678946Y121026D01*
X678913Y120916D01*
X678883Y120806D01*
X678858Y120694D01*
X678836Y120582D01*
X678819Y120468D01*
X678805Y120355D01*
X678795Y120241D01*
X678789Y120126D01*
X678787Y120012D01*
X678787Y116696D01*
X676797Y127978D02*
X685419Y127978D01*
X676797Y127978D02*
X676683Y127980D01*
X676568Y127986D01*
X676454Y127996D01*
X676341Y128010D01*
X676227Y128027D01*
X676115Y128049D01*
X676003Y128074D01*
X675893Y128104D01*
X675783Y128137D01*
X675675Y128174D01*
X675568Y128214D01*
X675462Y128259D01*
X675358Y128306D01*
X675256Y128358D01*
X675156Y128413D01*
X675057Y128471D01*
X674961Y128533D01*
X674866Y128598D01*
X674775Y128666D01*
X674685Y128738D01*
X674598Y128812D01*
X674514Y128889D01*
X674432Y128970D01*
X674353Y129053D01*
X674277Y129138D01*
X674204Y129227D01*
X674135Y129317D01*
X674068Y129410D01*
X674005Y129506D01*
X673945Y129603D01*
X673888Y129703D01*
X673835Y129804D01*
X673785Y129907D01*
X673739Y130012D01*
X673696Y130118D01*
X673658Y130226D01*
X673623Y130335D01*
X673592Y130445D01*
X673564Y130556D01*
X673541Y130668D01*
X673521Y130781D01*
X673505Y130894D01*
X673493Y131008D01*
X673485Y131122D01*
X673481Y131237D01*
X673481Y131351D01*
X673485Y131466D01*
X673493Y131580D01*
X673505Y131694D01*
X673521Y131807D01*
X673541Y131920D01*
X673564Y132032D01*
X673592Y132143D01*
X673623Y132253D01*
X673658Y132362D01*
X673696Y132470D01*
X673739Y132576D01*
X673785Y132681D01*
X673835Y132784D01*
X673888Y132885D01*
X673945Y132985D01*
X674005Y133082D01*
X674068Y133178D01*
X674135Y133271D01*
X674204Y133361D01*
X674277Y133450D01*
X674353Y133535D01*
X674432Y133618D01*
X674514Y133699D01*
X674598Y133776D01*
X674685Y133850D01*
X674775Y133922D01*
X674866Y133990D01*
X674961Y134055D01*
X675057Y134117D01*
X675156Y134175D01*
X675256Y134230D01*
X675358Y134282D01*
X675462Y134329D01*
X675568Y134374D01*
X675675Y134414D01*
X675783Y134451D01*
X675893Y134484D01*
X676003Y134514D01*
X676115Y134539D01*
X676227Y134561D01*
X676341Y134578D01*
X676454Y134592D01*
X676568Y134602D01*
X676683Y134608D01*
X676797Y134610D01*
X685419Y134610D01*
X685419Y142343D02*
X673481Y142343D01*
X685419Y139027D02*
X685419Y145659D01*
X678124Y149794D02*
X678124Y157752D01*
X673481Y163050D02*
X673481Y168355D01*
X673481Y163050D02*
X685419Y163050D01*
X685419Y168355D01*
X680113Y167029D02*
X680113Y163050D01*
D12*
X52070Y202819D02*
X52070Y61341D01*
X4572Y61341D01*
X4572Y202819D01*
X52070Y202819D01*
D13*
X5080Y205359D02*
X5202Y205357D01*
X5324Y205351D01*
X5446Y205341D01*
X5567Y205328D01*
X5688Y205310D01*
X5808Y205289D01*
X5928Y205263D01*
X6046Y205234D01*
X6164Y205202D01*
X6281Y205165D01*
X6396Y205125D01*
X6510Y205081D01*
X6622Y205033D01*
X6733Y204982D01*
X6842Y204927D01*
X6950Y204869D01*
X7055Y204807D01*
X7158Y204742D01*
X7260Y204674D01*
X7359Y204602D01*
X7455Y204528D01*
X7550Y204450D01*
X7641Y204369D01*
X7731Y204286D01*
X7817Y204200D01*
X7900Y204110D01*
X7981Y204019D01*
X8059Y203924D01*
X8133Y203828D01*
X8205Y203729D01*
X8273Y203627D01*
X8338Y203524D01*
X8400Y203419D01*
X8458Y203311D01*
X8513Y203202D01*
X8564Y203091D01*
X8612Y202979D01*
X8656Y202865D01*
X8696Y202750D01*
X8733Y202633D01*
X8765Y202515D01*
X8794Y202397D01*
X8820Y202277D01*
X8841Y202157D01*
X8859Y202036D01*
X8872Y201915D01*
X8882Y201793D01*
X8888Y201671D01*
X8890Y201549D01*
X8888Y201427D01*
X8882Y201305D01*
X8872Y201183D01*
X8859Y201062D01*
X8841Y200941D01*
X8820Y200821D01*
X8794Y200701D01*
X8765Y200583D01*
X8733Y200465D01*
X8696Y200348D01*
X8656Y200233D01*
X8612Y200119D01*
X8564Y200007D01*
X8513Y199896D01*
X8458Y199787D01*
X8400Y199679D01*
X8338Y199574D01*
X8273Y199471D01*
X8205Y199369D01*
X8133Y199270D01*
X8059Y199174D01*
X7981Y199079D01*
X7900Y198988D01*
X7817Y198898D01*
X7731Y198812D01*
X7641Y198729D01*
X7550Y198648D01*
X7455Y198570D01*
X7359Y198496D01*
X7260Y198424D01*
X7158Y198356D01*
X7055Y198291D01*
X6950Y198229D01*
X6842Y198171D01*
X6733Y198116D01*
X6622Y198065D01*
X6510Y198017D01*
X6396Y197973D01*
X6281Y197933D01*
X6164Y197896D01*
X6046Y197864D01*
X5928Y197835D01*
X5808Y197809D01*
X5688Y197788D01*
X5567Y197770D01*
X5446Y197757D01*
X5324Y197747D01*
X5202Y197741D01*
X5080Y197739D01*
X4958Y197741D01*
X4836Y197747D01*
X4714Y197757D01*
X4593Y197770D01*
X4472Y197788D01*
X4352Y197809D01*
X4232Y197835D01*
X4114Y197864D01*
X3996Y197896D01*
X3879Y197933D01*
X3764Y197973D01*
X3650Y198017D01*
X3538Y198065D01*
X3427Y198116D01*
X3318Y198171D01*
X3210Y198229D01*
X3105Y198291D01*
X3002Y198356D01*
X2900Y198424D01*
X2801Y198496D01*
X2705Y198570D01*
X2610Y198648D01*
X2519Y198729D01*
X2429Y198812D01*
X2343Y198898D01*
X2260Y198988D01*
X2179Y199079D01*
X2101Y199174D01*
X2027Y199270D01*
X1955Y199369D01*
X1887Y199471D01*
X1822Y199574D01*
X1760Y199679D01*
X1702Y199787D01*
X1647Y199896D01*
X1596Y200007D01*
X1548Y200119D01*
X1504Y200233D01*
X1464Y200348D01*
X1427Y200465D01*
X1395Y200583D01*
X1366Y200701D01*
X1340Y200821D01*
X1319Y200941D01*
X1301Y201062D01*
X1288Y201183D01*
X1278Y201305D01*
X1272Y201427D01*
X1270Y201549D01*
X1272Y201671D01*
X1278Y201793D01*
X1288Y201915D01*
X1301Y202036D01*
X1319Y202157D01*
X1340Y202277D01*
X1366Y202397D01*
X1395Y202515D01*
X1427Y202633D01*
X1464Y202750D01*
X1504Y202865D01*
X1548Y202979D01*
X1596Y203091D01*
X1647Y203202D01*
X1702Y203311D01*
X1760Y203419D01*
X1822Y203524D01*
X1887Y203627D01*
X1955Y203729D01*
X2027Y203828D01*
X2101Y203924D01*
X2179Y204019D01*
X2260Y204110D01*
X2343Y204200D01*
X2429Y204286D01*
X2519Y204369D01*
X2610Y204450D01*
X2705Y204528D01*
X2801Y204602D01*
X2900Y204674D01*
X3002Y204742D01*
X3105Y204807D01*
X3210Y204869D01*
X3318Y204927D01*
X3427Y204982D01*
X3538Y205033D01*
X3650Y205081D01*
X3764Y205125D01*
X3879Y205165D01*
X3996Y205202D01*
X4114Y205234D01*
X4232Y205263D01*
X4352Y205289D01*
X4472Y205310D01*
X4593Y205328D01*
X4714Y205341D01*
X4836Y205351D01*
X4958Y205357D01*
X5080Y205359D01*
D10*
X58801Y69141D02*
X70739Y69141D01*
X58801Y67814D02*
X58801Y70467D01*
X70739Y70467D02*
X70739Y67814D01*
X70739Y75350D02*
X58801Y75350D01*
X58801Y81982D02*
X70739Y75350D01*
X70739Y81982D02*
X58801Y81982D01*
X58801Y87690D02*
X70739Y87690D01*
X70739Y91006D01*
X70737Y91120D01*
X70731Y91235D01*
X70721Y91349D01*
X70707Y91462D01*
X70690Y91576D01*
X70668Y91688D01*
X70643Y91800D01*
X70613Y91910D01*
X70580Y92020D01*
X70543Y92128D01*
X70503Y92235D01*
X70458Y92341D01*
X70411Y92445D01*
X70359Y92547D01*
X70304Y92647D01*
X70246Y92746D01*
X70184Y92842D01*
X70119Y92937D01*
X70051Y93028D01*
X69979Y93118D01*
X69905Y93205D01*
X69828Y93289D01*
X69747Y93371D01*
X69664Y93450D01*
X69579Y93526D01*
X69490Y93599D01*
X69400Y93668D01*
X69307Y93735D01*
X69211Y93798D01*
X69114Y93858D01*
X69014Y93915D01*
X68913Y93968D01*
X68810Y94018D01*
X68705Y94064D01*
X68599Y94107D01*
X68491Y94145D01*
X68382Y94180D01*
X68272Y94211D01*
X68161Y94239D01*
X68049Y94262D01*
X67936Y94282D01*
X67823Y94298D01*
X67709Y94310D01*
X67595Y94318D01*
X67480Y94322D01*
X67366Y94322D01*
X67251Y94318D01*
X67137Y94310D01*
X67023Y94298D01*
X66910Y94282D01*
X66797Y94262D01*
X66685Y94239D01*
X66574Y94211D01*
X66464Y94180D01*
X66355Y94145D01*
X66247Y94107D01*
X66141Y94064D01*
X66036Y94018D01*
X65933Y93968D01*
X65832Y93915D01*
X65732Y93858D01*
X65635Y93798D01*
X65539Y93735D01*
X65446Y93668D01*
X65356Y93599D01*
X65267Y93526D01*
X65182Y93450D01*
X65099Y93371D01*
X65018Y93289D01*
X64941Y93205D01*
X64867Y93118D01*
X64795Y93028D01*
X64727Y92937D01*
X64662Y92842D01*
X64600Y92746D01*
X64542Y92647D01*
X64487Y92547D01*
X64435Y92445D01*
X64388Y92341D01*
X64343Y92235D01*
X64303Y92128D01*
X64266Y92020D01*
X64233Y91910D01*
X64203Y91800D01*
X64178Y91688D01*
X64156Y91576D01*
X64139Y91462D01*
X64125Y91349D01*
X64115Y91235D01*
X64109Y91120D01*
X64107Y91006D01*
X64107Y87690D01*
X62117Y98971D02*
X70739Y98971D01*
X62117Y98972D02*
X62003Y98974D01*
X61888Y98980D01*
X61774Y98990D01*
X61661Y99004D01*
X61547Y99021D01*
X61435Y99043D01*
X61323Y99068D01*
X61213Y99098D01*
X61103Y99131D01*
X60995Y99168D01*
X60888Y99208D01*
X60782Y99253D01*
X60678Y99300D01*
X60576Y99352D01*
X60476Y99407D01*
X60377Y99465D01*
X60281Y99527D01*
X60186Y99592D01*
X60095Y99660D01*
X60005Y99732D01*
X59918Y99806D01*
X59834Y99883D01*
X59752Y99964D01*
X59673Y100047D01*
X59597Y100132D01*
X59524Y100221D01*
X59455Y100311D01*
X59388Y100404D01*
X59325Y100500D01*
X59265Y100597D01*
X59208Y100697D01*
X59155Y100798D01*
X59105Y100901D01*
X59059Y101006D01*
X59016Y101112D01*
X58978Y101220D01*
X58943Y101329D01*
X58912Y101439D01*
X58884Y101550D01*
X58861Y101662D01*
X58841Y101775D01*
X58825Y101888D01*
X58813Y102002D01*
X58805Y102116D01*
X58801Y102231D01*
X58801Y102345D01*
X58805Y102460D01*
X58813Y102574D01*
X58825Y102688D01*
X58841Y102801D01*
X58861Y102914D01*
X58884Y103026D01*
X58912Y103137D01*
X58943Y103247D01*
X58978Y103356D01*
X59016Y103464D01*
X59059Y103570D01*
X59105Y103675D01*
X59155Y103778D01*
X59208Y103879D01*
X59265Y103979D01*
X59325Y104076D01*
X59388Y104172D01*
X59455Y104265D01*
X59524Y104355D01*
X59597Y104444D01*
X59673Y104529D01*
X59752Y104612D01*
X59834Y104693D01*
X59918Y104770D01*
X60005Y104844D01*
X60095Y104916D01*
X60186Y104984D01*
X60281Y105049D01*
X60377Y105111D01*
X60476Y105169D01*
X60576Y105224D01*
X60678Y105276D01*
X60782Y105323D01*
X60888Y105368D01*
X60995Y105408D01*
X61103Y105445D01*
X61213Y105478D01*
X61323Y105508D01*
X61435Y105533D01*
X61547Y105555D01*
X61661Y105572D01*
X61774Y105586D01*
X61888Y105596D01*
X62003Y105602D01*
X62117Y105604D01*
X70739Y105604D01*
X70739Y113337D02*
X58801Y113337D01*
X70739Y116653D02*
X70739Y110020D01*
X63444Y120787D02*
X63444Y128746D01*
X58801Y134122D02*
X70739Y134122D01*
X64107Y138101D01*
X70739Y142081D01*
X58801Y142081D01*
X58801Y146695D02*
X70739Y150674D01*
X58801Y154654D01*
X61786Y153659D02*
X61786Y147690D01*
X58801Y162387D02*
X58803Y162489D01*
X58809Y162590D01*
X58819Y162691D01*
X58832Y162792D01*
X58850Y162892D01*
X58871Y162991D01*
X58896Y163090D01*
X58925Y163187D01*
X58957Y163284D01*
X58993Y163379D01*
X59033Y163472D01*
X59076Y163564D01*
X59123Y163654D01*
X59174Y163743D01*
X59227Y163829D01*
X59284Y163913D01*
X59344Y163995D01*
X59407Y164075D01*
X59473Y164152D01*
X59542Y164227D01*
X59614Y164299D01*
X59689Y164368D01*
X59766Y164434D01*
X59846Y164497D01*
X59928Y164557D01*
X60012Y164614D01*
X60098Y164667D01*
X60187Y164718D01*
X60277Y164765D01*
X60369Y164808D01*
X60462Y164848D01*
X60557Y164884D01*
X60654Y164916D01*
X60751Y164945D01*
X60850Y164970D01*
X60949Y164991D01*
X61049Y165009D01*
X61150Y165022D01*
X61251Y165032D01*
X61352Y165038D01*
X61454Y165040D01*
X58801Y162387D02*
X58803Y162240D01*
X58809Y162092D01*
X58818Y161945D01*
X58832Y161798D01*
X58849Y161652D01*
X58871Y161506D01*
X58896Y161360D01*
X58925Y161216D01*
X58957Y161072D01*
X58994Y160929D01*
X59034Y160787D01*
X59078Y160646D01*
X59126Y160507D01*
X59177Y160369D01*
X59232Y160232D01*
X59291Y160096D01*
X59353Y159962D01*
X59418Y159830D01*
X59487Y159700D01*
X59560Y159571D01*
X59635Y159445D01*
X59714Y159320D01*
X59797Y159198D01*
X59882Y159078D01*
X59971Y158960D01*
X60063Y158845D01*
X60157Y158731D01*
X60255Y158621D01*
X60356Y158513D01*
X60459Y158408D01*
X68086Y158739D02*
X68188Y158741D01*
X68289Y158747D01*
X68390Y158757D01*
X68491Y158770D01*
X68591Y158788D01*
X68690Y158809D01*
X68789Y158834D01*
X68886Y158863D01*
X68983Y158895D01*
X69078Y158931D01*
X69171Y158971D01*
X69263Y159014D01*
X69353Y159061D01*
X69442Y159112D01*
X69528Y159165D01*
X69612Y159222D01*
X69694Y159282D01*
X69774Y159345D01*
X69851Y159411D01*
X69926Y159480D01*
X69998Y159552D01*
X70067Y159627D01*
X70133Y159704D01*
X70196Y159784D01*
X70256Y159866D01*
X70313Y159950D01*
X70366Y160036D01*
X70417Y160125D01*
X70464Y160215D01*
X70507Y160307D01*
X70547Y160400D01*
X70583Y160495D01*
X70615Y160592D01*
X70644Y160689D01*
X70669Y160788D01*
X70690Y160887D01*
X70708Y160987D01*
X70721Y161088D01*
X70731Y161189D01*
X70737Y161290D01*
X70739Y161392D01*
X70737Y161531D01*
X70731Y161670D01*
X70721Y161809D01*
X70708Y161948D01*
X70690Y162086D01*
X70669Y162223D01*
X70644Y162360D01*
X70615Y162496D01*
X70582Y162631D01*
X70546Y162766D01*
X70505Y162899D01*
X70461Y163031D01*
X70414Y163162D01*
X70362Y163291D01*
X70307Y163419D01*
X70249Y163545D01*
X70187Y163670D01*
X70121Y163792D01*
X70053Y163913D01*
X69980Y164032D01*
X69905Y164149D01*
X69826Y164264D01*
X69744Y164376D01*
X65765Y160065D02*
X65817Y159980D01*
X65873Y159897D01*
X65931Y159816D01*
X65993Y159737D01*
X66057Y159661D01*
X66124Y159587D01*
X66194Y159515D01*
X66266Y159447D01*
X66341Y159380D01*
X66418Y159317D01*
X66498Y159257D01*
X66580Y159199D01*
X66664Y159145D01*
X66749Y159094D01*
X66837Y159046D01*
X66926Y159001D01*
X67017Y158960D01*
X67110Y158922D01*
X67204Y158888D01*
X67298Y158857D01*
X67395Y158829D01*
X67492Y158805D01*
X67589Y158785D01*
X67688Y158769D01*
X67787Y158756D01*
X67886Y158746D01*
X67986Y158741D01*
X68086Y158739D01*
X63775Y163713D02*
X63723Y163798D01*
X63667Y163881D01*
X63609Y163962D01*
X63547Y164041D01*
X63483Y164117D01*
X63416Y164191D01*
X63346Y164263D01*
X63274Y164331D01*
X63199Y164398D01*
X63122Y164461D01*
X63042Y164521D01*
X62960Y164579D01*
X62876Y164633D01*
X62791Y164684D01*
X62703Y164732D01*
X62614Y164777D01*
X62523Y164818D01*
X62430Y164856D01*
X62337Y164890D01*
X62242Y164921D01*
X62145Y164949D01*
X62048Y164973D01*
X61951Y164993D01*
X61852Y165009D01*
X61753Y165022D01*
X61654Y165032D01*
X61554Y165037D01*
X61454Y165039D01*
X63775Y163713D02*
X65765Y160065D01*
X70739Y172010D02*
X58801Y172010D01*
X70739Y168694D02*
X70739Y175326D01*
X58801Y179763D02*
X58801Y185069D01*
X58801Y179763D02*
X70739Y179763D01*
X70739Y185069D01*
X65433Y183742D02*
X65433Y179763D01*
X70739Y189714D02*
X58801Y189714D01*
X70739Y189714D02*
X70739Y193030D01*
X70737Y193144D01*
X70731Y193259D01*
X70721Y193373D01*
X70707Y193486D01*
X70690Y193600D01*
X70668Y193712D01*
X70643Y193824D01*
X70613Y193934D01*
X70580Y194044D01*
X70543Y194152D01*
X70503Y194259D01*
X70458Y194365D01*
X70411Y194469D01*
X70359Y194571D01*
X70304Y194671D01*
X70246Y194770D01*
X70184Y194866D01*
X70119Y194961D01*
X70051Y195052D01*
X69979Y195142D01*
X69905Y195229D01*
X69828Y195313D01*
X69747Y195395D01*
X69664Y195474D01*
X69579Y195550D01*
X69490Y195623D01*
X69400Y195692D01*
X69307Y195759D01*
X69211Y195822D01*
X69114Y195882D01*
X69014Y195939D01*
X68913Y195992D01*
X68810Y196042D01*
X68705Y196088D01*
X68599Y196131D01*
X68491Y196169D01*
X68382Y196204D01*
X68272Y196235D01*
X68161Y196263D01*
X68049Y196286D01*
X67936Y196306D01*
X67823Y196322D01*
X67709Y196334D01*
X67595Y196342D01*
X67480Y196346D01*
X67366Y196346D01*
X67251Y196342D01*
X67137Y196334D01*
X67023Y196322D01*
X66910Y196306D01*
X66797Y196286D01*
X66685Y196263D01*
X66574Y196235D01*
X66464Y196204D01*
X66355Y196169D01*
X66247Y196131D01*
X66141Y196088D01*
X66036Y196042D01*
X65933Y195992D01*
X65832Y195939D01*
X65732Y195882D01*
X65635Y195822D01*
X65539Y195759D01*
X65446Y195692D01*
X65356Y195623D01*
X65267Y195550D01*
X65182Y195474D01*
X65099Y195395D01*
X65018Y195313D01*
X64941Y195229D01*
X64867Y195142D01*
X64795Y195052D01*
X64727Y194961D01*
X64662Y194866D01*
X64600Y194770D01*
X64542Y194671D01*
X64487Y194571D01*
X64435Y194469D01*
X64388Y194365D01*
X64343Y194259D01*
X64303Y194152D01*
X64266Y194044D01*
X64233Y193934D01*
X64203Y193824D01*
X64178Y193712D01*
X64156Y193600D01*
X64139Y193486D01*
X64125Y193373D01*
X64115Y193259D01*
X64109Y193144D01*
X64107Y193030D01*
X64107Y189714D01*
X64107Y193693D02*
X58801Y196346D01*
D11*
X142240Y240030D02*
X142240Y354330D01*
X-1270Y354330D01*
X-1270Y240030D01*
X142240Y240030D01*
D14*
X143152Y234442D02*
X143152Y222758D01*
X143152Y234442D02*
X139906Y234442D01*
X139793Y234440D01*
X139680Y234434D01*
X139567Y234424D01*
X139454Y234410D01*
X139342Y234393D01*
X139231Y234371D01*
X139121Y234346D01*
X139011Y234316D01*
X138903Y234283D01*
X138796Y234246D01*
X138690Y234206D01*
X138586Y234161D01*
X138483Y234113D01*
X138382Y234062D01*
X138283Y234007D01*
X138186Y233949D01*
X138091Y233887D01*
X137998Y233822D01*
X137908Y233754D01*
X137820Y233683D01*
X137734Y233608D01*
X137651Y233531D01*
X137571Y233451D01*
X137494Y233368D01*
X137419Y233282D01*
X137348Y233194D01*
X137280Y233104D01*
X137215Y233011D01*
X137153Y232916D01*
X137095Y232819D01*
X137040Y232720D01*
X136989Y232619D01*
X136941Y232516D01*
X136896Y232412D01*
X136856Y232306D01*
X136819Y232199D01*
X136786Y232091D01*
X136756Y231981D01*
X136731Y231871D01*
X136709Y231760D01*
X136692Y231648D01*
X136678Y231535D01*
X136668Y231422D01*
X136662Y231309D01*
X136660Y231196D01*
X136662Y231083D01*
X136668Y230970D01*
X136678Y230857D01*
X136692Y230744D01*
X136709Y230632D01*
X136731Y230521D01*
X136756Y230411D01*
X136786Y230301D01*
X136819Y230193D01*
X136856Y230086D01*
X136896Y229980D01*
X136941Y229876D01*
X136989Y229773D01*
X137040Y229672D01*
X137095Y229573D01*
X137153Y229476D01*
X137215Y229381D01*
X137280Y229288D01*
X137348Y229198D01*
X137419Y229110D01*
X137494Y229024D01*
X137571Y228941D01*
X137651Y228861D01*
X137734Y228784D01*
X137820Y228709D01*
X137908Y228638D01*
X137998Y228570D01*
X138091Y228505D01*
X138186Y228443D01*
X138283Y228385D01*
X138382Y228330D01*
X138483Y228279D01*
X138586Y228231D01*
X138690Y228186D01*
X138796Y228146D01*
X138903Y228109D01*
X139011Y228076D01*
X139121Y228046D01*
X139231Y228021D01*
X139342Y227999D01*
X139454Y227982D01*
X139567Y227968D01*
X139680Y227958D01*
X139793Y227952D01*
X139906Y227950D01*
X139906Y227951D02*
X143152Y227951D01*
X132695Y234442D02*
X130099Y222758D01*
X127503Y230547D01*
X124906Y222758D01*
X122310Y234442D01*
X117339Y234442D02*
X117339Y222758D01*
X117339Y234442D02*
X114094Y234442D01*
X113981Y234440D01*
X113868Y234434D01*
X113755Y234424D01*
X113642Y234410D01*
X113530Y234393D01*
X113419Y234371D01*
X113309Y234346D01*
X113199Y234316D01*
X113091Y234283D01*
X112984Y234246D01*
X112878Y234206D01*
X112774Y234161D01*
X112671Y234113D01*
X112570Y234062D01*
X112471Y234007D01*
X112374Y233949D01*
X112279Y233887D01*
X112186Y233822D01*
X112096Y233754D01*
X112008Y233683D01*
X111922Y233608D01*
X111839Y233531D01*
X111759Y233451D01*
X111682Y233368D01*
X111607Y233282D01*
X111536Y233194D01*
X111468Y233104D01*
X111403Y233011D01*
X111341Y232916D01*
X111283Y232819D01*
X111228Y232720D01*
X111177Y232619D01*
X111129Y232516D01*
X111084Y232412D01*
X111044Y232306D01*
X111007Y232199D01*
X110974Y232091D01*
X110944Y231981D01*
X110919Y231871D01*
X110897Y231760D01*
X110880Y231648D01*
X110866Y231535D01*
X110856Y231422D01*
X110850Y231309D01*
X110848Y231196D01*
X110850Y231083D01*
X110856Y230970D01*
X110866Y230857D01*
X110880Y230744D01*
X110897Y230632D01*
X110919Y230521D01*
X110944Y230411D01*
X110974Y230301D01*
X111007Y230193D01*
X111044Y230086D01*
X111084Y229980D01*
X111129Y229876D01*
X111177Y229773D01*
X111228Y229672D01*
X111283Y229573D01*
X111341Y229476D01*
X111403Y229381D01*
X111468Y229288D01*
X111536Y229198D01*
X111607Y229110D01*
X111682Y229024D01*
X111759Y228941D01*
X111839Y228861D01*
X111922Y228784D01*
X112008Y228709D01*
X112096Y228638D01*
X112186Y228570D01*
X112279Y228505D01*
X112374Y228443D01*
X112471Y228385D01*
X112570Y228330D01*
X112671Y228279D01*
X112774Y228231D01*
X112878Y228186D01*
X112984Y228146D01*
X113091Y228109D01*
X113199Y228076D01*
X113309Y228046D01*
X113419Y228021D01*
X113530Y227999D01*
X113642Y227982D01*
X113755Y227968D01*
X113868Y227958D01*
X113981Y227952D01*
X114094Y227950D01*
X114094Y227951D02*
X117339Y227951D01*
X113445Y227951D02*
X110848Y222758D01*
M02*
