G04 EAGLE Gerber RS-274X export*
G75*
%MOMM*%
%FSLAX34Y34*%
%LPD*%
%INSoldermask Bottom*%
%IPPOS*%
%AMOC8*
5,1,8,0,0,1.08239X$1,22.5*%
G01*
%ADD10C,3.527000*%
%ADD11C,1.765300*%
%ADD12C,3.530600*%
%ADD13C,1.651000*%
%ADD14P,1.787026X8X22.500000*%
%ADD15C,1.447800*%
%ADD16C,1.346200*%
%ADD17C,0.652000*%


D10*
X31750Y31750D03*
X730250Y31750D03*
X730250Y476250D03*
X31750Y476250D03*
D11*
X622300Y266700D03*
X622300Y292100D03*
X622300Y317500D03*
X622300Y241300D03*
D12*
X708660Y228600D03*
X708660Y330200D03*
D13*
X149860Y109220D03*
D14*
X175260Y109220D03*
X200660Y109220D03*
X149860Y134620D03*
X175260Y134620D03*
X200660Y134620D03*
D11*
X99060Y373380D03*
X124460Y373380D03*
X149860Y373380D03*
D12*
X86360Y459740D03*
X162560Y459740D03*
D11*
X226060Y373380D03*
X251460Y373380D03*
X276860Y373380D03*
D12*
X213360Y459740D03*
X289560Y459740D03*
D11*
X353060Y373380D03*
X378460Y373380D03*
X403860Y373380D03*
D12*
X340360Y459740D03*
X416560Y459740D03*
D11*
X480060Y373380D03*
X505460Y373380D03*
X530860Y373380D03*
D12*
X467360Y459740D03*
X543560Y459740D03*
D11*
X607060Y373380D03*
X632460Y373380D03*
X657860Y373380D03*
D12*
X594360Y459740D03*
X670560Y459740D03*
D15*
X102489Y25400D03*
X122555Y25400D03*
X142367Y25400D03*
X162433Y25400D03*
X182499Y25400D03*
X202565Y25400D03*
X254889Y25400D03*
X274955Y25400D03*
X294767Y25400D03*
X314833Y25400D03*
X334899Y25400D03*
X354965Y25400D03*
X407289Y25400D03*
X427355Y25400D03*
X447167Y25400D03*
X467233Y25400D03*
X487299Y25400D03*
X507365Y25400D03*
X559689Y25400D03*
X579755Y25400D03*
X599567Y25400D03*
X619633Y25400D03*
X639699Y25400D03*
X659765Y25400D03*
X721360Y82169D03*
X721360Y102235D03*
X721360Y122047D03*
X721360Y142113D03*
X721360Y162179D03*
X721360Y182245D03*
X22860Y181991D03*
X22860Y161925D03*
X22860Y142113D03*
X22860Y122047D03*
X22860Y101981D03*
X22860Y81915D03*
D16*
X439420Y306324D02*
X439420Y318516D01*
X464820Y318516D02*
X464820Y306324D01*
X490220Y306324D02*
X490220Y318516D01*
X515620Y318516D02*
X515620Y306324D01*
X541020Y306324D02*
X541020Y318516D01*
X566420Y318516D02*
X566420Y306324D01*
D11*
X134620Y322580D03*
X134620Y297180D03*
X134620Y271780D03*
D12*
X48260Y335280D03*
X48260Y259080D03*
D17*
X306324Y124460D03*
X287020Y195580D03*
X304292Y78232D03*
X324556Y186136D03*
X350520Y335280D03*
X485140Y180340D03*
X325120Y175260D03*
X340360Y335280D03*
X502920Y172720D03*
X317500Y241300D03*
X121920Y139700D03*
X381762Y325628D03*
X429260Y332740D03*
X233680Y211892D03*
X233680Y202804D03*
X233934Y193716D03*
X233934Y184628D03*
X307340Y203200D03*
X360680Y220980D03*
X375920Y203200D03*
X374368Y213360D03*
X424180Y271780D03*
X360680Y210820D03*
M02*
