G04 EAGLE Gerber RS-274X export*
G75*
%MOMM*%
%FSLAX34Y34*%
%LPD*%
%INSolderpaste Top*%
%IPPOS*%
%AMOC8*
5,1,8,0,0,1.08239X$1,22.5*%
G01*
%ADD10R,1.500000X1.300000*%
%ADD11R,1.930400X5.334000*%
%ADD12R,1.300000X1.500000*%
%ADD13R,1.350000X2.000000*%
%ADD14R,0.558800X1.270000*%
%ADD15R,1.270000X0.558800*%
%ADD16R,0.304800X0.990600*%
%ADD17R,1.200000X1.200000*%
%ADD18R,1.600200X1.168400*%


D10*
X215900Y264820D03*
X215900Y283820D03*
X215900Y243180D03*
X215900Y224180D03*
X302260Y111100D03*
X302260Y92100D03*
X287020Y257200D03*
X287020Y276200D03*
X307340Y257200D03*
X307340Y276200D03*
X276860Y111100D03*
X276860Y92100D03*
D11*
X177800Y205740D03*
X177800Y302260D03*
D12*
X394360Y208280D03*
X413360Y208280D03*
D13*
X383110Y233680D03*
X424610Y233680D03*
D14*
X330260Y225806D03*
X322260Y225806D03*
X314260Y225806D03*
X306260Y225806D03*
X298260Y225806D03*
X290260Y225806D03*
X282260Y225806D03*
X274260Y225806D03*
D15*
X259334Y210880D03*
X259334Y202880D03*
X259334Y194880D03*
X259334Y186880D03*
X259334Y178880D03*
X259334Y170880D03*
X259334Y162880D03*
X259334Y154880D03*
D14*
X274260Y139954D03*
X282260Y139954D03*
X290260Y139954D03*
X298260Y139954D03*
X306260Y139954D03*
X314260Y139954D03*
X322260Y139954D03*
X330260Y139954D03*
D15*
X345186Y154880D03*
X345186Y162880D03*
X345186Y170880D03*
X345186Y178880D03*
X345186Y186880D03*
X345186Y194880D03*
X345186Y202880D03*
X345186Y210880D03*
D12*
X287680Y335280D03*
X306680Y335280D03*
D16*
X336210Y290862D03*
X342710Y290862D03*
X349210Y290862D03*
X355710Y290862D03*
X362210Y290862D03*
X368710Y290862D03*
X375210Y290862D03*
X381710Y290862D03*
X381710Y349218D03*
X375210Y349218D03*
X368710Y349218D03*
X362210Y349218D03*
X355710Y349218D03*
X349210Y349218D03*
X342710Y349218D03*
X336210Y349218D03*
X388210Y290862D03*
X394710Y290862D03*
X388210Y349218D03*
X394710Y349218D03*
X401210Y290862D03*
X407710Y290862D03*
X414210Y290862D03*
X420710Y290862D03*
X420710Y349218D03*
X414210Y349218D03*
X407710Y349218D03*
X401210Y349218D03*
D12*
X394360Y259080D03*
X413360Y259080D03*
D17*
X96520Y183220D03*
X96520Y162220D03*
D10*
X96520Y206400D03*
X96520Y225400D03*
D18*
X515620Y287020D03*
X515620Y271780D03*
M02*
